<?xml version="1.0" encoding="UTF-8" standalone="no"?>
<!-- Created with Inkscape (http://www.inkscape.org/) -->

<svg
   width="25.434608mm"
   height="22.172974mm"
   viewBox="0 0 25.434608 22.172974"
   version="1.1"
   id="svg283"
   xml:space="preserve"
   xmlns:inkscape="http://www.inkscape.org/namespaces/inkscape"
   xmlns:sodipodi="http://sodipodi.sourceforge.net/DTD/sodipodi-0.dtd"
   xmlns="http://www.w3.org/2000/svg"
   xmlns:svg="http://www.w3.org/2000/svg"><sodipodi:namedview
     id="namedview285"
     pagecolor="#505050"
     bordercolor="#eeeeee"
     borderopacity="1"
     inkscape:showpageshadow="0"
     inkscape:pageopacity="0"
     inkscape:pagecheckerboard="0"
     inkscape:deskcolor="#505050"
     inkscape:document-units="mm"
     showgrid="false" /><defs
     id="defs280" /><g
     inkscape:label="Calque 1"
     inkscape:groupmode="layer"
     id="layer1"
     transform="translate(-92.256838,-137.66955)"><g
       inkscape:label="Calque 1"
       id="layer1-6"
       transform="matrix(0.14534444,0,0,0.14534444,94.926578,133.34978)"><path
         d="M 49.031515,99.469772 C 36.836864,108.34076 25.745909,107.97166 16.131343,108.34076 6.5239839,108.70976 -12.328845,96.142503 1.347605,75.811467 15.02405,55.482264 37.944157,60.656842 57.166082,59.545945 76.388007,58.438652 90.064452,48.08769 106.33359,42.171318 c 16.26373,-5.914582 33.26747,1.109095 36.96385,17.374627 3.69458,16.265522 -14.41824,31.792883 -27.91104,34.747479 -13.48919,2.958169 -19.776468,14.416436 -19.776468,14.416436 7.396368,-7.02186 19.592828,-8.131 36.598358,-12.198256 17.00013,-4.06731 30.68197,-21.807415 21.43651,-44.360228 C 144.40474,29.602166 117.79004,24.800283 97.828122,34.409444 77.866198,44.01861 69.362535,48.456792 32.033184,48.825888 -5.3051686,49.194989 -37.468944,95.033413 -4.9360725,108.71164 27.594998,122.38988 49.031515,99.469772 49.031515,99.469772"
         style="fill:#542b20;fill-opacity:1;fill-rule:nonzero;stroke:none;stroke-width:0.180048"
         id="path53" /><path
         d="m 75.280709,147.15548 c 25.874701,-1.84545 42.878431,1.48003 42.878431,1.48003 0,0 -20.97919,-10.90374 -43.8957,-9.79644 -22.918311,1.10909 -42.050212,10.28614 -42.050212,10.28614 0,0 -0.921844,-21.09802 -12.381895,-36.25087 0,0 2.21819,22.08651 2.587286,33.91567 0.372725,11.82552 -1.294544,19.58921 -1.294544,19.58921 0,0 28.276536,-17.37644 54.156634,-19.22374"
         style="fill:#542b20;fill-opacity:1;fill-rule:nonzero;stroke:none;stroke-width:0.180048"
         id="path55" /><path
         d="m 129.621,170.07921 c 0,0 -3.11123,-15.90003 -4.66685,-29.20559 -1.55741,-13.30913 -0.0918,-42.698356 -0.0918,-42.698356 -9.7226,20.701926 -5.35283,61.180306 -5.35283,61.180306 0,0 -11.56269,-1.24954 -35.72873,0.18374 -29.529668,1.75548 -56.263196,20.64609 -58.911701,22.56539 1.548413,-1.07127 11.296212,-7.00205 43.704849,-12.02539 35.771932,-5.5455 61.047072,0 61.047072,0"
         style="fill:#542b20;fill-opacity:1;fill-rule:nonzero;stroke:none;stroke-width:0.180048"
         id="path57" /><path
         d="m 24.869074,182.1046 c -0.160257,0.1133 -0.234057,0.17098 -0.234057,0.17098 0,0 0.09003,-0.0669 0.234057,-0.17098"
         style="fill:#542b20;fill-opacity:1;fill-rule:nonzero;stroke:none;stroke-width:0.180048"
         id="path59" /></g></g></svg>
