<?xml version="1.0" encoding="UTF-8" standalone="no"?>
<!-- Created with Inkscape (http://www.inkscape.org/) -->

<svg
   width="23.945129mm"
   height="18.372849mm"
   viewBox="0 0 23.945129 18.372849"
   version="1.1"
   id="svg28990"
   xmlns:inkscape="http://www.inkscape.org/namespaces/inkscape"
   xmlns:sodipodi="http://sodipodi.sourceforge.net/DTD/sodipodi-0.dtd"
   xmlns="http://www.w3.org/2000/svg"
   xmlns:svg="http://www.w3.org/2000/svg">
  <sodipodi:namedview
     id="namedview28992"
     pagecolor="#505050"
     bordercolor="#eeeeee"
     borderopacity="1"
     inkscape:showpageshadow="0"
     inkscape:pageopacity="0"
     inkscape:pagecheckerboard="0"
     inkscape:deskcolor="#505050"
     inkscape:document-units="mm"
     showgrid="false" />
  <defs
     id="defs28987">
    <filter
       inkscape:collect="always"
       style="color-interpolation-filters:sRGB"
       id="filter26504"
       x="-0.08212027"
       y="-0.19743185"
       width="1.1642405"
       height="1.3948637">
      <feGaussianBlur
         inkscape:collect="always"
         stdDeviation="8.7703655"
         id="feGaussianBlur26506" />
    </filter>
  </defs>
  <g
     inkscape:label="Calque 1"
     inkscape:groupmode="layer"
     id="layer1"
     transform="translate(-89.929163,-142.89805)">
    <path
       style="fill:#000000;stroke-width:0.0798636"
       d="m 108.2578,160.50742 c -0.98541,-0.18667 -2.11335,-0.64644 -3.39419,-1.38355 -0.41986,-0.24161 -1.75296,-1.19133 -2.15414,-1.53462 l -0.27735,-0.23733 0.43708,-0.3774 c 0.24039,-0.20757 0.61366,-0.54345 0.82949,-0.7464 l 0.39241,-0.369 0.8854,0.72772 c 1.70444,1.4009 3.46219,2.41223 4.79378,2.75812 0.79876,0.20748 1.92353,0.22186 2.48643,0.0318 0.47192,-0.15936 0.88732,-0.41135 1.31492,-0.79767 0.37757,-0.3411 0.39908,-0.29633 0.0802,0.16709 -0.55332,0.80422 -1.52589,1.44742 -2.60652,1.7238 -0.72452,0.1853 -1.92211,0.20139 -2.78755,0.0375 z m -14.575071,-0.56533 c -1.063682,-0.22653 -2.264912,-0.97942 -2.797322,-1.75327 -0.33903,-0.49275 -0.29342,-0.56444 0.1098,-0.17255 0.97852,0.95101 2.474132,1.17193 4.145972,0.61239 1.99936,-0.66914 4.48207,-2.43177 6.828391,-4.84788 1.47381,-1.51766 1.81336,-2.18318 1.93689,-3.79634 0.0773,-1.00942 0.1421,-1.36489 0.32363,-1.77546 0.61481,-1.39046 3.18818,-2.92628 5.8086,-3.46665 0.55568,-0.11459 1.71347,-0.11152 2.10429,0.006 0.64551,0.1934 1.10628,0.92279 1.10628,1.75122 0,1.57268 -1.01663,3.98607 -2.40237,5.70303 -0.54782,0.67875 -0.85522,0.94006 -1.43068,1.21612 -0.39208,0.1881 -0.57357,0.21736 -1.67752,0.27047 -1.45714,0.0701 -1.74114,0.13098 -2.61155,0.5597 -0.50325,0.24787 -0.84537,0.50223 -1.47747,1.09845 -2.099,1.97986 -3.26935,2.85992 -4.855681,3.65134 -1.90264,0.94922 -3.6077,1.26408 -5.11126,0.94387 z m 5.59214,-5.27341 c -0.61584,-0.38352 -1.18594,-0.58176 -2.18508,-0.75981 -0.98103,-0.17482 -1.59843,-0.447 -2.08931,-0.92104 -0.62872,-0.60716 -5.071322,-5.36883 -5.071322,-5.43554 0,-0.0782 0.73794,-0.82078 0.81568,-0.82078 0.0283,0 0.26069,0.22377 0.51637,0.49727 0.58629,0.62716 1.50355,1.60149 2.980572,3.16603 0.63691,0.67464 1.17104,1.26159 1.18696,1.30432 0.0159,0.0427 0.14952,-0.0392 0.29689,-0.18201 l 0.26795,-0.2597 -1.17439,-1.2447 c -0.64591,-0.68459 -1.42641,-1.51332 -1.734432,-1.84162 -0.30803,-0.32831 -0.84602,-0.89544 -1.19555,-1.26031 l -0.6355,-0.66337 0.42148,-0.41683 0.42147,-0.41683 0.73314,0.77988 c 0.403232,0.42893 1.451912,1.54908 2.330412,2.4892 0.87849,0.94013 1.6332,1.71096 1.67713,1.71298 0.0439,0.002 0.18523,-0.0825 0.31401,-0.18775 l 0.23415,-0.1914 -0.55947,-0.58439 c -0.30771,-0.32142 -1.18358,-1.24926 -1.94638,-2.06187 -0.7628,-0.81261 -1.58551,-1.684 -1.828242,-1.93643 l -0.44133,-0.45896 0.39357,-0.39957 c 0.216452,-0.21976 0.415092,-0.39957 0.441412,-0.39957 0.0384,0 2.19278,2.27724 4.39057,4.64091 l 0.35938,0.38652 0.27049,-0.23259 0.27049,-0.23259 -0.71296,-0.74376 c -0.39213,-0.40906 -0.99902,-1.04854 -1.34865,-1.42106 -0.34962,-0.37251 -0.88956,-0.94753 -1.19986,-1.27781 -0.31031,-0.33028 -0.77506,-0.82624 -1.03278,-1.10214 l -0.4686,-0.50162 0.39088,-0.39684 c 0.21498,-0.21826 0.4313,-0.39684 0.4807,-0.39684 0.0494,0 0.24699,0.17071 0.43907,0.37936 0.35121,0.38151 2.37417,2.533 3.36037,3.57388 0.91252,0.9631 1.381821,1.49052 1.555301,1.74793 0.31208,0.46305 0.51276,1.15807 0.5871,2.03342 0.0799,0.94091 0.22632,1.50115 0.5705,2.18311 l 0.22907,0.45389 -0.89219,0.84389 c -0.49071,0.46414 -0.912291,0.84023 -0.936861,0.83576 -0.0246,-0.004 -0.24156,-0.13074 -0.48221,-0.28062 z"
       id="path195" />
    <path
       style="opacity:0.909;fill:#73a3d4;stroke-width:0.0825636"
       d="m 99.052559,154.51506 c -0.38599,-0.19803 -0.96187,-0.41905 -1.27974,-0.49115 -1.44123,-0.3269 -1.88844,-0.47487 -2.30818,-0.76375 -0.41371,-0.28473 -2.19066,-2.11189 -4.455892,-4.58182 l -1.05116,-1.14615 0.35394,-0.36063 c 0.19466,-0.19835 0.38132,-0.36063 0.4148,-0.36063 0.0491,0 2.14376,2.19172 4.367202,4.56949 l 0.37556,0.40163 0.2643,-0.22241 c 0.14537,-0.12232 0.26431,-0.25724 0.26431,-0.29982 0,-0.0426 -0.9567,-1.0842 -2.126,-2.31472 -1.169312,-1.23051 -2.214982,-2.34756 -2.323722,-2.48232 l -0.19772,-0.24502 0.3697,-0.3697 0.36969,-0.36968 1.768262,1.88352 c 0.97254,1.03595 2.03179,2.15979 2.35387,2.49743 l 0.58561,0.61389 0.30195,-0.18661 c 0.16607,-0.10264 0.30194,-0.21721 0.30194,-0.2546 0,-0.0374 -1.06396,-1.18985 -2.36436,-2.561 l -2.364362,-2.49298 0.38802,-0.38393 0.388022,-0.38392 0.40932,0.44106 c 1.44381,1.55571 4.25045,4.51717 4.30215,4.53946 0.0341,0.0147 0.19266,-0.073 0.3524,-0.19483 l 0.29043,-0.22152 -0.47376,-0.51477 c -0.26056,-0.28312 -1.319,-1.40916 -2.35208,-2.5023 -1.03307,-1.09315 -1.87831,-2.01707 -1.87831,-2.05317 0,-0.077 0.67123,-0.77366 0.74548,-0.77366 0.0477,0 3.92169,4.10271 4.86432,5.15154 0.24058,0.26769 0.529111,0.68698 0.641171,0.93176 0.19974,0.43628 0.42809,1.47326 0.43379,1.96993 0.004,0.38336 0.22989,1.17706 0.49816,1.75344 l 0.24124,0.51829 -0.63659,0.60647 c -0.35013,0.33355 -0.74805,0.69799 -0.88429,0.80985 l -0.247691,0.20338 z"
       id="path419" />
    <path
       style="opacity:0.909;fill:#ac9393;stroke-width:0.0825636"
       d="m 108.54736,160.51177 c -1.29111,-0.19086 -3.17178,-1.04548 -4.70612,-2.13856 -0.52222,-0.37204 -1.03366,-0.75863 -1.13655,-0.8591 l -0.18706,-0.18268 0.75261,-0.65734 c 0.41393,-0.36153 0.77924,-0.66744 0.81179,-0.6798 0.0325,-0.0124 0.46539,0.30034 0.96187,0.69489 1.80808,1.43687 3.41759,2.34636 4.74747,2.68266 0.5384,0.13615 0.85768,0.16448 1.55385,0.1379 0.92512,-0.0353 1.25748,-0.14436 1.89304,-0.62103 0.48232,-0.36174 0.39563,-0.11692 -0.13861,0.39145 -1.10524,1.05171 -2.7532,1.49756 -4.55229,1.23161 z"
       id="path421" />
    <path
       style="opacity:0.909;fill:#ffaaaa;stroke-width:0.0825636"
       d="m 93.727209,159.89773 c -0.27246,-0.0606 -0.643992,-0.17343 -0.825642,-0.25069 -0.48649,-0.20691 -1.36257,-0.79967 -1.6869,-1.14137 -0.30514,-0.32148 -0.29173,-0.52596 0.0156,-0.23727 0.66632,0.62598 2.147582,0.85126 3.449952,0.52469 1.98692,-0.49822 4.53628,-2.21002 7.014401,-4.7099 1.80303,-1.81887 2.04997,-2.28303 2.26989,-4.26658 0.14199,-1.28068 0.31601,-1.76953 0.83398,-2.34287 1.47989,-1.63806 4.87551,-2.98485 6.88836,-2.73211 0.70088,0.088 1.00267,0.28812 1.29017,0.85548 0.19831,0.39134 0.2112,0.48182 0.17241,1.21056 -0.0498,0.93611 -0.30606,1.80825 -0.88791,3.02211 -0.83707,1.74633 -1.91066,3.07891 -2.82118,3.50174 -0.46498,0.21593 -0.65992,0.25138 -1.80114,0.32753 -0.70386,0.047 -1.42835,0.12664 -1.60999,0.17706 -0.78599,0.21816 -1.58251,0.73647 -2.73593,1.78031 -1.44536,1.30803 -2.13941,1.87838 -2.91967,2.39927 -2.383581,1.59126 -4.834351,2.28524 -6.646361,1.88204 z"
       id="path492" />
    <path
       style="opacity:0.909;fill:#ffaaaa;stroke-width:0.0825636"
       d="m 99.029629,154.47379 c -0.35318,-0.17553 -1.12988,-0.44899 -1.726,-0.6077 -0.59611,-0.15871 -1.25457,-0.36322 -1.46322,-0.45447 -0.42045,-0.18387 -2.06607,-1.80815 -4.459052,-4.40122 l -1.35509,-1.46839 0.34205,-0.34205 0.34204,-0.34204 0.2968,0.28612 c 0.16324,0.15736 1.23051,1.27883 2.371702,2.49216 l 2.0749,2.20604 0.25133,-0.19313 c 0.13823,-0.10622 0.26144,-0.26299 0.2738,-0.34837 0.0152,-0.10527 -0.59056,-0.80622 -1.88236,-2.17803 -1.047662,-1.11255 -2.076662,-2.22015 -2.286682,-2.46134 l -0.38186,-0.43852 0.33033,-0.33033 0.33032,-0.33032 1.967352,2.08986 c 1.08205,1.14943 2.14222,2.27006 2.35593,2.49029 l 0.38859,0.40042 0.29937,-0.19401 c 0.16465,-0.1067 0.29847,-0.24974 0.29738,-0.31785 -0.002,-0.11608 -0.70493,-0.88628 -3.49772,-3.8317 l -1.148692,-1.21147 0.31917,-0.32686 c 0.175542,-0.17977 0.342642,-0.32685 0.371332,-0.32685 0.0287,0 1.08397,1.09602 2.34507,2.43561 1.26109,1.3396 2.33101,2.43563 2.37759,2.43563 0.16576,0 0.64893,-0.35075 0.62446,-0.45331 -0.0137,-0.0574 -1.00675,-1.15034 -2.20682,-2.42879 -1.20006,-1.27844 -2.23591,-2.40152 -2.30189,-2.49572 -0.1113,-0.1589 -0.0949,-0.196 0.22747,-0.5135 l 0.34744,-0.34222 0.55088,0.58963 c 0.30298,0.32429 1.29868,1.38316 2.21268,2.35305 0.914,0.96989 1.83671,1.96778 2.05047,2.21753 0.673991,0.78746 0.767031,1.04605 1.145151,3.18261 0.0647,0.36544 0.21865,0.90416 0.34217,1.19718 0.12352,0.29301 0.23021,0.59065 0.23709,0.66142 0.0119,0.12242 -1.561071,1.66104 -1.669561,1.63311 -0.0284,-0.007 -0.34073,-0.15695 -0.69392,-0.33247 z"
       id="path563" />
    <path
       style="opacity:0.909;fill:#ffaaaa;stroke-width:0.0825636"
       d="m 107.99376,160.34659 c -1.52019,-0.40852 -3.46113,-1.4417 -4.96972,-2.64542 l -0.44566,-0.35559 0.32182,-0.28085 c 0.177,-0.15446 0.51654,-0.4484 0.75454,-0.65318 l 0.43274,-0.37233 1.05341,0.78457 c 1.84103,1.37119 2.82731,1.95675 4.06697,2.41462 0.51294,0.18944 0.79273,0.23544 1.63005,0.26795 1.13046,0.0439 1.62071,-0.0403 2.11353,-0.36319 0.4588,-0.30054 0.45682,-0.18752 -0.004,0.20669 -0.92637,0.79313 -2.05635,1.16978 -3.48483,1.1616 -0.5909,-0.003 -1.06719,-0.0568 -1.46923,-0.16487 z"
       id="path565" />
    <path
       style="opacity:0.909;fill:#a6ffa6;fill-opacity:1;stroke-width:0.0825636"
       d="m 93.479519,159.78248 c -0.27246,-0.0793 -0.644002,-0.22141 -0.825642,-0.31567 -0.40898,-0.21226 -1.3916,-0.93008 -1.34161,-0.98007 0.0202,-0.0202 0.25603,0.066 0.52405,0.1915 0.45678,0.21394 0.55714,0.22824 1.601922,0.22824 1.32162,0 1.72146,-0.10919 3.21997,-0.87931 1.68551,-0.86622 3.30364,-2.14145 5.269021,-4.15244 1.49886,-1.53365 1.75555,-1.97159 1.96261,-3.34845 0.21292,-1.41589 0.34285,-2.03492 0.49709,-2.36834 0.21513,-0.46506 1.2245,-1.41457 1.9851,-1.86737 1.6099,-0.95841 3.2504,-1.4806 4.69351,-1.49401 1.07338,-0.01 1.41504,0.11392 1.76185,0.63887 0.20676,0.31297 0.21945,0.38865 0.21591,1.28746 -0.003,0.85767 -0.0312,1.03486 -0.27341,1.73931 -0.48176,1.40129 -1.39408,2.99597 -2.23143,3.90042 -0.85693,0.92558 -1.38965,1.15673 -2.8993,1.25803 -2.0114,0.13497 -2.526,0.35989 -4.23916,1.85291 -2.5055,2.18352 -3.33339,2.7858 -4.762581,3.46475 -1.54048,0.73181 -2.59653,1.00365 -3.86292,0.99433 -0.50053,-0.004 -0.98489,-0.0598 -1.29498,-0.15016 z"
       id="path567" />
    <path
       style="opacity:0.909;fill:#ffc05a;fill-opacity:1;stroke-width:0.0825636"
       d="m 99.052559,154.45173 c -0.34058,-0.15499 -1.19511,-0.45495 -1.89897,-0.66658 -0.70594,-0.21226 -1.39439,-0.4714 -1.53546,-0.57797 -0.67454,-0.50954 -2.16454,-2.03301 -5.268072,-5.38641 l -0.24978,-0.26989 0.30168,-0.30167 c 0.26943,-0.26944 0.31699,-0.28912 0.44502,-0.18421 0.0788,0.0646 1.12739,1.15776 2.33012,2.42924 1.202742,1.27148 2.220932,2.32516 2.262652,2.34151 0.0964,0.0378 0.55795,-0.39995 0.55795,-0.52921 0,-0.15937 -0.41457,-0.64036 -2.31417,-2.68489 -0.994382,-1.07025 -1.888962,-2.04888 -1.987952,-2.17472 l -0.17997,-0.22881 0.28781,-0.28781 0.28782,-0.28782 2.056442,2.16731 c 1.13104,1.19202 2.18647,2.31114 2.34541,2.48693 l 0.28897,0.31962 0.30961,-0.21313 c 0.17029,-0.11723 0.30961,-0.27915 0.30961,-0.35982 0,-0.17189 -1.13553,-1.4299 -4.2041,-4.65756 l -0.373682,-0.39305 0.31012,-0.30874 0.310112,-0.30874 0.55456,0.57853 c 3.42897,3.57721 4.0991,4.25143 4.22566,4.25143 0.17102,0 0.58092,-0.30302 0.58092,-0.42945 0,-0.10738 -0.13993,-0.26442 -2.51219,-2.81949 -1.04773,-1.12846 -1.93667,-2.1073 -1.97541,-2.17519 -0.05,-0.0875 0.009,-0.20536 0.20196,-0.4045 0.14983,-0.15459 0.29979,-0.28107 0.33325,-0.28107 0.0703,0 4.34362,4.54315 4.85369,5.16022 0.513581,0.6213 0.658291,0.99299 0.956971,2.45796 0.15026,0.73697 0.37218,1.5987 0.49315,1.91495 l 0.21994,0.57499 -0.77795,0.76667 c -0.42787,0.42167 -0.811371,0.76588 -0.852221,0.76491 -0.0408,-0.001 -0.35293,-0.12855 -0.6935,-0.28354 z"
       id="path3385" />
    <path
       style="opacity:0.909;fill:none;fill-opacity:0.689603;stroke-width:2.06726;filter:url(#filter26504)"
       d="m 569.07484,715.14807 c -19.42386,-5.54163 -50.77111,-19.66958 -74.05826,-33.37747 -19.3403,-11.38459 -51.9532,-34.42402 -54.45258,-38.46811 -1.64859,-2.66747 31.85134,-31.81902 35.1227,-30.56368 1.3747,0.52752 16.34948,11.05442 33.27729,23.3931 48.16476,35.10729 81.79934,53.04748 109.77203,58.55077 18.01233,3.54371 61.52889,1.87256 70.51242,-2.70786 9.44186,-4.81411 10.16403,-3.30939 1.56097,3.25248 -11.23709,8.57095 -30.55377,17.59325 -44.91355,20.9779 -19.34435,4.55954 -59.04921,4.01316 -76.82102,-1.05713 z"
       id="path9045"
       transform="matrix(0.03993871,0,0,0.03993871,85.140607,131.70181)" />
    <path
       style="opacity:0.909;fill:#acf6a5;fill-opacity:1;stroke-width:0.0825636"
       d="m 107.86872,160.26389 c -0.77577,-0.22132 -2.02774,-0.78557 -2.95779,-1.33305 -0.77243,-0.45468 -2.07495,-1.37485 -2.17477,-1.53636 -0.0658,-0.10654 1.2721,-1.27082 1.40275,-1.22068 0.0549,0.0211 0.65298,0.4415 1.32906,0.93429 1.92363,1.40214 3.26695,2.11865 4.38415,2.33844 0.71939,0.14153 2.45738,0.0748 2.81617,-0.10815 0.3771,-0.19227 0.40594,-0.13217 0.0624,0.1299 -0.4488,0.34231 -1.22028,0.70266 -1.79379,0.83783 -0.77259,0.1821 -2.35835,0.16029 -3.06813,-0.0422 z"
       id="path28247" />
    <path
       style="opacity:0.909;fill:#acf6a5;fill-opacity:1;stroke-width:0.0825636"
       d="m 93.257659,159.6576 c -0.303672,-0.10718 -0.816542,-0.37066 -1.139712,-0.58551 -0.59695,-0.39685 -0.73824,-0.58823 -0.23545,-0.31893 0.39371,0.21088 2.033162,0.25523 2.875762,0.0778 1.05473,-0.22211 2.97216,-1.26119 4.41814,-2.39424 1.713041,-1.34232 3.919361,-3.6144 4.336331,-4.46556 0.17859,-0.36458 0.30887,-0.87301 0.49336,-1.92551 0.13787,-0.78657 0.30528,-1.56078 0.372,-1.72048 0.58058,-1.38953 3.40739,-3.05067 5.81984,-3.41997 0.77546,-0.11872 1.77563,-0.0643 2.1202,0.11544 0.144,0.0751 0.34834,0.25785 0.4541,0.40612 0.17669,0.24772 0.19227,0.35321 0.19227,1.30161 0,1.14064 -0.0991,1.54424 -0.69963,2.84845 -0.75128,1.63166 -2.04215,3.26049 -2.89188,3.64897 -0.39098,0.17876 -1.11425,0.3126 -2.14665,0.39725 -1.71852,0.14091 -2.15631,0.36774 -4.37586,2.26729 -2.21921,1.89925 -3.103301,2.50628 -4.664841,3.20296 -1.2471,0.55639 -2.16373,0.76305 -3.37505,0.76094 -0.83783,-0.002 -1.09073,-0.0335 -1.55293,-0.19662 z"
       id="path28732" />
    <path
       style="opacity:0.909;fill:#febe62;fill-opacity:1;stroke-width:0.0825636"
       d="m 107.9114,160.22475 c -1.01997,-0.27478 -2.61643,-1.06879 -3.9094,-1.94438 -1.40962,-0.95459 -1.3721,-0.86124 -0.60824,-1.51301 0.3508,-0.29931 0.66399,-0.54419 0.69599,-0.54419 0.032,0 0.63008,0.40666 1.32906,0.90369 1.50629,1.07111 2.79729,1.82951 3.63523,2.13554 0.5746,0.20985 0.68835,0.22202 2.07504,0.22202 1.25541,0 1.44603,0.0162 1.32101,0.11262 -0.23882,0.18407 -0.99695,0.51724 -1.45379,0.63888 -0.56687,0.15093 -2.5093,0.1439 -3.0849,-0.0112 z"
       id="path28945" />
  </g>
</svg>
