<?xml version="1.0" encoding="UTF-8" standalone="no"?>
<!-- Created with Inkscape (http://www.inkscape.org/) -->

<svg
   width="141.79283mm"
   height="158.77223mm"
   viewBox="0 0 141.79283 158.77223"
   version="1.1"
   id="svg2222"
   xmlns:inkscape="http://www.inkscape.org/namespaces/inkscape"
   xmlns:sodipodi="http://sodipodi.sourceforge.net/DTD/sodipodi-0.dtd"
   xmlns="http://www.w3.org/2000/svg"
   xmlns:svg="http://www.w3.org/2000/svg">
  <sodipodi:namedview
     id="namedview2224"
     pagecolor="#505050"
     bordercolor="#eeeeee"
     borderopacity="1"
     inkscape:showpageshadow="0"
     inkscape:pageopacity="0"
     inkscape:pagecheckerboard="0"
     inkscape:deskcolor="#505050"
     inkscape:document-units="mm"
     showgrid="false" />
  <defs
     id="defs2219" />
  <g
     inkscape:label="Calque 1"
     inkscape:groupmode="layer"
     id="layer1"
     transform="translate(-31.74334,-51.607947)">
    <path
       d="m 134.35874,199.09775 c 0,1.98584 -2.70626,3.55351 -9.12945,5.00542 -4.42323,1.00026 -12.01447,-0.31194 -18.49602,0.26004 -6.48155,0.5711 -14.570007,3.0733 -22.303097,3.0733 -26.695306,0 -46.744305,-3.61646 -46.744305,-8.33876 0,-4.72252 21.640388,-8.55022 48.336433,-8.55022 26.695309,0 48.336439,3.8277 48.336439,8.55022"
       style="fill:#ffffff;fill-opacity:1;fill-rule:nonzero;stroke:none;stroke-width:0.0738807"
       id="path39" />
    <path
       d="m 82.351909,207.42926 c 0,0 15.053928,-2.05247 20.178291,-6.3006 5.65631,-4.69003 12.6203,3.29663 23.59527,2.76475 0,0 -13.46992,2.621 -20.68511,3.21669 -7.215187,0.59475 -23.088451,0.31916 -23.088451,0.31916"
       style="fill:#fbdd69;fill-opacity:1;fill-rule:nonzero;stroke:none;stroke-width:0.0738807"
       id="path41" />
    <path
       d="m 94.093766,58.79383 c -5.893463,0.630203 -9.695361,3.795989 -10.86637,9.995317 -0.493524,2.61242 0.02073,5.278774 0.921292,7.910405 0.684874,2.000688 2.112247,3.303204 1.645322,5.252176 -0.419642,1.753929 -2.126287,3.030587 -2.472048,4.878342 -0.218687,1.172486 0.375315,1.846279 -0.01696,3.027629 -0.496479,1.493868 -2.361227,2.903512 -3.526326,3.948185 -6.212625,5.566905 -6.395112,11.834946 -3.593556,19.614586 2.998078,8.32487 11.325909,15.17434 20.002455,16.97926 6.073725,1.26409 10.935815,-3.50418 16.854385,-3.4288 3.64085,0.045 7.11915,0.40337 10.77698,-0.11749 3.69108,-0.52601 5.71468,-2.77864 8.94695,-4.2932 7.61415,-3.56696 16.81746,-0.47062 23.87751,-6.05156 6.26285,-4.95296 8.22366,-15.56518 4.33456,-22.583849 -3.11332,-5.618625 -8.93585,-10.228778 -15.28813,-11.379101 -2.8636,-0.518642 -6.2311,-0.229031 -8.46376,-2.426242 -1.68818,-1.661576 -1.58326,-3.790818 -2.58582,-5.859476 -2.20387,-4.549572 -6.89898,-3.621631 -9.75152,-7.03492 -2.49642,-2.987733 -3.1377,-7.006842 -5.79816,-10.004182 -5.80555,-6.539917 -17.49862,-8.114314 -23.318204,-0.672314 -0.58809,0.751366 -1.063882,1.200561 -1.678569,2.245234"
       style="fill:#4f2d1f;fill-opacity:1;fill-rule:nonzero;stroke:none;stroke-width:0.0738807"
       id="path43" />
    <path
       d="M 137.80528,92.351172 C 105.68491,75.342363 73.229123,97.565677 55.175641,129.54345 l 24.128691,18.34088 c 1.67709,-2.7986 3.378563,-5.41621 5.053438,-7.674 2.79786,4.95222 7.148694,8.53618 7.148694,8.53618 l 2.709205,35.21671 h 71.171471 c 0,0 9.25504,-72.10534 -27.58186,-91.612048"
       style="fill:#567965;fill-opacity:1;fill-rule:nonzero;stroke:none;stroke-width:0.0738807"
       id="path45" />
    <path
       d="m 166.40669,162.04717 c -32.50823,-6.01897 -39.02303,-33.19895 -39.02303,-33.19895 l -2.90794,0.11309 5.39256,-40.238374 c 0.0821,-0.606562 -0.34356,-1.16436 -0.95086,-1.244891 -0.60655,-0.0894 -1.16436,0.344285 -1.24488,0.950845 l -5.44427,40.6196 -35.265468,1.37197 5.815148,-37.91114 c 0.09309,-0.605083 -0.32212,-1.171009 -0.927203,-1.26336 -0.602864,-0.09382 -1.171007,0.32212 -1.263359,0.927203 l -5.880162,38.334457 -2.717332,0.10639 c 0.345761,6.93592 2.68778,9.86972 2.68778,9.86972 l -0.02808,0.21944 c 2.798599,4.69289 6.856866,8.04338 6.856866,8.04338 l 2.709204,35.21671 h 71.171476 c 0,0 1.17913,-9.20103 1.01955,-21.91605"
       style="fill:#e8572e;fill-opacity:1;fill-rule:nonzero;stroke:none;stroke-width:0.0738807"
       id="path47" />
    <path
       d="m 133.8534,147.07236 c -1.2375,-1.16805 -5.11403,-0.67305 -6.35448,-3.94004 -0.93165,-2.45432 0.42556,-4.98473 -0.0555,-7.38142 -0.53121,-2.64935 -1.51677,-4.14472 -0.0599,-6.90268 2.08196,-3.93636 6.22371,-5.03939 10.41128,-5.67032 4.92784,-0.74326 10.29232,-0.90874 14.80569,1.64975 2.8902,1.63718 7.27207,4.80371 9.05998,7.62227 1.58474,2.4979 -0.18681,4.38334 -0.22459,6.86572 -0.0406,2.72029 1.78642,5.25365 -0.39083,7.86977 -2.41001,2.89539 -8.96618,2.01547 -12.38536,1.85736 -4.26809,-0.19791 -9.81136,0.12565 -13.58001,-1.75466 -0.46176,0.11519 -0.0473,0.23938 -1.22642,-0.21575"
       style="fill:#364e3e;fill-opacity:1;fill-rule:nonzero;stroke:none;stroke-width:0.0738807"
       id="path49" />
    <path
       d="m 102.5302,147.74986 c -4.013199,0.045 -11.023736,0.99665 -11.023736,0.99665 0,0 -8.372897,-6.89529 -9.357727,-14.77614 -0.985567,-7.8801 2.955227,-16.49976 2.955227,-20.68659"
       style="fill:none;stroke:#364e3e;stroke-width:0.738807;stroke-linecap:round;stroke-linejoin:round;stroke-miterlimit:10;stroke-dasharray:none;stroke-opacity:1"
       id="path51" />
    <path
       d="M 173.53618,184.70203 H 49.663402 v -5.78781 H 173.53618 v 5.78781"
       style="fill:#4f2d1f;fill-opacity:1;fill-rule:nonzero;stroke:none;stroke-width:0.0738807"
       id="path53" />
    <path
       d="m 84.113963,138.81547 c -0.907254,-3.43988 -1.731763,-6.91228 -1.833717,-10.57823 -3.316505,-4.06788 -8.046345,-7.26617 -12.463672,-8.93143 -4.961825,-1.86992 -13.166275,-3.30099 -14.522725,3.13991 -0.693001,3.29213 -7.080723,11.00159 -1.723637,13.05178 4.012462,0.62872 7.574987,5.54251 10.63808,7.58016 3.688124,2.45134 9.226219,7.66363 13.847455,7.69762 3.873564,0.0289 3.86987,-3.68518 5.805544,-6.11068 0.683397,-0.85701 1.255234,-1.53155 1.702211,-2.18835 -0.587351,-1.22049 -1.128157,-2.441 -1.449539,-3.66078"
       style="fill:#364e3e;fill-opacity:1;fill-rule:nonzero;stroke:none;stroke-width:0.0738807"
       id="path55" />
    <path
       d="m 79.756482,147.46617 c -3.64084,-10.18742 -12.914343,-16.60248 -24.328908,-17.99587 -8.279069,14.66309 -13.521644,31.37343 -14.323986,47.2962 -0.132985,0.18555 -0.249717,0.38262 -0.339852,0.59711 -2.459487,1.82012 -5.223364,3.57138 -7.565382,5.48534 -2.587302,2.11453 -1.09491,3.38381 -0.300693,6.07608 0.71812,2.43956 -0.53933,6.31452 2.14845,7.45442 1.054278,0.44853 2.738017,0.29789 3.679996,0.50683 1.526375,0.33764 2.186868,0.60604 3.887602,0.41816 2.786778,-0.30794 5.296506,1.20286 7.939957,-0.69433 2.050927,1.89807 4.360436,2.2903 6.586462,0.57774 1.428852,-1.09927 3.944488,-3.07269 4.503026,-4.85536 0.425553,-1.35955 -0.0724,-2.81122 0.05393,-4.39243 0.158849,-1.99765 1.192436,-3.42044 1.544107,-5.34969 0.127813,-0.70017 0.124127,-1.32669 0.0325,-1.89926 1.035069,-2.46029 8.485935,-19.96713 16.48278,-33.22494"
       style="fill:#fbc6ac;fill-opacity:1;fill-rule:nonzero;stroke:none;stroke-width:0.0738807"
       id="path57" />
    <path
       d="m 58.741861,177.97888 c 0,0 -9.344429,-7.68964 -17.334625,-5.21375 -0.127812,1.33789 -0.236416,2.67292 -0.303648,4.00137 0,0 12.466624,-1.24992 17.638273,1.21238"
       style="fill:#ef9876;fill-opacity:1;fill-rule:nonzero;stroke:none;stroke-width:0.0738807"
       id="path59" />
    <path
       d="m 55.427574,129.4703 c -0.614687,1.08901 -1.210166,2.19205 -1.790869,3.30247 0.08865,0.0168 17.182431,3.08674 23.774064,18.72505 0.772793,-1.3727 1.556666,-2.72324 2.345713,-4.03165 -3.64084,-10.18742 -12.914343,-16.60248 -24.328908,-17.99587"
       style="fill:#ef9876;fill-opacity:1;fill-rule:nonzero;stroke:none;stroke-width:0.0738807"
       id="path61" />
    <path
       d="m 50.553666,196.61011 4.001376,-9.12287"
       style="fill:none;stroke:#ef9876;stroke-width:0.738807;stroke-linecap:round;stroke-linejoin:round;stroke-miterlimit:10;stroke-dasharray:none;stroke-opacity:1"
       id="path63" />
    <path
       d="M 44.446687,197.31426 V 186.72192"
       style="fill:none;stroke:#ef9876;stroke-width:0.738807;stroke-linecap:round;stroke-linejoin:round;stroke-miterlimit:10;stroke-dasharray:none;stroke-opacity:1"
       id="path65" />
    <path
       d="m 38.726107,196.88628 -1.040239,-9.39904"
       style="fill:none;stroke:#ef9876;stroke-width:0.738807;stroke-linecap:round;stroke-linejoin:round;stroke-miterlimit:10;stroke-dasharray:none;stroke-opacity:1"
       id="path67" />
    <path
       d="m 51.141016,189.30774 0.786092,4.1705"
       style="fill:none;stroke:#ef9876;stroke-width:0.738807;stroke-linecap:round;stroke-linejoin:round;stroke-miterlimit:10;stroke-dasharray:none;stroke-opacity:1"
       id="path69" />
    <path
       d="m 60.571886,180.69917 c -4.565087,0 -8.26651,3.70068 -8.26651,8.26569 0,4.56502 3.701423,8.26569 8.26651,8.26569 H 116.55349 V 180.69917 H 60.571886"
       style="fill:#edae4a;fill-opacity:1;fill-rule:nonzero;stroke:none;stroke-width:0.0738807"
       id="path71" />
    <path
       d="m 52.541795,187.03155 c -0.148504,0.62135 -0.236419,1.26611 -0.236419,1.93331 0,4.56502 3.701423,8.26569 8.26651,8.26569 h 55.981604 v -3.86691 H 60.571886 c -3.898685,0 -7.157562,-2.70151 -8.030091,-6.33209"
       style="fill:#d48825;fill-opacity:1;fill-rule:nonzero;stroke:none;stroke-width:0.0738807"
       id="path73" />
    <path
       d="m 124.81926,188.96486 c 0,4.56502 -3.69994,8.26569 -8.26577,8.26569 -4.56508,0 -8.26577,-3.70067 -8.26577,-8.26569 0,-4.56501 3.70069,-8.26569 8.26577,-8.26569 4.56583,0 8.26577,3.70068 8.26577,8.26569"
       style="fill:#fbdd69;fill-opacity:1;fill-rule:nonzero;stroke:none;stroke-width:0.0738807"
       id="path75" />
    <path
       d="m 157.41247,145.71518 c -7.5e-4,-7.3e-4 -0.001,-0.001 -0.002,-0.002 -8.15126,-8.31675 -26.64877,-4.2474 -26.64877,-4.2474 -7.4e-4,0 -7.4e-4,0 -7.4e-4,0 0.0783,14.35716 -1.16878,27.86115 -3.43324,36.57537 -6.64926,4.80225 -10.95354,4.50814 -10.56788,10.48818 0.59399,9.2062 4.2016,11.42638 9.34369,10.66386 1.71402,-0.25481 2.21716,-0.0473 3.99546,0.40405 1.40225,0.35619 3.14067,0.51001 4.25997,-0.58669 1.98738,0.94428 5.13766,1.0678 6.74898,-0.78526 2.67745,3.06086 7.50037,-2.92693 6.64927,-5.71453 -0.57184,-1.87532 -1.78201,-1.8233 -0.27852,-3.90556 1.77092,-2.45195 3.3985,-5.82297 2.62793,-8.94532 3.81815,-11.22321 7.63926,-23.1749 7.30607,-33.94448"
       style="fill:#fbc6ac;fill-opacity:1;fill-rule:nonzero;stroke:none;stroke-width:0.0738807"
       id="path77" />
    <path
       d="m 157.41025,145.71296 c -8.15126,-8.31675 -26.64877,-4.2474 -26.64877,-4.2474 -7.3e-4,0 -7.3e-4,0 -7.3e-4,0 0.006,1.27666 -7.4e-4,2.54224 -0.0147,3.80265 4.48382,-0.20983 19.31684,-0.47726 26.59926,4.59982 0.0827,-1.40079 0.10869,-2.78605 0.0666,-4.15285 -7.6e-4,-7.3e-4 -0.001,-0.001 -0.002,-0.002"
       style="fill:#ef9876;fill-opacity:1;fill-rule:nonzero;stroke:none;stroke-width:0.0738807"
       id="path79" />
    <path
       d="m 144.47006,177.91453 c 0,0 -8.42536,-5.22419 -16.08458,-4.69807 -0.3236,1.72896 -0.67453,3.35056 -1.05797,4.82448 0,0 11.50617,-1.87154 17.14255,-0.1265"
       style="fill:#ef9876;fill-opacity:1;fill-rule:nonzero;stroke:none;stroke-width:0.0738807"
       id="path81" />
    <path
       d="m 126.62195,199.12634 c 0,0 -3.23449,-5.13958 -3.6039,-8.34098"
       style="fill:none;stroke:#ef9876;stroke-width:0.738807;stroke-linecap:round;stroke-linejoin:round;stroke-miterlimit:10;stroke-dasharray:none;stroke-opacity:1"
       id="path83" />
    <path
       d="m 134.35874,199.01034 c 0,0 -3.39408,-5.39298 -3.61202,-8.22498"
       style="fill:none;stroke:#ef9876;stroke-width:0.738807;stroke-linecap:round;stroke-linejoin:round;stroke-miterlimit:10;stroke-dasharray:none;stroke-opacity:1"
       id="path85" />
    <path
       d="m 141.10773,198.22507 -3.31353,-7.43971"
       style="fill:none;stroke:#ef9876;stroke-width:0.738807;stroke-linecap:round;stroke-linejoin:round;stroke-miterlimit:10;stroke-dasharray:none;stroke-opacity:1"
       id="path87" />
    <path
       d="m 146.78842,189.92472 -1.60617,2.0649"
       style="fill:none;stroke:#ef9876;stroke-width:0.738807;stroke-linecap:round;stroke-linejoin:round;stroke-miterlimit:10;stroke-dasharray:none;stroke-opacity:1"
       id="path89" />
    <path
       d="m 144.47006,189.92472 0.71219,3.19969"
       style="fill:none;stroke:#ef9876;stroke-width:0.738807;stroke-linecap:round;stroke-linejoin:round;stroke-miterlimit:10;stroke-dasharray:none;stroke-opacity:1"
       id="path91" />
    <path
       d="m 126.62195,87.972264 c -3.58469,-0.928678 -7.15165,-1.403731 -10.68093,-1.475396 l -1.84332,-8.808055 h -11.72043 l 0.61025,10.357333 c -2.9604,0.764665 -5.87425,1.788651 -8.725307,3.066787 -0.01026,0.04138 -5.809238,23.760757 10.942467,24.683527 16.76574,0.92351 23.48076,-19.262894 21.41727,-27.824196"
       style="fill:#fbc6ac;fill-opacity:1;fill-rule:nonzero;stroke:none;stroke-width:0.0738807"
       id="path93" />
    <path
       d="m 114.81433,81.1154 v 0 l -0.71663,-3.426587 h -11.72043 l 0.61025,10.357333 c -0.0754,0.01989 -0.14997,0.04358 -0.22533,0.06354 v 4.968477 c 9.23508,-1.967442 12.05214,-11.96276 12.05214,-11.96276"
       style="fill:#ef9876;fill-opacity:1;fill-rule:nonzero;stroke:none;stroke-width:0.0738807"
       id="path95" />
    <path
       d="m 120.40786,73.323204 c -0.13006,-1.148844 -0.79718,-2.095994 -1.71551,-2.650837 -0.64204,1.042455 -1.3779,2.020636 -1.48648,3.36822 -0.94051,-0.650151 -2.18391,-1.362361 -3.24928,-1.83372 -2.35457,-1.043194 -5.48639,-1.685957 -8.05521,-1.450278 -3.03133,0.277793 -8.260603,0.652367 -9.131656,-3.337189 -1.197606,0.491306 -2.618332,2.792689 -3.181302,3.945966 -0.540068,1.110427 -0.959711,2.410727 -1.292174,3.648229 0.291091,6.423925 5.524798,11.595571 12.041072,11.698267 5.86465,0.09236 10.82575,-3.951879 12.11939,-9.436042 0.2608,0.02882 0.52604,0.03545 0.79718,0.0052 1.96374,-0.22238 3.37634,-1.994039 3.15397,-3.957788"
       style="fill:#fbc6ac;fill-opacity:1;fill-rule:nonzero;stroke:none;stroke-width:0.0738807"
       id="path97" />
    <path
       d="m 98.362591,75.877998 c 0.03768,0.574053 -0.397479,1.069792 -0.97227,1.107472 -0.574052,0.03768 -1.069792,-0.39674 -1.107472,-0.971531 -0.03767,-0.574052 0.39748,-1.069792 0.971532,-1.107472 0.574054,-0.03841 1.069791,0.39674 1.10821,0.971531"
       style="fill:#291f22;fill-opacity:1;fill-rule:nonzero;stroke:none;stroke-width:0.0738807"
       id="path99" />
    <path
       d="m 108.71402,75.199035 c 0.0369,0.574052 -0.39749,1.069791 -0.97227,1.107471 -0.57332,0.03694 -1.0698,-0.39674 -1.10748,-0.971531 -0.0377,-0.574052 0.39674,-1.070531 0.97154,-1.108209 0.57405,-0.03768 1.07053,0.397477 1.10821,0.972269"
       style="fill:#291f22;fill-opacity:1;fill-rule:nonzero;stroke:none;stroke-width:0.0738807"
       id="path101" />
    <path
       d="m 100.70609,82.188886 c 0,0 2.1056,1.108211 3.64822,-0.510516"
       style="fill:none;stroke:#ef9876;stroke-width:0.724795;stroke-linecap:round;stroke-linejoin:round;stroke-miterlimit:10;stroke-dasharray:none;stroke-opacity:1"
       id="path103" />
    <path
       d="m 151.93865,192.7299 c -0.74693,0.0829 -3.19977,0.63692 -3.27883,-0.72929 -0.0473,-0.8089 1.72215,-0.66492 2.29252,-0.65221 -0.25194,-0.33393 -0.7462,-1.63809 -0.18241,-1.80808 0.29257,-0.0877 1.0144,0.45599 1.25006,0.59192 0.2933,0.17048 0.51347,0.42859 0.78462,0.60436 0.38861,-0.46611 1.00551,-1.47534 1.67634,-1.53303 0.80679,-0.0687 0.42778,0.94051 0.3177,1.38667 0.37458,-0.53098 1.55815,-1.17256 1.13628,-0.0304 -0.26302,0.7114 -0.85701,1.15031 -1.51381,1.46719 -0.77131,0.37087 -1.62611,0.42629 -2.48238,0.70275"
       style="fill:#567965;fill-opacity:1;fill-rule:nonzero;stroke:none;stroke-width:0.0738807"
       id="path105" />
    <path
       d="m 152.32356,191.71403 c -1.90538,0.78012 -3.19978,2.84878 -2.71215,5.11108 0.51569,2.39298 3.72654,3.4112 5.67403,4.36989 4.78303,2.35694 4.98621,-6.12167 2.73359,-8.52657 -1.71404,-1.83002 -3.7199,-1.01586 -5.69547,-0.9544"
       style="fill:#e8572e;fill-opacity:1;fill-rule:nonzero;stroke:none;stroke-width:0.0738807"
       id="path107" />
    <path
       d="m 156.03311,201.48386 c 4.04792,1.14604 4.11442,-6.5436 1.98519,-8.81543 -1.12301,-1.19827 -2.37085,-1.26173 -3.65268,-1.14575 1.13333,0.4684 2.03099,0.97465 2.71807,2.13302 0.81417,1.36885 0.76763,3.45075 0.42334,4.93876 -0.25268,1.08688 -0.96784,1.94026 -1.47392,2.8894"
       style="fill:#d34226;fill-opacity:1;fill-rule:nonzero;stroke:none;stroke-width:0.0738807"
       id="path109" />
    <path
       d="m 151.15404,194.4381 c 0.0147,0.18618 -0.0792,0.69062 0.0901,0.91514 0.27927,0.37031 0.60139,0.15665 0.64866,-0.22075 0.0369,-0.29988 -0.50386,-1.40372 -0.73879,-0.78675"
       style="fill:#fbdd69;fill-opacity:1;fill-rule:nonzero;stroke:none;stroke-width:0.0738807"
       id="path111" />
    <path
       d="m 153.50861,195.73101 c 0.0383,0.2534 0.0628,0.67009 0.25858,0.87992 0.26153,0.2814 0.55041,0.22312 0.62281,-0.16796 0.0731,-0.3994 -0.4418,-1.31951 -0.87326,-0.98099 -0.0168,0.0806 -0.0465,0.14408 -0.054,0.22312"
       style="fill:#fbdd69;fill-opacity:1;fill-rule:nonzero;stroke:none;stroke-width:0.0738807"
       id="path113" />
    <path
       d="m 154.06271,193.23752 c -0.31917,0.42394 0.29923,1.08598 0.55041,0.52729 0.20545,-0.45569 -0.59326,-1.23372 -0.59621,-0.57315"
       style="fill:#fbdd69;fill-opacity:1;fill-rule:nonzero;stroke:none;stroke-width:0.0738807"
       id="path115" />
    <path
       d="m 153.37045,198.50154 c 0.14702,0.23265 0.18178,0.65686 0.48836,0.82886 0.43663,0.2444 0.64424,-0.0739 0.52306,-0.48251 -0.12712,-0.43006 -1.18061,-1.01735 -1.01142,-0.43871"
       style="fill:#fbdd69;fill-opacity:1;fill-rule:nonzero;stroke:none;stroke-width:0.0738807"
       id="path117" />
    <path
       d="m 156.37148,198.08625 c 0,0.22312 -0.0804,0.66492 0.0909,0.83345 0.38268,0.37604 0.53489,-0.26235 0.53414,-0.55123 0,-0.5977 -0.65827,-0.96998 -0.62503,-0.28222"
       style="fill:#fbdd69;fill-opacity:1;fill-rule:nonzero;stroke:none;stroke-width:0.0738807"
       id="path119" />
    <path
       d="m 166.70223,185.79464 c -0.45512,-0.5991 -2.19057,-2.41729 -1.06019,-3.18729 0.67083,-0.45709 1.45544,1.13564 1.73842,1.63063 0.15665,-0.38706 1.02176,-1.48139 1.45766,-1.08457 0.22532,0.20545 0.12922,1.10384 0.13299,1.37632 0.004,0.3394 -0.10262,0.66145 -0.11456,0.98409 0.59917,0.0932 1.782,0.10409 2.17652,0.65023 0.47357,0.65686 -0.58736,0.84962 -1.02621,0.98497 0.64794,0.048 1.80565,0.73416 0.60951,0.95957 -0.74545,0.13968 -1.42811,-0.14493 -2.03614,-0.54518 -0.71592,-0.47127 -1.2013,-1.17683 -1.87804,-1.76877"
       style="fill:#567965;fill-opacity:1;fill-rule:nonzero;stroke:none;stroke-width:0.0738807"
       id="path121" />
    <path
       d="m 167.77126,185.6027 c -1.64901,-1.23404 -4.08855,-1.28109 -5.77893,0.29988 -1.78792,1.67126 -1.01068,4.94912 -0.83412,7.11243 0.4359,5.31511 7.81436,1.13274 8.72015,-2.03543 0.68857,-2.41154 -1.03951,-3.71397 -2.1071,-5.37688"
       style="fill:#e8572e;fill-opacity:1;fill-rule:nonzero;stroke:none;stroke-width:0.0738807"
       id="path123" />
    <path
       d="m 161.29488,193.80494 c 1.09641,4.06195 7.72793,0.16754 8.58348,-2.82536 0.45139,-1.57949 -0.13592,-2.68253 -0.89396,-3.72292 0.18032,1.21239 0.20692,2.24324 -0.43294,3.4274 -0.75728,1.40315 -2.56662,2.43223 -4.02059,2.90063 -1.06167,0.34199 -2.161,0.16691 -3.23599,0.22025"
       style="fill:#d34226;fill-opacity:1;fill-rule:nonzero;stroke:none;stroke-width:0.0738807"
       id="path125" />
    <path
       d="m 164.83305,185.99871 c -0.15226,0.10785 -0.63316,0.28658 -0.73882,0.54804 -0.17508,0.42997 0.17446,0.59622 0.52309,0.44269 0.27556,-0.1221 0.94492,-1.15268 0.29476,-1.0372"
       style="fill:#fbdd69;fill-opacity:1;fill-rule:nonzero;stroke:none;stroke-width:0.0738807"
       id="path127" />
    <path
       d="m 164.93353,188.68346 c -0.19728,0.16335 -0.54229,0.39887 -0.62135,0.67305 -0.10701,0.36941 0.0909,0.58815 0.46323,0.44903 0.37975,-0.14262 0.90579,-1.05714 0.39305,-1.25366 -0.0783,0.0281 -0.14785,0.0341 -0.21868,0.0687"
       style="fill:#fbdd69;fill-opacity:1;fill-rule:nonzero;stroke:none;stroke-width:0.0738807"
       id="path129" />
    <path
       d="m 167.35754,187.87801 c -0.52825,-0.0568 -0.77797,0.81445 -0.16984,0.74256 0.49722,-0.0582 0.75358,-1.14286 0.18534,-0.80604"
       style="fill:#fbdd69;fill-opacity:1;fill-rule:nonzero;stroke:none;stroke-width:0.0738807"
       id="path131" />
    <path
       d="m 162.48585,189.98877 c -0.12419,0.24536 -0.47063,0.49294 -0.46028,0.84446 0.0147,0.50047 0.39454,0.51429 0.68266,0.20126 0.30365,-0.33047 0.26598,-1.53532 -0.14408,-1.09351"
       style="fill:#fbdd69;fill-opacity:1;fill-rule:nonzero;stroke:none;stroke-width:0.0738807"
       id="path133" />
    <path
       d="m 164.38385,192.35008 c -0.19204,0.11456 -0.61247,0.27276 -0.66863,0.50535 -0.12629,0.52241 0.50019,0.3244 0.74769,0.1757 0.51271,-0.30733 0.49424,-1.06373 -0.0792,-0.68109"
       style="fill:#fbdd69;fill-opacity:1;fill-rule:nonzero;stroke:none;stroke-width:0.0738807"
       id="path135" />
    <path
       d="m 146.52835,203.58517 c -0.46913,-0.24098 -1.4244,0.14493 -2.0428,0.61907 -0.0209,-0.0777 -0.0436,-0.15959 -0.0695,-0.24359 -0.23493,-0.75441 -0.51715,-1.50451 -0.74101,-2.2779 -0.32065,-1.1074 -1.57735,-1.65802 -2.00512,-0.23434 -0.0917,0.30446 -0.09,0.59711 -0.0429,0.88161 -0.75211,-0.58756 -1.57735,-1.00197 -2.37231,-0.95837 -1.93273,0.10639 -1.85957,1.25071 -0.74843,2.3183 -0.83188,-0.001 -2.78161,0.0643 -3.36377,0.76334 -0.72329,0.86809 0.045,1.5079 1.02767,1.38237 -0.7085,0.38411 -3.75684,1.5535 -2.58435,2.93299 0.76097,0.89611 3.58174,-0.50158 4.42177,-0.84962 -0.59548,0.84444 -1.02472,2.32496 0.5216,2.45564 1.36826,0.11602 2.2371,-1.62596 2.83036,-2.5627 -0.44476,2.92406 1.69409,2.85912 2.60724,0.48222 0.47062,-1.2239 0.26597,-2.29983 1.49388,-2.99506 0.50388,-0.28368 2.72619,-0.8635 1.06757,-1.71396"
       style="fill:#567965;fill-opacity:1;fill-rule:nonzero;stroke:none;stroke-width:0.0738807"
       id="path137" />
    <path
       d="m 159.6178,203.8977 c 0.0836,-1.0528 0.14179,-2.65158 1.12372,-3.29146 1.14443,-0.74626 1.12669,0.49065 0.88805,1.27681 0.49944,-0.64359 1.6446,-1.39421 2.4691,-1.38673 1.18948,0.0105 0.58292,0.86867 0.43959,1.5483 0.38712,-0.41357 1.27592,-0.57029 1.82558,-0.46086 0.92055,0.18325 0.52826,0.58004 0.13529,1.12292 0.7425,-0.28223 4.17722,0.21935 3.22932,1.49607 -0.32507,0.43753 -1.86992,0.41676 -2.36936,0.44417 0.51201,0.51341 1.61578,2.2369 0.7211,2.79564 -0.68193,0.42535 -1.72956,-0.65022 -2.15141,-1.07362 0.44254,0.40493 0.72329,1.6032 -0.0494,1.62684 -0.89691,0.0274 -1.84037,-1.25745 -2.45062,-1.75465 0.23938,0.76532 0.15519,1.60778 -0.82599,0.99879 -0.86292,-0.53477 -1.37492,-1.48101 -2.01399,-2.21325 -1.20869,-1.38608 -3.75684,0.32411 -5.10811,0.86292 -0.21942,-0.14492 -0.3923,-0.37081 -0.52382,-0.58905 0.58662,-0.56652 1.59362,-0.95002 2.39373,-1.12866 0.63833,-0.14262 1.53895,0.008 2.06498,-0.27129 -0.0672,0.0362 -0.13592,0.0341 0.20252,-0.002"
       style="fill:#567965;fill-opacity:1;fill-rule:nonzero;stroke:none;stroke-width:0.0738807"
       id="path139" />
  </g>
</svg>
