<?xml version="1.0" encoding="UTF-8" standalone="no"?>
<!-- Created with Inkscape (http://www.inkscape.org/) -->

<svg
   width="130.755mm"
   height="167.16017mm"
   viewBox="0 0 130.755 167.16017"
   version="1.1"
   id="svg1388"
   xmlns:inkscape="http://www.inkscape.org/namespaces/inkscape"
   xmlns:sodipodi="http://sodipodi.sourceforge.net/DTD/sodipodi-0.dtd"
   xmlns="http://www.w3.org/2000/svg"
   xmlns:svg="http://www.w3.org/2000/svg">
  <sodipodi:namedview
     id="namedview1390"
     pagecolor="#505050"
     bordercolor="#eeeeee"
     borderopacity="1"
     inkscape:showpageshadow="0"
     inkscape:pageopacity="0"
     inkscape:pagecheckerboard="0"
     inkscape:deskcolor="#505050"
     inkscape:document-units="mm"
     showgrid="false" />
  <defs
     id="defs1385" />
  <g
     inkscape:label="Calque 1"
     inkscape:groupmode="layer"
     id="layer1"
     transform="translate(-50.63297,-42.781157)">
    <path
       d="M 181.38797,184.66734 H 57.283905 v -5.79785 H 181.38797 v 5.79785"
       style="fill:#4f2d1f;fill-opacity:1;fill-rule:nonzero;stroke:none;stroke-width:0.0740187"
       id="path293" />
    <path
       d="m 152.44373,111.77084 v 0 c -5.79047,-11.74675 -19.45136,-32.097418 -44.52591,-31.839096 0,0 -33.584471,0.726113 -48.651694,35.218066 0,0 -9.318939,23.54383 -8.592827,35.09889 0.657292,10.46548 4.908175,15.56387 14.689741,16.09534 l -0.07849,12.52545 h 80.57447 c 0,0 -0.92599,-12.58762 -2.21168,-25.46316 0.004,7.3e-4 13.29967,1.80086 19.09459,-9.60022 3.58841,-7.06064 -10.29822,-32.03527 -10.29822,-32.03527"
       style="fill:#edae4a;fill-opacity:1;fill-rule:nonzero;stroke:none;stroke-width:0.0740187"
       id="path295" />
    <path
       d="m 162.74195,143.80611 c 0.76903,-1.51295 0.73203,-3.84971 0.20499,-6.58469 -4.20575,-10.08357 -16.41881,-7.8223 -20.6786,-9.05693 -5.81712,-1.68688 -8.60317,-8.59651 -11.13091,-13.86 -1.30125,0.0474 -2.07918,-0.51885 -3.29606,-0.72611 -5.18351,-0.88082 -10.84816,-0.21317 -16.11089,-0.45372 -6.80971,-0.31088 -16.322589,0.71205 -23.142657,0.37822 l -6.906678,0.83567 c -0.500374,3.12285 -1.062172,7.72533 -4.148007,9.42257 0.683201,1.77127 0.770523,4.10804 -0.02728,5.87487 -2.78458,6.16575 -11.619459,5.82156 -16.080553,10.63572 -4.107285,4.43225 -6.388537,9.61576 -6.310087,15.68676 0.03105,2.39082 0.533669,5.54252 1.788288,8.00957 2.17393,1.39822 4.957021,2.18578 8.459597,2.376 l -0.07849,12.52545 h 80.574467 c 0,0 -0.92599,-12.58762 -2.21168,-25.46316 0.004,7.3e-4 13.3004,1.80086 19.09459,-9.60022"
       style="fill:#d48825;fill-opacity:1;fill-rule:nonzero;stroke:none;stroke-width:0.0740187"
       id="path297" />
    <path
       d="m 131.26183,115.81522 0.86971,-7.02806"
       style="fill:none;stroke:#d48825;stroke-width:0.740187;stroke-linecap:round;stroke-linejoin:round;stroke-miterlimit:10;stroke-dasharray:none;stroke-opacity:1"
       id="path299" />
    <path
       d="M 143.64736,153.40633 131.4439,114.33855 c -0.3982,0.0732 -0.80088,0.13764 -1.20205,0.20647 l -1.80458,-30.222549 c -0.0369,-0.612138 -0.5692,-1.072544 -1.17467,-1.042204 -0.61215,0.03698 -1.07846,0.562564 -1.04218,1.174681 l 1.81789,30.438672 c -14.971,2.19466 -30.983463,1.15471 -39.720626,0.25833 l 5.19019,-31.644434 c 0.0993,-0.604731 -0.310862,-1.175413 -0.915593,-1.274606 -0.600311,-0.0993 -1.176169,0.31015 -1.275351,0.915614 l -5.210168,31.764356 c -2.79272,-0.32051 -4.425574,-0.57439 -4.425574,-0.57439 l -2.170242,14.87477 c -0.468514,3.20797 -0.269427,6.47738 0.58403,9.60541 l 1.173181,4.29826 c 3.577314,25.60748 -15.905117,23.22705 -15.905117,23.22705 l -0.07849,12.52544 h 80.57447 c 0,0 -0.92599,-12.58761 -2.21168,-25.46316"
       style="fill:#d34226;fill-opacity:1;fill-rule:nonzero;stroke:none;stroke-width:0.0740187"
       id="path301" />
    <path
       d="m 143.64736,153.40633 -6.356,-20.3492 c 0.0189,1.68984 -0.037,3.38117 -0.20058,5.09025 -0.39303,4.11544 -0.12651,9.23754 -2.17466,12.95844 -1.17764,2.13692 -2.77718,4.12063 -3.97185,6.28716 -2.225,4.03325 -0.97926,9.67571 -4.73126,13.13829 -1.89045,1.74389 -4.31826,2.69946 -6.92887,3.14803 -1.23317,-0.99926 -2.37971,-1.91783 -3.24276,-2.73206 -3.21464,-3.03254 -6.2642,-6.21532 -8.55731,-10.04208 -2.25016,-3.75572 -2.43668,-7.46479 -3.10063,-11.73715 -0.56994,-3.658 -1.35824,-7.01252 -4.07548,-9.53951 -2.90004,-2.69724 -6.175355,-2.72388 -9.904423,-3.51515 -3.70537,-0.78681 -7.132428,-2.41967 -8.784517,-6.06138 -0.729089,-1.60472 -1.199101,-3.25682 -1.509985,-4.93852 l -0.598089,4.09988 c -0.468514,3.20797 -0.269427,6.47738 0.58403,9.6054 l 1.173181,4.29826 c 3.577314,25.60748 -15.905117,23.22705 -15.905117,23.22705 l -0.07849,12.52545 h 37.65846 22.01091 20.9051 c 0,0 -0.92599,-12.58762 -2.21168,-25.46316"
       style="fill:#ae3221;fill-opacity:1;fill-rule:nonzero;stroke:none;stroke-width:0.0740187"
       id="path303" />
    <path
       d="m 105.57218,177.34245 v 9.26937 l 22.82142,20.18859 46.26164,-10.96291 v -7.91185 l -23.87101,-16.18047 -45.21205,5.59727"
       style="fill:#d48825;fill-opacity:1;fill-rule:nonzero;stroke:none;stroke-width:0.0740187"
       id="path305" />
    <path
       d="m 105.57218,177.34245 23.57124,20.16268 -0.74982,9.29528 -22.82142,-20.18859 v -9.26937"
       style="fill:#e8572e;fill-opacity:1;fill-rule:nonzero;stroke:none;stroke-width:0.0740187"
       id="path307" />
    <path
       d="m 129.14342,197.50513 45.51182,-9.57948 v 7.91185 l -46.26164,10.96291 0.74982,-9.29528"
       style="fill:#edae4a;fill-opacity:1;fill-rule:nonzero;stroke:none;stroke-width:0.0740187"
       id="path309" />
    <path
       d="m 118.55431,81.149347 c 0,-0.0043 7.4e-4,-0.01262 7.4e-4,-0.01262 l 1.0962,-8.23459 -12.09612,-1.536615 -4.47813,9.107993 -0.001,0.0022 c -1.90896,0.319024 -4.284204,0.821597 -6.968116,1.620995 0,7.54e-4 -0.291649,13.023587 12.294496,14.11239 12.58612,1.089558 15.27744,-9.355954 17.01835,-12.726009 -2.15393,-0.956316 -4.44629,-1.738699 -6.86595,-2.333802"
       style="fill:#fbc6ac;fill-opacity:1;fill-rule:nonzero;stroke:none;stroke-width:0.0740187"
       id="path311" />
    <path
       d="m 107.55513,71.364826 -1.18873,2.416714 c 1.52996,2.193165 5.24791,6.363371 12.15682,7.918499 0.0281,-0.351595 0.0319,-0.564008 0.0319,-0.564008 l 1.09621,-8.23459 -12.09611,-1.536615"
       style="fill:#ef9876;fill-opacity:1;fill-rule:nonzero;stroke:none;stroke-width:0.0740187"
       id="path313" />
    <path
       d="m 106.87638,64.369316 c -0.37156,1.945958 -2.24869,3.221287 -4.1939,2.849724 -1.9452,-0.37083 -3.221288,-2.248691 -2.849703,-4.193895 0.370833,-1.94447 2.248693,-3.220554 4.193893,-2.849713 1.94522,0.371564 3.2213,2.249424 2.84971,4.193884"
       style="fill:#ef9876;fill-opacity:1;fill-rule:nonzero;stroke:none;stroke-width:0.0740187"
       id="path315" />
    <path
       d="m 131.38025,69.047304 c -0.37157,1.94447 -2.24943,3.220554 -4.19463,2.848969 -1.94448,-0.37083 -3.21981,-2.248691 -2.84898,-4.193895 0.37156,-1.945214 2.24942,-3.220543 4.1939,-2.848979 1.94521,0.37083 3.22054,2.247957 2.84971,4.193905"
       style="fill:#ef9876;fill-opacity:1;fill-rule:nonzero;stroke:none;stroke-width:0.0740187"
       id="path317" />
    <path
       d="m 127.9184,68.062858 c -1.27239,6.663882 -7.70608,11.034696 -14.36925,9.763044 -6.66387,-1.272375 -11.03543,-7.705332 -9.76379,-14.369225 1.27239,-6.663902 7.70535,-11.035431 14.36925,-9.763062 6.66389,1.271636 11.0347,7.704595 9.76379,14.369243"
       style="fill:#fbc6ac;fill-opacity:1;fill-rule:nonzero;stroke:none;stroke-width:0.0740187"
       id="path319" />
    <path
       d="m 118.15461,53.693615 c -6.6639,-1.272369 -13.09686,3.09916 -14.36925,9.763062 -0.26055,1.366382 -0.27238,2.72018 -0.0873,4.025138 0.12442,-0.29015 0.28202,-0.567739 0.5137,-0.802384 0.67506,-0.683913 1.7424,-1.162821 2.67726,-1.346392 1.26349,-0.24796 2.5529,-0.279788 3.8127,-0.573636 0.92154,-0.213912 1.87784,-0.583265 2.77569,-0.732043 -0.0348,0.227227 -0.16954,0.486303 -0.28867,0.706867 1.7609,0.531469 3.97185,0.153167 5.77419,-0.187992 0.36491,-0.06879 1.01036,-0.291648 1.31605,-0.0621 0.14813,0.110999 0.16723,0.467079 0.27016,0.635837 0.28056,0.460394 0.84605,0.802351 1.30645,1.102873 1.84231,1.202066 3.86081,2.39376 4.70165,4.550676 0.0829,0.213901 0.14289,0.430766 0.19535,0.64098 0.53515,-1.031078 0.93635,-2.152442 1.16579,-3.351543 1.27091,-6.664658 -3.09989,-13.097609 -9.76378,-14.369245"
       style="fill:#ef9876;fill-opacity:1;fill-rule:nonzero;stroke:none;stroke-width:0.0740187"
       id="path321" />
    <path
       d="m 111.51217,68.567663 c -0.10889,0.566984 -0.65507,0.937815 -1.22205,0.829738 -0.5655,-0.108056 -0.93706,-0.654317 -0.82901,-1.221301 0.10806,-0.565497 0.65506,-0.937081 1.22057,-0.829004 0.56625,0.108055 0.93781,0.654327 0.83049,1.220567"
       style="fill:#291f22;fill-opacity:1;fill-rule:nonzero;stroke:none;stroke-width:0.0740187"
       id="path323" />
    <path
       d="m 121.72082,70.516565 c -0.1089,0.566251 -0.65507,0.937815 -1.2213,0.829759 -0.56625,-0.108055 -0.93782,-0.655072 -0.82976,-1.221322 0.10805,-0.56623 0.65506,-0.937793 1.22057,-0.829738 0.56625,0.108056 0.93781,0.655061 0.83049,1.221301"
       style="fill:#291f22;fill-opacity:1;fill-rule:nonzero;stroke:none;stroke-width:0.0740187"
       id="path325" />
    <path
       d="m 113.21533,72.38924 c 0,0 1.641,1.729804 3.62618,0.692075"
       style="fill:none;stroke:#ef9876;stroke-width:0.726148;stroke-linecap:round;stroke-linejoin:round;stroke-miterlimit:10;stroke-dasharray:none;stroke-opacity:1"
       id="path327" />
    <path
       d="m 117.23676,53.609227 c -1.06733,-2.932606 -0.77867,-6.449971 1.59808,-8.808204 2.99257,-2.968149 8.64093,-2.80531 10.2945,1.425599 1.07401,2.745345 0.0524,6.174628 -1.60842,8.444047 -1.02961,1.407827 -2.53143,2.969618 -4.34859,2.578057 -1.39673,-0.300519 -2.97333,-1.011084 -4.2435,-1.676518 -0.55144,-0.288665 -1.39673,-1.210935 -1.69207,-1.962981"
       style="fill:#542b20;fill-opacity:1;fill-rule:nonzero;stroke:none;stroke-width:0.0740187"
       id="path329" />
    <path
       d="m 126.56756,53.273185 c -2.06512,-2.459637 -6.41741,-3.160593 -9.90221,-2.407813 0.057,0.935593 0.25166,1.866004 0.57141,2.743855 0.29534,0.752046 1.14063,1.674316 1.69207,1.962981 1.27017,0.665434 2.84677,1.375999 4.2435,1.676518 1.80679,0.389336 3.30047,-1.152459 4.33009,-2.553635 -0.28351,-0.537381 -0.59955,-1.022939 -0.93486,-1.421906"
       style="fill:#edae4a;fill-opacity:1;fill-rule:nonzero;stroke:none;stroke-width:0.0740187"
       id="path331" />
    <path
       d="m 103.077,65.711276 c 1.07623,-1.866755 3.08732,-2.582506 5.20425,-2.547714 3.62099,0.05995 6.08139,-1.073277 9.27009,-2.39969 -0.47445,1.162842 -1.56474,2.432985 -2.68909,3.014028 2.43299,0.928208 5.31528,-0.507015 7.30933,-1.923726 0.69653,1.82159 0.25537,3.069554 1.90525,4.583237 1.58548,1.452981 2.62915,2.506991 3.48035,4.467753 1.58252,-3.224252 2.2546,-7.313035 0.75351,-10.759349 -0.65876,-1.512194 -1.08955,-2.835654 -2.62915,-4.364881 -1.26572,-1.256088 -2.57361,-0.96224 -2.57361,-0.96224 0,0 -1.36861,-1.996278 -3.57215,-2.786049 -1.84526,-0.661741 -3.77272,-1.233889 -5.72089,-0.965219 -3.41743,0.4715 -6.99994,2.893391 -8.55951,6.017728 -1.28792,2.58102 -1.57438,5.562487 -2.17838,8.626122"
       style="fill:#542b20;fill-opacity:1;fill-rule:nonzero;stroke:none;stroke-width:0.0740187"
       id="path333" />
    <path
       d="M 79.072028,130.83953 76.673071,116.35852"
       style="fill:none;stroke:#d48825;stroke-width:0.740187;stroke-linecap:round;stroke-linejoin:round;stroke-miterlimit:10;stroke-dasharray:none;stroke-opacity:1"
       id="path335" />
    <path
       d="M 166.69823,178.86949 H 138.2936 v -11.28787 h 28.40463 c 3.11693,0 5.64391,2.52701 5.64391,5.64392 v 0 c 0,3.11693 -2.52698,5.64395 -5.64391,5.64395"
       style="fill:#567965;fill-opacity:1;fill-rule:nonzero;stroke:none;stroke-width:0.0740187"
       id="path337" />
    <path
       d="M 166.69823,175.90872 H 138.2936 v 2.96077 h 28.40463 c 3.11693,0 5.64391,-2.52702 5.64391,-5.64395 0,-0.51293 -0.0741,-1.00812 -0.20289,-1.48036 -0.65135,2.39746 -2.83712,4.16354 -5.4411,4.16354"
       style="fill:#364e3e;fill-opacity:1;fill-rule:nonzero;stroke:none;stroke-width:0.0740187"
       id="path339" />
    <path
       d="m 132.64966,173.22554 c 0,-3.11691 2.52701,-5.64392 5.64394,-5.64392 3.11691,0 5.64392,2.52701 5.64392,5.64392 0,3.11693 -2.52701,5.64395 -5.64392,5.64395 -3.11693,0 -5.64394,-2.52702 -5.64394,-5.64395"
       style="fill:#fbdd69;fill-opacity:1;fill-rule:nonzero;stroke:none;stroke-width:0.0740187"
       id="path341" />
    <path
       d="m 134.17668,173.22554 c 0,-2.27384 1.84305,-4.11765 4.11692,-4.11765 2.27385,0 4.11765,1.84381 4.11765,4.11765 0,2.27387 -1.8438,4.11691 -4.11765,4.11691 -2.27387,0 -4.11692,-1.84304 -4.11692,-4.11691"
       style="fill:#edae4a;fill-opacity:1;fill-rule:nonzero;stroke:none;stroke-width:0.0740187"
       id="path343" />
    <path
       d="m 138.53711,154.73866 2.5418,-16.8829 c 0,0 1.63359,-7.26123 11.07393,-5.99033 9.43958,1.27014 10.52841,13.07021 7.62466,18.15305 -2.90523,5.08362 -6.17241,14.7053 -6.17241,14.7053 l -0.15842,5.37226 c -0.0147,0.53071 -0.18568,1.04218 -0.49592,1.47372 -1.58474,2.20502 -6.76677,8.96292 -9.51214,7.13168 l -1.27014,-0.66541 c 0,0 -1.51295,1.75497 -3.26794,1.75497 -1.75572,0 -2.48109,-0.42339 -2.66244,-1.51293 0,0 -1.15024,2.17836 -2.54181,1.87562 -1.39228,-0.30199 -2.78308,-1.5122 -2.48109,-3.26719 0.30274,-1.75497 0.84677,-4.8408 0.84677,-4.8408 0,0 -3.69056,1.51293 -5.50624,-0.60549 -1.81495,-2.11766 2.26052,-2.77864 3.50996,-4.8408 2.42041,-3.99405 1.87563,-9.31894 8.47143,-11.86075"
       style="fill:#fbc6ac;fill-opacity:1;fill-rule:nonzero;stroke:none;stroke-width:0.0740187"
       id="path345" />
    <path
       d="m 139.52673,148.16508 -0.98962,6.57358 c 0,0 3.36489,-0.97259 6.32563,1.21094 2.96075,2.18356 8.74235,8.77418 8.74235,8.77418 0,0 0.48038,-1.4145 1.23535,-3.44335 -2.37598,-4.16724 -8.27749,-13.07614 -15.31371,-13.11535"
       style="fill:#ef9876;fill-opacity:1;fill-rule:nonzero;stroke:none;stroke-width:0.0740187"
       id="path347" />
    <path
       d="m 132.06196,172.0457 2.5307,-10.76676"
       style="fill:none;stroke:#ef9876;stroke-width:0.726148;stroke-linecap:round;stroke-linejoin:round;stroke-miterlimit:10;stroke-dasharray:none;stroke-opacity:1"
       id="path349" />
    <path
       d="m 136.23809,178.27807 3.44334,-11.61576"
       style="fill:none;stroke:#ef9876;stroke-width:0.726148;stroke-linecap:round;stroke-linejoin:round;stroke-miterlimit:10;stroke-dasharray:none;stroke-opacity:1"
       id="path351" />
    <path
       d="m 142.16847,178.03603 3.69057,-7.84227"
       style="fill:none;stroke:#ef9876;stroke-width:0.726148;stroke-linecap:round;stroke-linejoin:round;stroke-miterlimit:10;stroke-dasharray:none;stroke-opacity:1"
       id="path353" />
    <path
       d="m 120.59278,177.36172 -17.87402,-11.62241 5.04288,-7.75642 25.63117,16.66529 v 0 c -2.78532,4.28421 -8.51658,5.49885 -12.80003,2.71354"
       style="fill:#ffffff;fill-opacity:1;fill-rule:nonzero;stroke:none;stroke-width:0.0740187"
       id="path355" />
    <path
       d="m 104.69208,162.70455 -13.743759,-8.93629 c -1.302725,-0.84751 -1.672822,-2.59211 -0.825317,-3.8956 v 0 c 0.84825,-1.30419 2.592136,-1.67355 3.895605,-0.82604 l 13.743031,8.93627 -3.06956,4.72166"
       style="fill:#4f2d1f;fill-opacity:1;fill-rule:nonzero;stroke:none;stroke-width:0.0740187"
       id="path357" />
    <path
       d="m 59.750215,153.81713 c 0,0 2.178357,-12.58687 14.523188,-14.88589 12.344073,-2.29977 18.758539,-3.26792 23.236664,-4.59879 4.477373,-1.33157 8.350773,1.45225 8.834113,4.23537 0.48409,2.78384 1.3316,11.13462 2.78385,12.82888 1.45224,1.69429 3.87266,4.47814 3.26793,8.10877 -0.60473,3.6306 0.48999,9.62242 -1.57364,9.19754 -4.11469,-0.84678 -2.05698,-9.19754 -2.05698,-9.19754 l -3.99405,-3.87267 -0.60473,8.59283 c 0,0 -0.36343,1.69428 -2.42114,1.81493 -2.056979,0.12148 -4.478138,-2.66244 -4.356002,-4.84082 0,0 -4.115445,-0.84752 -4.599517,-2.54181 -0.484083,-1.69427 -0.968176,-6.41444 -0.968176,-6.41444 0,0 -7.988074,8.47218 -15.370695,10.52916 -7.381876,2.05771 -17.184904,-1.08882 -16.700815,-8.95552"
       style="fill:#fbc6ac;fill-opacity:1;fill-rule:nonzero;stroke:none;stroke-width:0.0740187"
       id="path359" />
    <path
       d="m 91.014187,143.11699 c 0,0 -12.327792,20.56534 -29.702182,15.96138 3.001445,3.90745 9.72011,5.205 15.139025,3.69428 7.382621,-2.05698 15.370695,-10.52916 15.370695,-10.52916 0,0 -2.472964,-3.4167 -0.807538,-9.1265"
       style="fill:#ef9876;fill-opacity:1;fill-rule:nonzero;stroke:none;stroke-width:0.0740187"
       id="path361" />
    <path
       d="M 97.389418,161.19974 V 154.3397"
       style="fill:none;stroke:#ef9876;stroke-width:0.726148;stroke-linecap:round;stroke-linejoin:round;stroke-miterlimit:10;stroke-dasharray:none;stroke-opacity:1"
       id="path363" />
    <path
       d="m 104.77129,152.58176 v 3.05104"
       style="fill:none;stroke:#ef9876;stroke-width:0.726148;stroke-linecap:round;stroke-linejoin:round;stroke-miterlimit:10;stroke-dasharray:none;stroke-opacity:1"
       id="path365" />
    <path
       d="m 108.59213,175.79548 0.60918,-1.64914 10.58835,3.91115 -0.60842,1.64914 c -1.07993,2.92373 -4.3264,4.4189 -7.25013,3.33898 v 0 c -2.92373,-1.08068 -4.4189,-4.3264 -3.33898,-7.25013"
       style="fill:#567965;fill-opacity:1;fill-rule:nonzero;stroke:none;stroke-width:0.0740187"
       id="path367" />
    <path
       d="m 116.45069,170.80736 c 2.92522,1.07993 4.41966,4.3264 3.33897,7.25013 -1.07992,2.92374 -4.32563,4.41891 -7.24936,3.33898 -2.92374,-1.07992 -4.41817,-4.3264 -3.33899,-7.25013 1.07993,-2.92448 4.32564,-4.4189 7.24938,-3.33898"
       style="fill:#fbdd69;fill-opacity:1;fill-rule:nonzero;stroke:none;stroke-width:0.0740187"
       id="path369" />
    <path
       d="m 115.92293,172.23961 c 2.1325,0.78757 3.22279,3.15543 2.43522,5.28864 -0.7883,2.13323 -3.15614,3.22352 -5.28864,2.43595 -2.1332,-0.78755 -3.22349,-3.15615 -2.43595,-5.28937 0.7883,-2.13247 3.15617,-3.2235 5.28937,-2.43522"
       style="fill:#edae4a;fill-opacity:1;fill-rule:nonzero;stroke:none;stroke-width:0.0740187"
       id="path371" />
    <path
       d="m 90.711455,184.95085 0.22354,-1.7439 11.196805,1.43155 -0.22354,1.74386 c -0.39452,3.09176 -3.222025,5.27753 -6.313801,4.88299 v 0 c -3.091754,-0.39598 -5.277522,-3.22275 -4.883004,-6.3145"
       style="fill:#364e3e;fill-opacity:1;fill-rule:nonzero;stroke:none;stroke-width:0.0740187"
       id="path373" />
    <path
       d="m 97.24878,178.32469 c 3.09176,0.39525 5.27827,3.22203 4.88302,6.31381 -0.39528,3.09174 -3.222788,5.27751 -6.314534,4.88299 -3.091754,-0.39601 -5.277544,-3.22276 -4.882271,-6.31454 0.395251,-3.09174 3.221298,-5.27827 6.313785,-4.88226"
       style="fill:#fbdd69;fill-opacity:1;fill-rule:nonzero;stroke:none;stroke-width:0.0740187"
       id="path375" />
    <path
       d="m 97.054847,179.83911 c 2.255356,0.28792 3.850453,2.35009 3.562513,4.60544 -0.28866,2.25608 -2.350829,3.85045 -4.606916,3.56252 -2.255343,-0.28868 -3.849695,-2.35084 -3.561033,-4.60618 0.287928,-2.25609 2.350093,-3.85045 4.605436,-3.56178"
       style="fill:#edae4a;fill-opacity:1;fill-rule:nonzero;stroke:none;stroke-width:0.0740187"
       id="path377" />
    <path
       d="m 96.245078,183.96861 0.222073,-1.74313 11.196789,1.43078 -0.22206,1.74387 c -0.39599,3.09177 -3.22276,5.27827 -6.31452,4.88228 v 0 c -3.091776,-0.39452 -5.278266,-3.22204 -4.882282,-6.3138"
       style="fill:#567965;fill-opacity:1;fill-rule:nonzero;stroke:none;stroke-width:0.0740187"
       id="path379" />
    <path
       d="m 102.78242,177.34245 c 3.09102,0.39528 5.27752,3.22206 4.88152,6.31381 -0.39451,3.09175 -3.22128,5.27827 -6.31379,4.883 -3.091759,-0.39526 -5.277516,-3.22277 -4.882999,-6.31378 0.395985,-3.09251 3.222756,-5.27828 6.315269,-4.88303"
       style="fill:#fbdd69;fill-opacity:1;fill-rule:nonzero;stroke:none;stroke-width:0.0740187"
       id="path381" />
    <path
       d="m 102.58848,178.85689 c 2.25535,0.28866 3.84972,2.35083 3.56104,4.60617 -0.28719,2.25536 -2.34934,3.85044 -4.60544,3.56178 -2.255343,-0.28866 -3.850452,-2.35083 -3.562524,-4.60618 0.288673,-2.25534 2.350834,-3.85045 4.606924,-3.56177"
       style="fill:#edae4a;fill-opacity:1;fill-rule:nonzero;stroke:none;stroke-width:0.0740187"
       id="path383" />
    <path
       d="m 76.646429,175.3114 v -7.22053 H 56.568893 v 7.22053 c 0,0.30496 -0.247228,0.55143 -0.552196,0.55143 v 0 c -2.071037,0 -3.749779,1.67948 -3.749779,3.75127 v 21.79331 c 0,3.26569 2.647655,5.91334 5.913345,5.91334 h 16.854035 c 3.266452,0 5.914836,-2.64765 5.914836,-5.91334 V 179.6141 c 0,-2.07179 -1.679475,-3.75127 -3.751268,-3.75127 v 0 c -0.304943,0 -0.551437,-0.24647 -0.551437,-0.55143 z"
       style="fill:none;stroke:#adbdc5;stroke-width:0.740187;stroke-linecap:round;stroke-linejoin:round;stroke-miterlimit:10;stroke-dasharray:none;stroke-opacity:1"
       id="path385" />
    <path
       d="m 78.049091,169.46984 v -4.7927 c 0.01078,-0.0645 0.03191,-0.12884 0.03191,-0.19471 0,-1.99257 -5.136895,-3.60841 -11.472891,-3.60841 -6.336737,0 -11.472878,1.61584 -11.472878,3.60841 v 5.43445 h 0.03986 c 0.415227,1.87415 5.36782,3.35526 11.43291,3.35526 6.064348,0 11.016927,-1.48111 11.431435,-3.35526 h 0.01078 v -0.0585 c 0.01078,-0.0645 0.03191,-0.12883 0.03191,-0.19471 0,-0.065 -0.02102,-0.12945 -0.03191,-0.19387"
       style="fill:#96979e;fill-opacity:1;fill-rule:nonzero;stroke:none;stroke-width:0.0740187"
       id="path387" />
    <path
       d="m 78.080919,164.48246 c 0,1.99332 -5.136894,3.60841 -11.47289,3.60841 -6.336735,0 -11.472876,-1.61509 -11.472876,-3.60841 0,-1.99256 5.136141,-3.6084 11.472876,-3.6084 6.335996,0 11.47289,1.61584 11.47289,3.6084"
       style="fill:#adbdc5;fill-opacity:1;fill-rule:nonzero;stroke:none;stroke-width:0.0740187"
       id="path389" />
    <path
       d="m 54.48747,182.43197 v 18.97544 c 0,2.03625 1.656544,3.69277 3.693548,3.69277 h 16.85328 c 2.037011,0 3.694286,-1.65652 3.694286,-3.69277 V 182.43197 H 54.48747"
       style="fill:#fbdd69;fill-opacity:1;fill-rule:nonzero;stroke:none;stroke-width:0.0740187"
       id="path391" />
    <path
       d="m 71.326718,182.43197 v 18.97544 c 0,2.03625 -1.657275,3.69277 -3.694265,3.69277 h 7.401845 c 2.037011,0 3.694286,-1.65652 3.694286,-3.69277 v -18.97544 h -7.401866"
       style="fill:#edae4a;fill-opacity:1;fill-rule:nonzero;stroke:none;stroke-width:0.0740187"
       id="path393" />
    <path
       d="M 80.949134,197.42077 H 66.608029 v -11.4729 h 14.341105 v 11.4729"
       style="fill:#adbdc5;fill-opacity:1;fill-rule:nonzero;stroke:none;stroke-width:0.0740187"
       id="path395" />
    <path
       d="m 97.313169,205.37258 c 0,0 -7.4655,-0.30643 -9.605381,1.12139 l -0.444847,-3.30937 4.871888,-1.69282 c 0,0 -5.410764,-1.48777 -6.415199,-3.39746 l 1.700208,-3.02587 10.915535,3.7964 -1.022204,6.50773"
       style="fill:#364e3e;fill-opacity:1;fill-rule:nonzero;stroke:none;stroke-width:0.0740187"
       id="path397" />
    <path
       d="m 92.0623,208.10461 c 3.207217,-4.17391 10.68237,-2.82825 15.01616,-2.22278 4.71201,0.65727 9.2242,2.20945 13.92363,3.04069 3.44855,0.60917 7.61135,1.53068 11.12723,0.66467 4.78899,-1.17837 4.96442,-6.34115 0.21613,-7.2997 -6.02511,-1.21613 -12.75192,-0.65581 -18.94062,-1.32051 -4.97109,-0.53366 -9.95328,-1.65948 -14.649017,-3.38338 -2.763127,-1.01406 -5.145782,-2.80826 -7.653549,-4.05623 l -1.039217,2.14804 c 0.828271,1.11472 3.568451,3.44038 4.998477,3.61359 -1.933354,0.0304 -3.756432,-0.44857 -5.60764,-0.81421 -0.07472,1.39821 -0.100702,2.85119 -0.168067,4.27234 1.614352,-0.171 3.720906,0.41674 5.298978,0.44781 -1.777924,0.29534 -3.581756,2.26942 -4.49957,3.68465 0.765348,0.51221 1.575107,0.8105 1.977032,1.22502"
       style="fill:#567965;fill-opacity:1;fill-rule:nonzero;stroke:none;stroke-width:0.0740187"
       id="path399" />
    <path
       d="m 132.34545,202.28749 c -6.02511,-1.21613 -12.75192,-0.65581 -18.94062,-1.32051 -0.004,-7.3e-4 -0.009,-7.3e-4 -0.0147,-0.001 -0.56402,1.87932 -0.93485,4.11618 -0.5877,6.0673 2.72093,0.66026 5.42777,1.39968 8.19904,1.8897 3.44854,0.60917 7.61134,1.53068 11.12721,0.66466 4.78901,-1.17836 4.96443,-6.34114 0.21613,-7.29969"
       style="fill:#ffffff;fill-opacity:1;fill-rule:nonzero;stroke:none;stroke-width:0.0740187"
       id="path401" />
  </g>
</svg>
