<?xml version="1.0" encoding="UTF-8" standalone="no"?>
<!-- Created with Inkscape (http://www.inkscape.org/) -->

<svg
   width="157.45393mm"
   height="143.91006mm"
   viewBox="0 0 157.45393 143.91006"
   version="1.1"
   id="svg1788"
   xmlns:inkscape="http://www.inkscape.org/namespaces/inkscape"
   xmlns:sodipodi="http://sodipodi.sourceforge.net/DTD/sodipodi-0.dtd"
   xmlns="http://www.w3.org/2000/svg"
   xmlns:svg="http://www.w3.org/2000/svg">
  <sodipodi:namedview
     id="namedview1790"
     pagecolor="#505050"
     bordercolor="#eeeeee"
     borderopacity="1"
     inkscape:showpageshadow="0"
     inkscape:pageopacity="0"
     inkscape:pagecheckerboard="0"
     inkscape:deskcolor="#505050"
     inkscape:document-units="mm"
     showgrid="false" />
  <defs
     id="defs1785" />
  <g
     inkscape:label="Calque 1"
     inkscape:groupmode="layer"
     id="layer1"
     transform="translate(-34.849377,-42.12398)">
    <path
       d="m 188.29881,176.12866 c -0.0346,0.91869 -0.0277,2.31238 -0.85835,2.90453 -0.96901,0.69094 -0.99861,-0.38554 -0.81845,-1.07852 -0.41244,0.57787 -1.38147,1.27284 -2.09889,1.29595 -1.03465,0.0341 -0.53856,-0.73416 -0.43883,-1.33064 -0.32172,0.37454 -1.08933,0.54295 -1.5719,0.46778 -0.80752,-0.12676 -0.48002,-0.48636 -0.15759,-0.97224 -0.63636,0.27224 -3.6425,-0.0399 -2.86459,-1.18456 0.26702,-0.39256 1.61182,-0.43104 2.04549,-0.47228 -0.46392,-0.42853 -1.48699,-1.88855 -0.72902,-2.40709 0.57716,-0.39508 1.52817,0.50323 1.91101,0.85583 -0.40023,-0.33651 -0.68784,-1.36852 -0.0164,-1.41756 0.77921,-0.0565 1.64592,1.02752 2.19605,1.43866 -0.23614,-0.65823 -0.19367,-1.39368 0.68205,-0.90004 0.77019,0.43433 1.25084,1.23862 1.83314,1.8524 1.10285,1.16269 3.25774,-0.41773 4.41333,-0.93627 0.19625,0.11837 0.35455,0.30815 0.47745,0.49288 -0.49031,0.51474 -1.35251,0.88549 -2.04164,1.06996 -0.55078,0.14756 -1.33963,0.0491 -1.78681,0.31091 0.0565,-0.0334 0.11654,-0.0341 -0.17638,0.0109"
       style="fill:#567965;fill-opacity:1;fill-rule:nonzero;stroke:none;stroke-width:0.0643437"
       id="path141" />
    <path
       d="M 168.42819,165.17923 H 60.545363 v -5.04068 H 168.42819 v 5.04068"
       style="fill:#4f2d1f;fill-opacity:1;fill-rule:nonzero;stroke:none;stroke-width:0.0643437"
       id="path143" />
    <path
       d="m 154.45983,99.168496 c -6.75609,-7.929069 -14.22703,-16.88249 -26.9986,-22.241674 -4.25698,-1.78618 -9.08597,-2.850423 -14.53588,-2.793802 0,0 -3.62383,0.08687 -8.8968,1.492774 -13.912384,3.710054 -32.250198,18.669956 -45.923227,29.447516 0,0 -8.364675,6.75609 -4.182337,18.98138 2.950542,8.62398 18.177083,4.18233 26.380772,1.60859 l -4.438425,34.47527 h 70.042577 c 0,0 -0.80558,-10.943 -1.92322,-22.13474 0.004,5.3e-4 19.11778,2.97262 23.16178,-7.38414 5.65131,-14.4741 -12.68664,-31.451174 -12.68664,-31.451174"
       style="fill:#272d45;fill-opacity:1;fill-rule:nonzero;stroke:none;stroke-width:0.0643437"
       id="path145" />
    <path
       d="m 79.814747,129.46278 -3.949414,30.67577 h 70.042577 c 0,0 -0.80558,-10.943 -1.92322,-22.13474 l -0.94651,-6.84236 c -28.0963,-5.79093 -63.222789,-1.69867 -63.223433,-1.69867"
       style="fill:#fbdd69;fill-opacity:1;fill-rule:nonzero;stroke:none;stroke-width:0.0643437"
       id="path147" />
    <path
       d="m 107.2689,135.00984 c -2.51133,7.8738 -1.84023,16.76983 -2.56088,25.12871 h 41.19989 c 0,0 -0.80558,-10.943 -1.92322,-22.13474 l -0.94651,-6.84236 c -11.3618,-2.34211 -23.87214,-3.06726 -34.74557,-3.10007 0.0335,0.69168 0.0508,1.34413 0.009,1.89362 -0.13384,1.76945 -0.49481,3.36711 -1.03272,5.05484"
       style="fill:#edae4a;fill-opacity:1;fill-rule:nonzero;stroke:none;stroke-width:0.0643437"
       id="path149" />
    <path
       d="m 116.61675,88.987397 c 8.16714,0.214265 10.32522,-7.123486 10.85735,-12.054785 -4.26084,-1.789397 -9.09369,-2.856213 -14.54875,-2.799592 0,0 -3.36131,0.074 -8.31191,1.340278 0,0 -0.26252,13.192383 12.00331,13.514099"
       style="fill:#fbc6ac;fill-opacity:1;fill-rule:nonzero;stroke:none;stroke-width:0.0643437"
       id="path151" />
    <path
       d="m 122.12714,81.587878 h -12.50841 l -0.90145,-15.300923 h 10.20747 l 3.20239,15.300923"
       style="fill:#fbc6ac;fill-opacity:1;fill-rule:nonzero;stroke:none;stroke-width:0.0643437"
       id="path153" />
    <path
       d="m 108.71728,66.286955 0.30691,5.209906 c 6.5e-4,6.43e-4 2.39488,3.369034 11.50143,2.440555 l -1.60087,-7.650461 h -10.20747"
       style="fill:#ef9876;fill-opacity:1;fill-rule:nonzero;stroke:none;stroke-width:0.0643437"
       id="path155" />
    <path
       d="m 107.14021,61.318338 c -0.1036,1.718618 -1.58028,3.027368 -3.2989,2.923775 -1.71797,-0.103598 -3.02672,-1.58028 -2.92377,-3.298256 0.10359,-1.71862 1.58092,-3.02737 3.2989,-2.923777 1.71797,0.103598 3.02737,1.580281 2.92377,3.298258"
       style="fill:#ef9876;fill-opacity:1;fill-rule:nonzero;stroke:none;stroke-width:0.0643437"
       id="path157" />
    <path
       d="m 127.59378,62.226226 c -0.1036,1.717976 -1.58028,3.026726 -3.2989,2.923133 -1.71798,-0.102941 -3.02673,-1.580281 -2.92314,-3.298256 0.1036,-1.71862 1.58028,-3.02737 3.29826,-2.923777 1.71862,0.103598 3.02737,1.58028 2.92378,3.2989"
       style="fill:#fbc6ac;fill-opacity:1;fill-rule:nonzero;stroke:none;stroke-width:0.0643437"
       id="path159" />
    <path
       d="m 124.29166,62.818188 c -1.10607,5.793503 -6.69818,9.592996 -12.49104,8.487573 -5.79286,-1.106069 -9.59299,-6.698819 -8.48757,-12.491036 1.10607,-5.792859 6.69882,-9.592996 12.49168,-8.487573 5.79286,1.106068 9.59235,6.698176 8.48693,12.491036"
       style="fill:#fbc6ac;fill-opacity:1;fill-rule:nonzero;stroke:none;stroke-width:0.0643437"
       id="path161" />
    <path
       d="m 107.14021,60.260527 c -0.0534,0.49802 -0.50124,0.858344 -0.99926,0.80494 -0.49802,-0.0534 -0.85834,-0.501882 -0.80493,-0.999902 0.054,-0.498019 0.50123,-0.858343 0.99925,-0.804939 0.49867,0.05404 0.85899,0.501238 0.80494,0.999901"
       style="fill:#291f22;fill-opacity:1;fill-rule:nonzero;stroke:none;stroke-width:0.0643437"
       id="path163" />
    <path
       d="m 116.12323,61.228898 c -0.054,0.49802 -0.50124,0.857702 -0.9999,0.804298 -0.49802,-0.05404 -0.85834,-0.501238 -0.8043,-0.999258 0.0534,-0.498663 0.5006,-0.858345 0.99926,-0.804939 0.49802,0.05404 0.85835,0.501237 0.80494,0.999899"
       style="fill:#291f22;fill-opacity:1;fill-rule:nonzero;stroke:none;stroke-width:0.0643437"
       id="path165" />
    <path
       d="m 114.88912,66.859613 c -0.35647,-1.761086 -1.63948,-3.152839 -3.26544,-3.79499 -0.0245,0.04312 -0.0425,0.09008 -0.0714,0.13061 -0.41244,0.579737 -1.7643,1.418136 -2.50812,1.276578 -0.8725,-0.167289 -0.84483,-0.872498 -0.554,-1.670361 -2.62843,0.563008 -4.30716,3.002277 -3.78019,5.601116 0.54821,2.702435 3.27059,4.548453 6.08177,4.122498 2.81117,-0.425953 4.64561,-2.962382 4.0974,-5.665458"
       style="fill:#542b20;fill-opacity:1;fill-rule:nonzero;stroke:none;stroke-width:0.0643437"
       id="path167" />
    <path
       d="m 107.57131,65.915048 c 0,0 1.64141,1.266284 3.20754,0.10938"
       style="fill:none;stroke:#ffffff;stroke-width:0.631233;stroke-linecap:round;stroke-linejoin:round;stroke-miterlimit:10;stroke-dasharray:none;stroke-opacity:1"
       id="path169" />
    <path
       d="m 104.11091,56.413419 c -1.89556,0.783063 -3.17343,-1.967628 -2.96946,-3.541475 0.23421,-1.803553 1.7598,-3.05375 3.52475,-2.984902 -0.60612,-1.53717 1.66972,-2.935358 2.90705,-2.027469 0.28439,-1.936744 2.22886,-2.515193 3.97,-2.549295 2.17224,-0.04118 4.21901,1.190358 4.64819,3.37418 1.15432,-0.471639 2.75519,-0.211689 3.3819,1.044943 3.11359,-0.899526 6.86418,0.565579 7.54172,4.043998 0.41566,2.136853 -0.25544,3.643138 -1.06232,5.523903 -1.63175,-0.685904 -3.32656,2.315085 -3.78276,3.466193 -1.06875,-0.341021 -2.16259,-0.501236 -2.86908,-1.51658 -0.74575,-1.073252 -0.79079,-2.632299 -0.58617,-3.861262 -1.41621,0.438823 -3.09493,-0.492873 -3.94749,-1.606663 -0.46456,0.494161 -1.24183,0.653089 -1.90972,0.718075 -0.88086,0.08622 -1.63626,-0.08687 -2.41932,-0.483862 -0.30177,-0.152498 -1.08162,-0.921402 -1.32419,-0.927193 -0.47228,-0.01423 -0.86221,0.789496 -1.40141,0.963224 -0.74059,0.238716 -1.58542,-0.134477 -2.2398,-0.429814 -0.30177,0.317213 -0.81395,0.710352 -1.46189,0.793999"
       style="fill:#542b20;fill-opacity:1;fill-rule:nonzero;stroke:none;stroke-width:0.0643437"
       id="path171" />
    <path
       d="m 37.99542,51.335418 7.066992,21.272014 c 0.49313,1.484408 2.112017,2.271332 3.584394,1.74307 l 16.53632,-6.757371 -7.202694,-23.29305 -3.053815,1.009553 -1.003631,-3.185655 -14.385313,5.774844 c -1.32786,0.570729 -1.998192,2.064145 -1.542253,3.436595"
       style="fill:#e8572e;fill-opacity:1;fill-rule:nonzero;stroke:none;stroke-width:0.0643437"
       id="path173" />
    <path
       d="m 44.521797,53.813935 c -0.09375,-0.02574 -0.189299,-0.03411 -0.286007,-0.02316 -0.09678,0.01021 -0.192324,0.03217 -0.286071,0.06562 -0.08095,0.02895 -0.157587,0.06563 -0.230222,0.10938 -0.07239,0.04439 -0.140971,0.09329 -0.205579,0.148631 l 0.440818,1.221244 c 0.116402,-0.0489 0.231252,-0.101026 0.34559,-0.156364 0.114141,-0.0547 0.220956,-0.125467 0.320754,-0.210405 0.05959,-0.04954 0.111313,-0.10938 0.155324,-0.177595 0.04394,-0.06885 0.07888,-0.141554 0.104292,-0.217479 0.02535,-0.07593 0.03918,-0.153136 0.04144,-0.229708 0.0024,-0.07657 -0.0086,-0.147354 -0.03217,-0.212978 -0.02561,-0.07206 -0.06832,-0.136411 -0.1274,-0.192387 -0.05908,-0.05598 -0.139238,-0.0978 -0.240775,-0.124829 z m -0.154814,2.862649 c -0.02619,0.05019 -0.0626,0.08365 -0.10938,0.101027 -0.04368,0.0155 -0.09021,0.0135 -0.139493,-0.0058 -0.04923,-0.01995 -0.09098,-0.06178 -0.124884,-0.1274 l -0.806031,-2.232725 c -0.05205,0.01149 -0.09884,0.0071 -0.140278,-0.0155 -0.04149,-0.02187 -0.07039,-0.05661 -0.08744,-0.103598 -0.01003,-0.02767 -0.01386,-0.05984 -0.01131,-0.09587 0.0027,-0.03668 0.01532,-0.0727 0.0377,-0.108742 0.103525,-0.132544 0.228934,-0.254801 0.375766,-0.366114 0.147026,-0.110675 0.304346,-0.196892 0.472991,-0.258018 0.137505,-0.04954 0.276226,-0.07786 0.416239,-0.08685 0.139748,-0.0071 0.277965,0.01094 0.414694,0.05727 0.160851,0.0547 0.290575,0.131267 0.389601,0.229707 0.09877,0.09844 0.170901,0.20976 0.21613,0.334586 0.03571,0.09973 0.05483,0.204615 0.05707,0.313355 0.002,0.107446 -0.01113,0.215552 -0.03945,0.323004 -0.02844,0.107447 -0.07117,0.211049 -0.128167,0.311424 -0.05758,0.09973 -0.129206,0.191745 -0.21568,0.276035 0.167162,0.09072 0.346362,0.18724 0.537849,0.287615 0.191035,0.09973 0.369718,0.194962 0.536111,0.28247 0.04979,0.03153 0.08448,0.074 0.103598,0.126762 0.01911,0.0534 0.01733,0.102303 -0.0051,0.146697 -0.02265,0.04505 -0.0588,0.07721 -0.10887,0.09586 -0.0249,0.0084 -0.05432,0.01295 -0.08769,0.01222 -0.03373,0 -0.06789,-0.0097 -0.10307,-0.02896 -0.0269,-0.01477 -0.07265,-0.03925 -0.137961,-0.07464 -0.06537,-0.03411 -0.139493,-0.0727 -0.221921,-0.115819 -0.08224,-0.04246 -0.169168,-0.08815 -0.261427,-0.138343 -0.09202,-0.04954 -0.178434,-0.09587 -0.259113,-0.138983 -0.08094,-0.04312 -0.153847,-0.08107 -0.218703,-0.114542 -0.0646,-0.03281 -0.110347,-0.05661 -0.136995,-0.07206 -0.07837,0.04633 -0.158808,0.08751 -0.241032,0.12419 -0.08191,0.03668 -0.16459,0.07142 -0.247531,0.104875 l 0.278481,0.772767 c 0.02284,0.0727 0.02136,0.134477 -0.0047,0.184022"
       style="fill:#edae4a;fill-opacity:1;fill-rule:nonzero;stroke:none;stroke-width:0.0643437"
       id="path175" />
    <path
       d="m 48.069964,54.761718 c 0.05811,-0.02446 0.111386,-0.03088 0.160158,-0.01866 0.0487,0.01295 0.0852,0.03668 0.110292,0.07206 0.0249,0.03411 0.03648,0.07657 0.03449,0.124829 -0.0018,0.04762 -0.02388,0.09716 -0.06562,0.147993 -0.100753,0.07206 -0.21214,0.13962 -0.333299,0.204612 -0.121345,0.06499 -0.246566,0.122895 -0.375962,0.175023 -0.129461,0.05211 -0.259625,0.09716 -0.390886,0.1332 -0.131651,0.03732 -0.260142,0.06241 -0.385549,0.07657 -0.05906,-0.0077 -0.106297,-0.0251 -0.140715,-0.05277 -0.03495,-0.02767 -0.05682,-0.05984 -0.06615,-0.09587 l -0.0017,-0.0046 -0.741433,-2.055136 c -0.04503,0.0026 -0.08423,-0.0084 -0.117168,-0.03153 -0.03314,-0.02316 -0.0563,-0.05404 -0.07013,-0.09072 -0.01332,-0.03795 -0.01405,-0.07978 -0.0022,-0.12419 0.0124,-0.04439 0.04124,-0.08622 0.08777,-0.123534 0.10803,-0.08171 0.222886,-0.152497 0.344302,-0.21169 0.121162,-0.05984 0.245085,-0.115181 0.371263,-0.166013 0.126434,-0.05019 0.25332,-0.09909 0.381494,-0.145421 0.127984,-0.04633 0.253128,-0.09459 0.375766,-0.146059 0.0671,-0.02767 0.126945,-0.03154 0.178233,-0.01167 0.05154,0.01995 0.08822,0.05083 0.110092,0.09266 0.02207,0.04118 0.02586,0.08815 0.01131,0.140915 -0.01423,0.05277 -0.05302,0.09973 -0.116074,0.139621 -0.183765,0.07721 -0.381557,0.152498 -0.593184,0.225203 -0.21214,0.0727 -0.410706,0.160212 -0.59595,0.262523 l 0.297331,0.823598 c 0.164408,-0.05211 0.327252,-0.111952 0.48837,-0.178233 0.160851,-0.06756 0.321459,-0.138344 0.481354,-0.213621 0.0671,-0.02767 0.126635,-0.03154 0.17816,-0.01149 0.05129,0.02059 0.08822,0.05147 0.109836,0.09265 0.02187,0.04118 0.02594,0.08879 0.01149,0.141554 -0.01441,0.0534 -0.05328,0.09973 -0.116147,0.139621 -0.16614,0.07786 -0.334008,0.152498 -0.50394,0.223917 -0.169606,0.07206 -0.340313,0.135115 -0.510953,0.189814 l 0.273718,0.758612 c 0.197277,-0.03989 0.394362,-0.10296 0.590611,-0.189171 0.196055,-0.08687 0.373,-0.184666 0.531091,-0.294693"
       style="fill:#edae4a;fill-opacity:1;fill-rule:nonzero;stroke:none;stroke-width:0.0643437"
       id="path177" />
    <path
       d="m 50.292138,53.647286 c 0.03513,-0.05855 0.0794,-0.09716 0.132416,-0.116457 0.04999,-0.01806 0.09851,-0.01605 0.145293,0.0058 0.04653,0.02253 0.0794,0.05984 0.09851,0.112608 0.01003,0.02767 0.01459,0.06562 0.01386,0.111952 -0.02388,0.09973 -0.05404,0.200109 -0.09047,0.299199 -0.03648,0.09973 -0.08319,0.19303 -0.140533,0.277964 -0.05707,0.08622 -0.125157,0.163423 -0.204098,0.232923 -0.07914,0.06885 -0.174876,0.123534 -0.287036,0.164718 -0.168895,0.06048 -0.335037,0.08171 -0.498407,0.06305 -0.163623,-0.01866 -0.317664,-0.06885 -0.461729,-0.151203 -0.144509,-0.08171 -0.272688,-0.19303 -0.38529,-0.334586 -0.112863,-0.140277 -0.202038,-0.30306 -0.268699,-0.487082 -0.04748,-0.131267 -0.07412,-0.259306 -0.08043,-0.383489 -0.0073,-0.167289 0,-0.317857 0.02214,-0.452978 0.02187,-0.134477 0.06035,-0.25995 0.115363,-0.377054 0.05457,-0.117114 0.125157,-0.229708 0.211884,-0.336518 0.08673,-0.106808 0.191037,-0.216194 0.313418,-0.326222 0.0787,-0.07527 0.154102,-0.137687 0.225716,-0.187883 0.07163,-0.05083 0.143287,-0.08879 0.215423,-0.114542 0.109325,-0.03989 0.218897,-0.04376 0.328733,-0.01295 0.109581,0.03088 0.230736,0.106809 0.362963,0.229064 0.01955,0.02444 0.03416,0.05083 0.04419,0.0785 0.02014,0.05662 0.01963,0.108104 -0.0026,0.154431 -0.02187,0.04697 -0.05778,0.07914 -0.107575,0.09716 -0.05959,0.02187 -0.12315,0.01605 -0.191036,-0.01605 -0.07412,-0.06756 -0.134423,-0.113247 -0.180933,-0.135116 -0.04697,-0.02187 -0.09227,-0.0251 -0.135699,-0.0097 -0.03449,0.01295 -0.07168,0.03604 -0.112609,0.07013 -0.04047,0.03411 -0.09253,0.07593 -0.155123,0.1274 -0.101538,0.08944 -0.195285,0.18724 -0.27996,0.293408 -0.08519,0.106808 -0.151787,0.222629 -0.200046,0.347456 -0.04852,0.126105 -0.0742,0.259304 -0.07774,0.401503 -0.0035,0.142193 0.02393,0.292764 0.08095,0.451693 0.04047,0.112608 0.0978,0.216194 0.1707,0.312066 0.0731,0.09523 0.157312,0.173728 0.252357,0.236784 0.09472,0.06305 0.1985,0.102942 0.310651,0.120324 0.112079,0.01806 0.229191,0.0051 0.350864,-0.03861 0.07214,-0.02637 0.133967,-0.06499 0.185954,-0.11518 0.05257,-0.05083 0.09652,-0.109381 0.133,-0.174367 0.03617,-0.06628 0.06608,-0.135115 0.08924,-0.207185 0.02362,-0.07206 0.0422,-0.142193 0.0563,-0.211047"
       style="fill:#edae4a;fill-opacity:1;fill-rule:nonzero;stroke:none;stroke-width:0.0643437"
       id="path179" />
    <path
       d="m 52.31967,53.328785 c 0.06763,-0.02831 0.126945,-0.03217 0.178489,-0.01149 0.05147,0.01995 0.08795,0.05083 0.110347,0.09202 0.02207,0.04246 0.02586,0.08879 0.01094,0.141554 -0.01404,0.0534 -0.05302,0.09973 -0.115819,0.140259 -0.160413,0.06435 -0.32101,0.125467 -0.482126,0.181443 -0.161307,0.05727 -0.323198,0.114524 -0.485537,0.172433 -0.07219,0.0155 -0.131449,0.0097 -0.178233,-0.01733 -0.04678,-0.02703 -0.07766,-0.06371 -0.09245,-0.10938 -0.01459,-0.04569 -0.01076,-0.09395 0.01131,-0.144126 0.0224,-0.05083 0.06738,-0.09008 0.135243,-0.117752 0.04653,-0.01678 0.09273,-0.03345 0.137961,-0.04954 0.04531,-0.01678 0.09202,-0.03153 0.139749,-0.04569 l -0.737894,-2.045484 -0.29508,0.106809 c -0.07194,0.01477 -0.13145,0.0089 -0.178233,-0.01866 -0.04678,-0.02637 -0.07792,-0.06305 -0.09273,-0.108742 -0.01477,-0.04633 -0.01058,-0.09395 0.01186,-0.144782 0.02214,-0.05019 0.0671,-0.08944 0.134733,-0.117113 l 0.964382,-0.3481 c 0.06615,-0.0026 0.119941,0.0097 0.161125,0.03732 0.04202,0.02703 0.06885,0.06112 0.08146,0.09973 0.01259,0.03989 0.0098,0.08364 -0.0088,0.129972 -0.01787,0.04826 -0.05457,0.08815 -0.109581,0.122257 l -0.285298,0.102942 0.739694,2.049991 c 0.04047,-0.01423 0.08094,-0.0296 0.120907,-0.04633 0.03996,-0.0155 0.08146,-0.03347 0.123661,-0.05213"
       style="fill:#edae4a;fill-opacity:1;fill-rule:nonzero;stroke:none;stroke-width:0.0643437"
       id="path181" />
    <path
       d="m 53.661878,50.463561 c -0.114925,-0.01477 -0.230028,-0.0013 -0.34559,0.04053 -0.10938,0.03925 -0.212398,0.09459 -0.3102,0.166652 -0.09729,0.0727 -0.183187,0.146697 -0.258146,0.223272 l 0.415725,1.151109 c 0.07091,-0.0084 0.140788,-0.01995 0.209115,-0.03604 0.06865,-0.0155 0.136995,-0.03538 0.205643,-0.05984 0.06557,-0.0238 0.129389,-0.05213 0.191487,-0.08558 0.085,-0.04826 0.166396,-0.102942 0.244828,-0.164718 0.07817,-0.06241 0.138472,-0.141554 0.181699,-0.237428 0.03744,-0.09136 0.05707,-0.182736 0.05908,-0.276033 0.002,-0.09136 -0.01186,-0.178233 -0.04098,-0.25995 -0.04272,-0.119028 -0.111824,-0.219411 -0.207316,-0.303702 -0.09555,-0.08364 -0.210917,-0.13641 -0.345332,-0.158279 z m -1.340214,0.216194 c 0.02393,-0.04182 0.05733,-0.07079 0.101081,-0.08687 0.0249,-0.0084 0.04472,-0.01222 0.05977,-0.01021 0.09909,-0.09652 0.20841,-0.18531 0.327059,-0.266383 0.118846,-0.08107 0.24354,-0.146059 0.374481,-0.19303 0.08769,-0.03217 0.175661,-0.05404 0.264387,-0.06692 0.08899,-0.01222 0.180476,-0.01094 0.274233,0.0046 0.0998,0.0135 0.196828,0.04182 0.290318,0.08558 0.09324,0.04376 0.17816,0.09909 0.255058,0.164718 0.0767,0.06563 0.145038,0.140277 0.205385,0.224559 0.0603,0.08428 0.107575,0.173089 0.140971,0.266383 0.06537,0.181443 0.07741,0.366116 0.03571,0.553999 -0.04523,0.195604 -0.126178,0.36869 -0.241289,0.517966 -0.115892,0.149269 -0.267155,0.266383 -0.455424,0.351959 -0.03597,0.01678 -0.07341,0.03281 -0.11208,0.04826 -0.03823,0.01605 -0.07464,0.0296 -0.109125,0.04246 -0.07188,0.02574 -0.143232,0.04762 -0.213878,0.06628 -0.07084,0.01866 -0.14252,0.03538 -0.214651,0.05147 0.04272,0.11839 0.09123,0.252227 0.145549,0.402791 0.05379,0.149288 0.103781,0.28247 0.149543,0.400218 0.02291,0.0727 0.02136,0.134477 -0.0047,0.184666 -0.02586,0.04954 -0.06234,0.08365 -0.109325,0.09973 -0.0435,0.01605 -0.09001,0.0135 -0.139493,-0.0051 -0.04903,-0.0193 -0.09072,-0.06178 -0.124956,-0.126762 L 52.89104,52.477083 c -0.0095,0.0038 -0.02136,0.0046 -0.03642,0.0026 -0.05559,-0.0077 -0.100826,-0.0251 -0.134732,-0.05147 -0.03442,-0.02637 -0.05758,-0.05727 -0.07013,-0.09136 -0.01459,-0.04053 -0.01386,-0.08237 0.0026,-0.125467 0.01605,-0.04312 0.04852,-0.0798 0.09703,-0.111314 l -0.4524,-1.254701 c -0.0067,-0.0682 0.0012,-0.123534 0.02484,-0.165357"
       style="fill:#edae4a;fill-opacity:1;fill-rule:nonzero;stroke:none;stroke-width:0.0643437"
       id="path183" />
    <path
       d="m 57.095192,51.505284 c 0.05855,-0.02444 0.111824,-0.03088 0.16034,-0.01806 0.04877,0.01222 0.08545,0.03604 0.110602,0.07079 0.0249,0.03538 0.03642,0.07721 0.03442,0.125467 -0.002,0.04826 -0.02387,0.0978 -0.06557,0.147992 -0.101082,0.07143 -0.212399,0.140259 -0.333558,0.204613 -0.121418,0.06562 -0.246823,0.123533 -0.375768,0.175661 -0.129462,0.05213 -0.259883,0.09587 -0.391338,0.1332 -0.131194,0.03668 -0.259626,0.06178 -0.385289,0.07527 -0.05906,-0.0071 -0.106097,-0.02444 -0.140532,-0.05211 -0.03495,-0.02831 -0.05682,-0.05984 -0.06634,-0.09523 l -0.0015,-0.0046 -0.741496,-2.05578 c -0.04498,0.002 -0.08423,-0.0077 -0.117114,-0.03154 -0.03347,-0.02316 -0.05656,-0.0534 -0.07013,-0.09136 -0.0135,-0.03732 -0.01459,-0.0785 -0.0022,-0.122895 0.01204,-0.04569 0.04118,-0.08622 0.08718,-0.124829 0.108614,-0.08107 0.223209,-0.151859 0.344625,-0.211047 0.121163,-0.05984 0.245278,-0.11518 0.3712,-0.166012 0.126433,-0.05083 0.253642,-0.09909 0.381557,-0.145421 0.127656,-0.04633 0.253128,-0.09523 0.375767,-0.146059 0.06737,-0.02767 0.127145,-0.03217 0.178433,-0.01149 0.05154,0.02059 0.08822,0.05147 0.110092,0.09266 0.02214,0.04182 0.02568,0.08879 0.01113,0.141554 -0.01404,0.05277 -0.05302,0.09909 -0.115892,0.139621 -0.183701,0.07721 -0.381751,0.151859 -0.593376,0.22456 -0.211884,0.07336 -0.410707,0.160213 -0.595694,0.262522 l 0.297074,0.824243 c 0.164407,-0.05211 0.326995,-0.111952 0.488369,-0.17951 0.161125,-0.06628 0.321203,-0.137049 0.481291,-0.212978 0.06736,-0.02767 0.126945,-0.03154 0.178488,-0.01094 0.05103,0.01995 0.08797,0.05083 0.109837,0.09202 0.02207,0.04182 0.02586,0.08879 0.01149,0.141554 -0.01459,0.05277 -0.05328,0.09973 -0.116329,0.140277 -0.165885,0.07721 -0.334072,0.151859 -0.50394,0.223273 -0.169424,0.0727 -0.340056,0.135115 -0.51076,0.189813 l 0.273718,0.758612 c 0.197342,-0.03925 0.394104,-0.102942 0.590418,-0.18917 0.196054,-0.08685 0.373257,-0.184667 0.530834,-0.294695"
       style="fill:#edae4a;fill-opacity:1;fill-rule:nonzero;stroke:none;stroke-width:0.0643437"
       id="path185" />
    <path
       d="M 66.08368,100.03328 C 59.928824,95.275061 56.625162,85.491608 55.280508,80.508191 c 0.02187,-0.192388 0.0036,-0.373837 -0.07792,-0.530836 -0.02439,-0.04697 -0.05784,-0.08879 -0.09574,-0.126762 -0.382586,-1.484409 -0.560754,-2.407097 -0.560754,-2.407097 v 0 c 0.257889,-0.596465 0.530834,-1.194861 0.642407,-1.916153 0.122895,-0.794001 0.286265,-1.625322 0.194832,-2.431549 l -0.133255,-1.521082 -7.348239,2.97525 c -0.655983,-1.497921 -1.198915,-2.64195 -2.392297,-3.751235 1.574425,-1.242476 3.595202,-2.416749 4.51287,-4.296227 0.275714,-0.564294 0.441849,-1.09513 0.368947,-1.754652 -0.03217,-0.29019 -0.327446,-0.782419 -0.283498,-1.043011 0.0588,-0.347456 0.434834,-0.514749 0.683652,-0.763115 1.03381,-1.03529 1.504804,-2.597554 0.832736,-3.964857 -0.502202,-1.020491 -0.942056,-0.655661 -1.808445,-0.227132 -1.062634,0.525687 -2.204992,0.813304 -3.373022,1.043009 -0.685905,0.135116 -1.499465,0.291478 -2.289735,0.529549 -1.259976,-2.910264 -6.737231,-10.718366 -8.891199,-7.639522 -1.107162,1.583497 0.241804,2.936001 1.376311,4.016331 1.215001,1.157542 2.095994,2.401305 2.834145,3.912095 0.380078,0.77727 0.919663,1.635616 1.28385,2.508758 -0.597174,1.120223 -1.209662,2.262968 -1.648806,3.448178 -1.249168,3.370963 -1.474821,6.423427 -1.302702,10.006726 0.113885,2.365273 0.363734,4.492475 1.712891,6.433079 -0.04093,9.103984 1.173051,40.853734 19.876917,45.688514 21.874464,5.65335 15.855113,-21.57573 6.689231,-28.66318"
       style="fill:#fbc6ac;fill-opacity:1;fill-rule:nonzero;stroke:none;stroke-width:0.0643437"
       id="path187" />
    <path
       d="m 66.08368,100.03328 c -0.497376,-0.38478 -0.969658,-0.812023 -1.430102,-1.257281 0.443071,0.880221 0.880929,1.777171 1.172985,2.757131 1.083548,3.63606 1.287646,7.36413 1.286874,11.1366 -9.67e-4,5.36175 -0.600456,10.68812 -3.250322,15.45083 -0.24637,0.44334 -0.514555,0.85642 -0.795287,1.25084 17.457915,1.75016 11.626386,-22.68049 3.015852,-29.33812"
       style="fill:#ef9876;fill-opacity:1;fill-rule:nonzero;stroke:none;stroke-width:0.0643437"
       id="path189" />
    <path
       d="m 139.15182,139.06878 9.97972,-51.846328"
       style="fill:none;stroke:#d48825;stroke-width:3.21719;stroke-linecap:round;stroke-linejoin:round;stroke-miterlimit:10;stroke-dasharray:none;stroke-opacity:1"
       id="path191" />
    <path
       d="m 142.1541,92.848017 c -1.27271,-0.162146 -2.19862,0.709711 -2.59368,1.846021 -0.22843,0.657592 -0.26639,1.220598 -0.62351,1.836368 -0.45618,0.786923 -1.11507,1.220599 -1.64847,1.914224 -1.42006,1.84602 0.75732,3.47198 2.61042,3.33236 2.71209,-0.20397 3.3581,-2.941152 3.72356,-5.154573 0.24065,-1.45867 0.22263,-2.712728 -1.00569,-3.601316 -0.11655,0.01605 -0.15704,0.03796 -0.46263,-0.173089"
       style="fill:#ef9876;fill-opacity:1;fill-rule:nonzero;stroke:none;stroke-width:0.0643437"
       id="path193" />
    <path
       d="m 146.49729,113.84014 c -0.77533,-0.6769 -0.35838,-2.70758 -0.58938,-3.78019 -0.71743,0.16408 -1.87175,-0.57202 -2.51069,-0.24129 0,2.81504 -1.59572,5.64616 -2.53128,3.60131 -0.84354,-1.8428 -1.63432,-4.7833 -1.71155,-6.76187 -0.0443,-1.12923 0.53085,-1.69674 1.1434,-2.58533 -1.42264,-1.77331 -0.24836,-3.01836 0.28504,-4.904274 0,0 -0.3764,-1.17749 -0.29212,-2.157443 0.0901,-1.043654 0.89244,-1.739854 1.67616,-2.337605 -1.07777,-0.738022 -1.26114,-1.864036 -0.50382,-3.062758 0.64859,-1.024994 2.32217,-1.320332 3.48036,-1.552613 1.14917,-0.230351 2.45535,-0.530836 3.59873,-0.499951 1.64269,0.04505 3.18758,0.951 4.53815,1.802266 2.01782,1.271431 3.90181,2.578252 5.78515,4.039495 3.4797,2.699217 5.24144,6.281233 6.70139,10.392793 2.08731,5.88229 4.15532,11.74336 6.13645,17.66426 2.00239,5.98846 4.09613,12.86615 -1.31261,17.63917 -3.9539,3.48935 -9.48361,4.87854 -14.24503,2.25274 -4.96605,-2.7379 -6.31084,-9.10914 -6.33143,-14.30174 -0.0182,-4.38308 0.32301,-12.90154 0.32301,-12.90154 -0.027,0.12419 -2.87423,-1.63755 -3.63993,-2.30543"
       style="fill:#fbc6ac;fill-opacity:1;fill-rule:nonzero;stroke:none;stroke-width:0.0643437"
       id="path195" />
    <path
       d="m 161.47136,137.09019 c -3.19145,0.16963 -7.03663,-0.3192 -9.90636,-1.7722 -0.39571,-0.20012 -0.79141,-0.4786 -1.18262,-0.79324 0.77983,3.60195 2.47465,7.01018 5.76326,8.8241 4.76142,2.6258 10.29113,1.23661 14.24503,-2.25203 3.45849,-3.05175 3.84776,-6.96392 3.1567,-10.95394 -0.44976,0.67432 -0.98189,1.35123 -1.63239,2.0545 -2.71465,2.93909 -6.43502,4.68042 -10.44362,4.89281"
       style="fill:#ef9876;fill-opacity:1;fill-rule:nonzero;stroke:none;stroke-width:0.0643437"
       id="path197" />
    <path
       d="m 141.96687,94.673448 5.73687,-0.940704"
       style="fill:none;stroke:#ef9876;stroke-width:0.643437;stroke-linecap:round;stroke-linejoin:round;stroke-miterlimit:10;stroke-dasharray:none;stroke-opacity:1"
       id="path199" />
    <path
       d="m 140.58283,99.168496 6.39705,-1.012126"
       style="fill:none;stroke:#ef9876;stroke-width:0.643437;stroke-linecap:round;stroke-linejoin:round;stroke-miterlimit:10;stroke-dasharray:none;stroke-opacity:1"
       id="path201" />
    <path
       d="m 140.29779,104.07277 6.1995,-0.60805"
       style="fill:none;stroke:#ef9876;stroke-width:0.643437;stroke-linecap:round;stroke-linejoin:round;stroke-miterlimit:10;stroke-dasharray:none;stroke-opacity:1"
       id="path203" />
    <path
       d="m 150.13722,116.14557 c 0,0 1.99015,0.91175 4.32261,0.42917"
       style="fill:none;stroke:#ef9876;stroke-width:0.643437;stroke-linecap:round;stroke-linejoin:round;stroke-miterlimit:10;stroke-dasharray:none;stroke-opacity:1"
       id="path205" />
    <path
       d="m 110.08458,130.52638 v 43.6461 c 0,1.36228 10.38893,2.46642 23.20425,2.46642 12.81534,0 23.20361,-1.10414 23.20361,-2.46642 v -43.6461 h -46.40786"
       style="fill:#adbdc5;fill-opacity:1;fill-rule:nonzero;stroke:none;stroke-width:0.0643437"
       id="path207" />
    <path
       d="m 145.90791,176.24178 c 0.61962,-0.043 1.21867,-0.0888 1.79583,-0.13698 v -45.5784 h -1.79583 v 45.7154"
       style="fill:#ffffff;fill-opacity:1;fill-rule:nonzero;stroke:none;stroke-width:0.0643437"
       id="path209" />
    <path
       d="m 136.8316,176.61052 c 1.78811,-0.0294 3.50672,-0.0804 5.13527,-0.15102 v -45.93307 h -5.13527 v 46.08415"
       style="fill:#ffffff;fill-opacity:1;fill-rule:nonzero;stroke:none;stroke-width:0.0643437"
       id="path211" />
    <path
       d="m 156.49244,130.52638 c 0,1.36215 -10.38827,2.46628 -23.20361,2.46628 -12.81532,0 -23.20425,-1.10413 -23.20425,-2.46628 0,-1.36215 10.38893,-2.46694 23.20425,-2.46694 12.81534,0 23.20361,1.10479 23.20361,2.46694"
       style="fill:#4d5f88;fill-opacity:1;fill-rule:nonzero;stroke:none;stroke-width:0.0643437"
       id="path213" />
    <path
       d="m 113.49157,131.81324 c 4.07939,0.70715 11.41843,1.17942 19.79726,1.17942 8.37819,0 15.71788,-0.47227 19.79726,-1.17942 -4.07938,-0.70777 -11.41907,-1.18005 -19.79726,-1.18005 -8.37883,0 -15.71787,0.47228 -19.79726,1.18005"
       style="fill:#fbdd69;fill-opacity:1;fill-rule:nonzero;stroke:none;stroke-width:0.0643437"
       id="path215" />
    <path
       d="m 138.96845,131.46322 3.19466,-16.55176 c 0.16798,-0.87186 1.01212,-1.44194 1.88399,-1.27529 0.87249,0.16729 1.44323,1.01148 1.27592,1.88334 l -3.10844,16.10007 c -0.14792,0.76955 -3.41406,0.7155 -3.24613,-0.15631"
       style="fill:#d48825;fill-opacity:1;fill-rule:nonzero;stroke:none;stroke-width:0.0643437"
       id="path217" />
    <path
       d="m 116.19723,139.60462 h -13.10681 v -3.96794 h 13.10681 v 3.96794"
       style="fill:#adbdc5;fill-opacity:1;fill-rule:nonzero;stroke:none;stroke-width:0.0643437"
       id="path219" />
    <path
       d="m 163.04585,139.60462 h -13.10681 v -3.96794 h 13.10681 v 3.96794"
       style="fill:#adbdc5;fill-opacity:1;fill-rule:nonzero;stroke:none;stroke-width:0.0643437"
       id="path221" />
    <path
       d="m 50.107856,63.704843 c 0,0 -9.943348,2.110473 -11.643178,4.902987"
       style="fill:none;stroke:#ef9876;stroke-width:0.643437;stroke-linecap:round;stroke-linejoin:round;stroke-miterlimit:10;stroke-dasharray:none;stroke-opacity:1"
       id="path223" />
    <path
       d="m 40.75615,63.119959 c 0,0 1.107419,-2.267471 3.396893,-2.797663"
       style="fill:none;stroke:#ef9876;stroke-width:0.643437;stroke-linecap:round;stroke-linejoin:round;stroke-miterlimit:10;stroke-dasharray:none;stroke-opacity:1"
       id="path225" />
    <path
       d="m 45.509538,70.798733 -2.632042,1.787465"
       style="fill:none;stroke:#ef9876;stroke-width:0.643437;stroke-linecap:round;stroke-linejoin:round;stroke-miterlimit:10;stroke-dasharray:none;stroke-opacity:1"
       id="path227" />
    <path
       d="m 47.901835,74.549967 c 0,0 1.195376,3.07048 0.659008,5.322508"
       style="fill:none;stroke:#ef9876;stroke-width:0.643437;stroke-linecap:round;stroke-linejoin:round;stroke-miterlimit:10;stroke-dasharray:none;stroke-opacity:1"
       id="path229" />
    <path
       d="m 54.54609,77.443502 -1.794095,3.17922"
       style="fill:none;stroke:#ef9876;stroke-width:0.643437;stroke-linecap:round;stroke-linejoin:round;stroke-miterlimit:10;stroke-dasharray:none;stroke-opacity:1"
       id="path231" />
    <path
       d="m 117.57096,165.23599 c -0.21619,3.07698 -1.38274,5.34759 -0.57266,8.69398 0.84098,3.47456 2.72238,5.79093 6.52252,5.90552 3.21783,0.0965 4.22802,-3.07369 3.1818,-5.73159 -0.88795,-2.25609 -2.60914,-3.21217 -4.69709,-4.0635 -2.38458,-0.97295 -3.87606,-2.03133 -4.43457,-4.80441"
       style="fill:#e8572e;fill-opacity:1;fill-rule:nonzero;stroke:none;stroke-width:0.0643437"
       id="path233" />
    <path
       d="m 132.79017,180.01571 c -4.62309,-0.51551 -5.30256,-5.69189 -1.28301,-7.98188 2.81375,-1.60408 8.62462,-1.96449 8.45089,-6.34312 1.025,2.77076 2.02489,5.92611 1.16269,9.25719 -1.07325,4.14263 -3.56849,4.79359 -8.33057,5.06781"
       style="fill:#e8572e;fill-opacity:1;fill-rule:nonzero;stroke:none;stroke-width:0.0643437"
       id="path235" />
    <path
       d="m 127.59056,167.99048 c -2.3183,-0.13205 -4.18877,-1.90013 -4.09612,-4.38491 0.0849,-2.26765 1.55519,-4.34274 -0.77727,-6.07622 4.30137,-0.0635 9.34721,7.01745 4.87339,10.46113"
       style="fill:#e8572e;fill-opacity:1;fill-rule:nonzero;stroke:none;stroke-width:0.0643437"
       id="path237" />
    <path
       d="m 146.50503,170.70199 c 0.52118,1.79055 -6.18988,7.6536 -1.35701,8.01399 4.26276,0.31851 5.23563,-6.6442 1.35701,-8.01399"
       style="fill:#e8572e;fill-opacity:1;fill-rule:nonzero;stroke:none;stroke-width:0.0643437"
       id="path239" />
    <path
       d="m 117.79166,168.38933 c 0.54499,1.39324 0.89116,2.80475 1.7894,4.11021 0.85706,1.24718 1.94575,2.32615 2.98619,3.36144 0.98446,0.97804 3.43402,1.88006 3.32399,-0.43051 -0.10166,-2.13165 -2.15937,-2.74419 -3.71456,-3.59675 -1.52044,-0.8332 -3.25064,-1.78502 -4.38502,-3.44439"
       style="fill:#edae4a;fill-opacity:1;fill-rule:nonzero;stroke:none;stroke-width:0.0643437"
       id="path241" />
    <path
       d="m 125.19569,159.42826 c 1.13695,0.29985 2.27004,2.67554 2.19926,3.76082 -0.12997,2.01152 -2.41932,0.59518 -2.22371,-1.10465 0.0759,-0.6603 0.62606,-1.87298 0.0244,-2.65617"
       style="fill:#edae4a;fill-opacity:1;fill-rule:nonzero;stroke:none;stroke-width:0.0643437"
       id="path243" />
    <path
       d="m 133.03596,172.24945 c -1.59251,0.61634 -3.62769,2.69341 -2.69406,4.5561 1.08805,2.17031 4.96217,0.93299 5.30449,-1.23938 -0.5051,0.1636 -1.08226,0.33986 -1.61825,0.32449 0.66467,-0.67839 1.11443,-1.32183 1.51915,-2.17889 0.4266,-0.90254 1.173,-1.73328 1.52494,-2.57173 -1.14144,0.28374 -2.55379,0.56957 -4.03627,1.10941"
       style="fill:#edae4a;fill-opacity:1;fill-rule:nonzero;stroke:none;stroke-width:0.0643437"
       id="path245" />
    <path
       d="m 59.919042,145.69539 c 0,-2.17032 -2.570529,-3.93023 -5.741448,-3.93023 -3.171179,0 -5.741644,1.75991 -5.741644,3.93023 0,0.89554 0.442621,1.50828 1.179807,1.92253 v 2.08209 h 9.11518 v -2.07682 c 0.742461,-0.41521 1.188105,-1.02898 1.188105,-1.9278"
       style="fill:#4d5f88;fill-opacity:1;fill-rule:nonzero;stroke:none;stroke-width:0.0643437"
       id="path247" />
    <path
       d="m 57.729106,168.11338 h -7.210287 c -2.047415,0 -3.659801,-1.7456 -3.496948,-3.78671 l 2.272168,-12.37462 h 9.659849 l 2.272104,12.37462 c 0.162857,2.04111 -1.449471,3.78671 -3.496886,3.78671 z"
       style="fill:none;stroke:#adbdc5;stroke-width:0.643437;stroke-linecap:round;stroke-linejoin:round;stroke-miterlimit:10;stroke-dasharray:none;stroke-opacity:1"
       id="path249" />
    <path
       d="m 57.729106,168.11338 h -7.210287 c -2.047415,0 -3.659801,-1.7456 -3.496948,-3.78671 l 2.272168,-12.37462 h 9.659849 l 2.272104,12.37462 c 0.162857,2.04111 -1.449471,3.78671 -3.496886,3.78671 z"
       style="fill:none;stroke:#adbdc5;stroke-width:0.643437;stroke-linecap:round;stroke-linejoin:round;stroke-miterlimit:10;stroke-dasharray:none;stroke-opacity:1"
       id="path251" />
    <path
       d="m 50.518819,166.18305 c -0.445128,0 -0.856607,-0.18075 -1.158957,-0.50695 -0.284013,-0.30841 -0.431039,-0.70199 -0.418235,-1.1172 l 1.686512,-9.18635 6.717865,-1.49019 1.960487,10.67654 c 0.01277,0.41521 -0.134222,0.80879 -0.418234,1.1172 -0.302094,0.32628 -0.713828,0.50695 -1.158958,0.50695 h -7.21048"
       style="fill:#edae4a;fill-opacity:1;fill-rule:nonzero;stroke:none;stroke-width:0.0643437"
       id="path253" />
    <path
       d="m 59.114747,151.95205 h -9.874499 c -0.619309,0 -1.126016,-0.50697 -1.126016,-1.12603 v 0 c 0,-0.61878 0.506707,-1.12601 1.126016,-1.12601 h 9.874499 c 0.619308,0 1.126014,0.50723 1.126014,1.12601 v 0 c 0,0.61906 -0.506706,1.12603 -1.126014,1.12603 z"
       style="fill:none;stroke:#adbdc5;stroke-width:0.643437;stroke-linecap:round;stroke-linejoin:round;stroke-miterlimit:10;stroke-dasharray:none;stroke-opacity:1"
       id="path255" />
    <path
       d="m 55.138501,144.60155 c 0,0.26394 -0.360195,0.4773 -0.804295,0.4773 -0.444165,0 -0.804295,-0.21336 -0.804295,-0.4773 0,-0.26394 0.36013,-0.47756 0.804295,-0.47756 0.4441,0 0.804295,0.21362 0.804295,0.47756"
       style="fill:#adbdc5;fill-opacity:1;fill-rule:nonzero;stroke:none;stroke-width:0.0643437"
       id="path257" />
    <path
       d="m 52.457431,143.64547 c 0,0.26439 -0.360196,0.47852 -0.804297,0.47852 -0.444357,0 -0.804296,-0.21413 -0.804296,-0.47852 0,-0.26317 0.359939,-0.47756 0.804296,-0.47756 0.444101,0 0.804297,0.21439 0.804297,0.47756"
       style="fill:#adbdc5;fill-opacity:1;fill-rule:nonzero;stroke:none;stroke-width:0.0643437"
       id="path259" />
    <path
       d="m 57.551389,143.64547 c 0,0.26439 -0.360196,0.47852 -0.804295,0.47852 -0.444165,0 -0.804297,-0.21413 -0.804297,-0.47852 0,-0.26317 0.360132,-0.47756 0.804297,-0.47756 0.444099,0 0.804295,0.21439 0.804295,0.47756"
       style="fill:#adbdc5;fill-opacity:1;fill-rule:nonzero;stroke:none;stroke-width:0.0643437"
       id="path261" />
    <path
       d="m 75.857611,145.69539 c 0,-2.17032 -2.570916,-3.93023 -5.741899,-3.93023 -3.170921,0 -5.741643,1.75991 -5.741643,3.93023 0,0.89554 0.442877,1.50828 1.179806,1.92253 v 2.08209 h 9.11518 v -2.07682 c 0.742654,-0.41521 1.188556,-1.02898 1.188556,-1.9278"
       style="fill:#4d5f88;fill-opacity:1;fill-rule:nonzero;stroke:none;stroke-width:0.0643437"
       id="path263" />
    <path
       d="m 73.667224,168.11338 h -7.21003 c -2.047415,0 -3.659801,-1.7456 -3.497205,-3.78671 l 2.272168,-12.37462 h 9.660107 l 2.272167,12.37462 c 0.162784,2.04111 -1.449662,3.78671 -3.497207,3.78671 z"
       style="fill:none;stroke:#adbdc5;stroke-width:0.643437;stroke-linecap:round;stroke-linejoin:round;stroke-miterlimit:10;stroke-dasharray:none;stroke-opacity:1"
       id="path265" />
    <path
       d="m 73.667224,168.11338 h -7.21003 c -2.047415,0 -3.659801,-1.7456 -3.497205,-3.78671 l 2.272168,-12.37462 h 9.660107 l 2.272167,12.37462 c 0.162784,2.04111 -1.449662,3.78671 -3.497207,3.78671 z"
       style="fill:none;stroke:#adbdc5;stroke-width:0.643437;stroke-linecap:round;stroke-linejoin:round;stroke-miterlimit:10;stroke-dasharray:none;stroke-opacity:1"
       id="path267" />
    <path
       d="m 66.457194,166.18305 c -0.445385,0 -0.856798,-0.18075 -1.158957,-0.50695 -0.284013,-0.30841 -0.431296,-0.70199 -0.418235,-1.1172 l 1.686512,-9.18635 h 6.92325 l 1.754652,9.18635 c 0.01295,0.41521 -0.133839,0.80879 -0.417784,1.1172 -0.30235,0.32628 -0.713827,0.50695 -1.159151,0.50695 h -7.210287"
       style="fill:#e8572e;fill-opacity:1;fill-rule:nonzero;stroke:none;stroke-width:0.0643437"
       id="path269" />
    <path
       d="m 75.053315,151.95205 h -9.874949 c -0.619051,0 -1.126016,-0.50697 -1.126016,-1.12603 v 0 c 0,-0.61878 0.506965,-1.12601 1.126016,-1.12601 h 9.874949 c 0.618986,0 1.126014,0.50723 1.126014,1.12601 v 0 c 0,0.61906 -0.507028,1.12603 -1.126014,1.12603 z"
       style="fill:none;stroke:#adbdc5;stroke-width:0.643437;stroke-linecap:round;stroke-linejoin:round;stroke-miterlimit:10;stroke-dasharray:none;stroke-opacity:1"
       id="path271" />
    <path
       d="m 71.076877,144.60155 c 0,0.26394 -0.360453,0.4773 -0.804296,0.4773 -0.444356,0 -0.804295,-0.21336 -0.804295,-0.4773 0,-0.26394 0.359939,-0.47756 0.804295,-0.47756 0.443843,0 0.804296,0.21362 0.804296,0.47756"
       style="fill:#adbdc5;fill-opacity:1;fill-rule:nonzero;stroke:none;stroke-width:0.0643437"
       id="path273" />
    <path
       d="m 68.395549,143.64547 c 0,0.26439 -0.359939,0.47852 -0.804297,0.47852 -0.4441,0 -0.804296,-0.21413 -0.804296,-0.47852 0,-0.26317 0.360196,-0.47756 0.804296,-0.47756 0.444358,0 0.804297,0.21439 0.804297,0.47756"
       style="fill:#adbdc5;fill-opacity:1;fill-rule:nonzero;stroke:none;stroke-width:0.0643437"
       id="path275" />
    <path
       d="m 73.489764,143.64547 c 0,0.26439 -0.360452,0.47852 -0.804295,0.47852 -0.444358,0 -0.804297,-0.21413 -0.804297,-0.47852 0,-0.26317 0.359939,-0.47756 0.804297,-0.47756 0.443843,0 0.804295,0.21439 0.804295,0.47756"
       style="fill:#adbdc5;fill-opacity:1;fill-rule:nonzero;stroke:none;stroke-width:0.0643437"
       id="path277" />
    <path
       d="m 57.255795,168.58437 c -0.722838,0.18602 -2.06376,0.36598 -2.991467,0.74123 -1.571915,0.63392 -3.065654,2.05244 -3.833723,3.57435 -1.026989,2.03583 -1.523658,4.32583 -0.427563,6.43938 1.136114,2.19098 3.947868,3.74173 6.333604,4.15417 4.709634,0.8144 11.301834,-0.55845 12.721963,-5.90354 0.747738,-2.81574 -1.036576,-6.38886 -3.639727,-7.67574 -2.257562,-1.11565 -5.454091,-2.02405 -8.163087,-1.32985"
       style="fill:#e8572e;fill-opacity:1;fill-rule:nonzero;stroke:none;stroke-width:0.0643437"
       id="path279" />
    <path
       d="m 65.418882,169.91422 c -2.257562,-1.11565 -5.454091,-2.02405 -8.163087,-1.32985 -0.722838,0.18602 -2.06376,0.36598 -2.991467,0.74123 -0.238779,0.0958 -0.475564,0.2124 -0.708295,0.34283 0.351124,-0.0474 0.740982,-0.15102 0.967665,-0.17419 0.474019,-0.0483 0.923204,0.004 1.395935,0.0553 -0.267926,0.46778 -0.44886,1.16397 -0.477494,1.72119 0.968114,-0.18518 1.837784,-0.58232 2.698123,-1.06168 0.542932,0.55651 1.332107,1.23862 2.159309,1.29067 0.07766,-0.43354 -0.118901,-0.90911 -0.18827,-1.32812 0.563008,0.34489 1.241125,0.48387 1.903415,0.41649 -0.186984,-0.27743 -0.475306,-0.44286 -0.616027,-0.71685 1.649063,0.30441 2.453618,1.1286 3.127939,2.24174 1.358745,2.24097 0.950356,4.98213 0.232989,7.40732 -0.682622,2.30858 -2.672772,3.86569 -2.672772,3.86569 3.194083,-0.67818 6.08704,-2.46571 6.971764,-5.79602 0.747738,-2.81574 -1.036576,-6.38886 -3.639727,-7.67574"
       style="fill:#d34226;fill-opacity:1;fill-rule:nonzero;stroke:none;stroke-width:0.0643437"
       id="path281" />
    <path
       d="m 54.896698,168.22797 c -0.316185,-0.0361 -0.814333,-0.1056 -1.138818,-0.17838 0.378276,0.71306 1.330819,0.78243 2.034612,0.9209 -0.586622,0.6814 -0.956084,1.37636 -1.01618,2.29456 0.910075,-0.21492 1.518123,-1.0205 2.248746,-1.51537 0.163113,0.81259 1.153424,1.71091 1.955211,1.86397 0.1415,-0.75328 -0.05534,-1.31781 -0.141225,-2.0281 0.514234,0.40292 1.52739,0.31218 2.105709,0.12676 -0.437601,-0.0496 -1.029497,-0.3685 -1.331591,-0.68269 0.552712,0.0264 0.898816,0.0626 1.354691,-0.29578 0.211691,-0.16671 0.529614,-0.3539 0.549237,-0.64923 -0.600197,0.29334 -1.296974,0.25209 -1.894919,0.004 -0.616992,-0.2579 -0.950293,-0.33658 -1.872209,-0.0726 -0.184279,-0.94205 0.304089,-1.61966 0.555222,-2.4607 -0.682686,-0.34733 -1.322584,-0.0994 -1.322584,-0.0994 -0.214392,0.38079 -0.410706,1.3072 -0.29907,1.72692 0.07412,0.27926 0.29656,0.5688 0.260335,0.86291 -0.744713,-0.17528 -1.586715,0.23525 -2.047158,0.18268"
       style="fill:#567965;fill-opacity:1;fill-rule:nonzero;stroke:none;stroke-width:0.0643437"
       id="path283" />
    <path
       d="m 106.6808,173.50666 h -0.003 c 0.13898,-5.62751 -4.51628,-8.75023 -9.821417,-9.74427 -2.789298,-0.52253 -6.324982,-0.49089 -11.043947,0.11254 -3.642495,0.31922 -11.518288,2.9553 -12.227098,7.3978 -0.08166,0.51016 -0.09123,0.97519 -0.04549,1.40319 l -0.0294,-7.1e-4 0.475306,4.64304 c 0.167107,1.63119 1.46607,2.92436 3.099756,3.05304 0.651158,0.0516 1.441941,0.0651 2.400018,0.0188 4.396603,-0.21438 7.185258,0.32172 8.364677,2.68109 0.489012,0.97743 6.132594,4.18232 12.396445,2.4664 6.26322,-1.71617 6.43952,-4.93334 6.43952,-4.93334 l -0.006,-7.09769"
       style="fill:#e8572e;fill-opacity:1;fill-rule:nonzero;stroke:none;stroke-width:0.0643437"
       id="path285" />
    <path
       d="m 85.812862,163.87498 c -3.642495,0.31922 -11.518288,2.95531 -12.227098,7.3978 -0.784927,4.91771 4.771598,5.86151 8.259667,5.90024 1.968918,0.0219 3.910809,-0.60624 5.521975,0.59067 1.678726,1.24563 2.262966,2.79645 4.451293,3.54341 5.299988,1.80792 13.832601,-0.0992 14.755931,-6.53217 0.92333,-6.43185 -4.02534,-9.94637 -9.717821,-11.01254 -2.789298,-0.52253 -6.324982,-0.49089 -11.043947,0.11254"
       style="fill:#ef9876;fill-opacity:1;fill-rule:nonzero;stroke:none;stroke-width:0.0643437"
       id="path287" />
    <path
       d="m 81.737979,167.09217 c -4.060729,1.06823 -3.786626,7.12857 0.534051,7.3025 2.188328,0.0879 4.545238,-1.19314 6.602947,0.36018 1.4754,1.11392 1.59315,2.80225 3.576221,3.54341 4.442931,1.65936 10.807802,0.0321 10.949362,-5.5039 0.11582,-4.55681 -3.968719,-5.97115 -7.768854,-6.72641 -2.16066,-0.42983 -4.794891,-0.43709 -7.03019,-0.21491 -1.543604,0.15302 -5.410014,0.21941 -6.863537,1.23913"
       style="fill:#fbc6ac;fill-opacity:1;fill-rule:nonzero;stroke:none;stroke-width:0.0643437"
       id="path289" />
    <path
       d="m 100.24708,173.69189 c 0,1.2708 -1.622751,2.30158 -3.624483,2.30158 -2.00173,0 -3.624478,-1.03078 -3.624478,-2.30158 0,-1.27123 1.622748,-2.3015 3.624478,-2.3015 2.001732,0 3.624483,1.03027 3.624483,2.3015"
       style="fill:#ffffff;fill-opacity:1;fill-rule:nonzero;stroke:none;stroke-width:0.0643437"
       id="path291" />
  </g>
</svg>
