<?xml version="1.0" encoding="UTF-8" standalone="no"?>
<!-- Created with Inkscape (http://www.inkscape.org/) -->

<svg
   width="136.56863mm"
   height="175.41609mm"
   viewBox="0 0 136.56863 175.41609"
   version="1.1"
   id="svg1034"
   xmlns:inkscape="http://www.inkscape.org/namespaces/inkscape"
   xmlns:sodipodi="http://sodipodi.sourceforge.net/DTD/sodipodi-0.dtd"
   xmlns="http://www.w3.org/2000/svg"
   xmlns:svg="http://www.w3.org/2000/svg">
  <sodipodi:namedview
     id="namedview1036"
     pagecolor="#505050"
     bordercolor="#eeeeee"
     borderopacity="1"
     inkscape:showpageshadow="0"
     inkscape:pageopacity="0"
     inkscape:pagecheckerboard="0"
     inkscape:deskcolor="#505050"
     inkscape:document-units="mm"
     showgrid="false" />
  <defs
     id="defs1031" />
  <g
     inkscape:label="Calque 1"
     inkscape:groupmode="layer"
     id="layer1"
     transform="translate(-34.234349,-31.003472)">
    <path
       d="M 170.80299,183.45848 H 34.234349 v -6.38097 H 170.80299 v 6.38097"
       style="fill:#4f2d1f;fill-opacity:1;fill-rule:nonzero;stroke:none;stroke-width:0.0814524"
       id="path403" />
    <path
       d="m 104.96256,66.098602 c 0,0 -37.671723,0.814529 -54.573258,39.504408 l 16.901535,4.88715 c 0,0 -5.498198,12.82875 -11.810763,66.58735 h 92.041366 c 0,0 -3.46175,-47.03877 -6.51619,-57.22031 l 17.71588,-8.95978 c 0,0 -14.25416,-45.206083 -53.75857,-44.798818"
       style="fill:#5f75a9;fill-opacity:1;fill-rule:nonzero;stroke:none;stroke-width:0.0814524"
       id="path405" />
    <path
       d="m 144.02142,138.9529 -10.79243,-32.3187 c -1.53049,0.11083 -3.09601,0.18564 -4.68353,0.23297 -1.37002,-8.583473 -6.36793,-37.159409 -6.60251,-38.500941 -0.11638,-0.664637 -0.75018,-1.106927 -1.41401,-0.992891 -0.66466,0.116594 -1.1094,0.749349 -0.99292,1.414009 0.057,0.324998 5.09322,29.120047 6.54307,38.130313 -13.60662,0.15632 -28.42607,-1.63963 -37.698605,-3.02351 l 8.629071,-36.168129 c 0.156312,-0.65651 -0.248435,-1.315442 -0.904944,-1.471846 -0.653253,-0.15308 -1.315465,0.248436 -1.471846,0.904945 l -8.675503,36.3636 c -4.224109,-0.66383 -6.812671,-1.15989 -6.812671,-1.15989 l -4.132076,11.58907 -11.442589,10.51875 c -2.145717,10.01701 -5.021712,26.4761 -8.089853,52.60686 h 92.041366 c 0,0 -1.55493,-21.12387 -3.50002,-38.12461"
       style="fill:#567965;fill-opacity:1;fill-rule:nonzero;stroke:none;stroke-width:0.0814524"
       id="path407" />
    <path
       d="m 59.934863,144.33364 c 4.595631,2.17069 9.247299,4.46358 13.826537,6.67339 3.488613,1.68443 7.272901,2.11856 8.95407,5.71306 1.353746,2.8932 2.76286,4.33979 5.956604,5.09649 2.724579,0.6459 7.006548,1.46126 9.767769,0.59378 6.523527,-2.04934 1.53945,-17.27931 0.419502,-21.58895 -1.194918,-4.59718 -5.379937,-8.10288 -8.552509,-11.64769 -4.321867,-4.8277 -8.704018,-9.81501 -8.761833,-16.60164 -0.02839,-3.27275 0.420287,-6.4046 0.565285,-9.61139 8.09e-4,-0.0231 -8.32e-4,-0.0457 -8.32e-4,-0.0683 -1.888877,-0.32336 -2.964864,-0.52945 -2.964864,-0.52945 l -4.132076,11.58907 -11.442589,10.51875 c -1.056292,4.93114 -2.289237,11.42615 -3.635064,19.86298"
       style="fill:#364e3e;fill-opacity:1;fill-rule:nonzero;stroke:none;stroke-width:0.0814524"
       id="path409" />
    <path
       d="m 144.02142,138.9529 -10.51061,-31.47485 c 0.0489,0.56203 0.11152,1.11508 0.21427,1.6437 0.73062,3.76963 1.24947,7.54006 1.58588,11.34469 0.74854,8.46373 0.72573,16.46237 -1.12812,24.843 -1.79604,8.1216 -4.70632,15.46046 -8.96139,22.62259 -1.71947,2.894 -3.74518,5.95824 -5.6471,9.14548 h 27.94713 c 0,0 -1.55492,-21.12387 -3.50001,-38.12461"
       style="fill:#364e3e;fill-opacity:1;fill-rule:nonzero;stroke:none;stroke-width:0.0814524"
       id="path411" />
    <path
       d="m 141.68213,145.73217 c -2.56985,-2.86793 -13.41279,2.65372 -24.21826,12.33352 -10.80628,9.68061 -17.483746,19.85239 -14.91393,22.72032 0,0 21.32587,25.0287 41.67999,7.16048 20.35335,-17.86902 -2.5478,-42.21432 -2.5478,-42.21432"
       style="fill:#d34226;fill-opacity:1;fill-rule:nonzero;stroke:none;stroke-width:0.0814524"
       id="path413" />
    <path
       d="M 131.34092,180.76077 79.014279,150.55008 c -1.423799,-0.82185 -1.915776,-2.65942 -1.093904,-4.08322 v 0 c 0.821848,-1.42378 2.659422,-1.91655 4.083196,-1.09471 l 52.326639,30.2115 c 1.4238,0.82187 1.91578,2.65942 1.09391,4.08239 v 0 c -0.82185,1.42461 -2.65942,1.91659 -4.0832,1.09473"
       style="fill:#d48825;fill-opacity:1;fill-rule:nonzero;stroke:none;stroke-width:0.0814524"
       id="path415" />
    <path
       d="m 108.71344,182.58124 c 4.21273,-3.16199 4.53038,-9.3719 4.63952,-14.18414 0.0464,-2.04199 0.20688,-4.58983 2.56984,-5.03048 2.24075,-0.41867 2.41588,1.3513 3.91296,2.26192 3.11148,-2.46148 3.56518,-4.90423 3.55703,-8.74228 -0.005,-2.71645 -1.52724,-8.23075 0.50745,-10.86981 0.50338,-0.65245 1.4971,-0.67853 2.0184,-0.039 0.52862,0.64839 0.9481,1.37982 1.44333,1.99967 -0.0115,-3.21818 4.73483,-14.59055 8.23564,-8.4295 1.9508,3.43159 0.1727,8.52235 1.91984,12.06391 2.54863,-2.93799 4.37074,-0.0116 4.51817,2.9608 0.20525,4.1394 -2.99989,8.63965 -5.29197,11.82933 -4.7283,6.58053 -11.30803,13.54471 -18.98981,16.44603 -2.08028,0.78521 -7.29324,3.08789 -9.0404,-0.26633"
       style="fill:#fbdd69;fill-opacity:1;fill-rule:nonzero;stroke:none;stroke-width:0.0814524"
       id="path417" />
    <path
       d="m 119.21673,148.56915 c -0.48789,-1.54841 0.19787,-3.37456 0.86828,-4.77228 0.73552,-1.53539 1.29101,-3.76229 -0.87073,-4.08239 -3.0789,-0.45614 -3.21004,4.18337 -2.36211,6.20749 0.2468,0.58971 0.50256,1.23725 0.91388,1.7341 0.28753,0.34698 0.87237,0.74123 1.45068,0.91308"
       style="fill:#fbdd69;fill-opacity:1;fill-rule:nonzero;stroke:none;stroke-width:0.0814524"
       id="path419" />
    <path
       d="m 141.68213,145.73217 c 2.56899,2.86875 -4.10765,13.04133 -14.91396,22.72032 -10.80628,9.68064 -21.64923,15.20229 -24.21823,12.33352 0,0 21.32587,25.0287 41.67999,7.16048 20.35335,-17.86902 -2.5478,-42.21432 -2.5478,-42.21432"
       style="fill:#272d45;fill-opacity:1;fill-rule:nonzero;stroke:none;stroke-width:0.0814524"
       id="path421" />
    <path
       d="m 141.68213,145.73217 c 1.35046,1.50849 0.14246,5.03702 -2.87529,9.45093 0.3364,0.62228 0.58483,1.27798 0.67607,1.96137 0.25656,1.93693 -0.86016,3.65475 -1.5077,5.40111 -0.80638,2.1764 -0.60274,3.65802 0.25494,5.77009 0.59625,1.46776 0.84385,3.06912 0.84059,4.65908 -0.009,3.13917 0.31197,5.95579 -0.93913,8.68443 -1.67304,3.64825 -0.78359,7.95872 -2.40937,11.44082 2.815,-1.00839 5.67072,-2.66348 8.50769,-5.15351 20.35335,-17.86902 -2.5478,-42.21432 -2.5478,-42.21432"
       style="fill:#291f22;fill-opacity:1;fill-rule:nonzero;stroke:none;stroke-width:0.0814524"
       id="path423" />
    <path
       d="m 164.11737,127.7988 -23.34019,2.9494 c 0,0 1.86445,24.04473 1.29102,29.64947 -0.73389,0.88864 -1.88074,1.56961 -2.48836,2.52746 -1.2332,1.94427 -1.00514,4.36667 -1.96057,6.41439 -0.47977,1.02875 -1.18432,1.78625 -2.01026,2.54539 -0.58888,0.54166 -1.61112,1.17942 -1.73085,1.93531 -0.12538,0.79417 0.66953,1.98255 1.3008,2.36863 1.00755,0.6174 2.34827,0.17825 3.30615,-0.33314 1.29671,-0.69235 2.68468,-1.57448 3.84292,-2.44846 0.69397,-0.52292 1.39528,-1.51257 2.22039,-1.70969 0.5213,1.05074 -0.36818,3.42507 -0.59378,4.54015 -0.47405,2.34829 -1.44822,4.8114 -2.89808,6.74509 -1.49953,2.00128 -3.36643,3.71992 -4.83664,5.70166 -1.11346,1.50198 -1.59974,4.13208 0.20364,5.40192 1.69828,1.19492 4.22739,-1.59971 5.60231,-2.55354 1.76589,-1.22421 3.15627,-1.48892 5.18689,-2.23585 3.36397,-1.23808 5.30906,-3.67432 6.72064,-6.84853 1.87177,-4.21025 5.64139,-7.25496 6.61963,-11.84155 0.3983,-1.86851 0.88293,-4.37969 0.77868,-6.68561 l 0.13854,0.0231 c 0,0 4.88715,-26.16656 2.6472,-36.14449"
       style="fill:#fbc6ac;fill-opacity:1;fill-rule:nonzero;stroke:none;stroke-width:0.0814524"
       id="path425" />
    <path
       d="m 164.70137,134.53084 c -0.0115,-2.60322 -0.18077,-4.93275 -0.584,-6.73204 l -23.34019,2.9494 c 0,0 0.0489,0.63531 0.12785,1.71129 v 0 c 0,0 15.30897,2.4053 23.79632,2.07135"
       style="fill:#ef9876;fill-opacity:1;fill-rule:nonzero;stroke:none;stroke-width:0.0814524"
       id="path427" />
    <path
       d="m 110.15516,151.42 c -0.40727,-5.29442 -11.912427,-14.61093 -11.912427,-14.61093 l -23.348317,-21.12551 -26.134172,5.90369 c 0,0 0.608045,13.74181 35.059728,30.07465 -0.583201,5.85562 1.520702,7.31361 2.306716,10.65236 0.81453,3.46171 5.294416,2.749 5.294416,2.749 0.712708,4.78533 5.905301,2.13814 5.905301,2.13814 1.323593,2.95265 4.988945,1.22178 4.988945,1.22178 0,0 0.20365,6.71983 3.66536,5.09076 3.46174,-1.62903 1.52724,-12.82874 1.52724,-12.82874 h 0.91633 c 2.34176,-1.52722 2.13814,-3.97081 1.73088,-9.2652"
       style="fill:#fbc6ac;fill-opacity:1;fill-rule:nonzero;stroke:none;stroke-width:0.0814524"
       id="path429" />
    <path
       d="m 74.894416,115.68356 -26.134172,5.90369 c 0,0 0.09928,2.18861 2.402835,5.85478 8.63145,-6.24984 23.583084,-11.55727 23.849437,-11.65095 l -0.11798,-0.10759"
       style="fill:#ef9876;fill-opacity:1;fill-rule:nonzero;stroke:none;stroke-width:0.0814524"
       id="path431" />
    <path
       d="m 74.894416,115.68356 c 0,0 4.207,-17.004004 9.501416,-23.112926"
       style="fill:none;stroke:#4d5f88;stroke-width:0.814524;stroke-linecap:round;stroke-linejoin:round;stroke-miterlimit:10;stroke-dasharray:none;stroke-opacity:1"
       id="path433" />
    <path
       d="m 48.760244,121.58725 27.490343,-6.20994 c 0,0 3.054473,-5.09077 1.221794,-7.33072 -1.832679,-2.23994 -19.956008,-12.625127 -30.544815,-6.31256 0,0 -2.647209,1.75773 -0.81453,8.9223 1.832678,7.16454 -1.425414,7.36574 2.647208,10.93092"
       style="fill:#4d5f88;fill-opacity:1;fill-rule:nonzero;stroke:none;stroke-width:0.0814524"
       id="path435" />
    <path
       d="m 137.13625,120.6717 c 0,0 14.66142,-12.29279 24.23209,-10.01537 0,0 3.46173,0.64836 3.66535,6.35001 0.20364,5.70168 2.85084,8.75616 0,10.99608 -2.85083,2.23994 -25.04662,3.46173 -25.04662,3.46173 l -2.85082,-10.79245"
       style="fill:#4d5f88;fill-opacity:1;fill-rule:nonzero;stroke:none;stroke-width:0.0814524"
       id="path437" />
    <path
       d="m 133.86513,157.35949 h -2.64721 v -1.28939 h 2.64721 v 1.28939"
       style="fill:#567965;fill-opacity:1;fill-rule:nonzero;stroke:none;stroke-width:0.0814524"
       id="path439" />
    <path
       d="m 127.32939,163.17847 -2.13569,1.56388 -0.7624,-1.04096 2.13651,-1.56389 0.76158,1.04097"
       style="fill:#567965;fill-opacity:1;fill-rule:nonzero;stroke:none;stroke-width:0.0814524"
       id="path441" />
    <path
       d="m 133.00092,147.84831 -2.48755,-0.90333 0.43984,-1.21281 2.48836,0.90331 -0.44065,1.21283"
       style="fill:#567965;fill-opacity:1;fill-rule:nonzero;stroke:none;stroke-width:0.0814524"
       id="path443" />
    <path
       d="m 131.21792,100.9195 c 0,0 7.36085,20.40709 9.59184,30.26119"
       style="fill:none;stroke:#4d5f88;stroke-width:0.814524;stroke-linecap:round;stroke-linejoin:round;stroke-miterlimit:10;stroke-dasharray:none;stroke-opacity:1"
       id="path445" />
    <path
       d="m 101.90809,63.75686 c -2.987676,1.119139 -5.030486,3.598561 -6.456731,6.506396 -1.304037,2.657806 -2.908667,5.619415 -2.282289,8.54519 1.150911,0.462632 2.828016,0.01385 4.053874,0.01616 1.827807,0.0046 3.646636,0.01155 5.448376,0.11083 2.98929,0.165316 6.1928,0.406457 9.14545,0.983956 2.44846,0.478932 4.80325,1.211195 7.17108,1.9345 1.40669,0.430861 4.47418,2.113671 5.54772,0.513958 1.38958,-2.069709 -0.83,-6.475481 -1.75773,-8.35376 -1.13382,-2.293694 -1.89377,-4.817099 -3.86981,-6.586237 -4.36749,-3.911347 -11.18993,-3.999316 -16.57963,-3.758221 -0.0667,0.168549 0.0489,0.141765 -0.42031,0.08635"
       style="fill:#4d5f88;fill-opacity:1;fill-rule:nonzero;stroke:none;stroke-width:0.0814524"
       id="path447" />
    <path
       d="m 103.8654,54.503858 -3.76637,12.270809 c -0.783565,2.555153 -0.501742,5.347335 0.8968,7.624752 1.60786,2.620333 4.31046,5.529806 8.44662,5.749728 7.63616,0.407265 8.68037,-10.792453 8.68037,-10.792453 V 56.324322 L 103.8654,54.503858"
       style="fill:#fbc6ac;fill-opacity:1;fill-rule:nonzero;stroke:none;stroke-width:0.0814524"
       id="path449" />
    <path
       d="m 103.86621,54.503858 -1.1607,3.780201 c 8.1e-4,0.0017 0.62799,8.52725 15.41731,9.047742 V 56.324322 l -14.25661,-1.820464"
       style="fill:#ef9876;fill-opacity:1;fill-rule:nonzero;stroke:none;stroke-width:0.0814524"
       id="path451" />
    <path
       d="m 103.79371,48.643349 c -0.41622,2.181298 -2.52257,3.612416 -4.70387,3.196192 -2.182105,-0.416223 -3.613223,-2.522574 -3.197,-4.70468 0.417032,-2.181297 2.523383,-3.612415 4.70468,-3.196191 2.1813,0.416223 3.61241,2.522574 3.19619,4.704679"
       style="fill:#ef9876;fill-opacity:1;fill-rule:nonzero;stroke:none;stroke-width:0.0814524"
       id="path453" />
    <path
       d="m 131.27983,53.888886 c -0.41623,2.182105 -2.52257,3.613223 -4.70468,3.197023 -2.1813,-0.416223 -3.61241,-2.522598 -3.19619,-4.704703 0.41703,-2.181298 2.52257,-3.612415 4.70468,-3.196192 2.1821,0.416223 3.61241,2.522574 3.19619,4.703872"
       style="fill:#ef9876;fill-opacity:1;fill-rule:nonzero;stroke:none;stroke-width:0.0814524"
       id="path455" />
    <path
       d="m 127.39619,52.785214 c -1.42624,7.474883 -8.64292,12.378312 -16.11781,10.951281 -7.47488,-1.427054 -12.378329,-8.642924 -10.95128,-16.117807 1.42706,-7.474889 8.64293,-12.378323 16.11781,-10.951278 7.47569,1.426232 12.37831,8.642923 10.95128,16.117804"
       style="fill:#fbc6ac;fill-opacity:1;fill-rule:nonzero;stroke:none;stroke-width:0.0814524"
       id="path457" />
    <path
       d="m 116.44491,36.66741 c -6.45267,-1.23156 -12.70331,2.258676 -15.21286,8.043421 0.80882,2.341765 3.30452,4.455458 5.29603,5.317227 -0.53271,-0.598695 -0.72982,-1.545985 -0.7901,-2.376791 0.92612,1.64208 2.33361,2.010255 4.0995,2.410177 2.35236,0.531876 4.72098,0.724113 7.07089,1.352107 -0.62229,-1.472654 -1.2283,-2.850828 -2.04202,-4.217596 1.3008,0.922839 2.84676,1.398538 4.3178,2.064006 2.1764,0.983931 3.44544,2.21062 5.10382,3.745175 0.29484,-0.395858 0.39258,-1.075178 0.33963,-1.561454 0.96279,0.683384 1.68201,1.760203 2.38901,2.841894 0.15077,-0.488722 0.28182,-0.986403 0.37958,-1.500362 1.42703,-7.474881 -3.47559,-14.691572 -10.95128,-16.117804"
       style="fill:#ef9876;fill-opacity:1;fill-rule:nonzero;stroke:none;stroke-width:0.0814524"
       id="path459" />
    <path
       d="m 127.66335,39.667302 c -2.87934,-4.845601 -8.54436,-7.51317 -14.0481,-6.621265 0.32743,-0.737144 1.09636,-1.89214 0.0593,-1.931236 -0.88458,-0.03258 -1.91984,1.396094 -2.22854,2.040382 -0.40482,-0.979058 0.15562,-2.939618 -1.60705,-1.812314 -0.78602,0.502561 -1.47104,1.867702 -1.75042,2.483482 -1.32197,0.297301 -5.23332,1.641267 -6.34189,7.030157 -0.10921,0.461829 -0.18886,0.907374 -0.23864,1.286956 -0.0383,0.289973 -0.049,0.580754 -0.0439,0.872343 -8.1e-4,0.01385 -0.005,0.02679 -0.005,0.04156 l 0.005,-0.0017 c 0.0577,2.598328 1.74226,5.186891 3.62382,6.881083 -0.75427,-1.760181 -0.63615,-3.720726 -0.14985,-5.550149 0.85932,2.020022 2.31732,3.376193 4.49291,4.033509 1.57284,0.475678 3.12208,0.531067 4.74541,0.67281 1.19083,0.10436 2.44439,0.419478 3.61405,0.416223 -0.37713,-0.98721 -0.9196,-1.859577 -1.46697,-2.782416 1.14604,0.685831 2.53562,0.849532 3.74275,1.527236 1.54107,0.865833 2.82721,1.782992 4.03025,3.061792 0.0937,-0.677682 -0.0709,-1.787886 -0.52536,-2.375152 1.66244,0.527811 3.22877,2.224451 3.89913,3.816843 3.01375,-3.767156 2.55354,-9.116962 0.19302,-13.090205"
       style="fill:#542b20;fill-opacity:1;fill-rule:nonzero;stroke:none;stroke-width:0.0814524"
       id="path461" />
    <path
       d="m 108.99282,52.537586 c -0.12053,0.635336 -0.73388,1.05156 -1.36922,0.931013 -0.63531,-0.121446 -1.05154,-0.734711 -0.93018,-1.370024 0.12144,-0.634528 0.73388,-1.05156 1.36922,-0.930204 0.63533,0.121446 1.05156,0.733902 0.93018,1.369215"
       style="fill:#291f22;fill-opacity:1;fill-rule:nonzero;stroke:none;stroke-width:0.0814524"
       id="path463" />
    <path
       d="m 120.44422,54.722971 c -0.12052,0.636145 -0.7339,1.052367 -1.36921,0.930989 -0.63534,-0.121445 -1.05237,-0.733879 -0.93101,-1.369216 0.12144,-0.636144 0.73471,-1.051536 1.37002,-0.930989 0.63534,0.121445 1.05156,0.734687 0.9302,1.369216"
       style="fill:#291f22;fill-opacity:1;fill-rule:nonzero;stroke:none;stroke-width:0.0814524"
       id="path465" />
    <path
       d="m 110.90451,56.824428 c 0,0 1.84082,1.940203 4.06691,0.776247"
       style="fill:none;stroke:#ef9876;stroke-width:0.814524;stroke-linecap:round;stroke-linejoin:round;stroke-miterlimit:10;stroke-dasharray:none;stroke-opacity:1"
       id="path467" />
    <path
       d="m 102.38377,169.29554 -0.64836,-8.24624"
       style="fill:none;stroke:#ef9876;stroke-width:0.814524;stroke-linecap:round;stroke-linejoin:round;stroke-miterlimit:10;stroke-dasharray:none;stroke-opacity:1"
       id="path469" />
    <path
       d="m 97.326405,167.2014 -0.814528,-6.92347"
       style="fill:none;stroke:#ef9876;stroke-width:0.814524;stroke-linecap:round;stroke-linejoin:round;stroke-miterlimit:10;stroke-dasharray:none;stroke-opacity:1"
       id="path471" />
    <path
       d="m 91.421104,165.06326 -1.221793,-5.29439"
       style="fill:none;stroke:#ef9876;stroke-width:0.814524;stroke-linecap:round;stroke-linejoin:round;stroke-miterlimit:10;stroke-dasharray:none;stroke-opacity:1"
       id="path473" />
    <path
       d="m 107.50795,160.6852 v -6.92346"
       style="fill:none;stroke:#ef9876;stroke-width:0.814524;stroke-linecap:round;stroke-linejoin:round;stroke-miterlimit:10;stroke-dasharray:none;stroke-opacity:1"
       id="path475" />
    <path
       d="m 143.07088,190.89509 c 0,0 7.69805,-8.01411 8.67059,-9.54135"
       style="fill:none;stroke:#ef9876;stroke-width:0.814524;stroke-linecap:round;stroke-linejoin:round;stroke-miterlimit:10;stroke-dasharray:none;stroke-opacity:1"
       id="path477" />
    <path
       d="m 52.37469,155.28898 h -5.090772 l -0.814529,-9.8761 h 6.71983 l -0.814529,9.8761"
       style="fill:#d48825;fill-opacity:1;fill-rule:nonzero;stroke:none;stroke-width:0.0814524"
       id="path479" />
    <path
       d="m 53.222929,159.95621 v -7.48141 h 0.558774 c 0.626124,0 1.138374,-0.51233 1.138374,-1.1379 0,-0.62636 -0.51225,-1.1387 -1.138374,-1.1387 h -7.803228 c -0.625871,0 -1.13812,0.51234 -1.13812,1.1387 0,0.62557 0.512249,1.1379 1.13812,1.1379 h 0.456882 v 7.48141 c -5.009662,1.46695 -8.671512,6.08855 -8.671512,11.57274 v 29.06794 c 0,2.69931 2.188137,4.88712 4.887477,4.88712 h 14.355989 c 2.698741,0 4.887127,-2.18781 4.887127,-4.88712 v -29.06794 c 0,-5.48419 -3.661848,-10.10579 -8.671509,-11.57274 z"
       style="fill:none;stroke:#adbdc5;stroke-width:0.814524;stroke-linecap:round;stroke-linejoin:round;stroke-miterlimit:10;stroke-dasharray:none;stroke-opacity:1"
       id="path481" />
    <path
       d="m 42.651322,203.04045 c -1.347473,0 -2.443906,-1.09554 -2.443906,-2.44356 v -22.95248 h 19.243458 v 22.95248 c 0,1.34802 -1.096098,2.44356 -2.443563,2.44356 H 42.651322"
       style="fill:#fbdd69;fill-opacity:1;fill-rule:nonzero;stroke:none;stroke-width:0.0814524"
       id="path483" />
    <path
       d="m 52.120159,177.64441 v 22.95248 c 0,1.34802 -1.096098,2.44356 -2.443564,2.44356 h 7.330716 c 1.347465,0 2.443563,-1.09554 2.443563,-2.44356 v -22.95248 h -7.330715"
       style="fill:#edae4a;fill-opacity:1;fill-rule:nonzero;stroke:none;stroke-width:0.0814524"
       id="path485" />
    <path
       d="M 61.894438,189.70261 H 48.607512 v -15.47596 h 13.286926 v 15.47596"
       style="fill:#adbdc5;fill-opacity:1;fill-rule:nonzero;stroke:none;stroke-width:0.0814524"
       id="path487" />
    <path
       d="m 47.681001,166.90818 c 0,1.37489 -1.114523,2.48999 -2.489673,2.48999 -1.374826,0 -2.489095,-1.1151 -2.489095,-2.48999 0,-1.37493 1.114269,-2.48919 2.489095,-2.48919 1.37515,0 2.489673,1.11426 2.489673,2.48919"
       style="fill:#ffffff;fill-opacity:1;fill-rule:nonzero;stroke:none;stroke-width:0.0814524"
       id="path489" />
    <path
       d="m 85.204658,196.40453 c -0.14015,-0.66222 -1.153381,-1.14604 -1.573668,-1.58182 -0.575051,-0.59704 0.373878,-1.54352 0.508255,-2.25297 0.160468,-0.84547 -1.545129,-0.95544 -2.193511,-1.26169 0.08381,-0.54085 0.204337,-1.09473 0.303018,-1.64046 0.04571,-0.24925 0.257394,-0.81616 0.157928,-1.05725 -0.111523,-0.27125 -0.713538,-0.44309 -0.972549,-0.56854 -0.407265,-0.19717 -0.887837,-0.37304 -1.250286,-0.64429 0.04895,-0.36815 0.178477,-0.75994 0.320912,-1.10776 0.208493,-0.50335 0.258203,-0.53431 -0.236222,-0.82429 -1.234815,-0.72412 -2.470439,-0.8813 -3.820099,-1.16312 l -0.02078,0.0448 c -4.597986,0.26716 -8.225893,5.02479 -7.588109,9.52178 0.851978,6.01199 7.980712,7.50094 12.796981,5.45405 1.57937,-0.67118 2.882598,-1.37736 3.6727,-2.90377 -0.03348,-0.005 -0.07088,-0.009 -0.105054,-0.0139"
       style="fill:#edae4a;fill-opacity:1;fill-rule:nonzero;stroke:none;stroke-width:0.0814524"
       id="path491" />
    <path
       d="m 76.448528,184.34467 c -4.607776,0.25415 -8.247066,5.02072 -7.608474,9.52424 0.851979,6.01199 7.980713,7.50094 12.796981,5.45405 1.579371,-0.67118 2.882599,-1.37736 3.672701,-2.90377 -1.367601,-0.19556 -3.148145,-0.40075 -4.466865,-0.92122 -0.930182,-0.36655 -0.907369,-0.29732 -0.619844,-1.34886 0.307082,-1.11917 1.005936,-2.21145 1.053175,-3.36561 -1.142782,-0.10667 -3.469864,-0.57344 -4.274626,-1.37003 0.645102,-1.44336 1.664084,-2.75147 2.362938,-4.14267 -0.919583,-0.30953 -1.957289,-0.60357 -2.915986,-0.92613"
       style="fill:#ffffff;fill-opacity:1;fill-rule:nonzero;stroke:none;stroke-width:0.0814524"
       id="path493" />
    <path
       d="m 99.461272,188.16968 c -0.640232,-1.92146 -2.318955,-2.99662 -3.968377,-4.05388 -1.60216,-1.02549 -3.482078,-1.83839 -5.371786,-1.92065 0.159544,0.19879 0.285102,0.38771 0.39669,0.57179 -0.135301,0.0529 -0.273696,0.11476 -0.42031,0.18333 -0.781927,0.36411 -1.578539,0.7339 -2.362915,1.06542 0.531067,0.73713 1.123227,1.4645 1.674659,2.21307 -0.426821,0.26226 -0.913095,0.49849 -1.426245,0.71025 0.337212,0.15562 0.93833,0.50907 1.54028,0.93833 -0.447993,0.31847 -1.009213,0.59704 -1.348851,0.8194 -0.576691,0.37714 -1.523981,0.56123 -1.927181,1.14034 0.377133,0.66954 1.074371,1.10938 1.673042,1.56226 0.315209,0.23948 0.663019,0.52781 0.992914,0.8292 -0.353514,0.24515 -0.660596,0.46832 -0.847107,0.65405 0.309506,0.11733 0.704556,0.26636 1.062941,0.45206 -0.683384,0.3087 -1.436012,0.54573 -2.015935,0.98068 0.336382,0.38203 0.979868,0.93834 1.269842,1.45557 -0.258204,0.14823 -0.498489,0.31195 -0.667107,0.51641 1.093096,-0.21173 3.039811,0.93423 4.393558,1.01815 2.362106,0.14591 4.890383,-0.36165 6.641628,-2.08763 1.727598,-1.70235 1.414008,-4.93276 0.71026,-7.04809"
       style="fill:#edae4a;fill-opacity:1;fill-rule:nonzero;stroke:none;stroke-width:0.0814524"
       id="path495" />
    <path
       d="m 87.715826,196.28723 c 1.093096,-0.21172 3.039811,0.93425 4.393558,1.01815 2.362106,0.14592 4.890383,-0.36164 6.641628,-2.08762 1.727598,-1.70234 1.414008,-4.93275 0.71026,-7.04808 -0.640232,-1.92146 -2.318955,-2.99662 -3.968377,-4.05388 -1.60216,-1.02549 -3.482078,-1.83839 -5.371786,-1.92065 1.949162,2.42078 0.144998,3.80057 -2.138121,4.74379 0.832445,0.38527 3.287415,1.97034 3.352596,2.96813 0.06096,0.93588 -2.537259,2.24564 -3.269499,2.97546 0.897603,0.34046 2.51851,0.93995 1.836742,1.93937 -0.368984,0.54085 -1.637186,0.80067 -2.187001,1.46533"
       style="fill:#ffffff;fill-opacity:1;fill-rule:nonzero;stroke:none;stroke-width:0.0814524"
       id="path497" />
    <path
       d="m 115.10421,194.33318 c 0,2.05668 -1.66815,3.724 -3.724,3.724 -2.05669,0 -3.72484,-1.66732 -3.72484,-3.724 0,-2.05667 1.66815,-3.72401 3.72484,-3.72401 2.05585,0 3.724,1.66734 3.724,3.72401"
       style="fill:#d34226;fill-opacity:1;fill-rule:nonzero;stroke:none;stroke-width:0.0814524"
       id="path499" />
    <path
       d="m 111.02833,191.42371 c -0.59705,-0.31686 -1.54924,-0.15886 -1.73575,-1.31873 -0.18171,-1.12893 0.52453,-0.46753 1.11263,-0.18332 -0.0734,-0.26797 -0.18979,-0.97336 0.24192,-1.07029 0.48055,-0.10757 0.65649,0.78112 0.72492,1.1273 -0.0709,-0.45532 0.20273,-1.53456 0.74365,-1.00024 0.29893,0.29405 0.0799,0.84955 -0.0522,1.1721 -0.19233,0.47323 -0.66385,0.88214 -1.03526,1.2731"
       style="fill:#567965;fill-opacity:1;fill-rule:nonzero;stroke:none;stroke-width:0.0814524"
       id="path501" />
    <path
       d="m 95.315342,203.41594 c -1.722729,1.12323 -4.030278,0.63777 -5.153504,-1.08494 -1.124035,-1.72273 -0.637761,-4.03026 1.084946,-5.15351 1.722729,-1.12323 4.030276,-0.63775 5.153504,1.08495 1.123227,1.72273 0.63776,4.02946 -1.084946,5.1535"
       style="fill:#d34226;fill-opacity:1;fill-rule:nonzero;stroke:none;stroke-width:0.0814524"
       id="path503" />
    <path
       d="m 95.526304,198.41314 c -0.06118,-0.67362 -0.714345,-1.38468 0.155619,-2.17479 0.847108,-0.7689 0.677683,0.18402 0.761587,0.83246 0.184942,-0.20851 0.711876,-0.69071 1.028724,-0.38202 0.351874,0.34372 -0.295653,0.97661 -0.548175,1.22261 0.342108,-0.30789 1.395284,-0.66792 1.243797,0.0773 -0.08312,0.41052 -0.667915,0.52945 -1.010022,0.59622 -0.500936,0.0969 -1.101224,-0.0741 -1.631483,-0.17177"
       style="fill:#567965;fill-opacity:1;fill-rule:nonzero;stroke:none;stroke-width:0.0814524"
       id="path505" />
    <path
       d="m 143.03423,201.69321 c 0.55304,1.98174 -0.60438,4.03599 -2.5853,4.58822 -1.98174,0.55307 -4.03596,-0.60438 -4.58823,-2.5861 -0.55304,-1.98093 0.60438,-4.03516 2.58612,-4.58741 1.98093,-0.55305 4.03515,0.60438 4.58741,2.58529"
       style="fill:#d34226;fill-opacity:1;fill-rule:nonzero;stroke:none;stroke-width:0.0814524"
       id="path507" />
    <path
       d="m 138.32791,199.98681 c -0.66059,-0.145 -1.53619,0.26391 -2.02736,-0.80312 -0.47894,-1.03935 0.37958,-0.59135 1.02304,-0.47652 -0.14338,-0.23864 -0.44474,-0.88619 -0.0554,-1.0947 0.43414,-0.23297 0.84304,0.57504 1.00106,0.89025 -0.18979,-0.41948 -0.21657,-1.5321 0.44881,-1.16312 0.3657,0.20273 0.3038,0.79659 0.2639,1.14277 -0.0578,0.50746 -0.40239,1.02793 -0.65406,1.50444"
       style="fill:#567965;fill-opacity:1;fill-rule:nonzero;stroke:none;stroke-width:0.0814524"
       id="path509" />
  </g>
</svg>
