<?xml version="1.0" encoding="UTF-8" standalone="no"?>
<!-- Created with Inkscape (http://www.inkscape.org/) -->

<svg
   width="141.83858mm"
   height="84.879395mm"
   viewBox="0 0 141.83858 84.879395"
   version="1.1"
   id="svg5"
   xml:space="preserve"
   xmlns:inkscape="http://www.inkscape.org/namespaces/inkscape"
   xmlns:sodipodi="http://sodipodi.sourceforge.net/DTD/sodipodi-0.dtd"
   xmlns="http://www.w3.org/2000/svg"
   xmlns:svg="http://www.w3.org/2000/svg"><sodipodi:namedview
     id="namedview7"
     pagecolor="#505050"
     bordercolor="#eeeeee"
     borderopacity="1"
     inkscape:showpageshadow="0"
     inkscape:pageopacity="0"
     inkscape:pagecheckerboard="0"
     inkscape:deskcolor="#505050"
     inkscape:document-units="mm"
     showgrid="false" /><defs
     id="defs2" /><g
     inkscape:label="Calque 1"
     inkscape:groupmode="layer"
     id="layer1"
     transform="translate(-34.054845,-106.31633)"><path
       d="m 58.672212,160.15265 c -0.568458,-0.59629 -1.289153,-0.801 -2.046875,-0.76216 -0.762573,0.042 -1.481378,0.33594 -2.01097,1.00256 -0.600384,0.56689 -0.82031,1.36546 -0.860727,2.11471 0.03782,0.7569 0.334043,1.47873 0.91699,1.99502 39.004919,32.52799 34.965581,27.66169 4.001556,-4.35003 z m -3.918962,7.37793 c -0.584421,-0.51544 -1.387306,-0.7359 -2.067259,-0.68132 -0.759626,0.042 -1.492855,0.41993 -2.093174,0.98682 -0.518076,0.58683 -0.814754,1.3728 -0.778432,2.13244 -0.02413,0.66557 0.255947,1.46393 0.841829,1.982 33.89381,25.05149 34.572276,25.50007 4.097114,-4.41962 z m 95.14779,18.45198 c 28.38049,10.05448 31.63548,-29.67824 18.82824,-44.14605 2.23951,-6.32173 -0.2719,-15.78885 -6.94385,-23.94784 -8.63381,-10.41446 -20.8348,-14.5604 -27.25061,-9.27742 -6.51436,5.35256 -4.72782,18.13084 3.82188,28.53228 6.397,7.7757 14.80931,12.03765 21.34552,11.54876 2.60391,1.4422 4.30079,2.81502 7.7294,6.82658 20.57151,27.07874 -11.30689,30.33373 -66.15252,-7.11465 -63.619418,-43.54273 -73.772006,-14.60081 -64.029015,7.13796 5.96734,5.8574 1.27472,16.79844 7.227618,22.23352 6.961351,6.4492 16.778032,14.30006 26.489543,13.33981 -8.140157,-4.88709 -14.988905,-10.98176 -22.379843,-17.83722 -0.293626,-0.2173 -0.500327,-0.5039 -0.608875,-0.85767 -0.188129,-0.36113 -0.363334,-0.81254 -0.377719,-1.23697 l -0.042,-0.25615 c -0.110074,-0.35168 -0.05452,-0.67712 0.01304,-1.08663 -0.0065,-0.41993 0.137422,-0.81255 0.355887,-1.10953 l 6.525817,-12.38461 0.01474,-0.084 0.354414,-0.60887 0.655486,-0.39367 0.892536,0.14907 c 0.327,0.0524 0.610661,0.35483 1.057686,0.68341 l -0.01369,0.084 27.610938,25.08182 c 0.364377,0.3139 0.824717,0.55535 1.231012,0.62569 0.1811,-8.01159 -17.12689,-22.64569 -24.393383,-29.22967 l -4.652256,-4.21711 c -5.452572,-4.43369 -10.193318,4.81738 -16.2677,-0.39473 -12.872388,-10.12229 4.06229,-18.15834 32.673907,-8.98527 35.616577,11.35508 52.018737,38.32044 76.283607,46.928"
       style="fill:#d4a373;fill-opacity:1;fill-rule:evenodd;stroke:none;stroke-width:0.370343"
       id="path528" /></g></svg>
