<?xml version="1.0" encoding="UTF-8" standalone="no"?>
<!-- Created with Inkscape (http://www.inkscape.org/) -->

<svg
   width="141.83859mm"
   height="84.879417mm"
   viewBox="0 0 141.83859 84.879417"
   version="1.1"
   id="svg5"
   xml:space="preserve"
   xmlns:inkscape="http://www.inkscape.org/namespaces/inkscape"
   xmlns:sodipodi="http://sodipodi.sourceforge.net/DTD/sodipodi-0.dtd"
   xmlns="http://www.w3.org/2000/svg"
   xmlns:svg="http://www.w3.org/2000/svg"><sodipodi:namedview
     id="namedview7"
     pagecolor="#505050"
     bordercolor="#eeeeee"
     borderopacity="1"
     inkscape:showpageshadow="0"
     inkscape:pageopacity="0"
     inkscape:pagecheckerboard="0"
     inkscape:deskcolor="#505050"
     inkscape:document-units="mm"
     showgrid="false" /><defs
     id="defs2" /><g
     inkscape:label="Calque 1"
     inkscape:groupmode="layer"
     id="layer1"
     transform="translate(-29.274451,-71.495581)"><path
       d="m 53.891815,125.3319 c -0.56846,-0.59629 -1.28915,-0.801 -2.04687,-0.76216 -0.76258,0.042 -1.48138,0.33594 -2.01097,1.00256 -0.60039,0.56689 -0.82031,1.36546 -0.86073,2.11471 0.0378,0.7569 0.33404,1.47873 0.91699,1.99502 39.00492,32.52799 34.96558,27.66169 4.00156,-4.35003 z m -3.91896,7.37793 c -0.58442,-0.51544 -1.38731,-0.7359 -2.06726,-0.68132 -0.75962,0.042 -1.49285,0.41993 -2.09317,0.98682 -0.51808,0.58683 -0.81476,1.3728 -0.77843,2.13244 -0.0241,0.66557 0.25594,1.46393 0.84182,1.982 33.89381,25.05149 34.57228,25.50007 4.09712,-4.41962 z m 95.147805,18.45198 c 28.38049,10.05448 31.63548,-29.67824 18.82824,-44.14605 2.23951,-6.32173 -0.2719,-15.788851 -6.94385,-23.947841 -8.63381,-10.414456 -20.8348,-14.5604 -27.25061,-9.277424 -6.51437,5.352567 -4.72783,18.130843 3.82188,28.532285 6.397,7.7757 14.80931,12.03765 21.34552,11.54876 2.60391,1.4422 4.30079,2.81502 7.7294,6.82658 20.57151,27.07874 -11.30689,30.33373 -66.152535,-7.11465 -63.61942,-43.542731 -73.77201,-14.600815 -64.02901,7.13796 5.96734,5.8574 1.27472,16.79844 7.22761,22.23352 6.96135,6.4492 16.77804,14.30006 26.48955,13.33981 -8.14016,-4.88709 -14.98891,-10.98176 -22.37985,-17.83722 -0.29362,-0.2173 -0.50032,-0.5039 -0.60887,-0.85767 -0.18813,-0.36113 -0.36334,-0.81254 -0.37772,-1.23697 l -0.042,-0.25615 c -0.11007,-0.35168 -0.0545,-0.67712 0.013,-1.08663 -0.007,-0.41993 0.13742,-0.81255 0.35589,-1.10953 l 6.52581,-12.38461 0.0147,-0.084 0.35442,-0.60887 0.65548,-0.39367 0.89254,0.14907 c 0.327,0.0524 0.61066,0.35483 1.05769,0.68341 l -0.0137,0.084 27.61093,25.08182 c 0.36438,0.3139 0.82472,0.55535 1.23102,0.62569 0.1811,-8.01159 -17.12689,-22.64569 -24.39339,-29.22967 l -4.65225,-4.21711 c -5.45258,-4.43369 -10.19332,4.81738 -16.2677,-0.39473 -12.87239,-10.12229 4.06229,-18.158344 32.6739,-8.98527 35.616585,11.35508 52.018745,38.32044 76.283625,46.928"
       style="fill:#9eb065;fill-opacity:1;fill-rule:evenodd;stroke:none;stroke-width:0.370343"
       id="path528" /></g></svg>
