<?xml version="1.0" encoding="UTF-8" standalone="no"?>
<!-- Created with Inkscape (http://www.inkscape.org/) -->

<svg
   width="44.484482mm"
   height="76.748398mm"
   viewBox="0 0 44.484482 76.748398"
   version="1.1"
   id="svg21595"
   inkscape:version="1.2.2 (b0a8486541, 2022-12-01, custom)"
   sodipodi:docname="ustensile"
   xmlns:inkscape="http://www.inkscape.org/namespaces/inkscape"
   xmlns:sodipodi="http://sodipodi.sourceforge.net/DTD/sodipodi-0.dtd"
   xmlns="http://www.w3.org/2000/svg"
   xmlns:svg="http://www.w3.org/2000/svg">
  <sodipodi:namedview
     id="namedview21597"
     pagecolor="#505050"
     bordercolor="#eeeeee"
     borderopacity="1"
     inkscape:showpageshadow="0"
     inkscape:pageopacity="0"
     inkscape:pagecheckerboard="0"
     inkscape:deskcolor="#505050"
     inkscape:document-units="mm"
     showgrid="false"
     inkscape:zoom="0.51669473"
     inkscape:cx="658.02878"
     inkscape:cy="519.6492"
     inkscape:window-width="1370"
     inkscape:window-height="746"
     inkscape:window-x="70"
     inkscape:window-y="27"
     inkscape:window-maximized="1"
     inkscape:current-layer="layer1" />
  <defs
     id="defs21592" />
  <g
     inkscape:label="Calque 1"
     inkscape:groupmode="layer"
     id="layer1"
     transform="translate(-233.12087,-208.17072)">
    <path
       d="m 275.47704,208.19909 c -1.14627,0.12436 -2.48573,0.99274 -3.12383,1.80812 -0.28928,0.36884 -0.52167,0.8804 -0.82253,1.31565 -2.05762,2.97538 -3.73156,6.5987 -5.17919,10.1125 -1.7256,4.18787 -2.81337,8.75163 -4.35681,13.1536 -3.15613,8.9954 -4.63909,18.90158 -6.98845,27.95139 -0.99083,0.21833 -1.16281,1.21107 -1.89066,1.64491 -0.30411,0.18088 -0.85976,0.30383 -1.31599,0.49248 -1.56464,0.64934 -3.91344,0.4621 -5.91863,0.65782 -1.00687,0.0982 -2.0916,0.42677 -2.95963,0.73979 -0.93013,0.33633 -1.74382,1.01888 -2.5489,1.1503 -0.43249,0.0728 -0.70466,-0.0883 -1.06812,0 -0.93014,0.22822 -2.17908,1.1503 -2.87739,1.80954 -0.78578,0.74261 -1.96237,1.42799 -2.46665,2.30202 -0.64807,1.12275 -0.91113,2.5253 -0.82281,3.70033 0.1659,2.19392 1.53737,4.16667 2.71346,5.58901 0.53735,0.64934 0.85121,1.37146 1.31571,1.81024 2.03197,1.91129 5.89545,2.60373 9.5365,2.46524 1.1932,-0.0459 2.34831,0.003 3.45367,-0.32855 0.84323,-0.25296 2.04744,-0.97861 2.95878,-1.56295 0.89983,-0.57515 1.9445,-1.36934 2.46673,-2.13668 0.78931,-1.16232 2.02391,-4.03666 2.21935,-5.58971 0.21996,-1.75514 -0.10245,-3.40993 0,-5.26257 0.15785,-2.85174 0.66623,-5.73527 1.15094,-8.46689 0.48683,-2.74575 0.92102,-5.53813 1.72609,-7.89315 0.82698,-2.4186 1.4176,-4.91847 2.3842,-7.23462 2.85025,-6.82834 5.11489,-14.38092 8.05742,-20.96408 1.48544,-3.32372 3.22156,-6.48565 4.68488,-9.78253 0.4999,-1.12345 1.22718,-2.29636 1.48027,-3.37106 0.10019,-0.42112 0.11729,-1.18493 0.24645,-1.8908 0.30419,-1.66045 -0.32792,-2.4073 -2.05486,-2.21935"
       style="fill:#231615;fill-opacity:1;fill-rule:evenodd;stroke:none;stroke-width:0.0706575"
       id="path13146" />
    <path
       d="m 260.67868,245.44053 c -0.0737,0.20138 -0.19099,0.35612 -0.16421,0.65782 0.36792,-0.0989 0.63981,-0.29322 1.15094,-0.24659 0.0298,-0.16817 0.27493,-0.53841 0.0822,-0.65782 -0.31047,0.12718 -0.66792,0.20914 -1.06897,0.24659"
       style="fill:#ffffff;fill-opacity:1;fill-rule:evenodd;stroke:none;stroke-width:0.0706575"
       id="path13148" />
    <path
       d="m 260.2683,247.00277 c -0.0372,0.26426 -0.15792,0.44514 -0.16477,0.73908 0.37865,-0.11871 0.74021,-0.29676 1.15094,-0.16322 -0.018,-0.37661 0.3188,-0.82952 0.16477,-1.06905 -0.30171,0.2466 -0.79765,0.29888 -1.15094,0.49319"
       style="fill:#ffffff;fill-opacity:1;fill-rule:evenodd;stroke:none;stroke-width:0.0706575"
       id="path13150" />
    <path
       d="m 260.92577,248.23574 c -0.32079,0.17311 -0.68425,0.30242 -1.06869,0.41123 -0.0737,0.50237 -0.22773,0.92349 -0.32983,1.3976 0.23373,-0.008 0.54455,-0.35894 0.65824,0 -0.16696,0.54548 -0.56031,0.86485 -0.98673,1.15031 -1.45095,5.07109 -2.00985,11.03458 -4.76797,14.7985 1.50557,0.13849 1.05153,2.23773 1.56217,3.37107 0.45595,-0.32997 0.29259,-1.05491 0.32898,-1.6449 0.19183,-3.12589 0.74,-6.32597 1.39746,-9.20738 0.65691,-2.87364 1.41534,-5.70277 2.71311,-7.89244 0.11538,-0.84436 0.42451,-1.4937 0.5755,-2.30132 -0.005,-0.0509 -0.0124,-0.0975 -0.0822,-0.0827"
       style="fill:#ffffff;fill-opacity:1;fill-rule:evenodd;stroke:none;stroke-width:0.0706575"
       id="path13152" />
    <path
       d="m 249.00451,266.56924 c -0.56441,0.0742 -1.10819,-0.0304 -1.64364,0 -2.45591,0.1392 -4.54716,0.85496 -6.57722,1.72616 -2.00243,0.85991 -4.06471,1.67741 -5.09723,3.12377 3.02859,-2.06885 6.60753,-3.58799 10.85193,-4.4387 0.70382,0.29817 1.72178,-0.0862 2.71318,0 1.00136,-0.71506 3.00209,-0.46422 3.7818,0.16392 0.19127,-0.19218 0.49411,-0.27415 0.65775,-0.49319 -1.59531,-0.74967 -3.11006,-0.28969 -4.68657,-0.082"
       style="fill:#ffffff;fill-opacity:1;fill-rule:evenodd;stroke:none;stroke-width:0.0706575"
       id="path13154" />
    <path
       d="m 249.66275,267.88418 c 0.42783,1.65409 0.44769,3.71799 0.41074,5.83701 0.48852,-1.55093 0.21027,-4.11933 0.0833,-5.83701 -0.16506,0 -0.32983,0 -0.49404,0"
       style="fill:#ffffff;fill-opacity:1;fill-rule:evenodd;stroke:none;stroke-width:0.0706575"
       id="path13156" />
    <path
       d="m 247.85413,268.13077 c 0.65959,1.54528 0.544,4.26277 0.57629,6.16628 0.15594,-0.14414 0.42776,-0.17452 0.6569,-0.24659 0.19127,-2.00102 0.0856,-4.33979 -0.24758,-6.08432 -0.32517,0.0579 -0.91029,-0.14273 -0.98561,0.16463"
       style="fill:#ffffff;fill-opacity:1;fill-rule:evenodd;stroke:none;stroke-width:0.0706575"
       id="path13158" />
    <path
       d="m 239.22226,269.9389 c -1.34221,1.50924 -4.30784,1.39336 -4.19331,4.35815 1.76729,1.10862 4.98524,0.98143 7.81098,1.06834 1.86662,0.0579 3.61512,-0.36671 4.93217,-0.82174 0.0878,-2.13951 0.28517,-5.03718 -0.57543,-6.49555 -3.15062,0.13849 -5.3959,1.1821 -7.97441,1.8908"
       style="fill:#ffffff;fill-opacity:1;fill-rule:evenodd;stroke:none;stroke-width:0.0706575"
       id="path13160" />
    <path
       d="m 253.36259,268.45933 c 0.28242,0.59423 0.0414,1.71203 0.24653,2.38469 0.59309,-0.54265 0.61825,-2.33382 -0.24653,-2.38469"
       style="fill:#ffffff;fill-opacity:1;fill-rule:evenodd;stroke:none;stroke-width:0.0706575"
       id="path13162" />
    <path
       d="m 249.58051,275.77662 c -3.29547,1.07329 -8.53931,0.23317 -12.49585,0.32856 1.0687,0.24447 2.25221,0.77794 3.37001,0.90512 4.68297,0.5271 9.451,-0.3971 12.16771,-2.46665 -0.0334,-0.54265 0.92851,-0.91361 0.576,-1.23298 -0.86612,1.16232 -2.32894,1.72758 -3.61787,2.46595"
       style="fill:#ffffff;fill-opacity:1;fill-rule:evenodd;stroke:none;stroke-width:0.0706575"
       id="path13164" />
    <path
       d="m 254.595,274.21509 c -0.28652,0.21056 0.10125,0.56738 0.16421,0.90371 -0.082,-0.27274 0.183,-0.89453 -0.16421,-0.90371"
       style="fill:#ffffff;fill-opacity:1;fill-rule:evenodd;stroke:none;stroke-width:0.0706575"
       id="path13166" />
    <path
       d="m 253.36259,275.69466 c 0.24759,0.16322 0.16287,0.65782 0.40989,0.82174 0.22165,-0.40274 0.52802,-1.14323 0.16477,-1.64349 -0.1758,0.28828 -0.47249,0.45857 -0.57466,0.82175"
       style="fill:#ffffff;fill-opacity:1;fill-rule:evenodd;stroke:none;stroke-width:0.0706575"
       id="path13168" />
    <path
       d="m 252.70435,278.1606 c 0.54787,-0.35752 0.43744,-1.58696 0.0828,-2.13739 -0.80317,0.36954 -0.28984,1.42163 -0.0828,2.13739"
       style="fill:#ffffff;fill-opacity:1;fill-rule:evenodd;stroke:none;stroke-width:0.0706575"
       id="path13170" />
    <path
       d="m 250.9779,277.17422 c 0.10627,0.77158 0.21756,1.5368 0.32934,2.30203 0.9177,-0.23883 0.26963,-1.70285 0.24532,-2.46595 -0.30001,-0.0544 -0.31379,0.17735 -0.57466,0.16392"
       style="fill:#ffffff;fill-opacity:1;fill-rule:evenodd;stroke:none;stroke-width:0.0706575"
       id="path13172" />
    <path
       d="m 242.42813,282.84731 c -1.11264,-1.10791 -1.93206,-2.50763 -2.21991,-4.44011 -1.85618,-0.19926 -3.55026,-0.5589 -4.85029,-1.31494 0.55424,1.58273 1.54648,2.7295 2.63065,3.78159 0.0723,0.31796 -0.20095,0.29252 -0.24567,0.49319 0.68226,0.38579 1.3273,0.80973 2.05457,1.15101 -0.005,-0.24589 -0.46754,-0.45857 -0.16477,-0.73978 0.95854,0.27485 1.84649,1.05774 2.79542,1.06904"
       style="fill:#ffffff;fill-opacity:1;fill-rule:evenodd;stroke:none;stroke-width:0.0706575"
       id="path13174" />
    <path
       d="m 248.59321,277.91401 c 0.18442,0.4197 0.18272,1.02453 0.4113,1.3976 0.0427,-0.47835 -0.0925,-1.13334 0.0828,-1.48027 -0.25119,-0.0593 -0.24207,0.14273 -0.49411,0.0827"
       style="fill:#ffffff;fill-opacity:1;fill-rule:evenodd;stroke:none;stroke-width:0.0706575"
       id="path13176" />
    <path
       d="m 247.27891,278.24257 c 0.31605,0.86131 0.576,1.78127 0.90392,2.63128 -0.0938,-0.92067 -0.22992,-1.79823 -0.3287,-2.71325 -0.21918,7.1e-4 -0.46895,-0.0311 -0.57522,0.082"
       style="fill:#ffffff;fill-opacity:1;fill-rule:evenodd;stroke:none;stroke-width:0.0706575"
       id="path13178" />
    <path
       d="m 245.88095,278.48987 c 0.41095,0.93126 0.79822,1.88726 1.23375,2.7945 -0.20285,-1.00263 -0.33703,-2.07521 -0.6586,-2.95913 -0.0516,0.19501 -0.50562,-0.0127 -0.57515,0.16463"
       style="fill:#ffffff;fill-opacity:1;fill-rule:evenodd;stroke:none;stroke-width:0.0706575"
       id="path13180" />
    <path
       d="m 244.64777,282.92857 c -1.71041,-0.64228 -2.35438,-2.75352 -2.95935,-4.52137 -0.33152,0.053 -0.87439,-0.1074 -1.06982,0.0827 0.70381,1.29515 1.15454,3.02979 2.22133,3.94692 0.40295,0.34623 1.05435,0.43879 1.23233,0.90301 0.43469,0.0629 1.31296,0.36035 1.64448,0 -0.14767,-0.54689 -0.73144,-0.28405 -1.06897,-0.41123"
       style="fill:#ffffff;fill-opacity:1;fill-rule:evenodd;stroke:none;stroke-width:0.0706575"
       id="path13182" />
    <path
       d="m 242.59291,278.48987 c 0.35738,1.36793 1.0971,2.3543 1.97339,3.20573 -0.32432,-0.96377 -0.80507,-1.77139 -0.74106,-3.12377 -0.47474,0.0367 -0.84181,-0.0353 -1.23233,-0.082"
       style="fill:#ffffff;fill-opacity:1;fill-rule:evenodd;stroke:none;stroke-width:0.0706575"
       id="path13184" />
    <path
       d="m 254.10153,278.48987 c 0.0532,0.38508 -0.10684,0.98426 0.0823,1.23368 0.0795,-0.22611 0.24009,-1.14465 -0.0823,-1.23368"
       style="fill:#ffffff;fill-opacity:1;fill-rule:evenodd;stroke:none;stroke-width:0.0706575"
       id="path13186" />
    <path
       d="m 244.31928,278.65379 c 0.4963,1.5043 1.16698,2.83407 2.13682,3.86426 -0.22688,-1.44424 -0.97154,-2.37197 -1.06812,-3.94622 -0.33174,0.0523 -0.87496,-0.10669 -1.0687,0.082"
       style="fill:#ffffff;fill-opacity:1;fill-rule:evenodd;stroke:none;stroke-width:0.0706575"
       id="path13188" />
    <path
       d="m 253.03333,280.62655 c 0.26221,-0.0417 0.20921,-0.82669 0.0822,-0.98567 -0.23734,0.0431 -0.44105,0.88322 -0.0822,0.98567"
       style="fill:#ffffff;fill-opacity:1;fill-rule:evenodd;stroke:none;stroke-width:0.0706575"
       id="path13190" />
    <path
       d="m 251.38863,281.28437 c 0.25034,0.12577 0.71958,-0.12648 0.576,-0.65782 -0.35604,0.0558 -0.62652,0.19643 -0.576,0.65782"
       style="fill:#ffffff;fill-opacity:1;fill-rule:evenodd;stroke:none;stroke-width:0.0706575"
       id="path13192" />
    <path
       d="m 248.59321,283.5871 c 0.46097,0.0212 0.86259,-0.0156 1.06954,-0.2473 -0.26772,0.0459 -0.98722,-0.0629 -1.06954,0.2473"
       style="fill:#ffffff;fill-opacity:1;fill-rule:evenodd;stroke:none;stroke-width:0.0706575"
       id="path13194" />
    <path
       d="m 274.24386,214.11736 c -0.46316,0.76381 -0.54046,1.7947 -1.15094,1.8915 -0.5548,0.0883 -1.19786,-0.67054 -1.2329,-1.06975 -0.10903,-1.2351 1.75866,-2.93794 3.04131,-2.71184 0.52053,0.78995 -0.2283,1.18281 -0.65747,1.89009 z m -1.39796,-1.97276 c -2.57985,5.7925 -5.31366,11.43945 -7.89188,17.34712 -0.35434,0.81186 -0.56137,1.8159 -0.82167,2.71325 -0.80726,2.77472 -1.57545,5.49645 -2.30266,8.38563 0.007,0.13001 0.73307,-0.18724 0.73964,0.16393 -0.11729,0.55466 -0.68502,0.56384 -0.98673,0.73908 -0.24977,1.03795 -0.53601,2.04058 -0.73886,3.12447 0.45404,-0.0664 0.79631,-0.24377 1.31521,-0.2466 1.32208,-4.03595 2.86213,-8.28741 4.27478,-12.49577 1.0328,-3.07714 1.98774,-6.52946 3.37058,-9.20809 0.44436,-0.8599 0.87078,-1.83356 1.64497,-2.38469 -0.857,1.98407 -1.58838,3.49543 -2.21963,5.26187 -0.008,0.0191 -1.19595,3.16333 -0.24702,1.23226 0.30468,-0.61966 0.89481,-1.86182 1.2329,-2.54649 1.552,-3.1379 3.09678,-7.33425 4.85078,-10.19517 0.51425,-0.83871 1.74298,-2.17625 0.98617,-3.12306 -1.14706,0.008 -2.28252,0.72848 -3.20658,1.23226"
       style="fill:#ffffff;fill-opacity:1;fill-rule:evenodd;stroke:none;stroke-width:0.0706575"
       id="path13196" />
    <path
       d="m 251.71761,267.96614 c -0.35879,0.0579 -0.46231,-0.13919 -0.82195,-0.082 0.19685,1.36863 0.31357,3.52086 0.24652,5.42649 0.24285,-0.0629 0.69414,-0.3441 0.57543,-0.4946 -0.018,0.0657 -0.069,0.0961 -0.16505,0.0834 -0.20392,-1.30151 0.28842,-3.181 0.16505,-4.93331"
       style="fill:#ffffff;fill-opacity:1;fill-rule:evenodd;stroke:none;stroke-width:0.0706575"
       id="path13198" />
  </g>
</svg>
