<?xml version="1.0" encoding="UTF-8" standalone="no"?>
<!-- Created with Inkscape (http://www.inkscape.org/) -->

<svg
   width="83.059517mm"
   height="68.217941mm"
   viewBox="0 0 83.059517 68.217941"
   version="1.1"
   id="svg21595"
   xmlns:inkscape="http://www.inkscape.org/namespaces/inkscape"
   xmlns:sodipodi="http://sodipodi.sourceforge.net/DTD/sodipodi-0.dtd"
   xmlns="http://www.w3.org/2000/svg"
   xmlns:svg="http://www.w3.org/2000/svg">
  <sodipodi:namedview
     id="namedview21597"
     pagecolor="#505050"
     bordercolor="#eeeeee"
     borderopacity="1"
     inkscape:showpageshadow="0"
     inkscape:pageopacity="0"
     inkscape:pagecheckerboard="0"
     inkscape:deskcolor="#505050"
     inkscape:document-units="mm"
     showgrid="false"
     inkscape:zoom="0.51669473"
     inkscape:cx="396.75265"
     inkscape:cy="562.22753"
     inkscape:window-width="1370"
     inkscape:window-height="746"
     inkscape:window-x="70"
     inkscape:window-y="27"
     inkscape:window-maximized="1"
     inkscape:current-layer="layer1" />
  <defs
     id="defs21592" />
  <g
     inkscape:label="Calque 1"
     inkscape:groupmode="layer"
     id="layer1"
     transform="translate(-106.86782,-222.75474)">
    <path
       d="m 187.94462,230.09463 c -1.88231,-2.18756 -4.18292,-4.18434 -6.53299,-6.19808 -0.58575,-0.49955 -1.71132,-0.83164 -2.48149,-1.14182 -1.76078,0.35964 -3.32867,1.93177 -4.85205,3.41629 -1.50854,1.46685 -2.99234,3.13436 -4.40832,4.62312 -1.17291,1.23438 -3.06724,2.99093 -4.76797,2.63552 -0.49389,-0.10457 -1.1178,-0.59423 -1.84486,-0.94045 -0.65853,-0.31372 -1.39266,-0.41547 -1.79965,-0.64581 -1.37853,-0.78006 -2.278,-3.04887 -4.70296,-3.44314 -0.19714,-0.029 -0.73979,-0.0113 -1.10933,0.0367 -1.91411,0.2572 -4.26841,1.60958 -6.25318,2.49916 -6.30548,2.82064 -11.87823,5.43427 -18.04239,9.09786 -5.85398,3.482 -11.83655,6.2871 -17.87847,9.53946 -1.92259,1.03514 -4.50017,2.13245 -5.69287,3.85013 -0.25225,0.36671 -0.62461,1.15949 -0.62885,1.17009 -0.19219,0.64086 -0.0127,2.3218 0.21267,3.10257 0.15545,0.53982 0.60695,1.07965 0.94258,1.71132 0.31725,0.59565 0.46068,1.30929 0.72565,1.79117 0.69244,1.26194 1.6117,2.44334 2.41507,3.6643 0.78501,1.19623 1.60746,2.40589 2.44687,3.58799 1.61028,2.26174 3.55902,4.45919 5.19403,7.12934 2.30626,3.76745 4.99761,6.9859 7.86065,10.63607 0.93197,1.18916 1.74736,2.827 2.66944,3.50744 0.63733,0.47199 2.00243,1.29939 2.70618,1.24639 0.43172,-0.0332 0.77511,-0.27203 1.08035,-0.95952 0.6338,0.0572 1.07541,-0.45716 1.60746,-0.7193 0.21551,-0.1081 0.64864,-0.118 0.84224,-0.24871 0.29817,-0.19996 0.34339,-0.59776 0.60695,-0.72354 0.30806,-0.14626 0.53134,0.13849 0.8168,0.009 2.63623,-1.47038 5.2442,-3.09338 7.8458,-4.77009 0.838,-0.54123 1.66964,-1.20047 2.65814,-1.42092 0.6444,-0.8811 1.64914,-1.26901 2.49633,-1.85758 2.51399,-1.741 5.03858,-3.51027 7.36392,-5.90273 1.58132,-0.9991 3.06654,-2.0957 4.6422,-3.14921 1.49299,-0.99909 3.16475,-1.9459 4.60545,-3.07642 3.03616,-2.38469 5.78897,-4.85559 8.83714,-7.32153 0.4409,-0.35682 0.99556,-0.7737 1.48098,-1.23156 0.48895,-0.46563 1.17432,-0.90654 1.40255,-1.2683 0.60553,-0.97013 0.6882,-2.20593 0.78218,-3.28558 0.0855,-0.95105 0.19996,-2.23489 -0.13001,-2.88424 -0.22045,-0.43666 -0.73908,-0.88251 -1.08177,-1.40961 -0.29393,-0.45574 -0.60836,-0.94399 -0.89664,-1.41598 -0.47058,-0.76663 -1.66045,-2.17837 -1.54175,-2.98669 0.20703,-1.40397 1.30928,-1.96852 1.87101,-2.87505 1.77209,-0.5688 2.68004,-2.11337 4.38077,-3.17959 0.53629,-0.33633 1.2153,-0.49036 1.82578,-0.79914 0.59423,-0.30241 1.15455,-0.66347 1.74383,-1.02029 1.22732,-0.74191 2.64047,-1.19482 3.49189,-2.03776 0.99062,-0.98285 1.30505,-3.10681 0.90371,-4.13912 -0.26072,-0.66771 -1.21884,-1.51136 -1.81307,-2.20239"
       style="fill:#231615;fill-opacity:1;fill-rule:evenodd;stroke:none;stroke-width:0.0706575"
       id="path15782" />
    <path
       d="m 179.87271,224.46605 c -0.70657,-0.55254 -1.57213,0.51651 -2.2137,0.25507 -4.86759,4.39914 -8.2648,12.66536 -15.57785,9.68856 -0.46634,-0.19148 -0.9454,-0.49531 -1.28314,-0.7737 -1.4937,-1.23227 -2.41366,-2.83125 -4.38571,-3.9335 -3.954,1.79682 -7.9949,3.3534 -11.90014,5.45758 -5.78402,3.11529 -11.58783,5.94442 -17.56757,8.86186 -4.87607,2.37834 -9.5324,4.94956 -14.49327,7.7264 -1.42162,0.79631 -2.81146,1.28102 -3.30394,3.21845 0.36742,0.88393 0.83941,1.72899 1.37711,2.54932 0.74261,-0.7525 1.62442,-1.12628 2.42921,-1.70708 0.30595,-0.92703 0.77158,-0.86132 0.98002,-1.73676 5.42296,-4.95521 12.57703,-6.97107 18.73483,-10.60357 4.58355,-2.70548 9.40805,-5.21241 14.23961,-7.57095 0.79207,-0.3865 1.59898,-0.75533 2.36773,-1.18846 0.78924,-0.44302 1.49864,-1.04715 2.28789,-1.4075 1.04644,-0.47694 2.28153,-0.59776 3.45727,-0.77794 1.66822,0.64934 2.50622,1.94167 3.68479,2.88283 1.80742,1.44353 3.58657,2.80369 4.88384,4.43517 3.86285,-2.38469 7.45084,-5.50634 11.34265,-7.80836 -3.56326,2.91109 -7.53915,5.60455 -10.99501,8.24149 0.51226,0.87544 1.26689,0.0431 1.76926,-0.27769 4.01759,-2.5684 8.3397,-5.77625 12.20255,-8.69087 -1.68659,2.18403 -4.27831,3.59364 -6.50049,5.21099 -1.98547,1.44424 -3.85154,2.84326 -5.93805,4.1907 -0.19078,0.12436 -0.72566,0.14131 -0.61402,0.53841 0.71506,0.38791 1.33048,-0.46775 1.8272,-0.79984 3.99215,-2.67227 8.36585,-5.63777 12.4011,-8.32699 -0.72918,-1.22803 -3.08915,-2.96125 -2.33523,-4.62807 0.36813,-0.81609 1.29445,-1.14394 2.14304,-1.29161 1.63926,0.39497 2.53519,1.71697 3.70811,2.43768 0.42253,0.2579 0.90653,0.3335 1.2796,0.58858 0.98921,0.67972 1.17151,1.8922 1.45979,2.76765 -0.68467,0.6769 -0.77723,1.56294 -1.45555,1.97205 -1.30433,0.78783 -3.70033,-0.45009 -4.7185,-1.62512 -4.43023,3.44102 -9.35788,6.42842 -13.69413,9.55289 0.38226,0.99345 1.23368,0.13142 1.9883,-0.36106 3.52934,-2.30979 7.50524,-5.20039 10.83886,-7.31164 -3.77523,3.35058 -8.18214,5.8886 -11.94253,8.71773 2.11125,2.13173 4.00345,4.34472 6.02496,6.51038 0.24307,0.20137 0.0262,0.57162 0.28334,0.76875 0.67761,-0.3653 1.19482,-1.16161 1.87949,-1.5043 -0.63521,-1.31069 -1.04785,-2.0745 -1.04502,-3.67207 0,-0.8387 -0.0276,-1.08035 0.45008,-2.16141 1.10297,-2.51258 4.26277,-4.92341 6.44043,-5.87588 1.72546,-0.75391 3.33998,-1.6449 5.25692,-2.31686 0.69244,-0.24164 1.48028,-0.41405 1.71627,-0.75815 0.43808,-0.63521 0.19784,-1.4082 0.31231,-1.86324 -2.04271,-2.23207 -5.33818,-5.68227 -7.80271,-7.59992"
       style="fill:#ffffff;fill-opacity:1;fill-rule:evenodd;stroke:none;stroke-width:0.0706575"
       id="path15784" />
    <path
       d="m 179.91157,227.94593 c -0.0954,0.18089 -0.17664,0.35682 -0.13283,0.48542 0.17523,0.0219 0.21268,-0.32785 0.39851,-0.27133 0.024,-0.11234 -0.15686,-0.14838 -0.26568,-0.21409"
       style="fill:#ffffff;fill-opacity:1;fill-rule:evenodd;stroke:none;stroke-width:0.0706575"
       id="path15786" />
    <path
       d="m 180.90784,228.95068 c -0.45291,-0.0381 -0.61542,0.6981 -0.97012,0.92067 0.23953,1.03301 1.90846,1.54104 2.19391,2.55921 0.51651,-0.23105 1.31352,0.29323 1.69366,-0.31442 -0.51933,-1.22167 -1.77209,-2.17343 -2.91745,-3.16546"
       style="fill:#ffffff;fill-opacity:1;fill-rule:evenodd;stroke:none;stroke-width:0.0706575"
       id="path15788" />
    <path
       d="m 188.59609,234.22314 c -0.6225,1.06199 -1.66187,1.33896 -2.61151,1.71345 -0.46068,0.18088 -0.91642,0.56808 -1.34814,0.74685 -0.40416,0.16816 -1.22167,0.0664 -1.12487,0.6663 0.24589,0.15756 0.70375,-0.12789 1.13759,-0.29606 0.70869,-0.27768 1.48451,-0.64793 2.31262,-0.66771 0.60695,-0.66559 1.30433,-1.08318 1.74453,-2.20381 -0.0579,-0.0438 -0.0841,-0.003 -0.11022,0.041"
       style="fill:#ffffff;fill-opacity:1;fill-rule:evenodd;stroke:none;stroke-width:0.0706575"
       id="path15790" />
    <path
       d="m 182.69053,237.15331 c -0.20844,0.0551 -0.44302,0.0403 -0.58363,0.2791 0.14061,0.23811 0.23458,0.49389 0.28263,0.76734 0.27627,-0.15262 0.57586,-0.24589 0.79914,-0.54477 -0.27062,-0.004 -0.5052,-0.22681 -0.49814,-0.50167"
       style="fill:#ffffff;fill-opacity:1;fill-rule:evenodd;stroke:none;stroke-width:0.0706575"
       id="path15792" />
    <path
       d="m 178.86372,239.1296 c 0.29676,0.29817 0.33139,0.98285 0.70092,1.04997 0.0431,-0.43101 -0.24376,-0.7412 -0.18582,-1.17927 0.47693,-0.26356 0.70092,0.49248 0.94893,0.71152 0.51368,-0.35329 1.03513,-0.68679 1.51984,-1.12416 -0.17099,-0.26779 -0.37025,-0.52923 -0.32573,-0.87757 -0.9673,0.25013 -1.87031,0.67761 -2.65814,1.41951"
       style="fill:#ffffff;fill-opacity:1;fill-rule:evenodd;stroke:none;stroke-width:0.0706575"
       id="path15794" />
    <path
       d="m 178.03279,239.74785 c -0.11446,0.45857 0.44161,0.66913 0.40628,1.09873 0.21197,0.0707 0.2798,-0.25508 0.4727,-0.23883 -0.16251,-0.37519 -0.3116,-0.75674 -0.58999,-1.09165 -0.0897,0.0926 -0.19925,0.13778 -0.28899,0.23175"
       style="fill:#ffffff;fill-opacity:1;fill-rule:evenodd;stroke:none;stroke-width:0.0706575"
       id="path15796" />
    <path
       d="m 177.20751,240.55406 c -0.12365,0.43878 0.34128,0.66206 0.32997,1.06198 0.20138,0.0403 0.29676,-0.20703 0.43313,-0.34764 -0.26496,-0.21056 -0.33915,-1.14465 -0.7631,-0.71434"
       style="fill:#ffffff;fill-opacity:1;fill-rule:evenodd;stroke:none;stroke-width:0.0706575"
       id="path15798" />
    <path
       d="m 176.24162,241.65773 c 0.19996,0.25789 0.26779,0.56667 0.54407,0.79631 0.56314,-0.42395 -0.0996,-0.79843 -0.0749,-1.21955 -0.23034,-0.0551 -0.30595,0.29958 -0.46917,0.42324"
       style="fill:#ffffff;fill-opacity:1;fill-rule:evenodd;stroke:none;stroke-width:0.0706575"
       id="path15800" />
    <path
       d="m 175.60853,243.8262 c 0.48966,-0.54194 0.5695,-0.91289 0.28828,-1.41739 -0.48965,0.171 -0.93409,1.16373 -0.28828,1.41739"
       style="fill:#ffffff;fill-opacity:1;fill-rule:evenodd;stroke:none;stroke-width:0.0706575"
       id="path15802" />
    <path
       d="m 174.69634,245.41034 c 0.26638,-0.0417 0.16817,-0.47128 0.20138,-0.63521 -0.27769,0.0459 -0.0777,0.43879 -0.20138,0.63521"
       style="fill:#ffffff;fill-opacity:1;fill-rule:evenodd;stroke:none;stroke-width:0.0706575"
       id="path15804" />
    <path
       d="m 173.21536,251.20073 c 0.61826,-0.63733 1.33048,-1.01677 1.94732,-1.65622 -0.16746,-0.20844 -0.35187,-0.40981 -0.42959,-0.65287 -0.48118,0.72283 -2.23278,1.46897 -1.51773,2.30909"
       style="fill:#ffffff;fill-opacity:1;fill-rule:evenodd;stroke:none;stroke-width:0.0706575"
       id="path15806" />
    <path
       d="m 175.58592,250.01297 c -0.70233,0.46493 -1.33119,1.1284 -2.02292,1.61947 -0.10458,0.3109 0.18229,0.47411 0.0996,0.77582 0.82811,-0.57515 1.64915,-1.16726 2.42073,-1.89503 -0.15898,-0.16817 -0.4833,-0.27839 -0.49743,-0.50026"
       style="fill:#ffffff;fill-opacity:1;fill-rule:evenodd;stroke:none;stroke-width:0.0706575"
       id="path15808" />
    <path
       d="m 174.7995,252.1115 c -0.52427,0.39992 -1.26689,0.73413 -1.59403,1.08954 -0.19431,0.21056 -0.28687,0.66983 -0.56031,1.01817 -0.97932,1.257 -2.89201,2.38116 -4.40762,3.43749 -8.96573,6.25319 -17.73079,13.54433 -26.97703,19.20329 -1.5481,0.94893 -3.21138,1.77775 -4.64926,2.77896 -1.15525,0.80479 -0.97295,1.11427 -2.41225,1.07824 -0.91077,-0.0212 -1.58838,-0.0996 -2.58323,-0.91643 -1.63149,-1.34179 -2.88142,-3.482 -4.50442,-5.26257 -1.63784,-1.79894 -3.20432,-3.58799 -4.42881,-5.22866 -0.90936,0.40346 -1.79823,0.87192 -2.57617,1.64067 3.29405,4.42175 6.26661,8.823 9.98602,13.34367 0.47694,0.57939 1.15878,1.56223 1.64915,1.7622 0.86202,0.35187 2.27375,-0.54053 3.18594,-1.17645 8.66402,-6.04192 17.15847,-12.26049 25.70308,-18.42112 1.93813,-1.39619 3.71234,-2.98669 5.64058,-4.3313 2.75141,-1.92047 5.56993,-3.94057 8.49798,-6.38461 0.90654,-0.75533 2.28436,-1.35521 2.62351,-2.52954 0.22611,-0.78571 -0.23458,-1.54316 -0.89311,-2.41437 -0.37378,0.27698 -1.07752,0.83942 -1.70002,1.31282"
       style="fill:#ffffff;fill-opacity:1;fill-rule:evenodd;stroke:none;stroke-width:0.0706575"
       id="path15810" />
    <path
       d="m 177.26828,257.4412 c 0.0608,-0.18513 -0.0318,-0.18725 0.13283,-0.48683 -0.42536,0.41617 -0.45291,1.47462 -0.13283,0.48683"
       style="fill:#ffffff;fill-opacity:1;fill-rule:evenodd;stroke:none;stroke-width:0.0706575"
       id="path15812" />
    <path
       d="m 175.25948,259.43232 c 0.95035,-0.32997 0.19149,-1.6336 0.73272,-2.58041 -0.82669,0.40346 -0.38791,1.75019 -0.73272,2.58041"
       style="fill:#ffffff;fill-opacity:1;fill-rule:evenodd;stroke:none;stroke-width:0.0706575"
       id="path15814" />
    <path
       d="m 174.17136,260.20673 c 0.76239,-0.34481 0.27344,-1.62018 0.66277,-2.42991 -0.89947,0.43666 -0.3865,1.63784 -0.66277,2.42991"
       style="fill:#ffffff;fill-opacity:1;fill-rule:evenodd;stroke:none;stroke-width:0.0706575"
       id="path15816" />
    <path
       d="m 173.05214,261.05674 c 0.82034,-0.30171 0.2254,-1.42516 0.52358,-2.12679 -0.76876,0.2692 -0.41547,1.505 -0.52358,2.12679"
       style="fill:#ffffff;fill-opacity:1;fill-rule:evenodd;stroke:none;stroke-width:0.0706575"
       id="path15818" />
    <path
       d="m 172.38443,259.93117 c -0.93127,0.17664 -0.47482,1.50217 -0.74261,2.20945 0.37307,-0.11658 0.67125,-0.43807 0.97719,-0.73554 -0.52569,-0.32502 -0.33279,-0.91784 -0.23458,-1.47391"
       style="fill:#ffffff;fill-opacity:1;fill-rule:evenodd;stroke:none;stroke-width:0.0706575"
       id="path15820" />
    <path
       d="m 168.40288,262.83731 c -0.17099,0.66771 -0.13637,1.25699 -0.34339,1.93743 1.01464,-0.52146 1.91552,-1.3425 2.8595,-2.05614 -0.10457,-0.52145 -0.0593,-1.10013 0.0579,-1.70567 -0.9249,0.42465 -1.68518,1.29586 -2.57405,1.82438"
       style="fill:#ffffff;fill-opacity:1;fill-rule:evenodd;stroke:none;stroke-width:0.0706575"
       id="path15822" />
    <path
       d="m 166.32626,266.16316 c 1.06975,-0.30524 0.88887,-1.59404 1.21319,-2.632 -1.22026,0.13143 -0.98991,1.65834 -1.21319,2.632"
       style="fill:#ffffff;fill-opacity:1;fill-rule:evenodd;stroke:none;stroke-width:0.0706575"
       id="path15824" />
    <path
       d="m 165.09682,267.05485 c 0.49389,-0.64086 0.39992,-1.60463 0.62744,-2.35289 -0.18866,-0.0558 -0.27698,0.15403 -0.4402,0.1611 0.0304,0.69668 0.0155,1.40891 -0.18724,2.19179"
       style="fill:#ffffff;fill-opacity:1;fill-rule:evenodd;stroke:none;stroke-width:0.0706575"
       id="path15826" />
    <path
       d="m 164.08783,265.67986 c -0.0127,0.54618 0.1505,1.02665 -0.0219,1.63007 0.38085,-0.43172 0.25084,-1.21319 0.4621,-1.79188 -0.20702,-0.10952 -0.28687,0.12577 -0.44019,0.16181"
       style="fill:#ffffff;fill-opacity:1;fill-rule:evenodd;stroke:none;stroke-width:0.0706575"
       id="path15828" />
    <path
       d="m 152.59185,275.60512 c 3.45728,-2.13033 6.81633,-4.52067 10.1874,-6.88346 0.1936,-0.77864 0.17453,-1.47956 0.29818,-2.23207 -3.5781,1.97135 -6.71247,5.1368 -10.16903,7.44024 -0.10104,0.5589 -0.0911,1.07399 -0.31655,1.67529"
       style="fill:#ffffff;fill-opacity:1;fill-rule:evenodd;stroke:none;stroke-width:0.0706575"
       id="path15830" />
    <path
       d="m 151.18294,276.6883 c 0.85567,-0.18795 0.78854,-1.31211 0.96872,-2.10418 -0.27839,0.1406 -0.54053,0.33491 -0.79772,0.54335 -0.0798,0.52993 -0.13779,1.05068 -0.171,1.56083"
       style="fill:#ffffff;fill-opacity:1;fill-rule:evenodd;stroke:none;stroke-width:0.0706575"
       id="path15832" />
    <path
       d="m 110.96117,258.35126 c 0.65075,-0.67407 1.80035,-0.6451 2.09075,-1.76997 -0.84365,0.25154 -1.49228,1.0316 -2.32816,1.29728 0.0191,0.18088 0.21621,0.29393 0.23741,0.47269"
       style="fill:#ffffff;fill-opacity:1;fill-rule:evenodd;stroke:none;stroke-width:0.0706575"
       id="path15834" />
    <path
       d="m 111.1583,258.71656 c 0.31443,0.21621 0.26921,0.56738 0.65288,0.75816 0.5589,-0.46069 1.2252,-0.62603 1.74029,-1.20542 -0.4734,-1.322 -1.55164,0.28263 -2.39317,0.44726"
       style="fill:#ffffff;fill-opacity:1;fill-rule:evenodd;stroke:none;stroke-width:0.0706575"
       id="path15836" />
    <path
       d="m 111.97369,259.91279 c 0.56173,0.54053 1.48663,-0.4953 2.12255,-0.84718 -0.0742,-0.13919 -0.26638,-0.23458 -0.27486,-0.3978 -0.59423,0.37024 -1.48168,0.80479 -1.84769,1.24498"
       style="fill:#ffffff;fill-opacity:1;fill-rule:evenodd;stroke:none;stroke-width:0.0706575"
       id="path15838" />
    <path
       d="m 149.73305,277.66054 c 0.68397,-0.18441 0.38085,-1.1927 0.64581,-1.79894 -0.22681,0.12012 -0.46775,0.20067 -0.65287,0.43101 0.0784,0.42748 0.0975,0.87898 0.007,1.36793"
       style="fill:#ffffff;fill-opacity:1;fill-rule:evenodd;stroke:none;stroke-width:0.0706575"
       id="path15840" />
    <path
       d="m 112.55873,260.82004 c 1.30575,1.93177 2.66238,3.84094 4.22038,5.67803 0.63167,-0.37236 1.19199,-0.9355 1.84769,-1.24286 -1.59686,-1.76079 -2.93935,-3.61484 -4.10308,-5.53672 -0.70234,0.24447 -1.35097,0.6239 -1.96499,1.10155"
       style="fill:#ffffff;fill-opacity:1;fill-rule:evenodd;stroke:none;stroke-width:0.0706575"
       id="path15842" />
    <path
       d="m 148.20614,278.60029 c 0.88181,0.0276 0.64228,-1.18281 0.83094,-1.8053 -0.30312,0.0798 -0.56738,0.26638 -0.79631,0.54335 0.0707,0.39074 0.11587,0.79066 -0.0346,1.26195"
       style="fill:#ffffff;fill-opacity:1;fill-rule:evenodd;stroke:none;stroke-width:0.0706575"
       id="path15844" />
    <path
       d="m 147.22542,277.96366 c -0.47199,0.419 0.0346,0.97508 -0.24872,1.52903 0.37943,-0.35187 0.2141,-1.03654 0.43243,-1.53468 -0.082,-0.0523 -0.14132,-0.0445 -0.18371,0.006"
       style="fill:#ffffff;fill-opacity:1;fill-rule:evenodd;stroke:none;stroke-width:0.0706575"
       id="path15846" />
    <path
       d="m 117.04972,266.8987 c 0.19714,0.19925 0.28122,0.43454 0.53771,0.61119 0.63238,-0.48825 1.29374,-0.89594 1.96004,-1.28456 -0.58646,-1.43505 -1.73747,0.10599 -2.49775,0.67337"
       style="fill:#ffffff;fill-opacity:1;fill-rule:evenodd;stroke:none;stroke-width:0.0706575"
       id="path15848" />
    <path
       d="m 117.8213,267.79817 c 0.0784,0.32432 0.35682,0.57515 0.61826,0.83235 0.64722,-0.67125 1.46543,-0.87333 2.1388,-1.47533 -0.84365,-1.39478 -1.81378,0.34622 -2.75706,0.64298"
       style="fill:#ffffff;fill-opacity:1;fill-rule:evenodd;stroke:none;stroke-width:0.0706575"
       id="path15850" />
    <path
       d="m 145.30707,280.54549 c 0.72848,0.0445 0.54123,-1.1821 0.68608,-1.68872 -0.81327,0.13143 -0.47058,1.06623 -0.68608,1.68872"
       style="fill:#ffffff;fill-opacity:1;fill-rule:evenodd;stroke:none;stroke-width:0.0706575"
       id="path15852" />
    <path
       d="m 120.8087,267.44276 c -0.66347,0.56456 -1.43646,0.84012 -2.10347,1.40185 -0.0523,0.33138 0.20349,0.55042 0.47058,0.76239 0.70587,-0.6776 1.56789,-0.93056 2.28153,-1.5905 -0.20279,-0.19713 -0.35188,-0.41264 -0.64864,-0.57374"
       style="fill:#ffffff;fill-opacity:1;fill-rule:evenodd;stroke:none;stroke-width:0.0706575"
       id="path15854" />
    <path
       d="m 119.4118,270.08253 c 0.1604,0.14838 0.20208,0.34057 0.42254,0.46775 0.75108,-0.72707 1.68235,-0.96589 2.42779,-1.7085 -0.0735,-0.1399 -0.26497,-0.23458 -0.27345,-0.39921 -0.93974,0.32431 -1.77209,0.9461 -2.57688,1.63996"
       style="fill:#ffffff;fill-opacity:1;fill-rule:evenodd;stroke:none;stroke-width:0.0706575"
       id="path15856" />
    <path
       d="m 143.78793,281.66894 c 0.55325,-0.26638 0.42465,-1.19482 0.61119,-1.72616 -0.85142,0.15121 -0.44585,1.10862 -0.61119,1.72616"
       style="fill:#ffffff;fill-opacity:1;fill-rule:evenodd;stroke:none;stroke-width:0.0706575"
       id="path15858" />
    <path
       d="m 132.64242,278.36146 c 0.24871,0.44939 0.7094,0.81963 0.9673,1.26336 1.55164,-0.4727 3.09409,-0.97013 4.45495,-1.95792 -1.65762,0.63521 -3.32302,1.24923 -5.42225,0.69456"
       style="fill:#ffffff;fill-opacity:1;fill-rule:evenodd;stroke:none;stroke-width:0.0706575"
       id="path15860" />
    <path
       d="m 142.08297,282.79805 c 0.72777,-0.13425 0.46563,-1.2146 0.71929,-1.76503 -0.71788,0.16252 -0.45292,1.18988 -0.71929,1.76503"
       style="fill:#ffffff;fill-opacity:1;fill-rule:evenodd;stroke:none;stroke-width:0.0706575"
       id="path15862" />
    <path
       d="m 140.16532,284.19071 c 0.78925,-0.14414 0.6444,-1.33048 0.93409,-2.02787 -0.27909,-0.0191 -0.44019,0.2692 -0.69456,0.31866 -0.0827,0.5688 -0.006,1.08389 -0.23953,1.70921"
       style="fill:#ffffff;fill-opacity:1;fill-rule:evenodd;stroke:none;stroke-width:0.0706575"
       id="path15864" />
    <path
       d="m 138.93235,283.89889 c 0.27344,-0.006 0.036,-0.33915 0.24306,-0.5271 -0.36177,-0.0509 -0.13354,0.3123 -0.24306,0.5271"
       style="fill:#ffffff;fill-opacity:1;fill-rule:evenodd;stroke:none;stroke-width:0.0706575"
       id="path15866" />
    <path
       d="m 137.47822,285.87094 c 0.34057,-0.39851 0.29676,-1.18916 0.42465,-1.71627 -0.55184,0.28193 -0.1392,1.13123 -0.42465,1.71627"
       style="fill:#ffffff;fill-opacity:1;fill-rule:evenodd;stroke:none;stroke-width:0.0706575"
       id="path15868" />
    <path
       d="m 136.30954,285.2428 c -0.0735,0.33774 0.17099,0.56102 0.0297,0.9249 0.29464,-0.1943 0.14273,-0.75886 0.33562,-1.12204 -0.16675,-0.0509 -0.20279,0.2473 -0.3653,0.19714"
       style="fill:#ffffff;fill-opacity:1;fill-rule:evenodd;stroke:none;stroke-width:0.0706575"
       id="path15870" />
    <path
       d="m 132.46154,288.84774 c 0.26779,-0.0629 0.3441,-1.1934 0.80196,-1.54457 -0.16393,0.007 -0.30242,0.0806 -0.48047,0.0523 0.15474,0.57091 -0.35965,0.78429 -0.32149,1.49228"
       style="fill:#ffffff;fill-opacity:1;fill-rule:evenodd;stroke:none;stroke-width:0.0706575"
       id="path15872" />
    <path
       d="m 155.6598,260.43213 c -4.79128,2.93511 -9.06535,6.5662 -13.79729,9.7797 6.02356,-5.53248 12.75156,-9.44903 19.11356,-13.80435 2.78603,-1.90493 5.5777,-3.80844 8.48667,-5.56852 -4.45848,3.52369 -9.06253,6.69197 -13.80294,9.59317 z m -23.36643,15.12494 c 2.68993,-2.53095 5.9423,-4.3094 8.94383,-6.36412 9.08726,-6.21927 17.91308,-12.61378 26.90637,-19.05209 -1.17292,1.48381 -2.84397,2.38611 -4.33201,3.47282 -4.50159,3.28699 -8.83713,6.55136 -13.2822,9.64969 -6.04475,4.21613 -12.07536,8.33617 -18.23599,12.2937 z m 19.11215,-14.98857 c 3.04675,-2.07945 5.96702,-4.29457 8.97844,-6.4362 2.98599,-2.12396 6.23482,-3.90877 9.1346,-6.18394 -2.65107,2.63977 -5.91686,4.5673 -8.9304,6.73225 -6.05534,4.34543 -12.1114,8.48455 -18.15049,12.69573 -2.60232,1.8152 -5.33747,4.02395 -8.00691,5.51835 -0.35046,0.19643 -0.88181,0.58505 -1.0641,0.33139 5.87941,-4.44506 11.99552,-8.53119 18.03886,-12.65758 z m 6.18535,-12.64275 c -4.98771,3.76181 -9.77052,7.60063 -14.99281,10.59439 6.53299,-5.00962 13.2292,-9.56844 19.71344,-14.71019 -1.40609,1.5474 -3.08844,2.88353 -4.72063,4.1158 z m -7.58367,9.54159 c -5.47454,3.87698 -11.25503,7.8345 -16.70201,11.53695 -0.77582,0.52711 -1.47675,1.30575 -2.43345,1.52409 1.09873,-1.64774 2.98387,-2.4928 4.55317,-3.55549 4.87395,-3.29688 9.63203,-6.62343 14.46218,-9.83552 0.0749,0.0339 0.1505,0.0678 0.22398,0.10316 -0.0212,0.12082 0.0332,0.16746 -0.10387,0.22681 z m -13.21931,2.3854 c 7.51725,-5.30356 14.96809,-10.91517 22.33766,-16.05197 -9.68502,7.7921 -19.75301,14.54696 -29.715,21.58727 2.19532,-2.17554 4.86335,-3.75827 7.37734,-5.5353 z m -13.28007,0.54123 c 5.2661,-3.85931 11.30661,-7.33707 17.05177,-11.10594 5.77978,-3.79219 11.31368,-8.09452 17.30543,-11.25998 -2.65743,2.15011 -5.67733,3.74909 -8.5227,5.64341 -2.85951,1.90422 -5.63353,3.96742 -8.51776,5.83066 -5.7494,3.71517 -11.49032,7.41904 -17.31674,10.89185 z m -2.33029,4.66905 c 3.8141,-3.24459 8.00903,-5.45759 11.99341,-8.24078 0.0996,0.0417 0.1505,-0.0473 0.26214,0.029 -3.96884,3.05099 -8.11996,5.61444 -12.25555,8.21181 z m 38.57829,-20.05825 c -1.71839,1.53539 -3.64593,2.81005 -5.49362,4.21189 -1.77209,1.34532 -3.61555,2.57052 -5.39753,3.8042 -3.67065,2.54367 -6.96895,5.49928 -10.75054,7.71651 6.91667,-5.82289 14.18803,-10.68483 21.38237,-15.76298 0.0982,0.041 0.14768,-0.0488 0.25932,0.0304 z m -12.99533,-4.43588 c -5.39187,3.31596 -10.4997,6.66159 -15.75591,9.87863 -0.43525,0.26638 -0.93833,0.60836 -1.46332,0.60129 7.56177,-5.14598 15.24153,-9.97754 23.05483,-14.44663 -1.57001,1.5255 -3.82398,2.73091 -5.8356,3.96671 z m 23.05837,13.25959 c 0.57303,-1.75584 0.9786,-3.97873 0.12153,-5.41095 0.18088,0.12011 0.12436,0.32785 0.34763,0.43171 -0.87615,-1.5481 -2.85668,-2.68851 -3.91372,-4.1702 -0.5589,-0.0269 -1.02382,-0.50096 -1.35803,-0.80903 -0.49531,-0.0452 -0.80408,0.41123 -1.24287,0.52216 -0.0954,-0.47764 0.73696,-0.64793 0.67054,-1.05916 -2.28153,-2.15152 -4.11792,-4.46908 -6.21715,-6.68843 -10.13087,6.80431 -20.43415,13.15147 -30.70421,19.58201 4.90716,-3.67419 10.11532,-6.74213 15.23658,-9.93444 5.11913,-3.19372 10.17397,-6.51886 15.23729,-9.93656 -0.93127,-0.67054 -1.3856,-2.19886 -2.52954,-2.6214 -0.62249,-0.22963 -1.13617,0.22187 -1.82014,-0.20278 -8.8873,4.57295 -18.28404,9.59316 -27.46669,14.33075 -2.18614,1.12769 -4.54327,2.47866 -6.76828,3.81056 -0.73695,0.44161 -1.62017,0.89664 -2.17766,1.36793 -1.07894,0.91289 -1.79894,1.86041 -2.40659,3.44738 0.82951,1.33542 1.63289,2.68215 2.644,3.95187 2.68852,-2.16141 5.77696,-3.69397 8.71348,-5.46606 8.70147,-5.24986 17.2482,-11.0254 26.11289,-16.13818 -5.7169,3.75828 -11.36173,7.4897 -17.12596,11.07133 -5.73951,3.56325 -11.6062,6.98096 -17.20863,10.85016 0.85848,1.80389 2.33452,3.38308 3.60847,5.03364 4.39985,-2.95348 8.91062,-5.60455 13.31753,-8.54249 -4.26277,3.21068 -8.73468,5.86104 -13.0886,8.83077 0.61684,0.58293 1.09731,1.21673 1.72546,1.79682 0.16675,0.36036 0.35329,-0.30029 0.62461,-0.17028 0.1936,0.26214 -0.13637,0.3547 -0.27556,0.60341 2.14021,1.68377 3.21703,3.7604 5.10359,5.54096 2.98033,-2.41507 6.2221,-4.44788 9.45821,-6.4913 3.21562,-2.0314 6.26944,-4.27972 9.4243,-6.41641 3.16051,-2.1388 6.37047,-4.17161 9.49848,-6.37966 3.09551,-2.18473 6.14579,-4.46202 9.46457,-6.30548 -1.29162,1.41315 -3.03191,2.28295 -4.55811,3.37037 -1.58273,1.12628 -3.05523,2.3748 -4.62736,3.51803 -3.07572,2.23773 -6.40864,4.1264 -9.54018,6.27156 -3.16828,2.16636 -6.19242,4.48463 -9.46033,6.4906 -3.23046,1.98618 -6.3521,4.14406 -9.46245,6.30477 1.26265,0.95529 1.38984,2.30626 3.31455,2.89342 0.37943,0.11659 0.83234,-0.0247 1.26123,0.0332 0.95529,0.13072 1.99184,0.51439 3.00577,0.19925 0.17947,-0.0551 0.53276,-0.23317 0.69456,-0.31866 1.42941,-0.76593 2.81076,-1.69578 4.25288,-2.50622 1.45484,-0.81963 2.66661,-1.98265 4.09036,-2.94783 5.28165,-3.57456 11.30661,-7.25441 16.45542,-11.19639 2.75494,-2.11124 5.67875,-3.62897 7.96593,-5.62857 -0.61967,0.34692 -1.14112,0.95882 -1.9346,0.84153 -0.004,-0.73979 1.11921,-1.06128 1.5368,-1.75372"
       style="fill:#ffffff;fill-opacity:1;fill-rule:evenodd;stroke:none;stroke-width:0.0706575"
       id="path15874" />
    <path
       d="m 171.00449,253.82777 c -0.13001,0.20985 -0.3229,0.33068 -0.46351,0.60483 1.43505,-0.86767 1.94873,-3.29405 0.89947,-4.32353 -0.0509,1.08883 0.69032,1.87454 -0.43596,3.7187"
       style="fill:#ffffff;fill-opacity:1;fill-rule:evenodd;stroke:none;stroke-width:0.0706575"
       id="path15876" />
    <path
       d="m 111.6635,262.96166 c 2.06815,3.24389 4.52491,6.54713 6.76334,9.85602 0.76593,1.13617 1.42587,2.24761 2.40801,3.47917 3.11316,3.90524 6.13165,8.4252 9.50555,12.21174 -0.0276,-0.32149 0.30948,-0.78006 0.22398,-1.08248 -6.88274,-8.56439 -13.03772,-17.39799 -19.72757,-26.03304 -0.22398,0.20491 0.51156,1.07187 0.82669,1.56859"
       style="fill:#ffffff;fill-opacity:1;fill-rule:evenodd;stroke:none;stroke-width:0.0706575"
       id="path15878" />
  </g>
</svg>
