<?xml version="1.0" encoding="UTF-8" standalone="no"?>
<!-- Created with Inkscape (http://www.inkscape.org/) -->

<svg
   width="43.336384mm"
   height="72.140831mm"
   viewBox="0 0 43.336384 72.140831"
   version="1.1"
   id="svg21595"
   xmlns:inkscape="http://www.inkscape.org/namespaces/inkscape"
   xmlns:sodipodi="http://sodipodi.sourceforge.net/DTD/sodipodi-0.dtd"
   xmlns="http://www.w3.org/2000/svg"
   xmlns:svg="http://www.w3.org/2000/svg">
  <sodipodi:namedview
     id="namedview21597"
     pagecolor="#505050"
     bordercolor="#eeeeee"
     borderopacity="1"
     inkscape:showpageshadow="0"
     inkscape:pageopacity="0"
     inkscape:pagecheckerboard="0"
     inkscape:deskcolor="#505050"
     inkscape:document-units="mm"
     showgrid="false"
     inkscape:zoom="0.51669473"
     inkscape:cx="396.75265"
     inkscape:cy="562.22753"
     inkscape:window-width="1370"
     inkscape:window-height="746"
     inkscape:window-x="70"
     inkscape:window-y="27"
     inkscape:window-maximized="1"
     inkscape:current-layer="layer1" />
  <defs
     id="defs21592" />
  <g
     inkscape:label="Calque 1"
     inkscape:groupmode="layer"
     id="layer1"
     transform="translate(-9.5544121,-124.05576)">
    <path
       d="m 26.007714,134.42181 c -0.2254,-0.92066 -0.51792,-1.76078 -0.73046,-2.69699 1.2618,0.27486 2.25172,0.86696 3.51225,1.14182 -0.83942,0.59353 -1.97771,0.93127 -2.78179,1.55517 z m 26.71206,46.8226 c -0.11234,-0.28263 -0.48047,-0.44373 -0.58151,-0.77511 -0.10174,-0.33138 -0.0784,-0.80761 -0.16604,-1.17715 -0.65288,-2.72456 -1.70709,-5.33252 -2.26599,-8.08463 -0.63804,-3.14356 -1.41527,-6.40299 -2.31191,-9.64475 -1.45343,-5.24561 -2.99517,-11.03599 -4.81036,-15.92549 -0.29676,-0.79914 -0.75251,-1.54034 -0.83941,-2.16777 -0.0558,-0.41123 0.13001,-0.90866 0.0516,-1.26972 -0.118,-0.53558 -0.69386,-1.17998 -1.03796,-1.85335 -0.75462,-1.47532 -1.30505,-2.54225 -2.83125,-2.90543 -0.30877,-2.2356 -1.49652,-4.55529 -2.00738,-6.69127 -0.42465,-1.77067 -0.72565,-3.37742 -2.04694,-4.30728 0.0353,-0.29252 0.0459,-0.38932 -0.12012,-0.58645 -1.06552,-0.35188 -1.56436,0.0466 -2.33806,0.55466 -0.82669,-0.6126 -1.84204,-0.39215 -2.87011,-0.52145 -1.60604,-0.20279 -3.30705,-1.00758 -4.99068,-1.02666 -0.52993,-0.68891 -1.68998,-1.01181 -2.88014,-0.66842 -1.66433,1.83427 -2.22656,4.19564 -2.94274,7.14983 -0.5377,2.21653 -1.05908,4.66622 -0.72841,6.90324 -0.65386,0.27344 -1.08247,1.06975 -1.87186,0.81539 -0.11043,0.62956 -0.90533,0.7843 -1.15977,1.35521 -0.25917,0.58363 -0.0237,1.30858 -0.20921,2.10065 0.0119,0.24164 -0.43667,0.0869 -0.34064,0.3985 -1.15285,10.25665 -2.12249,22.15819 -2.70541,33.18147 -0.11425,2.14869 -0.0239,4.70084 -0.47305,6.36341 0.59147,-0.41405 0.10076,0.90371 0.2567,1.39407 -1.1548305,0.19996 -1.0049605,1.08177 -0.8117205,1.99678 0.8989105,0.94258 2.0413005,1.35663 3.2792205,1.97912 5.19,2.61503 10.45787,5.25339 15.62859,7.64231 0.27556,0.0537 0.20702,0.50945 0.55748,0.47765 1.0203,0.26638 1.87667,0.56738 1.8152,-0.58787 3.77805,-1.84487 7.36675,-4.29315 11.19991,-6.22987 3.85366,-1.9452 7.72004,-3.836 10.72299,-6.63898 -0.21339,-0.39074 0.0127,-0.785 -0.171,-1.25064"
       style="fill:#231615;fill-opacity:1;fill-rule:evenodd;stroke:none;stroke-width:0.0706575"
       id="path17448" />
    <path
       d="m 20.936274,125.66099 c 0.27683,-0.26708 0.57049,-0.52428 0.83022,-0.80832 -0.52032,-0.53982 -0.99726,0.38932 -0.83022,0.80832"
       style="fill:#ffffff;fill-opacity:1;fill-rule:evenodd;stroke:none;stroke-width:0.0706575"
       id="path17450" />
    <path
       d="m 32.951224,127.03457 c -0.81044,0.76876 -0.92914,2.92805 -1.14041,4.47969 -0.15827,1.16585 -0.22469,2.38328 -0.31655,3.59717 -0.19289,2.57123 -0.5158,5.14528 -0.40345,7.25087 0.39356,-0.30594 0.93692,-0.48683 1.27395,-0.84294 -0.11587,-2.90614 -0.35187,-5.91757 0.17523,-8.2747 -0.21621,2.55427 -0.0671,5.42084 -0.0325,8.1892 1.55376,-0.74119 3.00436,-1.57213 4.58497,-2.29071 -0.68962,-2.82418 -1.51561,-5.82713 -2.36279,-8.37574 -0.50732,-1.5262 -0.81185,-2.98245 -1.77845,-3.73284"
       style="fill:#ffffff;fill-opacity:1;fill-rule:evenodd;stroke:none;stroke-width:0.0706575"
       id="path17452" />
    <path
       d="m 20.694484,129.25322 c 0.069,-0.0813 -0.004,-0.40558 -0.11454,-0.51156 -0.0268,0.16392 -0.14188,0.49248 0.11454,0.51156"
       style="fill:#ffffff;fill-opacity:1;fill-rule:evenodd;stroke:none;stroke-width:0.0706575"
       id="path17454" />
    <path
       d="m 20.330384,130.32297 c 0.22335,-0.0841 0.27302,-0.31866 0.40988,-0.47905 -0.11312,-0.0304 -0.19487,-0.0933 -0.30714,-0.12366 -0.002,0.23035 -0.0434,0.42466 -0.10274,0.60271"
       style="fill:#ffffff;fill-opacity:1;fill-rule:evenodd;stroke:none;stroke-width:0.0706575"
       id="path17456" />
    <path
       d="m 21.212824,130.17954 c -0.52689,0.92985 -1.39577,1.93601 -1.23848,3.22269 0.47369,-1.02171 1.05661,-1.95015 1.5575,-2.94925 -0.17523,-0.01 -0.1835,-0.2155 -0.31902,-0.27344"
       style="fill:#ffffff;fill-opacity:1;fill-rule:evenodd;stroke:none;stroke-width:0.0706575"
       id="path17458" />
    <path
       d="m 21.957204,135.92753 c 0.30114,-0.0417 0.39879,-0.2572 0.72254,-0.2791 -0.20476,-0.73272 0.36495,-1.33967 0.81207,-1.9982 0.51997,-0.7631 1.32758,-1.41315 0.73858,-1.99254 -0.73971,1.4393 -1.53461,2.83196 -2.27319,4.26984"
       style="fill:#ffffff;fill-opacity:1;fill-rule:evenodd;stroke:none;stroke-width:0.0706575"
       id="path17460" />
    <path
       d="m 23.465314,135.2153 c 0.79292,-0.26497 0.86662,-1.14536 1.43824,-1.6011 -0.16612,-0.10175 -0.0715,-0.50732 -0.26801,-0.57515 -0.35993,0.75179 -0.80761,1.42657 -1.17023,2.17625"
       style="fill:#ffffff;fill-opacity:1;fill-rule:evenodd;stroke:none;stroke-width:0.0706575"
       id="path17462" />
    <path
       d="m 28.591654,134.14696 c -3.09084,1.72828 -6.73161,2.98669 -9.75059,4.77786 -0.48273,0.18512 -1.05018,0.29676 -1.52542,0.48824 0.50039,0.0883 0.79073,0.42253 1.30356,0.49601 3.3245,-1.4838 6.18776,-3.36188 9.92229,-4.49381 -0.0777,-0.45786 0.25507,-0.92985 0.0502,-1.2683"
       style="fill:#ffffff;fill-opacity:1;fill-rule:evenodd;stroke:none;stroke-width:0.0706575"
       id="path17464" />
    <path
       d="m 21.019084,136.29848 c 0.30913,0.0318 0.40155,-0.48047 0.24977,-0.61543 0.003,0.28051 -0.25507,0.33562 -0.24977,0.61543"
       style="fill:#ffffff;fill-opacity:1;fill-rule:evenodd;stroke:none;stroke-width:0.0706575"
       id="path17466" />
    <path
       d="m 26.772224,137.56254 c 0.22258,-0.22469 0.45574,-0.43878 0.61472,-0.71717 -0.42818,0.004 -0.78995,0.42606 -0.61472,0.71717"
       style="fill:#ffffff;fill-opacity:1;fill-rule:evenodd;stroke:none;stroke-width:0.0706575"
       id="path17468" />
    <path
       d="m 25.458914,138.85557 c 0.14605,-0.38226 0.88301,-0.62461 0.66044,-1.09307 -0.16817,0.36459 -0.87524,0.63097 -0.66044,1.09307"
       style="fill:#ffffff;fill-opacity:1;fill-rule:evenodd;stroke:none;stroke-width:0.0706575"
       id="path17470" />
    <path
       d="m 26.489594,138.70154 c 0.21904,-0.001 0.42536,-0.36742 0.26144,-0.46705 -0.11447,0.13284 -0.28475,0.21551 -0.26144,0.46705"
       style="fill:#ffffff;fill-opacity:1;fill-rule:evenodd;stroke:none;stroke-width:0.0706575"
       id="path17472" />
    <path
       d="m 22.585414,139.22864 c 0.0284,0.25649 -0.15184,0.69386 -0.01,0.81963 0.15955,-0.32432 0.68256,-0.70234 0.51029,-1.08318 -0.0861,0.15686 -0.31464,0.19007 -0.50061,0.26355"
       style="fill:#ffffff;fill-opacity:1;fill-rule:evenodd;stroke:none;stroke-width:0.0706575"
       id="path17474" />
    <path
       d="m 16.525404,139.77341 c 1.08467,0.58787 2.30379,1.01959 3.46639,1.51702 -0.95197,-0.68891 -2.16092,-1.07965 -3.25024,-1.60817 -0.006,0.0869 -0.11101,0.0897 -0.21615,0.0911"
       style="fill:#ffffff;fill-opacity:1;fill-rule:evenodd;stroke:none;stroke-width:0.0706575"
       id="path17476" />
    <path
       d="m 19.985434,140.24964 c 0.20971,-0.1618 0.96433,-0.53275 0.69471,-0.65005 -0.43942,0.24589 -1.14324,0.26497 -1.43993,0.6331 0.78797,0.31654 1.46995,0.75674 2.31127,1.0104 0.34474,-0.30454 0.48026,-1.15243 0.31824,-1.66116 -0.53438,0.22752 -1.28949,0.9454 -1.88429,0.66771"
       style="fill:#ffffff;fill-opacity:1;fill-rule:evenodd;stroke:none;stroke-width:0.0706575"
       id="path17478" />
    <path
       d="m 25.323604,139.98326 c 0.16951,-0.27061 0.53078,-0.37519 0.53432,-0.78641 -0.25578,0.15191 -0.71117,0.49389 -0.53432,0.78641"
       style="fill:#ffffff;fill-opacity:1;fill-rule:evenodd;stroke:none;stroke-width:0.0706575"
       id="path17480" />
    <path
       d="m 15.330594,140.6856 c -0.12973,0.7631 -0.34446,1.45343 -0.49849,2.19604 1.17962,0.34339 2.21744,0.85283 3.37029,1.22661 -0.13856,-0.90018 0.0878,-1.48946 0.20257,-2.17343 -1.07166,-0.36176 -2.01925,-0.86979 -3.07437,-1.24922"
       style="fill:#ffffff;fill-opacity:1;fill-rule:evenodd;stroke:none;stroke-width:0.0706575"
       id="path17482" />
    <path
       d="m 24.293844,141.10531 c 0.0414,-0.19996 0.52774,-0.37378 0.25062,-0.61543 -0.0494,0.19007 -0.46591,0.42465 -0.25062,0.61543"
       style="fill:#ffffff;fill-opacity:1;fill-rule:evenodd;stroke:none;stroke-width:0.0706575"
       id="path17484" />
    <path
       d="m 35.631264,141.41408 c 0.11164,0.81044 0.0438,1.83285 0.26991,2.51046 1.20118,-0.79066 2.47584,-1.51772 4.01052,-2.02434 -0.18795,-0.77582 -0.50873,-1.39548 -0.69103,-2.17907 -1.26477,0.5052 -2.36985,1.14818 -3.5894,1.69295"
       style="fill:#ffffff;fill-opacity:1;fill-rule:evenodd;stroke:none;stroke-width:0.0706575"
       id="path17486" />
    <path
       d="m 23.179644,142.08391 c 0.34361,-0.006 0.38007,-0.27344 0.48351,-0.4833 -0.268,0.0693 -0.34664,0.30101 -0.48351,0.4833"
       style="fill:#ffffff;fill-opacity:1;fill-rule:evenodd;stroke:none;stroke-width:0.0706575"
       id="path17488" />
    <path
       d="m 19.179234,142.32132 c -0.23571,0.62744 -0.15573,1.52479 -0.51036,2.04907 0.23875,0.0692 0.41094,0.21974 0.68834,0.24447 -0.0811,-0.87544 0.21141,-1.43152 0.27712,-2.18049 -0.21529,0.036 -0.23988,-0.14908 -0.4551,-0.11305"
       style="fill:#ffffff;fill-opacity:1;fill-rule:evenodd;stroke:none;stroke-width:0.0706575"
       id="path17490" />
    <path
       d="m 20.181084,142.76434 c -0.0692,0.5158 -0.22215,0.96024 -0.25613,1.50783 -0.18378,0.24024 -0.40819,0.69033 0.12725,0.66136 0.0265,-0.80762 0.22384,-1.46685 0.43115,-2.11831 -0.13912,0.0276 -0.1695,-0.0707 -0.30227,-0.0509"
       style="fill:#ffffff;fill-opacity:1;fill-rule:evenodd;stroke:none;stroke-width:0.0706575"
       id="path17492" />
    <path
       d="m 34.419484,142.1044 c 0.22399,0.65288 0.15333,1.64915 0.26497,2.43415 0.32361,-0.0205 0.44161,-0.21903 0.64228,-0.34763 -0.0636,-0.81256 -0.12648,-1.62724 -0.19007,-2.44122 -0.31231,0.0551 -0.55184,0.17382 -0.71718,0.3547"
       style="fill:#ffffff;fill-opacity:1;fill-rule:evenodd;stroke:none;stroke-width:0.0706575"
       id="path17494" />
    <path
       d="m 24.962054,142.98762 c 0.19353,0.0205 0.39858,-0.29393 0.19297,-0.3865 -0.009,0.17665 -0.24596,0.15757 -0.19297,0.3865"
       style="fill:#ffffff;fill-opacity:1;fill-rule:evenodd;stroke:none;stroke-width:0.0706575"
       id="path17496" />
    <path
       d="m 21.030104,143.14519 c -0.1587,0.69103 -0.33124,1.37429 -0.43115,2.1169 0.34834,0.077 0.57331,0.29817 0.92187,0.37519 -0.15149,-0.93551 0.0999,-1.5262 0.19763,-2.24974 -0.19184,-0.12365 -0.38367,-0.24942 -0.68835,-0.24235"
       style="fill:#ffffff;fill-opacity:1;fill-rule:evenodd;stroke:none;stroke-width:0.0706575"
       id="path17498" />
    <path
       d="m 33.554644,142.469 c 0.0897,0.91713 0.0806,1.94944 0.3554,2.65177 0.47977,-0.42324 0.18159,-2.23278 -0.0707,-2.82347 -0.041,0.10386 -0.14697,0.1505 -0.28475,0.1717"
       style="fill:#ffffff;fill-opacity:1;fill-rule:evenodd;stroke:none;stroke-width:0.0706575"
       id="path17500" />
    <path
       d="m 26.551774,145.24513 c -1.24081,-0.44938 -2.86707,-1.02807 -4.21811,-1.60605 -0.2001,0.70375 -0.24426,1.53963 -0.49983,2.19674 1.64526,0.63239 3.09183,1.49865 4.77659,2.08511 -0.048,-0.91643 -0.0911,-1.82862 -0.0587,-2.6758"
       style="fill:#ffffff;fill-opacity:1;fill-rule:evenodd;stroke:none;stroke-width:0.0706575"
       id="path17502" />
    <path
       d="m 33.060034,142.80533 c -0.17311,-0.0113 -0.28263,0.0332 -0.36388,0.10245 0.39992,0.23741 0.0473,2.46736 0.57091,2.56133 0.029,-0.67336 -0.35682,-1.83003 -0.20703,-2.66378"
       style="fill:#ffffff;fill-opacity:1;fill-rule:evenodd;stroke:none;stroke-width:0.0706575"
       id="path17504" />
    <path
       d="m 31.762764,143.35221 c 0.12648,0.69386 0.44585,1.84204 0.72565,2.62281 0.37449,-0.62037 -0.43242,-1.75372 -0.50378,-2.63976 -0.0742,0.006 -0.14697,0.0113 -0.22187,0.017"
       style="fill:#ffffff;fill-opacity:1;fill-rule:evenodd;stroke:none;stroke-width:0.0706575"
       id="path17506" />
    <path
       d="m 30.977764,143.78534 c 0.094,0.43031 0.20278,0.90795 0.33138,1.38842 0.10811,0.40134 0.14344,1.01677 0.53559,1.1496 0.0254,-0.86414 -0.34905,-1.96004 -0.65641,-2.70265 -0.0106,0.10528 -0.15474,0.0968 -0.21056,0.16463"
       style="fill:#ffffff;fill-opacity:1;fill-rule:evenodd;stroke:none;stroke-width:0.0706575"
       id="path17508" />
    <path
       d="m 30.991184,146.83633 c 0.16605,-0.82951 -0.32643,-2.02292 -0.59423,-2.85668 -0.25578,0.8599 0.33068,2.07309 0.59423,2.85668"
       style="fill:#ffffff;fill-opacity:1;fill-rule:evenodd;stroke:none;stroke-width:0.0706575"
       id="path17510" />
    <path
       d="m 29.464274,144.42409 c 0.27204,0.94681 0.45151,2.00243 0.88464,2.75847 -0.0749,-0.79985 -0.39074,-2.01586 -0.66772,-2.84962 -0.005,0.0869 -0.11093,0.0897 -0.21692,0.0911"
       style="fill:#ffffff;fill-opacity:1;fill-rule:evenodd;stroke:none;stroke-width:0.0706575"
       id="path17512" />
    <path
       d="m 28.896194,144.76678 c 0.13425,1.02524 0.0445,2.31403 0.52569,2.93652 0.65711,-0.69032 -0.37166,-1.90987 -0.30383,-2.95489 -0.0742,0.006 -0.14767,0.0127 -0.22186,0.0184"
       style="fill:#ffffff;fill-opacity:1;fill-rule:evenodd;stroke:none;stroke-width:0.0706575"
       id="path17514" />
    <path
       d="m 27.746594,145.30165 c 0.0339,1.15667 0.10175,2.03423 0.2473,3.18242 0.26638,-0.14202 0.61755,-0.21127 0.70516,-0.50238 -0.32573,-0.78642 -0.17452,-2.24337 -0.44585,-2.86728 -0.0989,0.12153 -0.27697,0.17806 -0.50661,0.18724"
       style="fill:#ffffff;fill-opacity:1;fill-rule:evenodd;stroke:none;stroke-width:0.0706575"
       id="path17516" />
    <path
       d="m 40.782194,184.70168 c -2.31403,1.30575 -4.50512,2.68428 -6.77535,3.80208 0.94823,-0.95953 2.16566,-1.60745 3.31667,-2.34229 3.40286,-2.1706 7.18798,-4.24157 11.1441,-6.00165 -1.77209,1.67034 -5.2011,3.14143 -7.68542,4.54186 z m -8.00196,-7.19293 c 0.66842,-0.28122 0.73908,-0.48966 1.73535,-0.65499 1.72545,-0.28758 3.482,-1.04785 5.14952,-1.7403 1.62229,-0.67336 3.33079,-1.3651 4.43587,-2.2787 0.3434,-0.28263 0.50167,-0.77935 1.28597,-0.69668 0.38084,0.28263 0.58292,0.77299 0.77017,1.28031 0.26284,-0.12012 0.11164,-0.59564 0.55183,-0.56455 0.64157,1.21036 -0.27698,2.77401 -0.83446,3.63815 0.0318,0.1505 0.32926,-0.008 0.31372,0.19855 -0.36248,0.49248 -0.64228,1.52196 -1.18846,1.95297 -0.22257,0.17523 -0.81044,0.301 -1.29727,0.5476 -2.57052,1.30575 -8.03094,2.72172 -10.45449,0.51509 0.0749,-0.68185 -0.72212,-1.29869 -0.46775,-2.19745 z m 11.15187,-10.68977 c -1.00051,1.26053 -3.50956,2.6433 -5.56922,3.03615 -0.61896,0.11871 -1.54104,0.18795 -2.09358,-0.13354 0.44655,-0.42253 1.00051,-0.30524 1.53044,-0.41688 1.95085,-0.41264 3.86708,-1.3969 5.40388,-2.28082 0.10882,-0.0622 0.38509,-0.27486 0.72848,-0.20491 z m -12.21173,1.84133 c -0.86768,-0.51862 -0.48613,-2.15858 -0.23529,-3.03191 1.14818,-0.75462 2.36137,-0.67902 3.65299,-0.88039 2.9231,-0.45716 5.27317,-2.38045 7.2643,-3.24459 0.35187,-0.15192 0.99062,-0.18937 0.71222,0.54123 0.62674,0.55749 0.92703,1.50006 1.02666,2.67298 -0.93692,1.84769 -2.97539,2.82912 -5.45476,3.55053 -0.67054,0.19361 -1.4181,0.18513 -2.1282,0.38791 -0.37308,0.10599 -0.68962,0.4402 -1.07541,0.53135 -0.99203,0.23034 -1.96145,-0.19572 -2.70972,-0.38508 -0.32431,-0.0827 -0.84859,-0.0191 -1.05279,-0.14203 z m -0.50167,20.35784 c -0.87474,-8.55874 -0.91431,-17.49833 -1.60322,-26.37079 -0.10952,-1.41456 -0.22398,-2.97821 -0.27062,-4.44647 -0.0487,-1.50289 -0.16816,-3.02344 -0.0318,-4.23945 0.0622,-0.0177 0.0721,0.0233 0.0791,0.0692 0.74049,8.37927 1.28738,18.27415 1.62089,26.59477 0.11517,2.86022 0.4734,5.66037 0.20561,8.3927 z m -0.17382,-32.88329 c 1.5898,-1.13547 3.61484,-3.4495 6.31961,-3.91513 0.96942,-0.16534 3.13436,-0.62249 3.58445,0.16887 0.17806,-0.12153 0.27769,-0.20208 0.51227,-0.11446 0.11446,0.32785 0.3441,0.61118 0.37166,0.93833 0.082,1.00969 -0.78783,2.05472 -0.84577,2.52247 -0.68821,0.9136 -1.92754,1.03513 -3.43042,1.82862 -1.86253,0.98355 -3.6,1.60604 -6.23765,1.15525 -0.003,-0.53418 -0.55324,-0.838 -0.63733,-1.51419 0.10387,-0.37096 0.40204,-0.57516 0.36318,-1.06976 z m 18.48188,18.51085 c -1.5693,-4.3843 -2.67297,-9.25754 -3.84589,-14.0672 -1.32906,-5.43851 -3.24883,-10.66857 -4.64643,-15.71423 -0.007,-0.0438 -0.0177,-0.0869 -0.0791,-0.0678 0.0445,-0.0989 -0.30241,0.0268 -0.29605,0.0226 -1.37994,0.72424 -2.92593,1.74312 -4.556,2.66026 -1.53327,0.86555 -3.17393,1.96852 -4.79623,2.45817 -0.85849,0.25932 -1.67741,0.52711 -2.53166,0.94116 0.0445,0.54477 -0.007,1.00475 -0.0325,1.49017 0.31019,-0.11588 0.89099,-1.21319 1.65551,-0.72283 -7.1e-4,0.52852 -0.31584,0.78924 -0.74544,0.95105 -0.13284,0.1392 -0.36106,0.19572 -0.4939,0.33633 -0.19642,0.36035 -0.44726,-0.36177 -0.44443,0.0346 -0.19502,7.66987 0.19007,16.18905 0.38367,24.0829 0.029,1.22096 -0.0813,2.47584 0.12789,3.56184 0.0636,0.33139 0.23741,0.62108 0.29676,0.9454 0.30453,1.67529 0.19501,3.53853 0.26002,5.26328 0.0664,1.7735 0.0869,3.51945 0.26073,5.26469 0.85001,-0.0233 1.55163,-0.5907 2.22924,-0.99062 4.87466,-2.88141 9.94716,-5.32969 14.45511,-8.41813 1.40538,-0.61543 2.98881,-1.08036 4.32848,-1.75019 -0.12507,-1.20895 -0.75251,-2.30697 -0.87333,-3.57951 -0.10528,-1.11215 -0.3116,-1.7417 -0.65641,-2.70194"
       style="fill:#ffffff;fill-opacity:1;fill-rule:evenodd;stroke:none;stroke-width:0.0706575"
       id="path17518" />
    <path
       d="m 18.639334,150.69918 c 0.13221,-0.41688 0.4195,-0.70092 0.74495,-0.95105 0.019,-0.31867 -0.0911,-0.48542 -0.13164,-0.73554 -0.90971,-0.0855 -0.60942,1.22873 -0.61331,1.68659"
       style="fill:#ffffff;fill-opacity:1;fill-rule:evenodd;stroke:none;stroke-width:0.0706575"
       id="path17520" />
    <path
       d="m 22.709844,152.31794 c 0.0666,-0.52004 0.47334,-0.74685 0.57381,-1.23509 -0.14513,-0.10104 -0.36261,-0.11588 -0.60306,-0.10387 0.0174,0.40911 -0.16004,1.01323 0.0292,1.33896"
       style="fill:#ffffff;fill-opacity:1;fill-rule:evenodd;stroke:none;stroke-width:0.0706575"
       id="path17522" />
    <path
       d="m 15.376094,154.67366 c -0.2685,0.301 -0.45814,1.03372 -0.25472,1.50854 0.0974,-0.46916 0.45129,-0.71929 0.49926,-1.22944 -0.082,-0.0926 -0.0911,-0.27062 -0.24454,-0.2791"
       style="fill:#ffffff;fill-opacity:1;fill-rule:evenodd;stroke:none;stroke-width:0.0706575"
       id="path17524" />
    <path
       d="m 37.559504,153.76713 c 0.43879,-0.17523 0.78289,-0.43313 1.05775,-0.7525 -0.38297,-0.0276 -0.52994,0.14626 -0.88181,0.14484 -0.11588,0.15474 -0.0968,0.42395 -0.17594,0.60766"
       style="fill:#ffffff;fill-opacity:1;fill-rule:evenodd;stroke:none;stroke-width:0.0706575"
       id="path17526" />
    <path
       d="m 36.638134,154.36065 c 0.30453,-0.15333 0.34127,-0.53558 0.37448,-0.92208 -0.41617,0.0134 -0.48259,0.69032 -0.37448,0.92208"
       style="fill:#ffffff;fill-opacity:1;fill-rule:evenodd;stroke:none;stroke-width:0.0706575"
       id="path17528" />
    <path
       d="m 18.370484,155.85506 c 0.12669,0.27485 -0.15099,0.55325 0.0522,0.6663 0.05,-0.35046 0.41956,-0.42324 0.45955,-0.78077 -0.17798,-0.15332 -0.37038,0.0346 -0.5117,0.11447"
       style="fill:#ffffff;fill-opacity:1;fill-rule:evenodd;stroke:none;stroke-width:0.0706575"
       id="path17530" />
    <path
       d="m 21.525554,158.14012 c 0.38226,-0.39144 0.57431,-0.96165 0.17467,-1.57707 -0.0455,0.49248 -0.32842,1.14535 -0.17467,1.57707"
       style="fill:#ffffff;fill-opacity:1;fill-rule:evenodd;stroke:none;stroke-width:0.0706575"
       id="path17532" />
    <path
       d="m 24.694894,158.71174 c 0.29698,-0.0459 0.26659,-0.37025 0.64362,-0.34622 -0.0502,-0.29252 0.0124,-0.71506 -0.14237,-0.88322 -0.66383,-0.0155 -0.36848,0.79066 -0.50125,1.22944"
       style="fill:#ffffff;fill-opacity:1;fill-rule:evenodd;stroke:none;stroke-width:0.0706575"
       id="path17534" />
    <path
       d="m 15.202204,164.88296 c 0.14492,-0.72706 0.14633,-1.94449 -0.064,-2.74716 -0.0919,0.70516 -0.55424,2.11549 0.064,2.74716"
       style="fill:#ffffff;fill-opacity:1;fill-rule:evenodd;stroke:none;stroke-width:0.0706575"
       id="path17536" />
    <path
       d="m 19.043924,165.4779 c 0.38233,-0.25366 -0.0935,-1.3969 -0.14986,-1.924 -0.10182,0.42818 -0.19537,1.5693 0.14986,1.924"
       style="fill:#ffffff;fill-opacity:1;fill-rule:evenodd;stroke:none;stroke-width:0.0706575"
       id="path17538" />
    <path
       d="m 22.906414,163.46558 c -0.17311,0.60482 -0.90039,2.23842 -0.15679,2.76694 -0.34806,-1.17715 0.56025,-2.00243 0.15679,-2.76694"
       style="fill:#ffffff;fill-opacity:1;fill-rule:evenodd;stroke:none;stroke-width:0.0706575"
       id="path17540" />
    <path
       d="m 42.757074,164.1559 c -0.0233,0.001 -0.0488,0.003 -0.0735,0.006 -0.01,0.1074 -0.11234,0.13496 -0.13142,0.23317 -1.02453,0.19714 -1.39124,0.88322 -2.13174,1.28314 -1.94661,1.04785 -4.32423,1.19553 -6.8573,1.79682 0.0961,0.31372 -0.18442,0.30242 -0.18159,0.53558 2.45746,0.2897 4.79552,-0.71929 6.58315,-1.47956 1.24711,-0.52852 3.30748,-0.74615 2.94077,-2.38752 -0.0495,0.004 -0.0982,0.008 -0.14838,0.0127"
       style="fill:#ffffff;fill-opacity:1;fill-rule:evenodd;stroke:none;stroke-width:0.0706575"
       id="path17542" />
    <path
       d="m 33.220434,165.94 c -0.008,0.11235 -0.0339,0.4946 0.0459,0.5907 0.64935,-0.36389 1.52903,-0.53417 2.32181,-0.77512 -0.48471,-0.22257 -1.58344,0.20279 -2.36773,0.18442"
       style="fill:#ffffff;fill-opacity:1;fill-rule:evenodd;stroke:none;stroke-width:0.0706575"
       id="path17544" />
    <path
       d="m 17.103384,172.10345 c 0.42225,-0.3978 0.41314,-1.16443 0.68637,-1.69083 -0.19537,-0.20137 -0.36869,-0.42889 -0.50117,-0.70516 -0.47666,0.44302 -0.22356,1.51277 -0.1852,2.39599"
       style="fill:#ffffff;fill-opacity:1;fill-rule:evenodd;stroke:none;stroke-width:0.0706575"
       id="path17546" />
    <path
       d="m 20.421744,172.66377 c 0.0735,-0.838 0.43942,-2.1487 0.23105,-2.77119 -0.41702,0.58787 -0.50895,1.82014 -0.23105,2.77119"
       style="fill:#ffffff;fill-opacity:1;fill-rule:evenodd;stroke:none;stroke-width:0.0706575"
       id="path17548" />
    <path
       d="m 24.143414,171.70565 c -0.17742,0.99981 -0.0538,2.25539 0.0472,3.49472 0.4055,-0.18371 0.62461,-0.52428 0.74494,-0.95105 -0.66736,-0.37802 -0.39822,-1.84911 -0.79214,-2.54367"
       style="fill:#ffffff;fill-opacity:1;fill-rule:evenodd;stroke:none;stroke-width:0.0706575"
       id="path17550" />
    <path
       d="m 15.209694,174.5588 c -0.95472,0.43313 -0.92575,2.53378 -0.25945,3.36824 -0.37844,-1.16443 0.52632,-2.53236 0.25945,-3.36824"
       style="fill:#ffffff;fill-opacity:1;fill-rule:evenodd;stroke:none;stroke-width:0.0706575"
       id="path17552" />
    <path
       d="m 18.286054,178.70993 c 0.12669,-0.92915 0.53155,-1.98477 0.52746,-2.79521 -0.66489,0.46846 -0.7022,1.84133 -0.52746,2.79521"
       style="fill:#ffffff;fill-opacity:1;fill-rule:evenodd;stroke:none;stroke-width:0.0706575"
       id="path17554" />
    <path
       d="m 45.059804,174.62027 c -0.62391,0.54831 -0.82316,1.45908 -1.56436,1.90776 0.0177,0.38225 0.11164,0.83163 0.0127,1.11497 0.80549,-0.76027 1.60745,-1.52479 1.63077,-2.9549 0.077,-0.0106 0.0516,-0.10033 -0.0791,-0.0678"
       style="fill:#ffffff;fill-opacity:1;fill-rule:evenodd;stroke:none;stroke-width:0.0706575"
       id="path17556" />
    <path
       d="m 42.078764,177.45646 c -0.0184,0.60625 -0.0883,1.16727 -0.24307,1.65622 0.84507,-0.33704 1.25205,-1.04644 1.1708,-2.17484 -0.36247,0.12648 -0.60766,0.35329 -0.92773,0.51862"
       style="fill:#ffffff;fill-opacity:1;fill-rule:evenodd;stroke:none;stroke-width:0.0706575"
       id="path17558" />
    <path
       d="m 13.428914,182.28802 c -0.0442,-0.89947 0.67591,-1.76785 0.32813,-2.48149 -0.55777,0.3978 -0.58073,1.61877 -0.32813,2.48149"
       style="fill:#ffffff;fill-opacity:1;fill-rule:evenodd;stroke:none;stroke-width:0.0706575"
       id="path17560" />
    <path
       d="m 40.818234,179.4165 c 0.6239,-0.17947 0.39285,-1.09165 0.61825,-1.6124 -0.26779,0.001 -0.34552,0.16463 -0.58081,0.1936 0.11164,0.57939 -0.0798,0.89806 -0.0374,1.4188"
       style="fill:#ffffff;fill-opacity:1;fill-rule:evenodd;stroke:none;stroke-width:0.0706575"
       id="path17562" />
    <path
       d="m 39.497644,179.66734 c 0.14838,-0.0127 0.29676,-0.0233 0.44443,-0.036 0.14344,-0.40557 0.17382,-0.91077 0.26568,-1.36086 -0.85496,-0.0643 -0.40558,0.98991 -0.71011,1.3969"
       style="fill:#ffffff;fill-opacity:1;fill-rule:evenodd;stroke:none;stroke-width:0.0706575"
       id="path17564" />
    <path
       d="m 38.906234,179.71256 c 0.0332,-0.40981 0.12224,-0.76946 0.12931,-1.20189 -1.14112,0.45151 -2.98952,0.29535 -4.18716,0.69881 0.70092,0.88039 2.59736,0.7737 4.05785,0.50308"
       style="fill:#ffffff;fill-opacity:1;fill-rule:evenodd;stroke:none;stroke-width:0.0706575"
       id="path17566" />
    <path
       d="m 17.485364,180.85721 c -0.49213,0.50732 -0.83411,1.85052 -0.46422,2.63976 0.20667,-0.8168 0.94391,-1.53468 0.61797,-2.57758 -0.0204,-0.0572 -0.0679,-0.082 -0.15375,-0.0622"
       style="fill:#ffffff;fill-opacity:1;fill-rule:evenodd;stroke:none;stroke-width:0.0706575"
       id="path17568" />
    <path
       d="m 20.350874,184.20637 c 0.0177,-0.46775 0.061,-0.9136 0.11864,-1.34814 -0.0991,0.008 -0.19735,0.0148 -0.2967,0.0233 -0.11149,0.34481 -0.0279,1.08742 0.17806,1.32482"
       style="fill:#ffffff;fill-opacity:1;fill-rule:evenodd;stroke:none;stroke-width:0.0706575"
       id="path17570" />
    <path
       d="m 24.699064,183.64465 c -0.25366,0.84294 -0.4262,2.12255 -0.12365,3.20997 -0.13333,-1.13052 1.1094,-2.43839 0.12365,-3.20997"
       style="fill:#ffffff;fill-opacity:1;fill-rule:evenodd;stroke:none;stroke-width:0.0706575"
       id="path17572" />
    <path
       d="m 11.262554,185.06204 c -0.20455,0.077 -0.22914,0.31018 -0.33484,0.47199 5.67252,3.13366 12.01205,5.49221 17.64345,8.67603 -0.10245,-0.43313 0.0791,-0.6239 0.0728,-0.97295 -5.67493,-2.86516 -11.76249,-5.24561 -17.38139,-8.17507"
       style="fill:#ffffff;fill-opacity:1;fill-rule:evenodd;stroke:none;stroke-width:0.0706575"
       id="path17574" />
    <path
       d="m 50.523744,182.67876 c -0.55537,0.48966 -1.82932,0.53558 -1.90493,1.33967 0.66984,-0.41547 1.58344,-0.62391 1.98407,-1.27113 0.0784,-0.009 0.0509,-0.0989 -0.0791,-0.0685"
       style="fill:#ffffff;fill-opacity:1;fill-rule:evenodd;stroke:none;stroke-width:0.0706575"
       id="path17576" />
    <path
       d="m 47.730654,184.08767 c -0.14485,0.17523 -0.46917,0.19572 -0.32361,0.62108 0.20844,-0.029 0.29676,-0.16039 0.50661,-0.18936 -0.0177,-0.19572 0.007,-0.43879 -0.183,-0.43172"
       style="fill:#ffffff;fill-opacity:1;fill-rule:evenodd;stroke:none;stroke-width:0.0706575"
       id="path17578" />
    <path
       d="m 46.444684,184.78294 c -0.15686,0.14202 -0.40204,0.20844 -0.56879,0.34128 0.012,0.14908 0.0233,0.29676 0.0346,0.44443 0.30666,-0.15333 0.64864,-0.27486 0.85284,-0.51368 -0.23035,0.0551 -0.0558,-0.36459 -0.31867,-0.27203"
       style="fill:#ffffff;fill-opacity:1;fill-rule:evenodd;stroke:none;stroke-width:0.0706575"
       id="path17580" />
    <path
       d="m 45.011044,185.48951 c -1.43293,0.80055 -2.80439,1.65198 -4.19705,2.48432 -0.0268,0.32715 0.15756,0.40699 0.13071,0.73413 1.5799,-0.81114 2.83337,-1.90139 4.40267,-2.72314 -0.10528,-0.17381 -0.0989,-0.47552 -0.33633,-0.49531"
       style="fill:#ffffff;fill-opacity:1;fill-rule:evenodd;stroke:none;stroke-width:0.0706575"
       id="path17582" />
    <path
       d="m 39.397304,188.90368 c 0.18301,0.082 0.0989,0.47482 0.33633,0.49461 0.0862,-0.15616 0.31514,-0.19078 0.50026,-0.26285 -0.10528,-0.22752 -0.17453,-0.49389 -0.34764,-0.64298 -0.0933,0.19784 -0.43737,0.17806 -0.48895,0.41122"
       style="fill:#ffffff;fill-opacity:1;fill-rule:evenodd;stroke:none;stroke-width:0.0706575"
       id="path17584" />
    <path
       d="m 38.390444,189.35377 c 0.0374,0.17099 0.11234,0.29818 0.18229,0.43172 0.17311,0.0113 0.28263,-0.0332 0.36389,-0.10175 -0.0389,-0.17099 -0.11305,-0.29817 -0.1823,-0.43313 -0.2148,-0.0445 -0.18441,0.11941 -0.36388,0.10316"
       style="fill:#ffffff;fill-opacity:1;fill-rule:evenodd;stroke:none;stroke-width:0.0706575"
       id="path17586" />
    <path
       d="m 37.605434,189.7869 c -0.0417,0.10246 -0.14767,0.14909 -0.28475,0.17099 -0.0452,0.2141 0.11871,0.1823 0.10245,0.36318 0.24872,-0.0163 0.38367,-0.13071 0.50097,-0.26214 -0.17523,-0.01 -0.0721,-0.34763 -0.31867,-0.27203"
       style="fill:#ffffff;fill-opacity:1;fill-rule:evenodd;stroke:none;stroke-width:0.0706575"
       id="path17588" />
    <path
       d="m 36.256584,190.63479 c 0.11022,0.24377 0.66347,0.13637 0.50096,-0.26143 -0.26426,0.004 -0.43949,0.0848 -0.50096,0.26143"
       style="fill:#ffffff;fill-opacity:1;fill-rule:evenodd;stroke:none;stroke-width:0.0706575"
       id="path17590" />
    <path
       d="m 35.050464,191.40072 c 0.33067,-0.0417 0.57656,-0.15333 0.71717,-0.3547 -0.14061,-0.23741 -0.75533,0.0106 -0.71717,0.3547"
       style="fill:#ffffff;fill-opacity:1;fill-rule:evenodd;stroke:none;stroke-width:0.0706575"
       id="path17592" />
    <path
       d="m 34.317034,191.53002 c -0.2791,0.31443 -0.85919,0.37025 -1.13829,0.68467 0.12294,-0.008 0.0579,0.20279 0.16604,0.21127 0.29888,-0.32008 0.9242,-0.36035 1.13123,-0.75815 -0.0219,-0.0827 -0.0904,-0.11023 -0.15898,-0.13779"
       style="fill:#ffffff;fill-opacity:1;fill-rule:evenodd;stroke:none;stroke-width:0.0706575"
       id="path17594" />
    <path
       d="m 32.525164,192.41466 c -0.1929,0.25012 -0.79702,0.14626 -0.61402,0.71788 0.26426,-0.0968 0.49319,-0.22258 0.71647,-0.35471 -0.0487,-0.10386 0.0572,-0.3879 -0.10245,-0.36317"
       style="fill:#ffffff;fill-opacity:1;fill-rule:evenodd;stroke:none;stroke-width:0.0706575"
       id="path17596" />
    <path
       d="m 30.847044,193.81014 c 0.236,-0.14273 0.40911,-0.34127 0.39215,-0.70021 -0.26143,-0.0382 -0.27627,0.13283 -0.51156,0.11375 0.0579,0.17382 -0.0516,0.54477 0.11941,0.58646"
       style="fill:#ffffff;fill-opacity:1;fill-rule:evenodd;stroke:none;stroke-width:0.0706575"
       id="path17598" />
    <path
       d="m 19.079534,130.49396 c -0.4686,2.40801 -1.03965,5.09794 -1.36016,7.39996 0.18576,-0.20844 0.54018,-0.27485 0.78444,-0.43313 -0.0436,-1.86747 0.15842,-3.82681 0.38834,-5.53672 0.0516,-0.38367 0.3323,-1.60392 0.18738,-1.43011"
       style="fill:#ffffff;fill-opacity:1;fill-rule:evenodd;stroke:none;stroke-width:0.0706575"
       id="path17600" />
    <path
       d="m 22.067074,130.63528 c -0.24928,0.52428 -0.59204,0.96589 -0.77257,1.5481 -0.17,0.0551 -0.15594,0.236 0.006,0.0742 0.33096,-0.61543 0.7231,-1.17575 1.20944,-1.65692 -0.1493,-0.13425 -0.27132,-0.001 -0.44267,0.0346"
       style="fill:#ffffff;fill-opacity:1;fill-rule:evenodd;stroke:none;stroke-width:0.0706575"
       id="path17602" />
    <path
       d="m 29.876914,133.45169 c -0.54194,3.4502 -1.00828,7.33212 -1.48239,10.60922 0.2692,-0.23034 0.60059,-0.40699 0.92137,-0.59282 0.22328,-4.68812 0.92562,-9.33597 1.40044,-13.57966 -0.23812,0.94681 -0.50591,1.86818 -0.66984,2.88 0.3653,0.25931 0.1717,0.52852 -0.16958,0.68326"
       style="fill:#ffffff;fill-opacity:1;fill-rule:evenodd;stroke:none;stroke-width:0.0706575"
       id="path17604" />
    <path
       d="m 19.937674,136.75422 c 0.88321,-1.68942 1.86606,-3.70316 2.78404,-5.35231 0.0925,-0.16534 0.43723,-0.40557 0.24978,-0.61401 -1.03612,1.92118 -2.46722,3.87274 -3.03382,5.96632"
       style="fill:#ffffff;fill-opacity:1;fill-rule:evenodd;stroke:none;stroke-width:0.0706575"
       id="path17606" />
    <path
       d="m 22.893984,132.65396 c 0.29365,-0.52993 0.58652,-1.06269 0.92045,-1.55941 -0.183,0.0262 -0.23847,-0.0996 -0.38197,-0.1187 0.0157,0.68184 -0.54541,1.23509 -0.53848,1.67811"
       style="fill:#ffffff;fill-opacity:1;fill-rule:evenodd;stroke:none;stroke-width:0.0706575"
       id="path17608" />
    <path
       d="m 24.560794,139.74444 c 0.10789,-0.0968 0.41179,-0.37943 0.18159,-0.53558 -0.0511,0.14485 -0.32319,0.45433 -0.18159,0.53558"
       style="fill:#ffffff;fill-opacity:1;fill-rule:evenodd;stroke:none;stroke-width:0.0706575"
       id="path17610" />
    <path
       d="m 23.326474,141.10531 c 0.10902,-0.20986 0.61274,-0.4402 0.39271,-0.69951 -0.0737,0.23882 -0.54618,0.49672 -0.39271,0.69951"
       style="fill:#ffffff;fill-opacity:1;fill-rule:evenodd;stroke:none;stroke-width:0.0706575"
       id="path17612" />
    <path
       d="m 30.377884,148.52152 c -0.23812,0.50944 -0.95317,0.9786 -1.0853,1.34955 3.36117,-2.05613 6.41923,-4.18151 10.12521,-5.69923 0.3759,-0.15474 0.97508,-0.16887 1.21743,-0.61543 -3.4283,1.11639 -6.75415,2.92098 -9.60235,4.76515 -0.3441,-0.0431 -0.34339,0.21267 -0.65499,0.19996"
       style="fill:#ffffff;fill-opacity:1;fill-rule:evenodd;stroke:none;stroke-width:0.0706575"
       id="path17614" />
    <path
       d="m 26.204144,186.72743 c -0.21621,0.5907 -0.64016,1.02524 -0.92689,1.48664 -0.53763,-0.12012 -1.23982,0.009 -1.52578,-0.47623 -0.59479,-1.00899 -0.16498,-4.16385 0.53107,-4.65492 1.55842,-1.10367 2.47343,2.12396 1.9216,3.64451 z m -4.19338,-5.10712 c -0.7041,-0.4402 -1.01048,-2.60443 -0.50951,-3.68055 0.10655,-0.23034 1.07032,-1.19552 1.17192,-1.20753 0.44048,-0.0579 0.52605,0.34904 0.86499,0.6027 0.0936,1.52903 0.0425,2.93724 -0.35548,4.04656 -0.36685,0.10033 -0.72014,0.21268 -1.17192,0.23882 z m -0.39498,4.49735 c -0.50287,0.21904 -0.50562,0.77935 -0.97239,0.89452 -1.64031,0.40134 -1.3687,-3.61483 -0.94893,-4.54045 0.55537,0.007 0.84874,-0.65005 1.60471,-0.42253 0.73257,0.87121 0.61302,3.04322 0.31661,4.06846 z m -3.90877,-6.24612 c -0.27246,-1.97347 -0.1529,-4.53763 1.87928,-4.53763 0.50124,0.95671 0.47029,2.76271 -0.10571,3.43254 -0.0877,0.56809 -0.0695,1.22944 -0.47637,1.52621 -0.62793,0.0883 -0.92243,-0.21268 -1.2972,-0.42112 z m 0.83906,3.13578 c -0.21671,0.66912 -0.86556,1.77845 -1.04524,1.86677 -0.61218,0.29959 -1.30087,-0.18866 -1.47526,-0.77794 -0.36106,-1.22591 0.40049,-4.17868 2.08546,-3.80915 0.4869,0.50379 0.69089,1.92542 0.43504,2.72032 z m -4.46605,-4.78917 c -0.37844,-1.47815 -0.0967,-2.98033 0.36099,-3.97165 0.44048,0.25648 0.90611,-0.39286 1.55333,-0.12154 0.0966,0.59353 0.25557,1.3001 0.30334,1.98619 0.11234,1.58838 -0.93148,3.17958 -2.21766,2.107 z m 0.45927,4.95027 c -0.53685,0.37519 -1.32709,0.62955 -1.78106,0.065 -0.28185,-1.13829 -0.21254,-2.5147 0.1115,-3.35764 0.5796,-0.21127 0.63895,-0.8804 1.20499,-0.76452 1.14409,0.23459 0.83991,3.19867 0.46457,4.05716 z m -0.6321,-14.83525 c 0.20455,-0.80903 0.0403,-1.63289 1.08,-1.42304 1.04418,0.50237 0.42755,5.64977 -1.067,4.47262 -0.54978,-0.43172 -0.20893,-2.27235 -0.013,-3.04958 z m 1.71316,-14.34842 c 0.023,0.15192 0.69117,0.89735 0.76953,1.27961 0.19791,0.97295 -0.50809,2.55286 -0.98228,2.68145 -0.36268,0.0982 -0.69449,-0.12153 -1.06488,-0.28969 -0.36678,-1.36652 -0.24807,-3.71235 1.27763,-3.67137 z m 0.16011,-5.59466 c 0.17,-0.0367 0.28511,-0.0106 0.37618,0.0459 0.17389,-0.0579 -0.22907,-0.0982 -0.10323,-0.36459 0.90392,-0.60271 1.11095,0.72353 1.04333,1.92824 -0.0284,0.53276 -0.31739,0.80267 -0.49955,1.22944 -0.33209,0.77865 -0.27796,1.34673 -1.10932,1.05421 -0.65132,-1.17009 -0.24589,-3.06795 0.29259,-3.89323 z m 1.76531,8.34819 c 0.111,-0.5688 0.43278,-1.02948 0.48803,-1.37853 0.39356,-0.11871 0.85114,-0.41123 1.32066,-0.25013 0.68149,0.79772 0.46146,2.63906 -0.12309,3.20856 -0.56469,0.11588 -0.70049,0.59776 -1.0458,0.90017 -0.93677,-0.094 -0.80125,-1.64632 -0.6398,-2.48007 z m 2.12198,-8.12844 c 0.74212,0.96023 0.31846,2.67721 -0.0138,3.64734 -0.23346,0.68184 -0.38085,1.12204 -1.25721,1.06551 -0.72149,-1.5156 -0.73965,-4.87819 1.27105,-4.71285 z m -3.09684,20.4836 c 0.003,-0.95599 0.0133,-2.05048 1.35358,-1.7417 0.58236,0.86131 1.41202,3.97448 0.0488,4.4606 0.12944,0.9878 -1.1667,1.44354 -1.52437,0.49107 -0.29118,-0.7744 0.12062,-2.50056 0.12196,-3.20997 z m -2.22734,-3.77028 c -0.17636,-1.71627 0.0359,-3.10045 0.56554,-4.21331 0.45129,-0.0685 0.70849,-0.53275 1.2404,-0.31866 0.98616,1.59545 0.59974,4.53056 -0.94618,5.06049 -0.17502,-0.006 -0.0687,-0.32291 -0.0287,-0.36954 -0.24073,-0.0968 -0.68149,0.041 -0.83107,-0.15898 z m 3.79671,0.96871 c -0.45207,-1.63501 -0.0298,-5.36149 2.26076,-4.4175 1.07618,2.19603 -0.1741,4.93684 -2.26076,4.4175 z m 2.76808,-9.36847 c 0.22497,-0.63663 0.42698,-1.11568 1.0422,-0.97437 0.73003,0.16675 1.1645,2.25751 0.6911,3.14638 -0.40155,0.75462 -1.03111,0.59635 -1.79209,0.88322 -0.79652,-0.73837 -0.21331,-2.27871 0.0588,-3.05523 z m 1.499,-6.59164 c 0.25776,-0.14838 0.58985,-0.23176 1.0234,-0.22893 0.8623,1.00475 0.72841,3.37178 -0.28644,3.96742 -0.5021,-0.0742 -0.47666,0.0982 -0.95664,0.14767 -0.82061,-1.07187 -0.10768,-2.90755 0.21968,-3.88616 z m 3.34528,6.66018 c 0.78853,1.71697 0.25648,4.37087 -1.62414,3.99638 -0.45786,-1.21107 -0.26821,-2.83831 0.0765,-3.79996 0.43999,-0.17311 1.11371,-0.62249 1.54769,-0.19642 z m -2.46814,16.1205 c 0.0194,-1.20471 0.39611,-1.95014 0.60144,-2.80015 0.60942,-0.36742 1.53651,-0.52075 2.00801,-0.008 0.36671,1.88938 0.39427,3.26084 -0.46846,4.503 -0.29591,0.42536 -0.72897,1.18281 -1.32426,1.14394 -0.84789,-0.0537 -0.83079,-2.00667 -0.81673,-2.83831 z m -3.59081,0.72565 c -0.17587,-1.98335 -0.49984,-4.87254 1.67564,-4.29738 1.1951,1.35097 0.74381,6.44467 -1.67564,4.29738 z m 2.8718,-10.9406 c -0.0193,-0.0869 -0.14047,-0.053 -0.22794,-0.0579 1.50423,-1.63289 2.68555,2.57617 1.55058,3.6749 -0.66793,0.0975 -0.92321,0.54477 -1.74687,0.50944 -0.9218,-1.0853 -0.38282,-3.42124 0.42423,-4.1264 z m 5.52732,17.50681 c -0.29605,-9.88357 -0.37166,-19.45131 -1.18422,-29.60267 -3.71955,-1.51843 -6.879,-3.69185 -10.53249,-5.28588 0.074,-0.006 0.0919,0.0523 0.15397,0.0622 0.56497,-0.0191 -1.27678,-0.60483 -1.0427,-0.96024 3.52511,1.37711 6.81704,3.41417 10.06587,5.02304 0.46648,0.23034 0.95402,0.70658 1.30943,0.56738 -0.13213,-0.61967 -0.89382,-0.75674 -1.34391,-1.01181 -0.5081,-0.28829 -1.03527,-0.56315 -1.54895,-0.773 -3.30571,-1.35238 -6.02574,-3.49966 -9.63726,-4.31081 -1.54097,12.83846 -1.60887,26.93817 -2.92239,39.97094 5.78677,2.54508 11.37507,5.32122 17.13627,7.89527 0.0897,-2.26175 -0.16251,-4.48393 -0.23317,-6.82834 -0.0473,-1.58132 -0.17311,-3.16616 -0.22045,-4.74606"
       style="fill:#ffffff;fill-opacity:1;fill-rule:evenodd;stroke:none;stroke-width:0.0706575"
       id="path17616" />
    <path
       d="m 39.004454,154.17694 c -1.89574,1.558 -4.37794,2.47443 -7.20848,3.01496 0.17099,0.52074 0.76734,0.57727 1.2358,0.57444 1.34744,-0.006 2.85456,-0.81397 4.05715,-1.43223 1.29233,-0.66276 2.43486,-1.46896 3.4926,-1.98194 0.16746,-0.52428 0.43667,-1.32907 0.3003,-1.88373 -0.69386,0.45786 -1.21814,1.16585 -1.87737,1.7085"
       style="fill:#ffffff;fill-opacity:1;fill-rule:evenodd;stroke:none;stroke-width:0.0706575"
       id="path17618" />
    <path
       d="m 35.709694,153.91198 c -0.0127,0.28969 -0.1505,0.83517 -0.0735,0.97295 0.11375,-0.29535 0.38367,-0.82104 0.28969,-1.0641 -0.006,0.0869 -0.11022,0.0883 -0.21621,0.0911"
       style="fill:#ffffff;fill-opacity:1;fill-rule:evenodd;stroke:none;stroke-width:0.0706575"
       id="path17620" />
    <path
       d="m 34.629344,155.33502 c 0.0572,-0.31937 0.19219,-0.57162 0.22751,-0.91007 -0.32785,0.0445 -0.28545,0.76593 -0.22751,0.91007"
       style="fill:#ffffff;fill-opacity:1;fill-rule:evenodd;stroke:none;stroke-width:0.0706575"
       id="path17622" />
    <path
       d="m 41.565084,175.63491 c 0.60836,-0.58363 1.77138,-1.06127 2.10488,-1.65197 -2.78178,1.60251 -5.90767,2.90897 -9.52957,3.79219 2.9881,0.27062 4.51218,-1.88797 7.42469,-2.14022"
       style="fill:#ffffff;fill-opacity:1;fill-rule:evenodd;stroke:none;stroke-width:0.0706575"
       id="path17624" />
    <path
       d="m 22.099864,179.90192 c 0.0105,-0.77441 0.38338,-1.60463 0.27132,-2.25327 -0.45376,0.39427 -0.4551,1.54246 -0.27132,2.25327"
       style="fill:#ffffff;fill-opacity:1;fill-rule:evenodd;stroke:none;stroke-width:0.0706575"
       id="path17626" />
    <path
       d="m 22.109544,127.35748 c -0.0127,-0.14768 -0.20922,-0.0798 -0.17057,-0.28475 2.58755,0.31089 5.16888,0.62956 7.5352,1.19976 -2.39176,-0.0551 -5.04311,-0.50944 -7.36463,-0.91501 z m -0.64172,1.31493 c 0.27274,0.21834 0.5305,0.45574 0.72841,0.76169 2.38745,0.73413 4.86216,1.36652 7.09917,2.27588 0.0799,-0.45927 0.21339,-0.87615 0.34552,-1.29162 -1.08601,-0.15191 -2.27588,-0.43878 -3.47211,-0.62391 -1.18521,-0.18229 -2.60966,-0.11022 -3.26742,-0.86131 2.45175,0.17382 4.78867,0.4833 6.85894,1.10438 -0.006,-0.236 0.14273,-0.33987 0.10175,-0.60342 -1.43435,-0.0897 -2.89272,-0.33491 -4.28538,-0.56031 -1.38687,-0.22469 -2.82877,-0.32927 -3.9441,-0.95882 2.90692,0.28687 5.76706,0.63026 8.36019,1.28455 0.2148,-0.66771 0.5695,-1.21531 0.74473,-1.91835 -2.69134,-0.48683 -5.18174,-1.20754 -7.87251,-1.69437 -0.96024,0.59211 -1.97622,1.39407 -1.39719,3.08561"
       style="fill:#ffffff;fill-opacity:1;fill-rule:evenodd;stroke:none;stroke-width:0.0706575"
       id="path17628" />
  </g>
</svg>
