<?xml version="1.0" encoding="UTF-8" standalone="no"?>
<!-- Created with Inkscape (http://www.inkscape.org/) -->

<svg
   width="79.469536mm"
   height="64.478432mm"
   viewBox="0 0 79.469536 64.478432"
   version="1.1"
   id="svg21595"
   xmlns:inkscape="http://www.inkscape.org/namespaces/inkscape"
   xmlns:sodipodi="http://sodipodi.sourceforge.net/DTD/sodipodi-0.dtd"
   xmlns="http://www.w3.org/2000/svg"
   xmlns:svg="http://www.w3.org/2000/svg">
  <sodipodi:namedview
     id="namedview21597"
     pagecolor="#505050"
     bordercolor="#eeeeee"
     borderopacity="1"
     inkscape:showpageshadow="0"
     inkscape:pageopacity="0"
     inkscape:pagecheckerboard="0"
     inkscape:deskcolor="#505050"
     inkscape:document-units="mm"
     showgrid="false"
     inkscape:zoom="0.51669473"
     inkscape:cx="396.75265"
     inkscape:cy="562.22753"
     inkscape:window-width="1370"
     inkscape:window-height="746"
     inkscape:window-x="70"
     inkscape:window-y="27"
     inkscape:window-maximized="1"
     inkscape:current-layer="layer1" />
  <defs
     id="defs21592" />
  <g
     inkscape:label="Calque 1"
     inkscape:groupmode="layer"
     id="layer1"
     transform="translate(73.854173,-68.502996)">
    <path
       d="m 4.0949903,68.502998 c -1.728989,0.041 -3.004357,0.70093 -3.91513201,1.45201 -1.109322,0.91431 -1.65338499,2.4066 -2.65672099,3.39722 -0.992032,0.98002 -2.471599,1.60392 -4.05574,1.90987 -0.159686,-0.27557 -0.852836,-0.39922 -0.847184,-0.58858 0.590697,0.18018 1.272542,0.24236 1.827203,0.26426 -1.134759,-1.11285 -4.41468,-1.35026 -5.9274573,-0.32644 -0.252247,0.22045 0.303827,0.24801 0.38791,0.37096 -1.689421,0.92278 -3.757565,1.28808 -5.103591,2.61644 -0.292522,0.2897 -0.445142,0.67902 -0.736957,0.92632 -0.82104,0.69527 -2.05472,1.10367 -3.072894,1.73676 -2.971148,1.84416 -5.826417,4.03808 -8.596191,5.95572 -3.775936,2.61362 -7.731342,5.10854 -11.436621,7.91505 -2.732325,2.06886 -5.389047,4.33272 -7.978644,6.473642 -0.879685,0.72778 -1.911285,1.30717 -2.839018,2.03423 -1.734641,1.36087 -3.48412,2.85103 -5.291539,4.36593 -2.046947,1.71627 -4.332011,3.70175 -5.715485,5.81652 -0.243768,0.37025 -0.556074,0.79561 -0.733424,1.15455 -0.720707,1.44777 -0.725653,4.05856 -0.183003,5.54308 -1.049971,0.73201 -2.28365,1.39972 -3.597173,2.05189 -1.065515,0.52923 -2.914621,1.26618 -3.67419,1.9777 -0.260019,0.24165 -0.378017,0.68538 -0.665593,0.84931 -0.232463,0.13425 -0.56738,0.0318 -0.831639,0.094 -0.763807,0.66065 -1.630775,1.44495 -2.069558,2.54932 -0.418292,1.05421 -0.134955,2.4172 -0.225397,3.57245 0.43737,-0.30807 0.23105,0.39639 0.467046,0.52004 0.438783,0.95387 1.198351,1.87313 2.392463,1.84557 0.257899,-0.007 0.477644,-0.18371 0.753208,-0.24448 0.349755,-0.077 0.730599,-0.0304 0.984966,-0.0982 0.8705,-0.23176 1.545986,-0.86061 2.248321,-1.26265 0.888165,-0.50803 1.719097,-0.81821 2.398115,-1.4188 1.967812,-1.7403 3.284161,-4.76585 5.713365,-5.89213 1.00687,1.41951 3.144965,1.97064 5.271049,1.62936 0.472699,-0.0756 0.988498,-0.41546 1.507124,-0.56384 1.659038,-0.47765 2.155054,-1.24216 3.368243,-2.04695 1.310696,-0.8698 2.552855,-1.70991 3.735661,-2.73798 1.223788,-1.06622 2.4179,-2.05401 3.501079,-2.96055 4.33201,-2.04059 7.289026,-5.39823 10.669281,-8.35313 3.996387,-2.43132 7.4904,-5.8137 11.186494,-8.97138 2.707595,-2.315442 5.684395,-4.514312 8.270459,-6.858722 0.887458,-0.80338 1.5551713,-1.82296 2.4482823,-2.63482 0.741903,-0.67478 1.704258,-1.26265 2.535897,-1.95156 1.23156,-1.02171 2.605848,-1.91058 3.111049,-3.48341 0.833052,-2.5896 0.594936,-5.66885 2.34017599,-7.48758 0.923494,-0.96165 2.73515201,-1.36651 4.04796801,-2.2893 0.421119,-0.29676 0.8705,-0.83941 1.411737,-1.32129 1.035132,-0.91997 1.320588,-1.28456 0.927026,-2.6758 -0.33209,-1.18493 -0.53629,-2.37127 -1.350971,-2.85457"
       style="fill:#231615;fill-opacity:1;fill-rule:evenodd;stroke:none;stroke-width:0.0706575"
       id="path12314" />
    <path
       d="m 2.1575613,70.139428 c -2.01091201,0.63097 -3.288399,3.64875 -4.743237,5.18767 -0.09256,0.0982 -0.314426,0.10882 -0.448675,0.23812 -0.504494,0.47976 -0.921374,1.139 -1.643493,1.24922 0.522865,0.41123 0.74261,1.139 1.174327,1.6442 0.221158,-0.55678 0.664181,-0.89876 1.189872,-1.16372 0.455035,-0.57798 0.285457,-1.75514 0.629559,-2.44263 0.361059,0.11163 0.503081,0.45574 0.475525,0.97648 0.71222699,-0.53205 1.73746699,-0.7631 1.85617199,-1.86253 0.218331,0.005 0.139902,0.32079 0.38649601,0.29535 0.120118,-0.1074 0.235996,-0.22045 0.371659,-0.3116 -0.02756,-0.50238 -0.61684001,-0.78289 -0.40769401,-1.28102 0.39780201,0.17876 0.67407201,0.48754 0.85424901,0.8917 0.273445,0.0141 0.364593,-0.14909 0.603415,-0.16534 0.08973,-0.48189 -0.393562,-0.77441 -0.175231,-1.13476 0.269205,0.18371 0.438783,0.4727 0.549009,0.82245 1.075407,-0.14202 0.28475,-1.26759 0.56738,-1.83285 0.289695,0.0389 0.353287,0.61966 0.61684,0.44161 0.435956,-1.42305 -0.594936,-1.94662 -1.856173,-1.55235"
       style="fill:#ffffff;fill-opacity:1;fill-rule:evenodd;stroke:none;stroke-width:0.0706575"
       id="path12316" />
    <path
       d="m -1.3364507,76.893578 c 0.79489599,-0.47623 1.60604399,-0.93692 2.31968499,-1.49229 -0.524279,0.008 -0.836585,0.47624 -1.199058,0.7087 -0.373071,0.23953 -0.98284499,0.28546 -1.12062699,0.78359"
       style="fill:#ffffff;fill-opacity:1;fill-rule:evenodd;stroke:none;stroke-width:0.0706575"
       id="path12318" />
    <path
       d="m -5.2459297,78.573108 c -2.383278,1.85264 -4.307281,4.14477 -6.9307943,5.76706 -0.349048,0.63027 -0.932678,1.03796 -1.48522,1.47392 0.205613,0.3547 0.337036,0.78712 0.629558,1.04856 0.428891,-0.45504 1.064102,-0.71364 1.337546,-1.31918 0.554662,-0.0389 0.673366,-0.4939 1.047144,-0.70516 -0.02049,-0.14202 -0.207026,-0.49814 -0.01413,-0.60766 0.254367,-0.0579 0.28051,0.12154 0.310893,0.29677 0.5977623,-0.26992 0.9136013,-0.80691 1.4944063,-1.0952 0.01696,-0.27909 -0.08126,-0.66983 0.05653,-0.83517 0.208439,0.0919 0.308067,0.29747 0.46422,0.44444 0.426064,-0.45928 1.073287,-0.70516 1.415269,-1.24499 -0.113052,-0.26355 -0.459274,-0.82457 -0.02049,-0.98567 0.224691,0.15192 0.406988,0.34905 0.469166,0.67266 0.699509,-0.32078 1.230854,-0.80196 1.871717,-1.17927 -0.02544,-0.69881 -0.156153,-1.28526 -0.418292,-1.73606 -0.07631,0.001 -0.151914,0.004 -0.227517,0.005"
       style="fill:#ffffff;fill-opacity:1;fill-rule:evenodd;stroke:none;stroke-width:0.0706575"
       id="path12320" />
    <path
       d="m -4.8848707,81.221348 c 0.06642,0.18866 0.109519,0.40416 0.389323,0.37025 -0.0057,-0.17665 -0.0099,-0.354 -0.01343,-0.53064 -0.187949,-0.008 -0.232463,0.12436 -0.375898,0.16039"
       style="fill:#ffffff;fill-opacity:1;fill-rule:evenodd;stroke:none;stroke-width:0.0706575"
       id="path12322" />
    <path
       d="m -5.8147227,83.745238 c 0.292522,-0.3865 0.910775,-0.46352 0.963061,-1.08318 -0.279803,0.0565 -1.268302,0.46846 -0.963061,1.08318"
       style="fill:#ffffff;fill-opacity:1;fill-rule:evenodd;stroke:none;stroke-width:0.0706575"
       id="path12324" />
    <path
       d="m -7.9040647,85.460798 c 0.370952,-0.66135 1.381354,-0.7094 1.483101,-1.62583 -0.560314,-0.007 -1.069048,0.65217 -1.572836,0.94469 0.05087,0.20491 -0.08267,0.60342 0.08973,0.68114"
       style="fill:#ffffff;fill-opacity:1;fill-rule:evenodd;stroke:none;stroke-width:0.0706575"
       id="path12326" />
    <path
       d="m -5.8027107,84.351478 c 0.05582,0.30524 -0.07984,0.80973 0.09821,0.98496 0.364593,-0.3448 0.864142,-0.95529 0.648636,-1.60745 -0.216918,0.23952 -0.474818,0.43737 -0.746849,0.62249"
       style="fill:#ffffff;fill-opacity:1;fill-rule:evenodd;stroke:none;stroke-width:0.0706575"
       id="path12328" />
    <path
       d="m -8.8466357,83.963568 c -0.325731,0.53629 -1.3693423,0.67619 -1.2584103,1.39336 0.5589013,-0.32997 1.0542103,-0.72282 1.4145633,-1.24427 -0.01837,-0.0855 -0.08691,-0.1173 -0.156153,-0.14909"
       style="fill:#ffffff;fill-opacity:1;fill-rule:evenodd;stroke:none;stroke-width:0.0706575"
       id="path12330" />
    <path
       d="m -7.9648307,86.069158 c 0.0537,0.30383 -0.08126,0.80903 0.0968,0.98426 0.489657,-0.44726 1.016761,-0.85778 1.567183,-1.24852 -0.0064,-0.30312 -0.01342,-0.60694 -0.02049,-0.91007 -0.698096,0.24872 -1.042905,0.83376 -1.643494,1.17433"
       style="fill:#ffffff;fill-opacity:1;fill-rule:evenodd;stroke:none;stroke-width:0.0706575"
       id="path12332" />
    <path
       d="m -8.7420627,85.250948 c -0.349048,0.4084 -0.906536,0.61825 -1.191992,1.08883 0.175231,0.0523 0.04098,0.42465 0.09115,0.60483 0.48683,-0.27486 0.826693,-0.69386 1.268302,-1.01394 -0.07348,-0.20844 0.139195,-0.71576 -0.167458,-0.67972"
       style="fill:#ffffff;fill-opacity:1;fill-rule:evenodd;stroke:none;stroke-width:0.0706575"
       id="path12334" />
    <path
       d="m -11.303397,86.066338 c 0.02473,0.10245 0.109519,0.14272 0.08196,0.3017 0.318665,-0.19007 0.656408,-0.36176 0.663473,-0.8493 -0.238822,-0.10245 -0.605534,0.30877 -0.745436,0.5476"
       style="fill:#ffffff;fill-opacity:1;fill-rule:evenodd;stroke:none;stroke-width:0.0706575"
       id="path12336" />
    <path
       d="m -42.516343,109.2109 c 0.394269,0.10599 0.269912,0.75251 0.626025,0.89806 0.758862,-0.63592 1.601099,-1.19058 2.465947,-1.72404 0.02261,-0.48895 -0.481178,-0.83941 -0.329264,-1.20683 0.498135,0.0226 0.599882,0.45927 0.777939,0.8175 0.503787,-0.20985 0.819626,-0.60058 1.269715,-0.86131 0.05229,-0.26638 -0.241649,-0.56809 -0.01484,-0.75957 0.330677,-0.0367 0.205613,0.40487 0.463513,0.44514 0.347635,-0.38437 0.772993,-0.69668 1.191992,-1.01252 0.0028,-0.30736 -0.471992,-0.69668 -0.09468,-0.90865 0.370951,7e-4 0.249421,0.51438 0.543356,0.59564 0.412639,-0.54477 1.187045,-0.74544 1.331893,-1.54669 0.503788,0.12789 1.453425,-0.36318 1.572836,-0.9454 0.115172,-0.55961 -0.608361,-1.00758 -0.184416,-1.51348 0.478351,0.14555 0.568086,0.69809 0.783592,1.12062 0.4621,-0.17735 0.71364,-0.55395 1.120627,-0.78288 0.03604,-0.44868 -0.515799,-1.08742 -0.02756,-1.28879 0.423945,0.0466 0.295348,0.67195 0.550422,0.89805 2.358547,-1.751602 4.551755,-3.663592 6.939272,-5.389042 -0.01696,-0.23883 -0.01272,-0.45716 0.139195,-0.53417 0.28263,0.17099 0.315839,0.60058 0.327144,1.05562 0.392856,-0.31443 1.225201,-0.69033 1.338253,-1.24287 0.09539,-0.4628 -0.330677,-0.78288 -0.17947,-1.28667 0.447262,0.10245 0.370245,0.7525 0.703749,0.97083 0.327144,-0.45432 0.913601,-0.65994 1.188459,-1.16372 -0.09256,-0.655 -0.722826,-1.15667 -0.644397,-1.73041 0.560314,0.24165 0.828106,0.78925 1.093072,1.34108 0.705162,-0.24447 1.124867,-0.95741 0.642983,-1.75937 -0.237409,0.14202 -0.480471,0.28192 -0.826693,0.32149 0.247302,-0.28263 0.650049,-0.41546 0.816801,-0.77723 -0.02897,-0.24801 -0.188656,-0.61684 -0.01766,-0.83305 0.293935,0.0784 0.295348,0.46634 0.544062,0.59423 0.772287,-0.59564 1.598979,-1.14253 2.389637,-1.72192 0.03604,-0.3003 -0.304534,-0.60695 -0.09327,-0.83235 0.365299,-0.0191 0.275564,0.43525 0.541943,0.51933 0.202787,-0.32573 0.614013,-0.4515 0.818213,-0.77582 -0.07419,-0.11022 -0.266378,-0.49107 -0.08973,-0.60553 0.337037,-0.0678 0.15898,0.40345 0.46422,0.36883 0.248008,-0.28192 0.650756,-0.41688 0.816801,-0.77723 -0.15898,-0.3759 -0.197135,-0.8811 -0.479058,-1.1277 -9.592461,7.62748 -19.063391,15.367302 -28.480621,23.160822"
       style="fill:#ffffff;fill-opacity:1;fill-rule:evenodd;stroke:none;stroke-width:0.0706575"
       id="path12338" />
    <path
       d="m -11.830502,86.305158 c -0.291109,0.41476 -0.841531,0.57939 -1.116388,1.01181 0.15474,0.12365 0.131423,0.43172 0.315839,0.52428 0.32997,-0.35258 0.698802,-0.66771 1.039371,-1.0104 -0.02614,-0.23034 0.0014,-0.51721 -0.238822,-0.52569"
       style="fill:#ffffff;fill-opacity:1;fill-rule:evenodd;stroke:none;stroke-width:0.0706575"
       id="path12340" />
    <path
       d="m -8.6367827,86.614638 c -0.346929,0.5589 -1.273955,0.56243 -1.101551,1.61876 0.4621,-0.20137 0.785005,-0.53558 1.196232,-0.78571 -0.0537,-0.25507 0.08196,-0.70658 -0.09468,-0.83305"
       style="fill:#ffffff;fill-opacity:1;fill-rule:evenodd;stroke:none;stroke-width:0.0706575"
       id="path12342" />
    <path
       d="m -10.736017,87.798148 c 0.01908,-0.15545 0.19996,-0.15403 0.299587,-0.23317 0.238823,-1.47038 -0.977193,-0.35753 -0.299587,0.23317"
       style="fill:#ffffff;fill-opacity:1;fill-rule:evenodd;stroke:none;stroke-width:0.0706575"
       id="path12344" />
    <path
       d="m -14.287969,88.408628 c 0.154033,0.0968 0.176643,0.3328 0.238822,0.52569 0.443729,-0.18371 1.179273,-0.79489 0.577978,-1.30292 -0.192188,0.33633 -0.640157,0.42536 -0.8168,0.77723"
       style="fill:#ffffff;fill-opacity:1;fill-rule:evenodd;stroke:none;stroke-width:0.0706575"
       id="path12346" />
    <path
       d="m -12.467832,88.368358 c 0.05511,0.27909 0.09115,0.57656 0.244474,0.75321 0.219039,-0.28475 0.527105,-0.48471 0.818214,-0.70022 -0.0042,-0.33209 0.01342,-0.68679 -0.169578,-0.83164 -0.274857,0.28122 -0.535584,0.57586 -0.89311,0.77865"
       style="fill:#ffffff;fill-opacity:1;fill-rule:evenodd;stroke:none;stroke-width:0.0706575"
       id="path12348" />
    <path
       d="m -10.573505,88.251068 c -0.17735,0.11022 -0.245182,0.68467 0.09115,0.68113 0.06642,-0.0918 0.197841,-0.72282 -0.09115,-0.68113"
       style="fill:#ffffff;fill-opacity:1;fill-rule:evenodd;stroke:none;stroke-width:0.0706575"
       id="path12350" />
    <path
       d="m -15.483494,89.269238 c -0.03321,0.31937 0.142021,0.42112 0.167458,0.67902 1.197645,-0.33492 0.848597,-1.8371 -0.167458,-0.67902"
       style="fill:#ffffff;fill-opacity:1;fill-rule:evenodd;stroke:none;stroke-width:0.0706575"
       id="path12352" />
    <path
       d="m -13.139785,88.914538 c -0.142022,0.30807 -0.532758,0.37872 -0.667007,0.69739 0.120118,0.1074 0.167458,0.29252 0.163219,0.52781 0.339156,-0.0714 0.409813,-0.40133 0.747556,-0.47129 -0.02332,-0.3123 0.04734,-0.7207 -0.243768,-0.75391"
       style="fill:#ffffff;fill-opacity:1;fill-rule:evenodd;stroke:none;stroke-width:0.0706575"
       id="path12354" />
    <path
       d="m -12.209933,89.728508 c 0.03321,0.19784 0.04663,0.41618 0.163219,0.52781 0.214799,-0.27768 1.077527,-0.68467 0.582218,-1.15101 -0.235996,0.21904 -0.48471,0.42819 -0.745437,0.6232"
       style="fill:#ffffff;fill-opacity:1;fill-rule:evenodd;stroke:none;stroke-width:0.0706575"
       id="path12356" />
    <path
       d="m -16.00636,89.659978 c -0.122944,0.30241 -0.544769,0.32007 -0.669126,0.62178 0.110226,0.14202 0.183709,0.32503 0.238822,0.52569 0.373778,-0.0629 0.556075,-0.30948 0.746143,-0.54689 -0.172404,-0.12859 -0.06076,-0.55607 -0.315839,-0.60058"
       style="fill:#ffffff;fill-opacity:1;fill-rule:evenodd;stroke:none;stroke-width:0.0706575"
       id="path12358" />
    <path
       d="m -15.076507,90.550258 c 0.06359,0.1929 0.08479,0.42748 0.238822,0.52569 0.222571,-0.15898 0.38791,-0.37095 0.673366,-0.47058 0.04734,-0.28192 -0.136369,-0.3222 -0.08903,-0.60412 -0.381551,0.0798 -0.531345,0.38226 -0.82316,0.54901"
       style="fill:#ffffff;fill-opacity:1;fill-rule:evenodd;stroke:none;stroke-width:0.0706575"
       id="path12360" />
    <path
       d="m -13.479648,90.667548 c 0.0042,0.22681 0.0085,0.45433 0.01413,0.68185 0.445849,-0.14273 0.765927,-0.40558 0.660647,-1.07682 -0.296761,0.0629 -0.406987,0.30524 -0.674779,0.39497"
       style="fill:#ffffff;fill-opacity:1;fill-rule:evenodd;stroke:none;stroke-width:0.0706575"
       id="path12362" />
    <path
       d="m -18.321806,91.304878 c 0.08267,0.32573 0.127891,0.69315 0.322905,0.903 0.38367,-0.3766 0.799136,-0.7207 1.268302,-1.01464 -0.0318,-1.45342 -1.001923,-0.0495 -1.591207,0.11164"
       style="fill:#ffffff;fill-opacity:1;fill-rule:evenodd;stroke:none;stroke-width:0.0706575"
       id="path12364" />
    <path
       d="m -12.026223,91.167098 c 0.227517,-0.25154 0.561727,-0.40275 0.664887,-0.77441 -0.180883,-0.0452 -0.886045,0.43455 -0.664887,0.77441"
       style="fill:#ffffff;fill-opacity:1;fill-rule:evenodd;stroke:none;stroke-width:0.0706575"
       id="path12366" />
    <path
       d="m -16.195722,91.409458 c 0.05441,0.20208 0.04169,0.47411 0.166045,0.60341 0.17947,-0.17382 0.380844,-0.32714 0.59635,-0.46775 0.0064,-0.26638 -0.03038,-0.48542 -0.164632,-0.60412 -0.156153,0.19784 -0.365299,0.34339 -0.597763,0.46846"
       style="fill:#ffffff;fill-opacity:1;fill-rule:evenodd;stroke:none;stroke-width:0.0706575"
       id="path12368" />
    <path
       d="m -14.733818,92.287728 c 0.485417,-0.10387 0.780765,-0.39074 0.659234,-1.07682 -0.446555,0.14273 -0.79631,0.37731 -0.659234,1.07682"
       style="fill:#ffffff;fill-opacity:1;fill-rule:evenodd;stroke:none;stroke-width:0.0706575"
       id="path12370" />
    <path
       d="m -13.445026,92.260168 c 0.321492,-0.0904 0.806202,-0.41546 0.589284,-0.77228 -0.137782,0.31089 -0.612601,0.30453 -0.589284,0.77228"
       style="fill:#ffffff;fill-opacity:1;fill-rule:evenodd;stroke:none;stroke-width:0.0706575"
       id="path12372" />
    <path
       d="m -16.718587,91.800188 c -0.292522,0.60836 -1.446359,0.62815 -1.102257,1.61735 0.534877,-0.25507 0.811148,-0.75745 1.343906,-1.01535 -0.0219,-0.26214 0.01413,-0.58363 -0.241649,-0.602"
       style="fill:#ffffff;fill-opacity:1;fill-rule:evenodd;stroke:none;stroke-width:0.0706575"
       id="path12374" />
    <path
       d="m -15.92793,93.224648 c 0.414053,-0.0869 0.941158,-0.64299 0.506614,-1.074 -0.293935,0.23882 -0.66206,0.40487 -0.506614,1.074"
       style="fill:#ffffff;fill-opacity:1;fill-rule:evenodd;stroke:none;stroke-width:0.0706575"
       id="path12376" />
    <path
       d="m -14.124044,92.426218 c -0.162512,0.1943 -0.750383,0.36954 -0.438783,0.76804 0.144848,-0.15827 0.353287,-0.25648 0.521452,-0.39003 -0.04239,-0.10952 0.08196,-0.39356 -0.08267,-0.37801"
       style="fill:#ffffff;fill-opacity:1;fill-rule:evenodd;stroke:none;stroke-width:0.0706575"
       id="path12378" />
    <path
       d="m -16.54053,93.010548 c -0.366713,0.36601 -0.728479,0.73767 -1.190579,1.01253 0.05229,0.22963 -0.08479,0.6557 0.09185,0.75674 0.396388,-0.38791 0.884632,-0.6875 1.266182,-1.09025 -0.07348,-0.20844 0.140608,-0.71505 -0.167458,-0.67902"
       style="fill:#ffffff;fill-opacity:1;fill-rule:evenodd;stroke:none;stroke-width:0.0706575"
       id="path12380" />
    <path
       d="m -19.250951,93.980678 c -0.0071,0.26497 0.03179,0.48612 0.166045,0.60342 0.289695,-0.29111 0.753208,-0.41688 0.582217,-1.15101 -0.360353,0.077 -0.397801,0.46139 -0.748262,0.54759"
       style="fill:#ffffff;fill-opacity:1;fill-rule:evenodd;stroke:none;stroke-width:0.0706575"
       id="path12382" />
    <path
       d="m -15.395172,93.364548 c -0.09115,0.2367 -0.683258,0.38155 -0.36106,0.76663 0.07278,-0.2261 0.840118,-0.49813 0.36106,-0.76663"
       style="fill:#ffffff;fill-opacity:1;fill-rule:evenodd;stroke:none;stroke-width:0.0706575"
       id="path12384" />
    <path
       d="m -17.620883,95.614278 c 0.299588,-0.50591 1.323415,-0.71364 1.184219,-1.39195 -0.286163,0.51933 -1.457664,0.58646 -1.184219,1.39195"
       style="fill:#ffffff;fill-opacity:1;fill-rule:evenodd;stroke:none;stroke-width:0.0706575"
       id="path12386" />
    <path
       d="m -21.037879,95.537268 c -0.0071,0.26567 0.03038,0.48471 0.165338,0.60341 0.327144,-0.3547 0.702336,-0.66418 1.117802,-0.93409 -0.01625,-1.30434 -0.847184,0.23246 -1.28314,0.33068"
       style="fill:#ffffff;fill-opacity:1;fill-rule:evenodd;stroke:none;stroke-width:0.0706575"
       id="path12388" />
    <path
       d="m -18.552149,94.724698 c -0.632384,0.25013 -0.441609,1.29021 -0.41052,1.98124 0.180883,-0.19784 0.447262,-0.31443 0.594936,-0.54406 -0.100334,-0.43808 0.160393,-1.25347 -0.184416,-1.43718"
       style="fill:#ffffff;fill-opacity:1;fill-rule:evenodd;stroke:none;stroke-width:0.0706575"
       id="path12390" />
    <path
       d="m -20.858409,96.747628 c 0.04805,0.4946 -0.02897,1.25912 0.03321,1.51701 0.638743,-0.47623 1.406084,-1.22802 1.008282,-2.4511 -0.301707,0.3547 -0.693857,0.6239 -1.041491,0.93409"
       style="fill:#ffffff;fill-opacity:1;fill-rule:evenodd;stroke:none;stroke-width:0.0706575"
       id="path12392" />
    <path
       d="m -22.885573,97.778518 c 0.54053,-0.32432 0.945397,-0.77794 1.415976,-1.17009 -0.09397,-0.13213 -0.02402,-0.44019 -0.163218,-0.5271 -0.357527,0.6239 -1.249931,0.73484 -1.252758,1.69719"
       style="fill:#ffffff;fill-opacity:1;fill-rule:evenodd;stroke:none;stroke-width:0.0706575"
       id="path12394" />
    <path
       d="m -23.503826,97.260598 c 0.06359,-0.2254 0.02049,-0.72 -0.0968,-0.98355 -0.308066,0.17806 -0.223277,0.82881 0.0968,0.98355"
       style="fill:#ffffff;fill-opacity:1;fill-rule:evenodd;stroke:none;stroke-width:0.0706575"
       id="path12396" />
    <path
       d="m -25.361411,99.046818 c 0.515799,-0.39285 1.654798,-1.13829 0.942571,-1.99395 -0.392149,0.602 -1.533268,0.89523 -0.942571,1.99395"
       style="fill:#ffffff;fill-opacity:1;fill-rule:evenodd;stroke:none;stroke-width:0.0706575"
       id="path12398" />
    <path
       d="m -22.870735,98.461068 c 0.128597,0.64369 -0.260726,1.18493 -0.117291,1.596862 0.731305,-0.541942 1.95156,-1.397602 1.38418,-2.687812 -0.382257,0.40204 -0.819627,0.7525 -1.266889,1.09095"
       style="fill:#ffffff;fill-opacity:1;fill-rule:evenodd;stroke:none;stroke-width:0.0706575"
       id="path12400" />
    <path
       d="m -27.322863,99.621268 c 0.110932,0.24659 0.211266,0.504492 0.320785,0.751792 0.482591,-0.15686 0.729892,-0.538412 1.121334,-0.783592 -0.03038,-0.40769 0.05723,-0.93904 -0.178057,-1.13476 -0.336329,0.46917 -0.953169,0.67266 -1.264062,1.16656"
       style="fill:#ffffff;fill-opacity:1;fill-rule:evenodd;stroke:none;stroke-width:0.0706575"
       id="path12402" />
    <path
       d="m -25.114817,99.876338 c 0.205614,-0.35752 1.152424,-0.7631 0.886045,-1.08176 -0.259313,0.34763 -0.936918,0.68679 -0.886045,1.08176"
       style="fill:#ffffff;fill-opacity:1;fill-rule:evenodd;stroke:none;stroke-width:0.0706575"
       id="path12404" />
    <path
       d="m -24.208988,99.703938 c -0.287576,0.27062 -0.548302,0.565962 -0.89311,0.779352 0.0014,0.43666 0.0071,0.87121 0.17523,1.13476 0.231757,-0.34764 0.688911,-0.48118 0.893111,-0.85425 -0.09115,-0.31937 0.15686,-0.992032 -0.175231,-1.059862"
       style="fill:#ffffff;fill-opacity:1;fill-rule:evenodd;stroke:none;stroke-width:0.0706575"
       id="path12406" />
    <path
       d="m -27.772245,99.859378 c -0.317958,0.387912 -0.848596,0.571622 -1.114975,1.010412 0.192895,0.21126 0.213386,0.602 0.395682,0.82598 0.308067,-0.32502 0.671953,-0.59423 1.045024,-0.85778 -0.05441,-0.38367 0.0064,-0.887462 -0.325731,-0.978612"
       style="fill:#ffffff;fill-opacity:1;fill-rule:evenodd;stroke:none;stroke-width:0.0706575"
       id="path12408" />
    <path
       d="m -26.682,101.12486 c 0.175231,-0.32856 0.936919,-0.48683 0.816801,-0.85213 -0.192189,0.3116 -0.945397,0.47977 -0.816801,0.85213"
       style="fill:#ffffff;fill-opacity:1;fill-rule:evenodd;stroke:none;stroke-width:0.0706575"
       id="path12410" />
    <path
       d="m -30.304609,102.03917 c 0.118704,0.28969 0.132129,0.68962 0.248008,0.98072 0.632384,-0.3547 1.572129,-1.1503 0.79207,-1.99042 -0.263552,0.41688 -0.826693,0.54548 -1.040078,1.0097"
       style="fill:#ffffff;fill-opacity:1;fill-rule:evenodd;stroke:none;stroke-width:0.0706575"
       id="path12412" />
    <path
       d="m -25.924551,101.1079 c -0.175231,0.22823 -0.438783,0.37095 -0.67054,0.54618 -0.0014,0.38933 0.02756,0.74685 0.173817,0.98214 0.204201,-0.17593 0.4621,-0.29888 0.671953,-0.46987 -0.08974,-0.31796 0.157566,-0.99132 -0.17523,-1.05845"
       style="fill:#ffffff;fill-opacity:1;fill-rule:evenodd;stroke:none;stroke-width:0.0706575"
       id="path12414" />
    <path
       d="m -28.248476,102.37338 c 0.266378,-0.36389 0.779352,-0.49107 0.965888,-0.93197 -0.350462,0.23529 -0.971541,0.60341 -0.965888,0.93197"
       style="fill:#ffffff;fill-opacity:1;fill-rule:evenodd;stroke:none;stroke-width:0.0706575"
       id="path12416" />
    <path
       d="m -27.341941,102.20168 c -0.241648,0.31231 -0.594936,0.52004 -0.89311,0.77865 0.08974,0.2155 0.02756,0.5914 0.167458,0.75462 0.224691,-0.28122 0.624612,-0.39286 0.898057,-0.62673 -0.0855,-0.27274 0.151913,-0.88322 -0.172405,-0.90654"
       style="fill:#ffffff;fill-opacity:1;fill-rule:evenodd;stroke:none;stroke-width:0.0706575"
       id="path12418" />
    <path
       d="m -31.871086,103.28769 c 0.08126,0.40557 0.08267,0.89593 0.255074,1.20753 0.623905,-0.25436 1.127693,-1.21036 0.638037,-2.06178 -0.240236,0.33986 -0.700216,0.46916 -0.893111,0.85425"
       style="fill:#ffffff;fill-opacity:1;fill-rule:evenodd;stroke:none;stroke-width:0.0706575"
       id="path12420" />
    <path
       d="m -28.907004,103.4509 c -0.262139,0.31726 -0.615427,0.55043 -0.970127,0.77936 0.0057,0.22751 0.0099,0.45574 0.01554,0.68184 0.447969,-0.21268 0.750383,-0.56738 1.196232,-0.785 -0.02049,-0.28829 0.03038,-0.65147 -0.241649,-0.6762"
       style="fill:#ffffff;fill-opacity:1;fill-rule:evenodd;stroke:none;stroke-width:0.0706575"
       id="path12422" />
    <path
       d="m -33.738563,104.61817 c 0.121531,0.44161 0.308066,0.81538 0.407693,1.28102 0.761688,-0.2042 1.160196,-1.23156 0.711521,-2.13951 -0.340569,0.31725 -0.685377,0.62956 -1.119214,0.85849"
       style="fill:#ffffff;fill-opacity:1;fill-rule:evenodd;stroke:none;stroke-width:0.0706575"
       id="path12424" />
    <path
       d="m -29.764079,105.89777 c 0.190775,-0.43666 1.010402,-0.66559 0.962355,-1.08459 -0.20844,0.42041 -1.191286,0.49319 -0.962355,1.08459"
       style="fill:#ffffff;fill-opacity:1;fill-rule:evenodd;stroke:none;stroke-width:0.0706575"
       id="path12426" />
    <path
       d="m -35.452007,106.02142 c 0.195721,0.51934 0.372365,1.05845 0.563846,1.58203 0.647223,-0.48189 1.20895,-1.49158 0.628145,-2.51894 -0.393562,0.31725 -0.757448,0.66135 -1.191991,0.93691"
       style="fill:#ffffff;fill-opacity:1;fill-rule:evenodd;stroke:none;stroke-width:0.0706575"
       id="path12428" />
    <path
       d="m -30.847259,105.01032 c -0.30524,0.35046 -0.916427,0.40981 -0.729892,1.23085 0.370952,-0.14061 0.563141,-0.4515 0.895937,-0.62815 -0.06783,-0.18865 0.13213,-0.6557 -0.166045,-0.6027"
       style="fill:#ffffff;fill-opacity:1;fill-rule:evenodd;stroke:none;stroke-width:0.0706575"
       id="path12430" />
    <path
       d="m -32.564236,106.26166 c -0.238116,0.16816 -0.375191,0.43313 -0.671952,0.54689 0.131422,0.14838 0.0071,0.56243 0.168871,0.67902 0.197134,-0.20703 0.397095,-0.41052 0.669126,-0.54689 -0.07348,-0.20773 0.140609,-0.71506 -0.166045,-0.67902"
       style="fill:#ffffff;fill-opacity:1;fill-rule:evenodd;stroke:none;stroke-width:0.0706575"
       id="path12432" />
    <path
       d="m -37.090555,107.49958 c 0.231757,0.24871 0.169578,0.80479 0.402042,1.0528 0.04805,-0.16252 0.503081,-0.25932 0.531344,-0.0106 -0.781472,0.13495 -0.377311,0.95599 -0.416879,1.75372 0.443022,-0.14556 0.640157,-0.52499 1.047144,-0.70517 -0.04239,-1.14606 0.0537,-2.43627 -0.372365,-3.17958 -0.371659,0.38861 -0.877566,0.64439 -1.191286,1.08883"
       style="fill:#ffffff;fill-opacity:1;fill-rule:evenodd;stroke:none;stroke-width:0.0706575"
       id="path12434" />
    <path
       d="m -31.477524,107.30032 c 0.205614,-0.29817 0.925614,-0.49742 0.659235,-1.00121 -0.169578,0.33491 -0.968714,0.45715 -0.659235,1.00121"
       style="fill:#ffffff;fill-opacity:1;fill-rule:evenodd;stroke:none;stroke-width:0.0706575"
       id="path12436" />
    <path
       d="m -34.060055,107.28125 c -0.223277,0.25648 -0.510147,0.4515 -0.82104,0.62532 0.01837,0.36883 -0.03745,0.81538 0.173818,0.98284 0.266378,-0.24023 0.519332,-0.49107 0.818213,-0.70092 -0.08549,-0.27345 0.151914,-0.88463 -0.170991,-0.90724"
       style="fill:#ffffff;fill-opacity:1;fill-rule:evenodd;stroke:none;stroke-width:0.0706575"
       id="path12438" />
    <path
       d="m -37.689024,107.81542 c -0.25154,0.32997 -0.652875,0.51509 -0.970833,0.78076 -0.01625,0.354 0.163218,0.50308 0.170284,0.83164 0.447969,-0.19077 0.863435,-0.41122 1.199058,-0.71011 -0.226104,-0.2049 -0.02049,-0.8599 -0.398509,-0.90229"
       style="fill:#ffffff;fill-opacity:1;fill-rule:evenodd;stroke:none;stroke-width:0.0706575"
       id="path12440" />
    <path
       d="m -33.197327,108.55167 c 0.270618,-0.10669 0.968714,-0.53276 0.51368,-0.84506 -0.214092,0.24094 -0.506614,0.40628 -0.51368,0.84506"
       style="fill:#ffffff;fill-opacity:1;fill-rule:evenodd;stroke:none;stroke-width:0.0706575"
       id="path12442" />
    <path
       d="m -40.15285,109.69137 c 0.153327,0.17523 0.189362,0.47482 0.244475,0.75321 0.35894,-0.10174 0.517213,-0.39427 0.822453,-0.54901 0.04663,-0.36035 -0.0968,-0.52003 -0.09539,-0.83305 -0.453621,0.0862 -0.721413,0.34905 -0.97154,0.62885"
       style="fill:#ffffff;fill-opacity:1;fill-rule:evenodd;stroke:none;stroke-width:0.0706575"
       id="path12444" />
    <path
       d="m -34.688906,109.79877 c 0.115878,-0.0947 0.476938,-0.32997 0.216211,-0.53629 -0.05794,0.14697 -0.505201,0.30171 -0.216211,0.53629"
       style="fill:#ffffff;fill-opacity:1;fill-rule:evenodd;stroke:none;stroke-width:0.0706575"
       id="path12446" />
    <path
       d="m -38.321408,110.18244 c 0.0028,0.56597 0.03321,1.10297 0.185123,1.51419 0.242355,-0.36318 0.667713,-0.54971 0.967301,-0.85707 -0.0099,-0.4296 -0.01908,-0.8599 -0.02897,-1.2895 -0.426771,-0.118 -0.687497,0.51651 -1.123454,0.63238"
       style="fill:#ffffff;fill-opacity:1;fill-rule:evenodd;stroke:none;stroke-width:0.0706575"
       id="path12448" />
    <path
       d="m -40.605058,109.85247 c -0.325731,0.33209 -0.739784,0.57939 -1.119215,0.8599 0.05653,0.38226 0.108813,0.76381 0.250835,1.05633 0.349048,-0.38437 0.84153,-0.62955 1.191285,-1.01181 -0.178057,-0.22822 0.06571,-0.89523 -0.322905,-0.90442"
       style="fill:#ffffff;fill-opacity:1;fill-rule:evenodd;stroke:none;stroke-width:0.0706575"
       id="path12450" />
    <path
       d="m -36.476541,111.27975 c 0.231757,-0.34834 1.006163,-0.5702 0.810441,-1.08035 -0.160392,0.41617 -1.104376,0.47553 -0.810441,1.08035"
       style="fill:#ffffff;fill-opacity:1;fill-rule:evenodd;stroke:none;stroke-width:0.0706575"
       id="path12452" />
    <path
       d="m -39.068257,110.73004 c -0.166752,0.236 -0.471993,0.34127 -0.671953,0.54548 0.05935,0.42959 -0.0756,1.06268 0.106693,1.36439 0.214798,-0.2148 0.560314,-0.30595 0.746142,-0.54901 -0.04522,-0.46846 0.08055,-1.11639 -0.180882,-1.36086"
       style="fill:#ffffff;fill-opacity:1;fill-rule:evenodd;stroke:none;stroke-width:0.0706575"
       id="path12454" />
    <path
       d="m -43.581858,112.49789 c 0.0056,-0.0919 0.01766,-0.18018 0.147674,-0.15403 -0.219745,0.30029 -0.06077,0.5377 -0.05511,0.98779 0.604122,-0.24024 0.898057,-0.77582 1.418096,-1.09519 -0.03815,-0.42536 0.05794,-0.99062 -0.252247,-1.13194 -0.308067,0.51863 -1.578488,0.7518 -1.25841,1.39337"
       style="fill:#ffffff;fill-opacity:1;fill-rule:evenodd;stroke:none;stroke-width:0.0706575"
       id="path12456" />
    <path
       d="m -38.267708,112.68584 c 0.457154,-0.2579 0.913601,-0.51368 1.039371,-1.08601 -0.43313,0.27698 -0.942571,0.48259 -1.039371,1.08601"
       style="fill:#ffffff;fill-opacity:1;fill-rule:evenodd;stroke:none;stroke-width:0.0706575"
       id="path12458" />
    <path
       d="m -40.412163,111.74609 c -0.291109,0.29111 -0.596349,0.56738 -0.968714,0.77936 0.0071,0.32855 0.01342,0.65782 0.02049,0.98708 0.392149,-0.12153 0.720706,-0.30241 1.05209,-0.47906 -0.08055,-0.39709 0.285456,-1.08318 -0.103867,-1.28738"
       style="fill:#ffffff;fill-opacity:1;fill-rule:evenodd;stroke:none;stroke-width:0.0706575"
       id="path12460" />
    <path
       d="m -53.418087,113.85169 c -1.070461,-0.7624 -2.503395,-1.53115 -4.20624,-1.50147 -0.01908,0.14908 0.105986,0.14767 0.156859,0.22398 2.404475,-0.0551 3.287693,1.47886 4.757369,2.40023 0.460687,-0.43383 -0.30948,-0.83799 -0.707988,-1.12274"
       style="fill:#ffffff;fill-opacity:1;fill-rule:evenodd;stroke:none;stroke-width:0.0706575"
       id="path12462" />
    <path
       d="m -44.189512,112.51202 c -0.201374,0.32573 -0.750383,0.32149 -0.741197,0.85072 0.409106,-0.006 0.445848,-0.36672 0.826692,-0.3978 -0.04663,-0.13284 0.08338,-0.44727 -0.0855,-0.45292"
       style="fill:#ffffff;fill-opacity:1;fill-rule:evenodd;stroke:none;stroke-width:0.0706575"
       id="path12464" />
    <path
       d="m -39.756461,113.93224 c 0.295348,-0.31231 0.815387,-0.4077 0.811147,-1.00405 -0.437369,0.12507 -1.021,0.5045 -0.811147,1.00405"
       style="fill:#ffffff;fill-opacity:1;fill-rule:evenodd;stroke:none;stroke-width:0.0706575"
       id="path12466" />
    <path
       d="m -44.677756,114.41907 c 0.419706,-0.14202 0.90371,-0.61826 0.579392,-1.22662 -0.240236,0.43101 -0.808322,0.53912 -0.579392,1.22662"
       style="fill:#ffffff;fill-opacity:1;fill-rule:evenodd;stroke:none;stroke-width:0.0706575"
       id="path12468" />
    <path
       d="m -42.126314,113.14935 c -0.292522,0.58646 -1.429401,0.75886 -1.17998,1.61876 0.329971,-0.42606 0.893111,-0.63026 1.347439,-0.93974 -0.07348,-0.20844 0.140608,-0.71505 -0.167459,-0.67902"
       style="fill:#ffffff;fill-opacity:1;fill-rule:evenodd;stroke:none;stroke-width:0.0706575"
       id="path12470" />
    <path
       d="m -61.217261,114.62963 c 0.750382,-0.86061 2.287183,-0.95035 3.697507,-0.99133 -1.320589,-0.0841 -3.835996,-0.31725 -3.697507,0.99133"
       style="fill:#ffffff;fill-opacity:1;fill-rule:evenodd;stroke:none;stroke-width:0.0706575"
       id="path12472" />
    <path
       d="m -45.308727,113.37122 c -0.134249,0.29888 -0.780059,0.31372 -0.514387,0.77016 0.278391,-0.10457 0.457154,-0.30594 0.594937,-0.54477 -0.01342,-0.089 0.0085,-0.2155 -0.08055,-0.22539"
       style="fill:#ffffff;fill-opacity:1;fill-rule:evenodd;stroke:none;stroke-width:0.0706575"
       id="path12474" />
    <path
       d="m -41.419739,114.27139 c 0.109519,0.37943 -0.219038,0.72636 -0.05511,0.91219 0.438783,-0.25507 1.308577,-0.86485 0.956703,-1.38701 -0.28475,0.17382 -0.611894,0.30666 -0.90159,0.47482"
       style="fill:#ffffff;fill-opacity:1;fill-rule:evenodd;stroke:none;stroke-width:0.0706575"
       id="path12476" />
    <path
       d="m -59.016987,114.58229 c 0.23741,0.68255 0.263553,1.58626 0.430304,2.34229 0.28263,0.0473 0.322905,-0.13707 0.604829,-0.089 -0.234583,-0.77016 -0.02332,-1.6873 0.17735,-2.28082 -0.403454,0.009 -0.809028,0.0184 -1.212483,0.0276"
       style="fill:#ffffff;fill-opacity:1;fill-rule:evenodd;stroke:none;stroke-width:0.0706575"
       id="path12478" />
    <path
       d="m -57.197556,114.54201 c -0.02473,0.79278 -0.232463,1.40962 -0.176644,2.28012 1.110029,0.26214 1.618763,1.15313 1.871717,2.3112 0.809028,-0.41334 1.852639,-0.602 2.632698,-1.04361 -1.126987,-1.51207 -1.748773,-3.55195 -4.327771,-3.54771"
       style="fill:#ffffff;fill-opacity:1;fill-rule:evenodd;stroke:none;stroke-width:0.0706575"
       id="path12480" />
    <path
       d="m -48.275635,116.47096 c 0.41052,-0.30171 0.417586,-0.64157 0.582924,-1.0747 0.15686,0.017 0.07772,0.2798 0.234583,0.29817 0.33421,-0.47199 1.033719,-0.59493 1.109323,-1.31493 -0.775819,0.10457 -1.370756,1.01111 -2.170598,1.33825 0.0537,0.2791 0.09044,0.57798 0.243768,0.75321"
       style="fill:#ffffff;fill-opacity:1;fill-rule:evenodd;stroke:none;stroke-width:0.0706575"
       id="path12482" />
    <path
       d="m -59.546918,114.66919 c -0.577272,0.28829 -1.141825,0.5907 -1.570716,1.02101 -0.06571,0.72282 -0.112345,1.79752 0.05441,2.50268 0.455034,-0.18441 1.05633,-0.86908 1.721217,-1.09943 -0.306654,-0.7094 -0.01625,-1.96498 -0.204907,-2.42426"
       style="fill:#ffffff;fill-opacity:1;fill-rule:evenodd;stroke:none;stroke-width:0.0706575"
       id="path12484" />
    <path
       d="m -45.568747,115.34963 c 0.277684,-0.25578 0.696683,-0.53841 0.357527,-0.99557 -0.15262,0.25296 -0.672659,0.54336 -0.357527,0.99557"
       style="fill:#ffffff;fill-opacity:1;fill-rule:evenodd;stroke:none;stroke-width:0.0706575"
       id="path12486" />
    <path
       d="m -44.574596,115.70645 c 0.354701,-0.0587 0.777233,-0.44161 0.51368,-0.84507 -0.107399,0.34269 -0.647222,0.27415 -0.51368,0.84507"
       style="fill:#ffffff;fill-opacity:1;fill-rule:evenodd;stroke:none;stroke-width:0.0706575"
       id="path12488" />
    <path
       d="m -51.05954,117.59441 c -0.168165,-0.88463 -0.460687,-1.63925 -1.032306,-2.10135 -0.13001,0.59706 0.778646,1.39337 1.032306,2.10135"
       style="fill:#ffffff;fill-opacity:1;fill-rule:evenodd;stroke:none;stroke-width:0.0706575"
       id="path12490" />
    <path
       d="m -47.359207,116.8299 c 0.453621,-0.30948 1.30363,-0.63309 1.033719,-1.38842 -0.310187,0.49743 -1.085299,0.54689 -1.033719,1.38842"
       style="fill:#ffffff;fill-opacity:1;fill-rule:evenodd;stroke:none;stroke-width:0.0706575"
       id="path12492" />
    <path
       d="m -45.465587,116.63701 c 0.09609,-0.2572 0.657822,-0.45716 0.362473,-0.84295 -0.101746,0.25366 -0.695976,0.42183 -0.362473,0.84295"
       style="fill:#ffffff;fill-opacity:1;fill-rule:evenodd;stroke:none;stroke-width:0.0706575"
       id="path12494" />
    <path
       d="m -44.390886,117.14503 c 0.113052,-0.2155 0.399215,-0.65429 0.207026,-0.91501 -0.178057,0.15262 -0.464926,0.59069 -0.207026,0.91501"
       style="fill:#ffffff;fill-opacity:1;fill-rule:evenodd;stroke:none;stroke-width:0.0706575"
       id="path12496" />
    <path
       d="m -47.814948,116.76348 c -0.189362,0.17311 -0.606241,0.55325 -0.20844,0.84083 0.112346,-0.16676 0.659941,-0.61896 0.20844,-0.84083"
       style="fill:#ffffff;fill-opacity:1;fill-rule:evenodd;stroke:none;stroke-width:0.0706575"
       id="path12498" />
    <path
       d="m -46.370709,116.88431 c -0.215505,0.41334 -0.756742,0.51368 -0.888165,1.00616 0.420412,-0.118 0.617547,-0.44797 0.972954,-0.62815 -0.0431,-0.10951 0.08055,-0.39356 -0.08479,-0.37801"
       style="fill:#ffffff;fill-opacity:1;fill-rule:evenodd;stroke:none;stroke-width:0.0706575"
       id="path12500" />
    <path
       d="m -45.734085,118.23598 c 0.306653,-0.32502 0.807615,-0.46492 0.734838,-1.15313 -0.491776,0.0989 -0.84577,0.72424 -0.734838,1.15313"
       style="fill:#ffffff;fill-opacity:1;fill-rule:evenodd;stroke:none;stroke-width:0.0706575"
       id="path12502" />
    <path
       d="m -57.96419,117.59371 c 0.111639,0.0643 0.242355,0.10881 0.23317,0.29888 -0.481178,-0.10033 -1.152424,0.0219 -1.357331,0.4084 0.253661,-0.006 0.505908,-0.0106 0.758862,-0.0162 0.607654,0.41546 1.024533,1.00333 1.326241,1.64067 0.12577,0.26284 0.141315,0.77299 0.549009,0.82245 0.175937,-1.28032 -0.421826,-2.32251 -0.980726,-3.24177 -0.191482,0.16746 -0.432424,-0.0601 -0.529225,0.0876"
       style="fill:#ffffff;fill-opacity:1;fill-rule:evenodd;stroke:none;stroke-width:0.0706575"
       id="path12504" />
    <path
       d="m -48.929923,117.7753 c -0.07278,0.20349 -0.301001,0.25648 -0.447969,0.38932 0.03462,0.19713 0.04875,0.41547 0.163219,0.52711 0.112345,-0.21127 0.756742,-0.63098 0.28475,-0.91643"
       style="fill:#ffffff;fill-opacity:1;fill-rule:evenodd;stroke:none;stroke-width:0.0706575"
       id="path12506" />
    <path
       d="m -48.079207,118.51579 c 0.255073,0.0657 0.501668,-0.25437 0.295348,-0.38579 -0.04805,0.17664 -0.248008,0.20844 -0.295348,0.38579"
       style="fill:#ffffff;fill-opacity:1;fill-rule:evenodd;stroke:none;stroke-width:0.0706575"
       id="path12508" />
    <path
       d="m -55.253769,120.11477 c 0.482591,2.24337 -1.536094,2.09429 -2.35996,3.08702 2.821354,0.52781 6.826927,-1.54033 4.986299,-4.43587 -0.911481,0.41687 -1.614523,1.03018 -2.626339,1.34885"
       style="fill:#ffffff;fill-opacity:1;fill-rule:evenodd;stroke:none;stroke-width:0.0706575"
       id="path12510" />
    <path
       d="m -49.192769,119.6781 c 0.121531,-0.2049 0.404161,-0.25648 0.444435,-0.54053 -0.214092,0.0714 -0.674779,0.29041 -0.444435,0.54053"
       style="fill:#ffffff;fill-opacity:1;fill-rule:evenodd;stroke:none;stroke-width:0.0706575"
       id="path12512" />
    <path
       d="m -71.252744,131.08858 c -0.626026,-0.14909 -0.695977,-0.83093 -1.088126,-1.18987 -0.07702,1.14536 1.179274,1.70991 2.152227,1.24216 -0.292522,-0.27203 -0.719293,0.0304 -1.064101,-0.0523"
       style="fill:#ffffff;fill-opacity:1;fill-rule:evenodd;stroke:none;stroke-width:0.0706575"
       id="path12514" />
    <path
       d="m -69.662951,130.90205 c 0.0028,0.10245 0.0042,0.20278 0.0071,0.30382 0.199961,0.0191 0.245181,-0.11022 0.220451,-0.30948 -0.0756,0.003 -0.151913,0.004 -0.227517,0.006"
       style="fill:#ffffff;fill-opacity:1;fill-rule:evenodd;stroke:none;stroke-width:0.0706575"
       id="path12516" />
    <path
       d="m -50.224369,114.16117 c 1.591914,-2.60161 4.211893,-4.26348 6.544297,-6.13802 2.340883,-1.88231 4.689538,-3.84377 7.239566,-5.4703 -3.910891,4.22673 -9.270262,7.71085 -13.783863,11.60832 z m 39.460795,-37.971342 c -1.651972,1.72899 -3.807732,2.91745 -5.82359,4.30163 -1.740294,1.19482 -3.435367,2.49704 -5.154464,3.67914 -1.712738,1.17574 -3.296879,2.5903 -4.999724,3.82822 -1.726869,1.25276 -3.484827,2.40235 -5.07886,3.75332 -3.241766,2.74929 -6.552069,5.24279 -9.922431,7.72923 -1.709912,1.263352 -3.520157,2.309082 -5.155171,3.679842 -1.602512,1.34249 -3.290519,2.59666 -5.000431,3.82752 6.111167,-5.35019 13.041253,-9.597412 19.097307,-14.987872 1.481687,-1.31988 3.123767,-2.55851 4.774326,-3.74626 1.638547,-1.18069 3.171815,-2.53802 4.77362,-3.74767 3.255897,-2.45606 6.72518,-4.66411 10.09201,-6.97461 -6.44891,3.90312 -12.512735,8.74104 -18.912891,13.01087 -6.402275,4.26984 -12.56926,8.89861 -18.292517,13.604402 1.397605,-1.18564 3.270029,-2.31404 4.863355,-3.06583 -2.015858,1.63643 -4.050794,3.26014 -6.115406,4.83933 -1.038665,0.79348 -2.066731,1.57708 -3.058056,2.41931 -0.985672,0.83588 -1.874543,1.83639 -3.058763,2.41861 0.09185,-0.70446 0.993445,-1.02877 1.028067,-1.53963 -0.874033,0.74615 -1.746653,1.49653 -2.605142,2.25751 -0.172404,0.0403 -0.385083,0.15898 -0.530638,0.012 -0.337036,0.51933 -0.912895,0.81044 -1.184926,1.39125 2.918861,-2.38964 7.75254,-0.74897 9.364944,1.38912 0.15262,-0.0261 0.198547,-0.15615 0.298175,-0.23458 -0.351875,1.21036 1.100137,1.76785 1.129813,3.08632 0.207733,0.024 0.701629,-0.0848 0.69103,0.36459 0.558901,-0.23741 0.741904,-0.58646 0.576565,-1.37853 -0.240235,-0.008 -0.247301,0.20703 -0.527105,0.16252 0.425358,-0.32432 0.303828,-0.98709 0.344809,-1.52479 0.272738,0.0261 0.371658,0.23317 0.390736,0.52286 0.747556,-0.54901 1.551638,-1.03937 2.164239,-1.71627 -0.0756,-0.2586 -0.126477,-0.54123 -0.244475,-0.75391 -0.588577,0.25295 -1.247811,1.08176 -2.017272,1.41032 2.145162,-2.59807 4.882433,-4.6104 7.517251,-6.69126 7.973697,-6.29841 15.620251,-13.042672 23.63281,-19.259822 0.339156,-0.49036 -0.415466,0.22822 -0.522865,0.31442 -4.536211,3.58022 -9.403806,7.35827 -13.808593,10.54634 4.091775,-3.86002 8.634345,-7.26924 13.119682,-10.75972 1.113562,-0.86697 2.150108,-1.83286 3.280628,-2.65248 3.533581,-2.55922 7.0127553,-4.94108 10.2269653,-7.73559 -0.765928,-1.63077 -3.455152,-2.99022 -5.3530123,-1.77986"
       style="fill:#ffffff;fill-opacity:1;fill-rule:evenodd;stroke:none;stroke-width:0.0706575"
       id="path12518" />
    <path
       d="m -5.9086977,82.912888 c 0.199961,-0.30241 0.864141,-0.55749 0.815388,-0.85283 -0.170991,0.33279 -0.913602,0.50944 -0.815388,0.85283"
       style="fill:#ffffff;fill-opacity:1;fill-rule:evenodd;stroke:none;stroke-width:0.0706575"
       id="path12520" />
    <path
       d="m -8.2439277,83.722628 c 0.502375,-0.26709 1.293032,-1.02948 1.415976,-1.17009 -0.447968,0.41405 -1.145358,0.58858 -1.415976,1.17009"
       style="fill:#ffffff;fill-opacity:1;fill-rule:evenodd;stroke:none;stroke-width:0.0706575"
       id="path12522" />
    <path
       d="m -9.7227887,88.991558 c 0.269912,-0.0897 0.638744,-0.47553 0.59423,-0.61967 -0.117292,0.28334 -0.573739,0.24306 -0.59423,0.61967"
       style="fill:#ffffff;fill-opacity:1;fill-rule:evenodd;stroke:none;stroke-width:0.0706575"
       id="path12524" />
    <path
       d="m -46.466803,112.48588 c 0.120824,0.23599 0.262846,0.44938 0.320078,0.75179 0.314426,-0.21903 0.74261,-0.32997 0.817507,-0.77652 0.378018,0.0466 0.855663,-0.4077 1.046438,-0.78289 -0.03603,-0.24942 -0.33421,-0.62744 -0.170285,-0.83093 0.346928,0.0268 0.312306,0.45009 0.469166,0.67266 0.613307,-0.30383 1.137586,-0.69315 1.56789,-1.17221 0.01413,-0.40133 -0.20844,-0.55749 -0.172405,-0.98214 -1.272541,0.76381 -2.717487,2.00173 -3.878389,3.12024"
       style="fill:#ffffff;fill-opacity:1;fill-rule:evenodd;stroke:none;stroke-width:0.0706575"
       id="path12526" />
    <path
       d="m -38.220368,114.73279 c 0.512974,-0.5264 1.639254,-1.2464 1.861118,-1.55871 -0.623199,0.46775 -1.585554,1.00758 -1.861118,1.55871"
       style="fill:#ffffff;fill-opacity:1;fill-rule:evenodd;stroke:none;stroke-width:0.0706575"
       id="path12528" />
    <path
       d="m -43.422172,116.36497 c 0.522865,-0.48965 1.398312,-0.64157 1.327654,-1.6986 -0.463513,0.22398 -0.844357,0.5271 -1.271128,0.78642 0.08055,0.3547 -0.178057,0.76734 -0.05653,0.91218"
       style="fill:#ffffff;fill-opacity:1;fill-rule:evenodd;stroke:none;stroke-width:0.0706575"
       id="path12530" />
    <path
       d="m -48.060836,119.42586 c 0.101747,0.37165 -0.169578,0.7744 -0.05582,0.91148 0.54477,-0.69174 1.524789,-0.9666 1.624416,-2.08369 -0.683964,0.23529 -0.922787,0.89735 -1.568596,1.17221"
       style="fill:#ffffff;fill-opacity:1;fill-rule:evenodd;stroke:none;stroke-width:0.0706575"
       id="path12532" />
    <path
       d="m -67.281087,125.31092 c -0.799136,0.6882 -1.623002,1.37287 -2.303434,2.25115 -0.320079,0.41334 -0.474112,0.90865 -0.881806,1.30999 -0.760274,-0.42466 0.06077,-1.26407 0.416173,-1.75514 0.702336,-0.96871 1.524789,-1.99466 2.523886,-2.63552 0.389322,-0.25013 0.852129,-0.61472 1.280313,-0.40769 -0.130716,0.54123 -0.657821,0.91077 -1.035132,1.23721 z m 8.051421,-6.54995 c -0.894524,1.5043 -2.69417,2.52954 -4.172325,3.50532 -0.394268,0.26072 -0.84577,0.28687 -1.279607,0.48329 -0.782178,0.35259 -1.659744,0.9779 -2.546496,1.49724 -0.876859,0.51368 -1.933895,0.94327 -2.624219,1.49935 -1.203297,0.97013 -2.959136,3.00859 -1.341079,4.58214 0.27839,-0.006 0.556074,-0.0113 0.835171,-0.0184 0.140609,-0.31302 -0.149087,-0.77936 0.283337,-0.91643 0.353994,0.0692 0.193601,0.6769 0.473405,0.82387 0.20632,-0.24801 -0.324318,-0.95741 0.05017,-1.1383 0.313013,0.18936 0.428891,0.58646 0.552542,0.97437 0.324317,0.0374 0.500961,-0.0664 0.757448,-0.0926 -0.0035,-0.61684 -0.320079,-0.90654 -0.262846,-1.58838 0.419705,0.26072 0.557488,0.81468 0.787124,1.27254 0.236703,-0.0445 0.419706,-0.14061 0.602002,-0.24024 0.08267,-0.86272 -0.561727,-1.37711 -0.423945,-2.03988 0.481178,0.34976 0.623906,1.05492 0.943984,1.57354 0.125064,-0.25224 0.392856,-0.36741 0.51792,-0.61825 -0.169578,-0.28969 -0.209146,-0.71293 -0.400628,-0.9786 0.317958,0.15756 0.387203,0.57868 0.625319,0.82104 0.648635,-0.30454 0.08974,-1.16303 0.190775,-1.67388 0.212679,0.30312 0.27839,0.87898 0.328557,1.13193 1.374288,-2.0526 2.855976,-4.23379 4.496643,-6.0186 0.532757,-0.57798 1.116388,-1.34038 1.940255,-1.4831 -1.468263,1.86111 -3.168989,3.50108 -4.353915,5.63422 -0.02756,0.0827 -0.0862,0.18442 0.0014,0.0763 1.557998,-1.97487 2.994464,-4.06492 5.735975,-4.90716 -0.212679,-1.0966 -0.540529,-2.07168 -1.716977,-2.16141"
       style="fill:#ffffff;fill-opacity:1;fill-rule:evenodd;stroke:none;stroke-width:0.0706575"
       id="path12534" />
    <path
       d="m -61.082305,124.26377 c 1.092364,-0.96023 2.550029,-1.5693 3.508851,-2.65601 -1.614524,0.36177 -2.919568,1.80671 -3.508851,2.65601"
       style="fill:#ffffff;fill-opacity:1;fill-rule:evenodd;stroke:none;stroke-width:0.0706575"
       id="path12536" />
    <path
       d="m -52.687489,123.01738 c -0.671952,0.46987 -1.574249,0.72 -2.248321,1.18775 1.069754,-0.0403 1.905633,-0.70022 2.248321,-1.18775"
       style="fill:#ffffff;fill-opacity:1;fill-rule:evenodd;stroke:none;stroke-width:0.0706575"
       id="path12538" />
  </g>
</svg>
