<?xml version="1.0" encoding="UTF-8" standalone="no"?>
<!-- Created with Inkscape (http://www.inkscape.org/) -->

<svg
   width="69.702568mm"
   height="59.792236mm"
   viewBox="0 0 69.702568 59.792236"
   version="1.1"
   id="svg21595"
   xmlns:inkscape="http://www.inkscape.org/namespaces/inkscape"
   xmlns:sodipodi="http://sodipodi.sourceforge.net/DTD/sodipodi-0.dtd"
   xmlns="http://www.w3.org/2000/svg"
   xmlns:svg="http://www.w3.org/2000/svg">
  <sodipodi:namedview
     id="namedview21597"
     pagecolor="#505050"
     bordercolor="#eeeeee"
     borderopacity="1"
     inkscape:showpageshadow="0"
     inkscape:pageopacity="0"
     inkscape:pagecheckerboard="0"
     inkscape:deskcolor="#505050"
     inkscape:document-units="mm"
     showgrid="false"
     inkscape:zoom="0.51669473"
     inkscape:cx="396.75265"
     inkscape:cy="562.22753"
     inkscape:window-width="1370"
     inkscape:window-height="746"
     inkscape:window-x="70"
     inkscape:window-y="27"
     inkscape:window-maximized="1"
     inkscape:current-layer="layer1" />
  <defs
     id="defs21592" />
  <g
     inkscape:label="Calque 1"
     inkscape:groupmode="layer"
     id="layer1"
     transform="translate(-5.5681268,-213.36346)">
    <path
       d="m 70.508666,255.65697 c -0.70516,-1.79116 -2.04554,-3.20855 -2.69629,-5.0301 -0.23459,-0.65571 -0.37731,-1.52338 -0.58293,-2.33241 -0.1943,-0.7631 -0.58221,-1.65974 -0.58363,-2.40518 -10e-4,-0.73696 0.33704,-1.51278 0.3646,-2.40518 0.0261,-0.81327 -0.10882,-1.63007 -0.29111,-2.55215 -0.23883,-1.20047 -0.69739,-4.01264 -0.3646,-5.17495 0.26073,-0.90795 1.54034,-1.69296 1.96781,-2.40518 1.02524,-1.70709 1.79541,-4.48534 1.53045,-7.28903 -0.0594,-0.63804 -0.35612,-1.48098 -0.51015,-2.26104 -0.16322,-0.82811 -0.0982,-1.73888 -0.29182,-2.3317 -0.49107,-1.51701 -2.88918,-2.64047 -4.37299,-3.57173 -0.83376,-0.52428 -1.55658,-1.05987 -2.47866,-1.45767 -0.91926,-0.39709 -1.94167,-0.96023 -2.91604,-1.09377 -0.78218,-0.10811 -1.64632,0.0728 -2.47866,0.0728 -0.84012,0 -1.70002,0.0276 -2.47796,0.0735 -1.53186,0.0897 -2.84185,0.78217 -4.22744,0.94751 -1.52055,0.18089 -3.06371,-0.12153 -4.51925,-0.21904 -2.95348,-0.19854 -6.09986,-0.41546 -8.457,-1.16655 -1.22944,-0.39144 -2.21794,-1.24993 -3.35199,-1.45837 -1.02665,-0.18795 -2.18473,0.0968 -3.3534,0 -1.074,-0.0869 -2.10913,-0.2897 -3.13578,-0.21833 -1.53186,0.10528 -2.94642,0.46916 -3.86143,1.02029 -0.5794,0.34764 -0.89665,0.95458 -1.53186,1.38559 -0.42465,0.28687 -1.00545,0.50097 -1.53044,0.80126 -0.48259,0.27627 -0.936918,0.67902 -1.45837,0.87545 -0.857075,0.32149 -1.806712,0.4621 -2.69629,0.72848 -0.929146,0.27768 -1.889381,0.37377 -2.843257,0.6557 -2.457468,0.72848 -3.9052394,2.46029 -5.6123244,4.0091 -0.450089,0.4084 -0.993445,0.64723 -1.239333,1.021 -0.583631,0.88605 -1.133346,2.81782 -0.87474,4.373 0.05087,0.31089 0.347635,0.65428 0.43737,1.0217 0.153327,0.63168 0.108813,1.18776 0.291109,1.60322 0.402748,0.9136 1.235093,1.70426 2.040588,2.18756 0.462807,0.27556 1.068342,0.33279 1.6039264,0.6557 0.658527,0.39709 1.211775,1.09236 1.895033,1.74948 1.124161,1.07894 2.506928,1.97912 2.697703,3.64451 0.105987,0.93339 -0.08691,1.97064 -0.291109,2.697 -0.661354,2.33452 -2.668733,4.01052 -2.624925,6.99792 -0.622493,1.33613 -1.46261,2.80581 -2.4786654,4.44647 -0.886045,1.43082 -2.215112,3.11882 -1.967811,4.95733 0.192188,1.42516 1.406084,1.84487 2.7697744,2.18685 3.302531,2.2031 7.081293,3.87698 10.643141,5.75788 1.22378,0.64722 2.5472,1.1178 3.71729,1.82296 1.70284,1.02383 3.10963,2.65531 5.10217,3.57174 0.48825,0.22469 0.90371,0.65217 1.31211,0.80126 0.37873,0.13848 0.85991,0.11729 1.31282,0.2911 0.41829,0.16181 0.76734,0.38933 1.16585,0.43808 2.58112,0.31725 4.96015,-0.41405 6.99792,-1.02029 2.08581,-0.61967 3.94551,-1.56365 6.19666,-1.89433 2.34159,-0.34552 4.66198,-0.75674 7.06999,-0.94822 1.95509,-0.15616 3.80985,-0.20138 5.3947,-0.65571 0.51156,-0.14767 0.93126,-0.4734 1.45695,-0.58363 1.30151,-0.27485 2.53661,-0.26638 3.64593,-0.43737 3.52369,-0.54265 5.66814,-2.53236 8.01821,-4.30162 2.71325,-0.19219 3.90948,-3.17253 2.84255,-5.83066 -0.95882,-1.08177 -2.88282,-1.20047 -4.3744,-1.75019"
       style="fill:#231615;fill-opacity:1;fill-rule:evenodd;stroke:none;stroke-width:0.0706575"
       id="path16004" />
    <path
       d="m 41.061446,237.57996 c -2.42284,-0.1505 -4.32918,-0.8924 -6.34363,-1.53185 -1.3432,-0.42465 -2.4292,-1.16303 -3.71658,-1.67671 -1.52055,-0.60412 -3.20432,-0.52569 -4.95733,-0.94681 -1.14819,-0.27556 -2.19392,-0.8924 -3.27992,-1.23862 -0.44444,-0.14273 -0.93975,-0.14273 -1.3856,-0.29323 -0.97577,-0.32926 -1.871712,-0.9129 -2.843252,-1.16585 -1.10791,-0.28828 -2.44263,-0.0537 -3.569617,-0.14626 -2.367026,-0.19007 -4.883139,-1.56082 -5.4681834,-3.42548 -0.219038,-0.69244 -0.379431,-2.15222 -0.146261,-2.84255 0.466339,-1.38842 2.9739744,-1.88231 4.4464764,-2.3324 1.856172,-0.56738 3.95258,-1.63925 5.830656,-2.62493 1.748771,-0.91501 3.599291,-2.4186 5.540961,-2.98739 1.69083,-0.49531 3.37036,0.01 4.73758,0.21762 1.73888,0.26426 3.71659,0.25225 5.53531,0.23034 -1.92683,-0.13213 -3.482,-1.14323 -5.24278,-1.3227 -1.03372,-0.1067 -2.18332,-0.0572 -3.35341,0 -0.68184,0.0311 -1.68659,-0.0488 -2.47866,0.14484 -0.472,0.11588 -1.36157,0.89241 -1.89433,1.31211 -1.29091,1.01465 -2.641884,1.69578 -4.228851,2.33241 -0.819627,0.32855 -1.737468,0.37519 -2.623513,0.65711 -0.674779,0.21197 -1.338253,0.62179 -2.040588,0.87474 -1.554465,0.55466 -2.839018,1.12204 -4.1553674,1.67529 -0.988498,0.71223 -1.366516,2.66732 -1.603925,4.30163 -0.252247,1.72757 0.544062,2.39811 1.239332,3.42477 0.421119,0.6239 1.0421984,1.59403 1.6025124,1.82367 0.94681,0.38579 2.61786,0.25507 3.864258,0.21904 1.30787,-0.0389 2.723846,-0.38226 3.935622,-0.21904 0.618253,0.0827 1.295859,0.51297 1.96781,0.80125 1.37853,0.5907 2.60444,1.01464 4.08188,1.45908 0.71788,0.2148 1.49512,0.50732 2.18756,0.655 1.05986,0.22539 2.15435,0.15191 3.20714,0.36459 3.86991,0.78288 7.46214,2.59313 11.66414,2.40518 -0.0205,-0.32291 -0.40416,-0.1392 -0.50944,-0.14485"
       style="fill:#ffffff;fill-opacity:1;fill-rule:evenodd;stroke:none;stroke-width:0.0706575"
       id="path16006" />
    <path
       d="m 36.467296,216.80383 c -0.32997,0.003 -0.68043,0.008 -1.02524,0.012 0.33068,0.0226 0.66913,0.0268 1.02524,-0.012"
       style="fill:#ffffff;fill-opacity:1;fill-rule:evenodd;stroke:none;stroke-width:0.0706575"
       id="path16008" />
    <path
       d="m 49.151026,217.6058 c -1.55941,0.0162 -3.08703,0.10457 -4.51926,0 -1.21318,-0.0883 -2.38469,-0.67902 -3.71658,-0.43596 1.04997,0.55042 2.33382,0.34763 3.57032,0.50873 0.61402,0.0806 1.19482,0.32008 1.82297,0.36459 4.02253,0.28829 8.33263,0.27345 12.39261,0.14627 0.17665,-0.25013 0.79914,-0.7836 0.58222,-0.94823 -3.22057,-0.0784 -6.62414,0.32856 -10.13228,0.3646"
       style="fill:#ffffff;fill-opacity:1;fill-rule:evenodd;stroke:none;stroke-width:0.0706575"
       id="path16010" />
    <path
       d="m 20.722686,220.37698 c 0.0247,0.33774 0.0926,0.63451 0.21834,0.87333 1.79399,-1.14819 4.34826,-0.48683 6.63332,-0.6557 -0.183,-1.08177 -0.009,-2.43839 0.29111,-3.27992 -3.5894,-0.18795 -5.15658,1.64632 -7.14277,3.06229"
       style="fill:#ffffff;fill-opacity:1;fill-rule:evenodd;stroke:none;stroke-width:0.0706575"
       id="path16012" />
    <path
       d="m 28.740906,217.53372 c -0.20562,0.0594 -0.18937,-0.10316 -0.3646,-0.0728 -0.10598,0.84577 -0.32855,2.33876 0,3.13366 0.43172,-0.36106 0.16958,-1.21955 0.21833,-1.89433 0.0332,-0.44585 0.17947,-0.82245 0.14627,-1.16656"
       style="fill:#ffffff;fill-opacity:1;fill-rule:evenodd;stroke:none;stroke-width:0.0706575"
       id="path16014" />
    <path
       d="m 59.647896,218.2622 c 0.63451,0.2791 1.03231,-0.26991 1.31211,-0.58363 -0.65358,-0.3547 -1.15101,0.0445 -1.31211,0.58363"
       style="fill:#ffffff;fill-opacity:1;fill-rule:evenodd;stroke:none;stroke-width:0.0706575"
       id="path16016" />
    <path
       d="m 39.456816,220.52183 c -0.66418,-0.22893 -0.19643,-2.644 0.43737,-1.60393 -0.0813,0.59918 -0.004,1.35663 -0.43737,1.60393 z m -1.75019,0.21904 c -0.57656,-0.43879 -0.29534,-2.19674 0.21975,-2.47867 0.32714,0.41194 0.47058,2.37127 -0.21975,2.47867 z m 6.56055,-1.53186 c -2.28223,-0.19854 -4.23097,-1.31211 -6.19595,-1.53044 -1.32483,-0.14626 -2.72032,0.17099 -3.86285,0.21975 0.22752,0.86484 0.12012,2.06461 0.14485,3.13366 0.3978,-0.0148 0.87615,0.0502 1.16585,-0.0728 0.0692,-1.04856 -0.18583,-2.42214 0.36459,-2.98811 0.47341,0.66984 0.3978,1.88797 0.43737,2.98811 2.59737,-0.12436 4.7503,-0.2042 6.99863,-0.29111 1.26406,-0.0487 2.0957,-0.91501 3.13507,-1.16655 1.56506,-0.37944 2.95207,0.0749 3.78936,0.51085 0.40345,0.20844 0.80196,0.37378 1.23933,0.50944 0.85001,0.26497 1.70143,0.69244 2.55215,0.87474 1.20966,0.26073 2.33735,0.0431 3.71729,0.36459 -0.0318,-0.62956 0.0911,-1.43717 0.21833,-2.11478 -3.66288,-0.22186 -7.47839,-0.30453 -10.78798,-0.43737 -0.97861,-0.0382 -1.96781,0.0834 -2.91604,0"
       style="fill:#ffffff;fill-opacity:1;fill-rule:evenodd;stroke:none;stroke-width:0.0706575"
       id="path16018" />
    <path
       d="m 29.469376,217.75206 c 0.007,0.99203 -0.18512,2.04624 0,2.98881 0.27839,-0.0537 0.52287,0.29817 0.7299,0.0735 -0.19149,-0.92208 -0.029,-2.11831 0.0735,-2.98952 -0.25719,-0.0353 -0.47623,-0.10881 -0.80338,-0.0728"
       style="fill:#ffffff;fill-opacity:1;fill-rule:evenodd;stroke:none;stroke-width:0.0706575"
       id="path16020" />
    <path
       d="m 31.292346,217.89832 c -0.27062,0.0509 -0.31302,-0.12436 -0.58222,-0.0735 0,0.0735 0,0.14626 0,0.21833 0.23882,0.92209 -0.29959,2.83761 0.51015,3.0623 0.27203,-0.98285 -0.17735,-2.24832 0.0721,-3.20714"
       style="fill:#ffffff;fill-opacity:1;fill-rule:evenodd;stroke:none;stroke-width:0.0706575"
       id="path16022" />
    <path
       d="m 32.896266,217.89832 c 0.24518,0.94539 0.34198,2.03847 0.29111,3.27992 0.16958,0 0.34057,0 0.51015,0 -0.0897,-1.11356 -0.041,-2.25751 0.0735,-3.35341 -0.34339,-0.029 -0.60836,0.024 -0.87474,0.0735"
       style="fill:#ffffff;fill-opacity:1;fill-rule:evenodd;stroke:none;stroke-width:0.0706575"
       id="path16024" />
    <path
       d="m 32.385416,217.89832 c -0.19431,0 -0.38932,0 -0.58222,0 -0.004,0.10033 0.0332,0.15968 0.0714,0.21762 -0.006,0.42395 0.11729,0.89453 0.14626,1.45908 0.029,0.57232 -0.23035,1.41315 0.2911,1.60322 0.18513,-0.68397 0.0141,-2.23914 0.0735,-3.27992"
       style="fill:#ffffff;fill-opacity:1;fill-rule:evenodd;stroke:none;stroke-width:0.0706575"
       id="path16026" />
    <path
       d="m 61.178346,218.55402 c 0.48541,0.0742 1.00051,0.12082 1.31211,-0.14626 -0.39851,-0.4296 -1.08884,-0.43667 -1.31211,0.14626"
       style="fill:#ffffff;fill-opacity:1;fill-rule:evenodd;stroke:none;stroke-width:0.0706575"
       id="path16028" />
    <path
       d="m 63.512156,219.35527 c 0.47977,0.10387 1.12063,0.43384 1.60322,0.29111 -0.34905,-0.23458 -1.00899,-0.54335 -1.60322,-0.29111"
       style="fill:#ffffff;fill-opacity:1;fill-rule:evenodd;stroke:none;stroke-width:0.0706575"
       id="path16030" />
    <path
       d="m 58.774576,219.71987 c -0.20562,0.79065 -0.35329,1.64066 -0.87545,2.11407 0.35046,0.0389 0.62108,0.15615 0.94681,0.21974 -0.23034,-0.90794 0.11729,-1.81519 0.51086,-2.33381 -0.19502,0 -0.38933,0 -0.58222,0"
       style="fill:#ffffff;fill-opacity:1;fill-rule:evenodd;stroke:none;stroke-width:0.0706575"
       id="path16032" />
    <path
       d="m 66.135676,221.03198 c 0.248,-0.005 0.27132,0.21409 0.36529,0.36459 0.57162,-0.18088 0.87474,0.28828 1.09308,0.21974 -0.35894,-0.44443 -0.81539,-0.78853 -1.31211,-1.09448 0.0841,0.30171 -0.15333,0.28404 -0.14626,0.51015"
       style="fill:#ffffff;fill-opacity:1;fill-rule:evenodd;stroke:none;stroke-width:0.0706575"
       id="path16034" />
    <path
       d="m 19.483357,221.03198 c 0.08126,0.3547 0.180883,0.69456 0.364593,0.94822 0.108812,-0.0855 0.178057,-0.21127 0.363886,-0.21904 -0.12506,-0.31089 -0.0989,-0.7744 -0.291109,-1.02029 -0.117292,0.12577 -0.272738,0.21268 -0.43737,0.29111"
       style="fill:#ffffff;fill-opacity:1;fill-rule:evenodd;stroke:none;stroke-width:0.0706575"
       id="path16036" />
    <path
       d="m 56.733276,225.98931 c -1.42728,-1.03796 -2.96832,-2.53661 -5.03152,-2.91604 -0.31513,-0.33915 -0.99273,-0.31866 -1.52902,-0.43737 -0.0127,-0.0841 0.0163,-0.13001 0.0714,-0.14626 2.70618,-0.15333 4.77362,0.96024 6.34292,2.18756 0.0989,-0.14414 0.14626,-0.33987 0.36389,-0.3646 0.43807,-0.0374 0.51933,0.84719 0.0735,0.87474 0.39992,0.54689 1.13829,0.75675 1.38418,1.45767 -0.64157,0.24165 -1.22379,-0.32715 -1.67529,-0.6557 z m -0.58363,0.36459 c -0.094,-0.0954 -0.094,-0.26921 0,-0.36459 0.33916,0.001 0.33916,0.36318 0,0.36459 z m -1.23933,2.84255 c -0.39356,0.13637 -0.65005,-0.13213 -0.87474,-0.36459 -0.01,-0.47058 0.54336,-0.60695 0.94752,-0.43737 0.0982,0.22822 0.12718,0.67124 -0.0728,0.80196 z m -0.87474,-4.44648 c 0.40981,-0.24023 0.5808,-0.0438 0.65641,0.21834 0.30806,1.06763 -1.6117,0.34198 -0.65641,-0.21834 z m -1.82367,3.57174 c -0.19855,-0.56879 0.52499,-0.77158 0.65712,-0.36459 0.0233,0.38791 -0.34623,0.52145 -0.65712,0.36459 z m -0.51015,1.96781 c -0.0233,-0.36954 0.48542,-0.72424 0.94823,-0.36459 0.42041,0.93621 -0.90018,1.04785 -0.94823,0.36459 z m -1.23792,-1.45766 c -0.87262,-1.37146 1.68377,-0.41618 0,0 z m -0.58221,2.25962 c 0.38508,-0.13425 0.71858,0.1823 0.72848,0.51015 0.0332,1.35521 -1.93602,-0.0869 -0.72848,-0.51015 z m 0.79984,-6.55913 c 0.0445,0.40699 -0.10175,0.62602 -0.50873,0.58222 -0.40982,-0.30242 0.07,-0.92208 0.50873,-0.58222 z m -3.93562,-0.58434 c -0.1505,-0.65146 0.28687,-0.97013 0.80196,-0.72848 0.4084,0.55184 -0.31867,1.29869 -0.80196,0.72848 z m -0.29111,4.08259 c -1.30575,-0.97719 0.88322,-2.22218 0.87474,-0.80196 -0.004,0.49248 -0.39286,0.64439 -0.87474,0.80196 z m 0.43737,1.23933 c 0.17382,2.00597 -1.90705,-0.5483 0,0 z m -0.51086,2.3317 c 0.33704,-0.21197 0.60342,0.0346 0.65571,0.21975 0.27485,0.97012 -1.52338,0.53841 -0.65571,-0.21975 z m -0.6564,3.06088 c -0.48754,0.0996 -0.58081,-0.3335 -0.94681,-0.50873 0.0247,-2.16565 2.47159,0.20279 0.94681,0.50873 z m -1.67671,-2.25892 c -0.33421,-0.33915 0.19573,-1.34249 0.7299,-0.80196 0.0756,0.58646 -0.29677,0.72495 -0.7299,0.80196 z m 0.43737,-2.69629 c 0.14626,0.29818 0.0551,0.7094 -0.21833,0.80197 -0.37236,0.008 -0.44938,-0.2791 -0.43737,-0.65712 0.17806,-0.13919 0.38509,-0.29535 0.6557,-0.14485 z m -1.45766,4.81037 c -1.16585,-0.0827 -0.33774,-2.21229 0.7306,-1.09308 0.0579,0.70941 -0.19784,1.13052 -0.7306,1.09308 z m 0.29182,-4.73759 c -0.14556,0.43737 -0.20632,0.95953 -0.87404,0.87403 -0.57656,-0.62249 0.45998,-1.65903 0.87404,-0.87403 z m -1.0203,3.93633 c -0.0622,0.30312 -0.19996,0.40275 -0.72848,0.36389 -0.92914,-1.1065 0.93409,-1.35804 0.72848,-0.36389 z m -1.74807,-1.38559 c -0.12011,-1.09731 1.44848,-0.3328 0.65359,0.21903 -0.3434,0.0523 -0.47694,-0.10316 -0.65359,-0.21903 z m 0.94611,-7.06999 c 0.0261,0.45503 -0.0714,0.65287 -0.29252,0.72848 -1.08036,0.37095 -0.69951,-1.6972 0.29252,-0.72848 z m -0.14626,4.08188 c -0.10316,-0.0982 -0.10316,-0.41405 0,-0.51085 0.20561,-0.0601 0.18936,0.10245 0.36459,0.0735 0.0579,0.32432 -0.0678,0.46493 -0.36459,0.43737 z m 2.84326,-1.021 c -0.18937,0.26355 -0.45433,0.26214 -0.72848,0.29252 -0.44091,-0.74543 0.75321,-1.1397 0.72848,-0.29252 z m 0.21762,-4.00911 c 0.43101,0.46634 0.0735,1.50006 -0.51015,1.45696 -0.80479,-0.0593 -0.74543,-2.02151 0.51015,-1.45696 z m 0.29252,4.15537 c 0.22823,-0.0346 0.32573,0.0636 0.29182,0.29111 -0.0968,0 -0.19502,0 -0.29182,0 0,-0.0982 0,-0.19431 0,-0.29111 z m -5.0301,5.97692 c -0.20562,-0.35894 0.0487,-0.80479 0.29252,-0.94681 0.74402,0.11164 0.3441,1.25276 -0.29252,0.94681 z m -1.45696,-3.718 c -0.17241,-0.97861 1.13122,-1.30575 1.31211,-0.6557 0.19784,0.71223 -0.72142,0.83517 -1.31211,0.6557 z m 1.021,1.96923 c -0.26355,0.49672 -1.09166,0.28192 -0.94822,-0.43737 0.26355,-0.45645 1.07399,-0.28687 0.94822,0.43737 z m -1.60463,1.82155 c -0.14485,0 -0.29111,0 -0.43808,0 -0.47694,-0.38862 0.15615,-1.17151 0.58434,-0.655 0.0798,0.29676 0.0148,0.44302 -0.14626,0.655 z m -0.94823,-9.62285 c -0.25295,-0.26072 0.16534,-1.12345 0.51015,-0.50944 -0.0784,0.26143 -0.24801,0.4296 -0.51015,0.50944 z m 0.14626,1.6767 c -0.44443,-0.0106 -0.48047,-0.53558 -0.2911,-0.80196 0.20702,-0.0593 0.18865,0.10387 0.36388,0.0735 -0.0191,0.24871 0.0565,0.59211 -0.0728,0.72847 z m -0.80196,2.33382 c -0.61825,-0.50944 0.10104,-1.623 0.80196,-1.021 0.20703,0.56314 -0.0622,1.1715 -0.80196,1.021 z m 0.21833,2.84255 c -0.95105,0.20208 -0.6776,-1.08459 0.0728,-0.65641 -0.0106,0.0855 0.017,0.12931 0.0735,0.14626 0.0438,0.26214 -0.0841,0.35329 -0.14626,0.51015 z m -0.87544,-6.77958 c -0.86768,-0.17665 -0.22752,-1.68801 0.43949,-0.87404 0.0134,0.4515 -0.0883,0.78713 -0.43949,0.87404 z m 4.52137,2.18684 c 0.10033,0.70799 -0.27486,0.94116 -0.87474,0.94823 -0.40487,-0.71223 0.35329,-1.59686 0.87474,-0.94823 z m -6.34292,3.93633 c -0.0579,-0.0389 -0.11871,-0.0763 -0.21763,-0.0721 -0.46422,-0.44161 0.15686,-1.30928 0.655,-0.80337 0.0883,0.5264 -0.11305,0.76239 -0.43737,0.87544 z m -1.53044,-3.35199 c -0.48401,-0.45433 0.26072,-1.30433 0.72989,-0.80337 -0.0148,0.49672 -0.28405,0.73837 -0.72989,0.80337 z m -1.01959,-1.31281 c -0.77017,-0.36672 -0.13425,-2.10842 0.6557,-1.31211 0.41759,0.419 0.12789,1.29162 -0.6557,1.31211 z m 0,2.91603 c -0.50238,0.10669 -0.86838,-0.75886 -0.29111,-1.021 0.73554,-0.33421 0.75603,0.92137 0.29111,1.021 z m -0.0735,1.89503 c -0.82739,0.45928 -1.10225,-0.8712 -0.21762,-0.80196 0.27344,0.0897 0.37943,0.48825 0.21762,0.80196 z m -2.62421,-1.31281 c -0.39498,-0.55325 -0.24731,-1.58697 0.72847,-1.38418 0.66913,0.51368 0.1173,1.50712 -0.72847,1.38418 z m 0.80125,-5.10147 c 0.24306,0.28121 0.16746,1.01252 0,1.31069 -0.0855,-0.0113 -0.1293,0.017 -0.14485,0.0735 -1.23368,0.18724 -1.05279,-1.67458 0.14485,-1.38418 z m -4.30021,3.57103 c -0.38509,-0.32149 0.0375,-1.06622 0.43807,-0.58363 0.0353,0.3766 -0.10104,0.5808 -0.43807,0.58363 z m 0.14626,-2.18685 c -0.34481,-0.10669 -0.40134,-0.0488 -0.65641,-0.21833 0.0367,-0.93551 1.39902,-0.45009 0.65641,0.21833 z m -3.0623,2.98881 c -0.10457,-0.50238 0.34976,-0.92208 1.02171,-0.6557 0.82952,0.8818 -0.82811,1.58697 -1.02171,0.6557 z m -0.21904,-3.42689 c 0.85284,-0.17099 0.73272,1.17857 0.0742,1.16656 -0.5808,-0.01 -0.85424,-1.00899 -0.0742,-1.16656 z m 36.59422,-2.25892 c -0.5052,-0.20137 -1.36792,-0.0438 -2.11407,-0.14626 -1.94732,-0.26638 -3.40781,-0.89664 -5.0301,-1.38418 -1.10862,-0.3328 -2.03989,-1.06128 -2.98952,-1.09307 -0.64157,-0.0219 -1.27749,0.59917 -1.74878,0.80055 0.78996,-0.10316 2.35361,-0.17523 2.55215,0.29252 -0.59635,0.50096 -1.45766,0.40204 -2.26033,0.50944 -0.80196,0.10881 -1.65621,0.26921 -2.55074,0.21904 -0.75744,-0.041 -1.56365,-0.2466 -2.33381,-0.21904 -0.46069,0.0163 -0.92138,0.18654 -1.38348,0.21904 -1.50853,0.1081 -3.15485,-0.0728 -4.7397,-0.0728 -1.60463,0 -3.27568,0.13072 -4.6641,0 -0.83235,-0.0784 -1.57072,-0.62956 -2.33382,-0.72848 -0.61401,-0.0806 -1.6548,0.15686 -2.47866,0.0728 -0.4621,-0.0466 -0.94611,-0.25366 -1.38418,-0.29252 -2.02151,-0.17523 -2.57759,0.59917 -3.49967,1.45908 -0.39427,0.36812 -0.86485,0.67619 -1.16585,1.01958 -0.790655,0.91078 -1.424452,1.9558 -2.477249,2.55144 -1.495819,0.84648 -3.115995,0.67337 -4.958743,1.3856 1.201178,0.72212 2.879293,0.43878 4.375112,0.6557 0.974367,0.14061 2.202394,0.4084 2.987399,0.72848 0.415461,0.16958 0.742611,0.58928 1.167971,0.80196 0.60836,0.30524 1.39054,0.40558 2.11266,0.65712 0.68961,0.2374 1.43364,0.52145 2.11407,0.72847 1.56789,0.47624 3.25448,0.36177 4.88384,0.80197 0.36601,0.0975 0.69033,0.33067 1.02171,0.43737 0.79066,0.25224 1.49017,0.32149 2.11407,0.6564 0.47341,0.25296 0.8267,0.73838 1.38418,1.0203 0.87192,0.43878 2.46312,0.99344 3.35341,1.16585 2.15152,0.41688 4.37582,0.32997 6.3408,0.21833 3.2022,-0.1823 5.44204,-1.49087 8.0917,-2.18614 1.29444,-0.89947 2.49774,-1.95015 3.57244,-3.0623 0.87898,-0.90936 1.55658,-1.48239 2.40589,-2.47866 0.41758,-0.48966 1.02241,-0.91855 1.09236,-1.38418 0.16605,-1.0952 -0.79631,-3.08986 -1.45696,-3.35341"
       style="fill:#ffffff;fill-opacity:1;fill-rule:evenodd;stroke:none;stroke-width:0.0706575"
       id="path16038" />
    <path
       d="m 65.699006,221.47005 c -0.50237,1.90422 -2.14304,2.66874 -3.06229,4.15466 0.20985,0.42254 0.58787,0.67478 0.87544,1.0203 0.58505,-0.92067 2.55851,-1.99042 3.27992,-2.76978 1.09025,-1.17574 -0.0565,-1.89927 -1.09307,-2.40518"
       style="fill:#ffffff;fill-opacity:1;fill-rule:evenodd;stroke:none;stroke-width:0.0706575"
       id="path16040" />
    <path
       d="m 18.753465,221.54283 c -0.105279,0.16181 -0.390736,0.14344 -0.435957,0.36459 0.150501,0.3116 0.330678,0.59211 0.435957,0.94681 0.224691,-0.0664 0.292522,-0.29181 0.438783,-0.43666 -0.230343,-0.20844 -0.117291,-0.75745 -0.438783,-0.87474"
       style="fill:#ffffff;fill-opacity:1;fill-rule:evenodd;stroke:none;stroke-width:0.0706575"
       id="path16042" />
    <path
       d="m 16.640806,222.6359 c 0.149088,0.72565 0.220452,1.52903 0.510147,2.11407 0.348342,-0.42889 0.910775,-0.64439 1.093072,-1.23933 -0.266379,-0.41405 -0.378018,-0.98214 -0.728479,-1.31211 -0.216919,0.22187 -0.603415,0.27345 -0.87474,0.43737"
       style="fill:#ffffff;fill-opacity:1;fill-rule:evenodd;stroke:none;stroke-width:0.0706575"
       id="path16044" />
    <path
       d="m 15.110365,223.07327 c 0.25366,0.81398 0.648636,1.48875 0.799843,2.40518 0.30524,0.0622 0.345515,-0.14202 0.584337,-0.14626 -0.120117,-0.87474 -0.219745,-1.77068 -0.50944,-2.47796 -0.221865,0.14485 -0.612601,0.11729 -0.87474,0.21904"
       style="fill:#ffffff;fill-opacity:1;fill-rule:evenodd;stroke:none;stroke-width:0.0706575"
       id="path16046" />
    <path
       d="m 14.234919,223.21953 c 0.01413,0.7631 0.497428,1.68801 0.584337,2.62352 0.221865,0.0523 0.213386,-0.12578 0.435957,-0.0735 -0.01272,-0.79348 -0.560314,-1.67105 -0.655702,-2.6228 -0.169578,-0.024 -0.279803,0.012 -0.364592,0.0728"
       style="fill:#ffffff;fill-opacity:1;fill-rule:evenodd;stroke:none;stroke-width:0.0706575"
       id="path16048" />
    <path
       d="m 13.213918,223.36438 c 0.120118,0.43596 0.192188,0.97437 0.291109,1.45908 0.105279,0.50096 0.120118,1.07752 0.438783,1.38418 0.211266,-0.76452 -0.230344,-2.08934 -0.438783,-2.91604 -0.01201,0.10882 -0.175231,0.0671 -0.291109,0.0728"
       style="fill:#ffffff;fill-opacity:1;fill-rule:evenodd;stroke:none;stroke-width:0.0706575"
       id="path16050" />
    <path
       d="m 12.411955,223.6569 c 0.05017,0.42536 0.13001,0.96589 0.219745,1.45767 0.0756,0.42606 0.158273,1.1934 0.363886,1.23933 -0.22893,-0.8161 -0.235289,-1.85476 -0.363886,-2.76977 -0.01272,0.0841 -0.115878,0.0784 -0.219745,0.0728"
       style="fill:#ffffff;fill-opacity:1;fill-rule:evenodd;stroke:none;stroke-width:0.0706575"
       id="path16052" />
    <path
       d="m 59.575826,223.94801 c 0.21975,0.32715 0.41547,0.50238 0.72778,0.58434 0.16675,0.48966 0.14626,1.16585 0.29252,1.67529 0.20561,-0.32997 0.3229,-0.74544 0.51015,-1.09307 -0.25932,-0.59211 -0.74756,-1.34179 -1.53045,-1.16656"
       style="fill:#ffffff;fill-opacity:1;fill-rule:evenodd;stroke:none;stroke-width:0.0706575"
       id="path16054" />
    <path
       d="m 11.6107,227.08238 c -0.263553,-0.81822 -0.484711,-1.85617 -0.438077,-2.76978 -1.138292,0.56314 -0.245181,2.30768 0.438077,2.76978"
       style="fill:#ffffff;fill-opacity:1;fill-rule:evenodd;stroke:none;stroke-width:0.0706575"
       id="path16056" />
    <path
       d="m 67.010416,225.84305 c -0.17382,0.65852 0.21903,1.77915 0.14626,2.55144 0.37377,-0.91502 1.31069,-2.18049 0.6557,-3.42618 -0.10952,0.40557 -0.66984,0.3766 -0.80196,0.87474"
       style="fill:#ffffff;fill-opacity:1;fill-rule:evenodd;stroke:none;stroke-width:0.0706575"
       id="path16058" />
    <path
       d="m 66.209866,229.99841 c 0.077,-1.21036 0.35752,-2.60585 0.21833,-3.79077 -0.838,0.58222 -0.13143,2.59171 -0.21833,3.79077"
       style="fill:#ffffff;fill-opacity:1;fill-rule:evenodd;stroke:none;stroke-width:0.0706575"
       id="path16060" />
    <path
       d="m 62.053086,226.3539 c -0.22893,0.37802 -0.58222,0.63168 -0.80055,1.021 0.4197,0.0163 0.51792,0.35611 0.80055,0.50944 0.19642,-0.26638 0.56879,-0.35611 0.65711,-0.72919 -0.27486,-0.21197 -0.37236,-0.59846 -0.65711,-0.80125"
       style="fill:#ffffff;fill-opacity:1;fill-rule:evenodd;stroke:none;stroke-width:0.0706575"
       id="path16062" />
    <path
       d="m 64.533156,227.95712 c -0.28828,1.02665 0.52146,2.91321 0.0721,4.15536 1.17151,-0.43171 0.83023,-3.39791 0.80126,-5.0301 -0.17523,0.42889 -0.73272,0.36812 -0.87333,0.87474"
       style="fill:#ffffff;fill-opacity:1;fill-rule:evenodd;stroke:none;stroke-width:0.0706575"
       id="path16064" />
    <path
       d="m 63.074086,229.19645 c -0.22045,0.21551 -1.07329,0.85142 -1.09237,1.16585 -0.004,0.0558 0.34481,0.45009 0.36389,0.51085 0.23175,0.7412 0.1399,1.72616 0.21833,2.76978 0.61825,-0.18371 0.90936,-0.69386 1.45837,-0.94681 0.16322,-1.39196 0.36742,-3.13225 0.21833,-4.59274 -0.42112,0.27627 -0.7412,0.68043 -1.16655,1.09307"
       style="fill:#ffffff;fill-opacity:1;fill-rule:evenodd;stroke:none;stroke-width:0.0706575"
       id="path16066" />
    <path
       d="m 60.449866,228.17686 c -1.17221,1.28173 -2.34089,2.56699 -3.49896,3.86285 0.1505,0.33491 0.27062,0.70092 0.43807,1.021 0.76452,-0.64581 1.192,-1.56365 1.82297,-2.33382 0.62744,-0.77017 1.2683,-1.48875 1.9664,-2.18614 -0.0926,-0.27133 -0.46069,-0.26638 -0.72848,-0.36389"
       style="fill:#ffffff;fill-opacity:1;fill-rule:evenodd;stroke:none;stroke-width:0.0706575"
       id="path16068" />
    <path
       d="m 66.209866,232.98722 c 1.32624,-0.78641 1.99819,-2.61927 1.89362,-4.59273 -0.82104,1.34037 -1.42587,2.89978 -1.89362,4.59273"
       style="fill:#ffffff;fill-opacity:1;fill-rule:evenodd;stroke:none;stroke-width:0.0706575"
       id="path16070" />
    <path
       d="m 58.117456,234.00752 c 0.41406,0.77652 0.74403,1.63784 1.021,2.55144 0.37025,-0.39992 0.9991,-0.49814 1.16515,-1.09307 0.2798,-0.99203 -0.53559,-2.34159 0,-3.0623 0.57939,0.49107 0.47199,1.66752 0.6564,2.55145 1.45484,-0.20774 0.74261,-2.9973 0.58293,-4.22815 -1.03089,1.20471 -2.31333,2.15717 -3.42548,3.28063"
       style="fill:#ffffff;fill-opacity:1;fill-rule:evenodd;stroke:none;stroke-width:0.0706575"
       id="path16072" />
    <path
       d="m 56.587016,233.71641 c 0.1392,-0.38014 -0.10386,-0.95105 -0.36459,-1.16656 -0.27062,0.24731 0.2155,0.86697 0.36459,1.16656"
       style="fill:#ffffff;fill-opacity:1;fill-rule:evenodd;stroke:none;stroke-width:0.0706575"
       id="path16074" />
    <path
       d="m 64.168566,234.22656 c 0.55608,-0.10034 1.03372,-0.66489 0.80196,-1.31211 -0.44161,0.26355 -0.76027,0.65005 -0.80196,1.31211"
       style="fill:#ffffff;fill-opacity:1;fill-rule:evenodd;stroke:none;stroke-width:0.0706575"
       id="path16076" />
    <path
       d="m 55.712276,234.30004 c 0.25366,-0.22822 -0.0198,-0.9991 -0.21833,-1.23933 -0.14909,0.36388 0.0523,0.94963 0.21833,1.23933"
       style="fill:#ffffff;fill-opacity:1;fill-rule:evenodd;stroke:none;stroke-width:0.0706575"
       id="path16078" />
    <path
       d="m 11.901808,233.78919 c 0.18159,0.13425 0.41264,0.22115 0.510147,0.43737 0.235996,-0.007 0.156154,-0.33139 0.510854,-0.21904 0.207027,0.20702 0.376605,0.44938 0.582218,0.65499 1.941668,-0.22045 3.657232,-0.66771 5.687221,-0.79984 -1.955799,-0.92067 -4.925533,-0.0855 -7.29044,-0.0735"
       style="fill:#ffffff;fill-opacity:1;fill-rule:evenodd;stroke:none;stroke-width:0.0706575"
       id="path16080" />
    <path
       d="m 54.035576,233.93403 c 0.029,0.4084 0.21339,0.66136 0.21763,1.09449 0.31866,0.0509 0.32573,-0.21127 0.58363,-0.21975 -0.0396,-0.44372 0.053,-1.02382 -0.21763,-1.23792 -0.10387,0.21268 -0.40063,0.23105 -0.58363,0.36318"
       style="fill:#ffffff;fill-opacity:1;fill-rule:evenodd;stroke:none;stroke-width:0.0706575"
       id="path16082" />
    <path
       d="m 62.636716,234.59115 c 0,0.26779 0,0.53417 0,0.80196 0.51933,-0.26355 1.30857,-1.01605 1.0217,-1.60392 -0.27909,0.32855 -0.67336,0.54265 -1.0217,0.80196"
       style="fill:#ffffff;fill-opacity:1;fill-rule:evenodd;stroke:none;stroke-width:0.0706575"
       id="path16084" />
    <path
       d="m 58.190236,237.50718 c 0.88463,-0.36318 -0.4303,-2.71042 -0.72848,-3.13578 0.10387,0.89594 0.45857,2.16283 0.72848,3.13578"
       style="fill:#ffffff;fill-opacity:1;fill-rule:evenodd;stroke:none;stroke-width:0.0706575"
       id="path16086" />
    <path
       d="m 53.088766,235.68422 c 0.18088,0.0106 0.22469,-0.11446 0.36389,-0.14485 -0.13637,-0.30382 -0.0262,-0.8493 -0.29253,-1.0217 -0.1943,0.36459 0.21834,0.86696 -0.0714,1.16655"
       style="fill:#ffffff;fill-opacity:1;fill-rule:evenodd;stroke:none;stroke-width:0.0706575"
       id="path16088" />
    <path
       d="m 54.691986,235.97533 c 0.64298,1.3001 1.13193,2.75423 1.16655,4.66551 0.68962,-0.2579 1.192,-0.70233 1.82297,-1.021 -0.008,-1.88797 -0.23459,-3.55619 -0.87686,-4.81107 -0.62179,0.47058 -1.34815,0.838 -2.11266,1.16656"
       style="fill:#ffffff;fill-opacity:1;fill-rule:evenodd;stroke:none;stroke-width:0.0706575"
       id="path16090" />
    <path
       d="m 52.358166,235.24685 c -0.27132,-0.0777 -0.20632,0.18159 -0.43596,0.14626 -0.0523,0.31725 0.12436,0.40982 0.0721,0.72848 0.36671,0.001 0.66064,-0.0692 0.80196,-0.29111 -0.32715,-0.0141 -0.42112,-0.25931 -0.43808,-0.58363"
       style="fill:#ffffff;fill-opacity:1;fill-rule:evenodd;stroke:none;stroke-width:0.0706575"
       id="path16092" />
    <path
       d="m 61.178346,236.85007 c 0.23882,-0.44444 0.96588,-0.78359 0.58363,-1.60322 -0.50944,0.26355 -0.9772,0.84436 -0.58363,1.60322"
       style="fill:#ffffff;fill-opacity:1;fill-rule:evenodd;stroke:none;stroke-width:0.0706575"
       id="path16094" />
    <path
       d="m 50.901206,235.97533 c -0.0883,0.0968 -0.0735,0.50237 0.14485,0.51015 0.15192,-0.0869 0.0537,-0.53205 -0.14485,-0.51015"
       style="fill:#ffffff;fill-opacity:1;fill-rule:evenodd;stroke:none;stroke-width:0.0706575"
       id="path16096" />
    <path
       d="m 51.046056,237.65344 c 0.19996,2.53096 -0.47058,4.58144 -1.01959,6.12177 1.09308,-0.63097 2.29637,-1.15384 3.42619,-1.75019 0.20985,-1.79399 -0.51015,-3.41982 -0.29253,-4.73758 0.56032,0.0473 0.62956,0.84082 0.72848,1.38559 0.17453,0.95388 0.16322,2.08793 0.29323,2.98811 0.26214,-0.19926 0.59564,-0.32715 0.87474,-0.50944 0.12012,-2.01657 -0.17664,-3.61413 -0.58363,-5.10359 -1.08742,0.58928 -2.2674,1.086 -3.42689,1.60533"
       style="fill:#ffffff;fill-opacity:1;fill-rule:evenodd;stroke:none;stroke-width:0.0706575"
       id="path16098" />
    <path
       d="m 64.095786,236.77729 c 0.84153,2.29213 0.73837,5.52966 1.23934,8.16518 0.42889,-2.95843 -0.55467,-6.0829 -0.51086,-8.89436 -0.18229,0.30382 -0.64581,0.32714 -0.72848,0.72918"
       style="fill:#ffffff;fill-opacity:1;fill-rule:evenodd;stroke:none;stroke-width:0.0706575"
       id="path16100" />
    <path
       d="m 59.283306,236.99633 c 0.0678,0.44302 0.11093,0.91078 0.21833,1.3114 0.5158,-0.0678 1.20047,-0.98567 0.80197,-1.9671 -0.27486,0.28192 -0.63239,0.48471 -1.0203,0.6557"
       style="fill:#ffffff;fill-opacity:1;fill-rule:evenodd;stroke:none;stroke-width:0.0706575"
       id="path16102" />
    <path
       d="m 50.026466,236.4127 c -0.0982,0 -0.19501,0 -0.2911,0 0.20914,0.236 -0.18089,0.4303 0,0.58363 0.0615,-0.1074 0.23458,-0.10599 0.36388,-0.14626 10e-4,-0.17099 -0.12577,-0.21409 -0.0728,-0.43737"
       style="fill:#ffffff;fill-opacity:1;fill-rule:evenodd;stroke:none;stroke-width:0.0706575"
       id="path16104" />
    <path
       d="m 63.438676,237.94314 c -0.0233,-0.19148 0.4084,0.0692 0.29111,-0.21833 -0.13213,-1.13123 -0.97578,0.0692 -1.3107,0.43808 0.956,1.19623 1.77986,3.17676 1.89433,5.32121 0.0608,1.12345 0.19077,1.90281 -0.43737,2.40518 0.0911,1.5898 -0.89806,1.9876 -1.38559,3.13437 0.20702,0.11588 0.42111,-0.21833 0.58363,-0.36459 0.58928,-0.52994 1.61523,-1.31211 1.75018,-2.18615 0.0869,-0.56667 -0.14343,-1.46261 -0.21904,-2.26033 -0.21126,-2.2243 -0.42394,-4.84216 -1.16655,-6.26944"
       style="fill:#ffffff;fill-opacity:1;fill-rule:evenodd;stroke:none;stroke-width:0.0706575"
       id="path16106" />
    <path
       d="m 58.117456,237.79829 c 0.15616,0.37943 0.15333,0.91643 0.14626,1.45696 0.88888,0.0636 0.51722,-1.35521 0.29111,-1.82155 -0.0996,0.16746 -0.36318,0.17099 -0.43737,0.36459"
       style="fill:#ffffff;fill-opacity:1;fill-rule:evenodd;stroke:none;stroke-width:0.0706575"
       id="path16108" />
    <path
       d="m 49.370766,238.01662 c 0.22611,2.25892 -0.33562,4.25429 -0.80196,6.0497 0.9567,0.28969 1.03089,-1.11356 1.23933,-1.82155 0.40063,-1.36652 0.6557,-2.78108 0.6557,-4.3737 -0.0487,0 -0.0982,0 -0.14626,0 -0.25012,0.11376 -0.55748,0.1717 -0.94681,0.14555"
       style="fill:#ffffff;fill-opacity:1;fill-rule:evenodd;stroke:none;stroke-width:0.0706575"
       id="path16110" />
    <path
       d="m 47.547806,238.60026 c 0.19148,1.70425 -0.0445,4.28749 0.0728,5.46606 0.53558,-0.0346 0.50237,-0.79914 0.58433,-1.16585 0.32927,-1.49865 0.62744,-3.07784 0.655,-4.73758 -0.0481,0 -0.0975,0 -0.14626,0 -0.36671,0.16675 -0.78218,0.28545 -1.16585,0.43737"
       style="fill:#ffffff;fill-opacity:1;fill-rule:evenodd;stroke:none;stroke-width:0.0706575"
       id="path16112" />
    <path
       d="m 61.178346,239.61984 c 0.83729,1.4725 1.45342,3.16475 1.6767,5.24985 0.22893,-0.13707 0.51862,-0.21126 0.72989,-0.366 0.12436,-2.66026 -0.49248,-4.23662 -1.60322,-5.90343 -0.22681,0.38084 -0.61189,0.60412 -0.80337,1.01958"
       style="fill:#ffffff;fill-opacity:1;fill-rule:evenodd;stroke:none;stroke-width:0.0706575"
       id="path16114" />
    <path
       d="m 46.454736,238.96414 c 0.0247,1.85759 0.13283,3.52722 -0.21975,5.10218 0.81892,0.14485 0.76381,-1.00758 0.80197,-1.60393 0.0763,-1.13829 -0.001,-2.65036 -0.0728,-3.57103 -0.0968,-0.18512 -0.32291,0.1074 -0.50944,0.0728"
       style="fill:#ffffff;fill-opacity:1;fill-rule:evenodd;stroke:none;stroke-width:0.0706575"
       id="path16116" />
    <path
       d="m 36.248256,240.86059 c 0.14626,0 0.29253,0 0.43737,0 0,-0.29252 0,-0.58363 0,-0.87615 -0.16957,0 -0.33986,0 -0.50944,0 -0.029,0.34622 0.13001,0.50237 0.0721,0.87615"
       style="fill:#ffffff;fill-opacity:1;fill-rule:evenodd;stroke:none;stroke-width:0.0706575"
       id="path16118" />
    <path
       d="m 60.667486,240.05721 c -0.0332,0.33421 -1.66822,1.23227 -1.67529,1.53186 -0.003,0.0883 0.68043,0.7094 0.80197,0.87332 0.77581,1.04927 1.35379,2.37692 1.6767,3.50038 0.62532,-0.10246 0.87191,-0.73979 0.72848,-1.75019 -0.17241,-1.21884 -1.28738,-3.54559 -1.53186,-4.15537"
       style="fill:#ffffff;fill-opacity:1;fill-rule:evenodd;stroke:none;stroke-width:0.0706575"
       id="path16120" />
    <path
       d="m 36.321036,241.37003 c -0.0594,0.35187 0.0926,0.49107 0.36459,0.51015 0.0622,-0.35188 -0.0911,-0.49107 -0.36459,-0.51015"
       style="fill:#ffffff;fill-opacity:1;fill-rule:evenodd;stroke:none;stroke-width:0.0706575"
       id="path16122" />
    <path
       d="m 58.408566,241.88018 c -0.16392,0.24871 -0.5052,0.32007 -0.72706,0.51085 0.49107,0.69668 1.02382,1.35521 1.38418,2.18614 0.38084,-0.17805 0.61825,-0.49672 0.87332,-0.80196 -0.48329,-0.65712 -0.8168,-1.46544 -1.53044,-1.89503"
       style="fill:#ffffff;fill-opacity:1;fill-rule:evenodd;stroke:none;stroke-width:0.0706575"
       id="path16124" />
    <path
       d="m 59.429566,245.08732 c 0.12577,0.31231 0.21833,0.65711 0.43737,0.87545 0.1399,-0.39639 0.56173,-0.50803 0.6557,-0.94823 -0.18724,-0.2254 -0.17664,-0.64863 -0.43737,-0.80196 -0.11446,0.39639 -0.54618,0.4734 -0.6557,0.87474"
       style="fill:#ffffff;fill-opacity:1;fill-rule:evenodd;stroke:none;stroke-width:0.0706575"
       id="path16126" />
    <path
       d="m 45.797616,245.52469 c 0.2678,0 0.53417,0 0.80197,0 -0.0481,-0.36389 0.0692,-0.56385 0.0735,-0.87474 -0.67125,-0.36247 -0.69598,0.50803 -0.87545,0.87474"
       style="fill:#ffffff;fill-opacity:1;fill-rule:evenodd;stroke:none;stroke-width:0.0706575"
       id="path16128" />
    <path
       d="m 47.256696,244.64995 c -0.0184,0.37166 -0.19784,0.57939 -0.29252,0.87474 0.81397,-0.0615 1.4075,-0.3434 1.96922,-0.655 -0.75533,0.12295 -0.97012,-0.29534 -1.6767,-0.21974"
       style="fill:#ffffff;fill-opacity:1;fill-rule:evenodd;stroke:none;stroke-width:0.0706575"
       id="path16130" />
    <path
       d="m 62.855046,247.41972 c 0.0926,-0.17523 0.29959,-0.23599 0.51085,-0.29111 0.0466,-0.61684 0.419,-1.66045 0.0728,-2.18614 -0.38791,0.58222 -0.94964,1.38136 -0.58363,2.47725"
       style="fill:#ffffff;fill-opacity:1;fill-rule:evenodd;stroke:none;stroke-width:0.0706575"
       id="path16132" />
    <path
       d="m 61.761976,247.05513 c 0.15898,0.32856 0.0495,0.92349 0.29111,1.16656 0.2042,-0.35471 0.20561,-1.3001 0.0735,-1.74878 -0.0431,0.27203 -0.33562,0.29676 -0.36459,0.58222"
       style="fill:#ffffff;fill-opacity:1;fill-rule:evenodd;stroke:none;stroke-width:0.0706575"
       id="path16134" />
    <path
       d="m 65.115376,249.16991 c 1.25347,3.77664 3.92502,6.13378 3.93562,11.15328 0.3646,-0.0735 0.65712,-0.21974 1.02171,-0.29111 -0.35329,-4.99336 -3.41841,-7.27418 -4.51996,-11.51787 -0.14909,0.21692 -0.34905,0.37943 -0.43737,0.6557"
       style="fill:#ffffff;fill-opacity:1;fill-rule:evenodd;stroke:none;stroke-width:0.0706575"
       id="path16136" />
    <path
       d="m 51.046056,248.95158 c 0.01,0.40416 0.15615,0.67054 0.14626,1.09307 0.30383,-0.0374 0.42677,-0.25507 0.72989,-0.29111 -0.0813,-0.30948 -0.0855,-0.69456 -0.0742,-1.09448 -0.33138,0.0332 -0.54123,0.18794 -0.80196,0.29252"
       style="fill:#ffffff;fill-opacity:1;fill-rule:evenodd;stroke:none;stroke-width:0.0706575"
       id="path16138" />
    <path
       d="m 48.859916,250.77313 c 0.70021,-0.077 1.24781,-0.30736 1.82155,-0.51015 0,-0.36459 0,-0.72918 0,-1.09307 -0.56667,-0.0247 -1.32695,0.36671 -2.04059,0.43737 0.0466,0.41405 0.2042,0.71859 0.21904,1.16585"
       style="fill:#ffffff;fill-opacity:1;fill-rule:evenodd;stroke:none;stroke-width:0.0706575"
       id="path16140" />
    <path
       d="m 46.162216,249.75354 c 0.11729,0.44302 0.21268,0.90512 0.29252,1.38418 0.67619,-0.10104 1.46967,-0.0841 2.03988,-0.29111 -0.14485,-0.38791 -0.0502,-1.01888 -0.36459,-1.23933 -0.53417,0.16958 -1.40891,0 -1.96781,0.14626"
       style="fill:#ffffff;fill-opacity:1;fill-rule:evenodd;stroke:none;stroke-width:0.0706575"
       id="path16142" />
    <path
       d="m 45.069136,249.75354 c 0.13496,0.35046 0.0495,0.92208 0.0735,1.38418 0.26708,0 0.53346,0 0.80125,0 10e-4,-0.51227 -0.1943,-0.82669 -0.14626,-1.38418 -0.24235,0 -0.48541,0 -0.72848,0"
       style="fill:#ffffff;fill-opacity:1;fill-rule:evenodd;stroke:none;stroke-width:0.0706575"
       id="path16144" />
    <path
       d="m 52.067056,250.33576 c -0.33491,0.006 -0.4734,0.20702 -0.72848,0.29111 -0.007,0.2261 0.0332,0.40416 0.14485,0.51085 0.15757,-0.15898 0.42677,-0.20561 0.65712,-0.29111 0.0346,-0.23034 -0.13143,-0.25861 -0.0735,-0.51085"
       style="fill:#ffffff;fill-opacity:1;fill-rule:evenodd;stroke:none;stroke-width:0.0706575"
       id="path16146" />
    <path
       d="m 63.365896,251.06424 c 0.34764,0.21126 0.42183,0.69739 0.72989,0.94822 0.009,-0.15969 0.1823,-0.15615 0.36389,-0.14626 -0.22186,-0.55608 -0.67054,-1.89998 -1.09378,-0.80196"
       style="fill:#ffffff;fill-opacity:1;fill-rule:evenodd;stroke:none;stroke-width:0.0706575"
       id="path16148" />
    <path
       d="m 50.681466,250.84661 c -0.48683,0.24236 -1.07329,0.38367 -1.6767,0.50874 0,0.19501 0,0.38932 0,0.58433 0.5165,-0.004 1.21601,-0.43101 1.82296,-0.58433 -0.012,-0.20562 0.0622,-0.49955 -0.14626,-0.50874"
       style="fill:#ffffff;fill-opacity:1;fill-rule:evenodd;stroke:none;stroke-width:0.0706575"
       id="path16150" />
    <path
       d="m 52.140546,251.35535 c -0.20562,0.13566 -0.37378,0.30806 -0.65712,0.366 0.0707,0.31867 0.12719,0.65146 0.14626,1.01959 0.41688,0.003 0.49178,-0.3335 0.87545,-0.36389 -0.0488,-0.41264 -0.0445,-0.88039 -0.36459,-1.0217"
       style="fill:#ffffff;fill-opacity:1;fill-rule:evenodd;stroke:none;stroke-width:0.0706575"
       id="path16152" />
    <path
       d="m 62.782976,251.42883 c 0.0763,0.18371 -0.59282,0.366 -0.58363,0.65711 0.003,0.077 0.903,0.94893 1.16655,1.31211 0.37237,0.51227 0.72707,1.10509 0.87474,1.60252 0.10599,0.35823 -0.0346,0.67053 0,1.021 0.16251,1.68376 0.80055,2.84396 0.65712,4.66551 -0.029,0.17523 0.33067,-0.041 0.21762,0.21833 -0.33774,0.4402 -0.24659,1.69719 -0.21762,2.26033 0.34057,-0.41264 1.01817,-0.44938 1.16584,-0.94822 0.10882,-0.36954 -0.048,-1.14818 -0.0735,-1.53044 -0.23953,-3.59081 -1.3976,-7.04597 -3.20714,-9.25825"
       style="fill:#ffffff;fill-opacity:1;fill-rule:evenodd;stroke:none;stroke-width:0.0706575"
       id="path16154" />
    <path
       d="m 46.599586,251.64787 c 0.0678,0.34693 0.10881,0.71788 0.21974,1.02029 0.64581,-0.13142 1.21531,-0.33986 1.82155,-0.50944 0,-0.19431 0,-0.38932 0,-0.58363 -0.61684,-0.19289 -1.25841,0.19007 -2.04129,0.0728"
       style="fill:#ffffff;fill-opacity:1;fill-rule:evenodd;stroke:none;stroke-width:0.0706575"
       id="path16156" />
    <path
       d="m 45.142626,251.64787 c 0.0537,0.43242 0.14909,0.82316 0.14626,1.31281 0.22469,0.094 0.69951,-0.10245 1.01959,-0.14626 -0.0205,-0.44019 -0.18371,-0.73837 -0.21833,-1.16655 -0.31584,0 -0.63168,0 -0.94752,0"
       style="fill:#ffffff;fill-opacity:1;fill-rule:evenodd;stroke:none;stroke-width:0.0706575"
       id="path16158" />
    <path
       d="m 50.827726,252.01246 c -0.51863,0.2579 -1.07329,0.48188 -1.6767,0.6557 0,0.4621 0,0.92279 0,1.38559 0.74685,-0.22539 1.3432,-0.602 1.96852,-0.94822 -0.16605,-0.29535 0.002,-0.92632 -0.29182,-1.09307"
       style="fill:#ffffff;fill-opacity:1;fill-rule:evenodd;stroke:none;stroke-width:0.0706575"
       id="path16160" />
    <path
       d="m 9.9339966,258.64649 c 0.05794,-2.20098 0.5320514,-4.37652 1.0923654,-5.83207 -0.746143,1.75513 -2.1819034,2.82206 -2.2589204,5.24844 0.264966,0.31867 0.574446,0.59282 1.166555,0.58363"
       style="fill:#ffffff;fill-opacity:1;fill-rule:evenodd;stroke:none;stroke-width:0.0706575"
       id="path16162" />
    <path
       d="m 48.568806,252.8872 c -0.53841,0.14273 -1.01535,0.34551 -1.60463,0.43808 0.0219,0.51297 0.21762,0.85142 0.21904,1.38418 0.61825,-0.0862 1.10579,-0.30383 1.60392,-0.50944 -0.036,-0.47482 0.1074,-1.12911 -0.21833,-1.31282"
       style="fill:#ffffff;fill-opacity:1;fill-rule:evenodd;stroke:none;stroke-width:0.0706575"
       id="path16164" />
    <path
       d="m 51.848016,253.61638 c 0.15828,0.3752 0.1505,0.91997 0.43879,1.16585 0.2155,-0.22186 0.60129,-0.27344 0.87332,-0.43737 -0.0989,-0.55466 -0.22751,-1.08318 -0.51014,-1.45766 -0.2254,0.28475 -0.66277,0.35753 -0.80197,0.72918"
       style="fill:#ffffff;fill-opacity:1;fill-rule:evenodd;stroke:none;stroke-width:0.0706575"
       id="path16166" />
    <path
       d="m 46.308476,253.47154 c -0.21551,0.12365 -0.52569,0.15262 -0.87474,0.14484 0.0219,0.56173 0.18088,0.98638 0.21904,1.53045 0.43878,-0.0212 0.75674,-0.16746 1.09307,-0.29111 -0.19148,-0.41547 -0.0466,-1.16938 -0.43737,-1.38418"
       style="fill:#ffffff;fill-opacity:1;fill-rule:evenodd;stroke:none;stroke-width:0.0706575"
       id="path16168" />
    <path
       d="m 47.402956,255.43793 c 0.008,0.47836 0.0551,0.91502 0.21763,1.24075 1.32906,-0.54124 2.72172,-1.02312 4.0091,-1.60534 -0.1293,-0.42748 -0.16534,-0.95246 -0.43737,-1.23933 -1.19764,0.75109 -2.33664,1.20612 -3.78936,1.60392"
       style="fill:#ffffff;fill-opacity:1;fill-rule:evenodd;stroke:none;stroke-width:0.0706575"
       id="path16170" />
    <path
       d="m 52.431656,255.5842 c 0.12294,0.16957 0.19077,0.39285 0.21833,0.6564 0.41122,-0.12506 0.68396,-0.38437 1.021,-0.58363 -0.1286,-0.26072 -0.13637,-0.64015 -0.3646,-0.80125 -0.1943,0.33915 -0.68043,0.38861 -0.87473,0.72848"
       style="fill:#ffffff;fill-opacity:1;fill-rule:evenodd;stroke:none;stroke-width:0.0706575"
       id="path16172" />
    <path
       d="m 45.797616,255.80323 c 0.17029,0.41406 0.0883,1.07824 0.3646,1.38418 0.24588,-0.14343 0.53841,-0.23882 0.87474,-0.2911 -0.0481,-0.48542 -0.003,-1.06552 -0.29111,-1.31211 -0.26214,0.12647 -0.56456,0.21409 -0.94823,0.21903"
       style="fill:#ffffff;fill-opacity:1;fill-rule:evenodd;stroke:none;stroke-width:0.0706575"
       id="path16174" />
    <path
       d="m 51.775946,255.80323 c -1.23085,0.71223 -2.74857,1.139 -4.15536,1.67671 -0.0325,0.3978 0.13001,0.59917 0.0735,1.02029 1.43364,-0.70233 3.18383,-1.09307 4.51784,-1.89503 -0.13778,-0.27486 -0.12789,-0.6981 -0.43596,-0.80197"
       style="fill:#ffffff;fill-opacity:1;fill-rule:evenodd;stroke:none;stroke-width:0.0706575"
       id="path16176" />
    <path
       d="m 70.947446,256.89631 c 0.38508,1.22025 0.83517,2.98245 0.43737,4.51996 1.25346,-0.15757 0.94681,-3.03333 0.58222,-4.22886 -0.30312,-0.0855 -0.71859,-0.44443 -1.01959,-0.2911"
       style="fill:#ffffff;fill-opacity:1;fill-rule:evenodd;stroke:none;stroke-width:0.0706575"
       id="path16178" />
    <path
       d="m 18.244025,259.08386 c -0.315839,0.68891 -0.765927,1.71415 -0.363886,2.47867 0.414759,-1.52903 1.223787,-2.66379 2.185436,-3.64452 -0.211973,-0.32361 -0.401335,-0.66842 -0.654995,-0.94822 -0.302414,0.64298 -0.807615,1.33401 -1.166555,2.11407"
       style="fill:#ffffff;fill-opacity:1;fill-rule:evenodd;stroke:none;stroke-width:0.0706575"
       id="path16180" />
    <path
       d="m 72.768996,257.40716 c 0.21268,0.73413 0.22116,1.67388 0.36601,2.47866 0.38791,-0.58151 1.02382,-1.54598 0.36388,-2.3324 -0.29252,0 -0.43737,-0.14626 -0.72989,-0.14626"
       style="fill:#ffffff;fill-opacity:1;fill-rule:evenodd;stroke:none;stroke-width:0.0706575"
       id="path16182" />
    <path
       d="m 46.234986,257.91801 c -0.0261,0.46352 0.13001,0.74473 0.0735,1.23722 0.36035,-0.077 0.56031,-0.31302 0.94822,-0.36389 0.0537,-0.44302 -0.11729,-0.65994 -0.0735,-1.09307 -0.41264,-0.0233 -0.56456,0.21409 -0.94823,0.21974"
       style="fill:#ffffff;fill-opacity:1;fill-rule:evenodd;stroke:none;stroke-width:0.0706575"
       id="path16184" />
    <path
       d="m 20.430166,258.35538 c -0.868379,0.97649 -1.698605,1.99254 -1.895032,3.64452 0.248714,0.0926 0.422531,0.2579 0.657114,0.36388 0.08267,-1.73817 0.881806,-2.76271 2.041298,-3.42618 -0.12577,-0.33562 -0.43879,-0.48612 -0.80338,-0.58222"
       style="fill:#ffffff;fill-opacity:1;fill-rule:evenodd;stroke:none;stroke-width:0.0706575"
       id="path16186" />
    <path
       d="m 64.168566,259.08386 c -0.35329,0.37661 -0.73696,0.72141 -1.31352,0.87474 0.19713,0.50662 -0.0926,1.50289 0.21904,1.89504 0.38013,-0.27769 0.88321,-0.4296 1.23933,-0.72848 -0.0841,-0.64511 0.17664,-1.63572 -0.14485,-2.0413"
       style="fill:#ffffff;fill-opacity:1;fill-rule:evenodd;stroke:none;stroke-width:0.0706575"
       id="path16188" />
    <path
       d="m 62.199346,260.32319 c -0.40982,0.0728 -0.93833,0.39569 -1.31211,0.0728 0.13354,0.64298 0.19289,1.36086 0.21904,2.11337 0.4628,-0.0473 0.78147,-0.23883 1.16655,-0.3646 -0.0332,-0.59917 0.0742,-1.33896 -0.0735,-1.82155"
       style="fill:#ffffff;fill-opacity:1;fill-rule:evenodd;stroke:none;stroke-width:0.0706575"
       id="path16190" />
    <path
       d="m 57.681506,262.21752 c 0,0.26779 0,0.53417 0,0.80196 0.28969,0.0247 0.40416,-0.1293 0.72706,-0.0728 0.0954,-0.26214 0.34905,-1.0846 0.0728,-1.23934 -0.19431,0.24307 -0.54901,0.32574 -0.79984,0.51015"
       style="fill:#ffffff;fill-opacity:1;fill-rule:evenodd;stroke:none;stroke-width:0.0706575"
       id="path16192" />
    <path
       d="m 63.001306,262.58211 c -0.0375,0.42395 0.0813,1.00475 -0.0721,1.31282 0.53417,-0.0487 0.91784,-0.25013 1.3114,-0.43808 0.0261,-0.46068 0.18371,-1.17432 0,-1.60321 -0.33845,0.31725 -0.75603,0.55748 -1.23933,0.72847"
       style="fill:#ffffff;fill-opacity:1;fill-rule:evenodd;stroke:none;stroke-width:0.0706575"
       id="path16194" />
    <path
       d="m 66.645816,263.45685 c 0.22399,-0.0438 0.37943,-0.15403 0.58363,-0.21903 0.01,-0.32574 -0.008,-0.62391 -0.14626,-0.80055 -0.19855,0.28687 -0.56031,0.40981 -0.43737,1.01958"
       style="fill:#ffffff;fill-opacity:1;fill-rule:evenodd;stroke:none;stroke-width:0.0706575"
       id="path16196" />
    <path
       d="m 62.126566,262.94671 c -0.29394,0.16675 -0.64581,0.27697 -1.02029,0.36388 0,0.3646 0,0.7306 0,1.09449 0.41546,-0.07 0.83375,-0.13779 1.16655,-0.29253 -0.0841,-0.35328 0.17523,-1.04997 -0.14626,-1.16584"
       style="fill:#ffffff;fill-opacity:1;fill-rule:evenodd;stroke:none;stroke-width:0.0706575"
       id="path16198" />
    <path
       d="m 60.012496,264.62341 c 0.54335,0.10316 0.38861,-0.87403 0.29111,-1.16656 -0.0735,0.41123 -0.24307,0.72778 -0.29111,1.16656"
       style="fill:#ffffff;fill-opacity:1;fill-rule:evenodd;stroke:none;stroke-width:0.0706575"
       id="path16200" />
    <path
       d="m 62.563936,264.98729 c 0.31584,-0.0975 0.66771,-0.15685 0.87474,-0.36388 -0.33774,0.0742 -0.74756,0.077 -0.87474,0.36388"
       style="fill:#ffffff;fill-opacity:1;fill-rule:evenodd;stroke:none;stroke-width:0.0706575"
       id="path16202" />
    <path
       d="m 61.106276,265.42537 c 0.28474,-0.25013 0.98001,-0.0883 1.09307,-0.51085 -0.32291,0.16534 -1.3856,-0.0262 -1.09307,0.51085"
       style="fill:#ffffff;fill-opacity:1;fill-rule:evenodd;stroke:none;stroke-width:0.0706575"
       id="path16204" />
    <path
       d="m 59.429566,265.78926 c 0.29111,0 0.43737,-0.14485 0.72919,-0.14485 -0.036,-0.23034 0.13213,-0.2579 0.0728,-0.51085 -0.62674,-0.14061 -0.5476,0.42394 -0.80197,0.6557"
       style="fill:#ffffff;fill-opacity:1;fill-rule:evenodd;stroke:none;stroke-width:0.0706575"
       id="path16206" />
    <path
       d="m 31.949456,270.52826 c 1.11215,0.90512 3.88051,0.64722 5.24632,0.14484 -1.82014,0.0721 -3.73707,-0.14908 -5.24632,-0.14484"
       style="fill:#ffffff;fill-opacity:1;fill-rule:evenodd;stroke:none;stroke-width:0.0706575"
       id="path16208" />
    <path
       d="m 59.794166,219.93961 c 0.0827,0.73767 -0.21834,1.72475 -0.58222,2.25892 0.6126,-0.23741 0.40981,-1.2902 1.16443,-1.38418 0.10528,0.0396 0.17947,0.11305 0.21975,0.21763 -0.0184,0.59069 -0.4515,0.76451 -0.58363,1.23933 0.72989,0.41264 1.50006,0.7843 2.04059,1.38559 0.4197,-0.67619 1.02524,-1.16161 1.38559,-1.89574 -0.26355,-0.44019 -0.57021,-0.83941 -0.80196,-1.31281 -0.98073,-0.0869 -1.8915,-0.6331 -2.84255,-0.50874"
       style="fill:#ffffff;fill-opacity:1;fill-rule:evenodd;stroke:none;stroke-width:0.0706575"
       id="path16210" />
    <path
       d="m 11.756961,224.74997 c 0.0219,0.47058 0.105986,0.99062 0.291108,1.45767 0.149088,0.37236 -0.04027,-0.27627 -0.07348,-0.50944 -0.08832,-0.64157 -0.293936,-2.51965 -0.217625,-0.94823"
       style="fill:#ffffff;fill-opacity:1;fill-rule:evenodd;stroke:none;stroke-width:0.0706575"
       id="path16212" />
    <path
       d="m 8.0389626,230.3623 c 0.370952,0.40911 0.69527,1.24781 1.239333,1.23933 -0.484711,-0.29393 -0.709401,-1.23509 -1.239333,-1.23933"
       style="fill:#ffffff;fill-opacity:1;fill-rule:evenodd;stroke:none;stroke-width:0.0706575"
       id="path16214" />
    <path
       d="m 37.342746,260.6143 c -0.96094,-2.45393 -0.35894,-7.27419 0.65641,-9.4038 0.15615,1.40679 -0.49107,3.02908 -0.58363,4.81107 -0.077,1.50147 0.10739,3.06088 -0.0728,4.59273 z m -1.45908,-4.95733 c -0.30665,1.82438 -0.32573,3.63957 -0.43596,5.46819 -0.0219,0.37236 0.0148,0.74473 -0.29252,1.09236 0.11729,-0.785 -0.23458,-1.09378 -0.29111,-1.96781 -0.26214,-3.98508 1.35097,-7.41056 1.45696,-11.29813 -0.0191,-0.11871 0.0692,-0.12719 0.0735,-0.21904 0.0855,-0.0127 0.12931,0.0162 0.14627,0.0728 0.62531,2.22571 -0.24872,4.43234 -0.65712,6.85165 z m -1.45696,-11.95524 c -0.5483,-0.0247 -0.51085,-0.77936 -0.58292,-1.16585 -0.26921,-1.45625 -0.51863,-3.10611 -0.80126,-4.51926 -0.0212,-0.11799 0.0685,-0.12577 0.0728,-0.21833 0.0721,0 0.14485,0 0.21833,0 0.56668,1.67388 1.33684,3.90383 1.09307,5.90344 z m -0.87544,-0.43737 c -0.92138,-1.40891 -0.96165,-3.70104 -1.53044,-5.46607 -0.0523,-0.19854 0.14484,-0.14626 0.14626,-0.29111 0.0954,0.0247 0.11446,0.12789 0.21833,0.14626 0.35046,1.82014 1.38135,3.7067 1.16585,5.61092 z m -0.43596,5.46818 c 0.0841,-0.0127 0.1286,0.0162 0.14485,0.0728 0.0332,1.64208 -0.75038,3.07996 -1.23933,4.59273 -0.23883,0.73837 -0.52994,1.52055 -0.655,2.33241 -0.12718,0.81256 0.0134,1.75796 -0.51085,2.47866 -0.58081,-3.92502 1.45342,-6.45739 2.26033,-9.47658 z m 1.3114,0.80126 c -0.0198,-0.1173 0.0685,-0.12507 0.0728,-0.21763 0.11871,-0.0212 0.12577,0.0671 0.21833,0.0728 -0.52852,3.09974 -1.93813,5.31768 -2.11336,8.74669 -0.0537,1.04361 0,1.93319 -0.21904,2.91603 -1.19906,-4.39701 0.80196,-8.38351 2.04129,-11.51787 z m -18.150492,-5.394 c 0.240235,-0.22822 0.988498,-0.36318 1.093071,0.0728 -0.04663,0.48824 -0.406987,0.66135 -0.728479,0.87474 -0.193601,-0.24236 -0.264965,-0.60836 -0.364592,-0.94752 z m 21.212792,-0.72918 c 1.23085,-0.28263 3.96883,-0.36106 4.37299,0.36459 -1.06551,0.83376 -3.72435,0.35611 -4.95733,0 0.0516,-0.25013 0.33562,-0.30807 0.58434,-0.36459 z m 24.12812,9.25754 c -0.30948,0.61543 -0.86838,0.98002 -1.16726,1.60463 0.35752,0.55113 2.00738,2.15718 0.94751,2.76978 -0.19713,-0.73413 -1.04007,-1.3001 -1.38488,-2.11408 -0.47199,0.28122 -0.72354,0.78218 -0.94681,1.31211 -3.61979,3.38026 -8.76083,5.32617 -15.08962,5.90414 -0.28263,0.0261 -0.84718,0.38509 -1.021,-0.0721 3.39651,-1.38912 8.59619,-2.408 11.59066,-4.30162 0.40698,-0.25649 1.55022,-1.1065 1.6767,-1.53045 0.14909,-0.50096 -0.0636,-0.97366 -0.0728,-1.38488 -0.64863,0.42041 -1.73181,1.03866 -2.11407,1.96781 -0.10811,-0.0141 -0.0664,-0.17523 -0.0735,-0.29111 -1.83851,1.25134 -3.8254,2.39105 -6.0497,3.20714 -0.79631,0.29252 -1.623,0.38226 -2.47866,0.65641 -0.60624,0.1936 -1.14677,0.4833 -1.82155,0.6557 -1.39407,0.35612 -2.99376,0.74544 -4.66622,0.21833 2.19179,-0.43242 4.8153,-0.43242 6.19666,-1.6767 0.23458,-0.10528 0.54053,-0.1399 0.80125,-0.21833 -0.0148,-0.47058 -0.1293,-0.84153 -0.14626,-1.31211 -0.5052,0.10316 -1.53609,0.20137 -1.67529,-0.29181 0.42819,-0.20279 1.02807,-0.23459 1.45767,-0.43737 -0.0537,-0.52994 -0.28616,-0.8804 -0.29111,-1.45696 -0.16039,-0.18089 -0.66418,-0.0191 -0.65712,-0.36601 -0.0692,-0.33633 0.47482,-0.0593 0.43737,-0.36388 -0.0148,-0.54407 -0.19148,-0.92491 -0.21903,-1.45767 -0.0721,-0.21904 -0.52075,-0.0608 -0.50944,-0.36388 0.0162,-0.25013 0.4734,-0.0622 0.43737,-0.3646 -0.18795,-0.51792 -0.0276,-1.38276 -0.51086,-1.60533 0.49178,-0.11447 0.22681,-0.9878 0.29111,-1.52903 -0.44655,-0.0396 -1.00334,0.0304 -1.09236,-0.3653 0.2261,-0.25932 0.72,-0.25013 1.09236,-0.36459 0.1399,-0.29677 -0.0565,-0.92986 0.29182,-1.01959 0.23458,0.17805 0.19148,0.6345 0.21903,1.01959 0.86273,-0.18371 2.12538,0.0346 2.98952,-0.14485 0.17241,-0.0636 -0.24447,-0.52428 0,-0.65712 0.35046,-0.009 0.11023,0.57021 0.43596,0.58434 0.78359,-0.0198 1.34673,-0.25861 2.042,-0.36459 0.16322,-0.1392 -0.16534,-0.67196 0.0735,-0.87474 0.17099,0.19148 0.14767,0.57939 0.36388,0.72848 1.05916,-0.30807 2.18473,-1.30575 3.3527,-1.01959 -0.73272,0.28687 -1.26194,0.77794 -2.03988,1.01959 0.0113,0.40133 0.0332,0.79207 0.14485,1.09307 0.40557,-0.2254 0.70657,-0.55608 1.3121,-0.58222 -0.14979,0.7518 -1.58414,0.73554 -1.09377,1.6767 0.50096,-0.0848 1.02665,-0.52852 1.38559,-0.51085 -0.35611,0.42112 -0.89452,0.66065 -1.23933,1.09307 0.0233,0.34057 0.15544,0.57374 0.21762,0.87474 0.21551,-0.0565 0.33845,-0.36035 0.51086,-0.0728 0.0403,0.35541 -0.34905,0.28263 -0.3646,0.58363 0.16746,0.51298 0.31655,1.04432 0.51086,1.53044 0.0579,0.18442 0.25366,-0.20561 0.36459,0 -0.34551,0.34199 -0.14555,0.87757 0,1.31211 0.82387,-0.27061 1.27042,-0.91784 2.11407,-1.16584 -0.26355,-1.00051 -0.49036,-1.91836 -0.87544,-2.77119 -0.37096,-0.82528 -1.09025,-1.5693 -1.021,-2.55003 0.5589,0.75745 1.00616,1.69013 1.45907,2.62281 0.63168,1.30857 1.09095,2.82418 0.94752,4.51996 1.39831,-1.32907 2.65248,-3.01849 3.86284,-4.44648 0.41264,-0.48612 0.95812,-1.02807 1.0203,-1.6767 -0.51227,0.47482 -0.95246,1.11921 -1.45767,1.6767 -0.47057,0.52145 -0.9673,1.35238 -1.82155,1.23933 0.96307,-1.37075 2.1487,-2.51611 3.13366,-3.86284 0.0516,-0.48825 -0.0742,-0.80055 -0.0728,-1.24075 -1.25064,1.08318 -2.06603,2.98811 -3.93563,3.20856 0.30454,-0.6981 1.27891,-1.18281 1.96782,-1.96781 0.63591,-0.72566 2.10983,-2.16919 1.38559,-3.13366 -0.44868,0.80408 -1.23509,1.31917 -1.96781,1.82155 -0.43384,0.29676 -0.96518,0.85283 -1.45908,0.58222 0.50662,-0.9023 1.53044,-1.28738 2.18614,-2.0413 -0.22893,-0.15686 -0.42253,-0.3547 -0.50944,-0.6557 -1.01676,0.61048 -1.68659,1.57072 -3.06088,1.82367 0.85284,-0.82387 2.0095,-1.34461 2.697,-2.33382 -0.50662,-0.75674 -0.79419,-1.73323 -1.60393,-2.18614 -1.36086,0.89947 -3.0955,1.70284 -4.95733,2.40518 -1.79258,0.67478 -3.58798,1.75019 -5.46747,1.96852 -1.64208,0.19007 -3.47211,-0.29323 -4.6641,-0.43808 -1.77633,-0.2148 -3.54701,-0.48824 -5.17708,-0.80125 -0.35046,-0.0678 -0.80126,0.12082 -1.01959,-0.29182 1.30293,-0.99486 3.37814,-0.36106 5.24844,-0.21904 1.50925,0.11447 2.86728,0.11871 4.22815,0.14626 0.13778,-0.24871 0.30241,-0.785 0.21833,-1.021 -1.70709,-0.007 -3.43678,-0.0346 -4.95592,0.14626 0.94399,-0.97436 3.27498,-0.56455 5.10218,-0.65711 0.38649,-1.36228 0.38791,-3.11034 0.36388,-4.88243 -0.5059,0.0714 -1.15242,0.1611 -1.45837,-0.14627 -3.53146,0.44727 -7.36533,-0.003 -9.91395,-1.021 0.0798,0.62462 0.22752,1.18352 0.3653,1.74948 0.21833,0 0.43596,0 0.6557,0 0.11447,-0.484 -0.32714,-1.13688 0.14626,-1.31211 0.45433,0.15262 0.22611,0.9878 0.43737,1.3856 0.37943,0.14202 0.72071,-0.0636 1.01959,0.0728 0.1399,0.25013 0.0318,0.74544 0.14697,1.01959 1.18916,0.12295 2.7295,-0.10598 3.42618,0.51086 -0.85284,0.47057 -2.27023,0.17523 -3.42618,0.14626 0,0.1936 0,0.38791 0,0.58221 1.38912,0.51792 3.74908,0.11094 5.10288,0.29111 -1.13829,0.80055 -3.59081,0.65429 -5.10288,0.29323 -0.16039,0.15545 -0.11376,0.51863 -0.43808,0.50874 -0.2042,-0.20844 -0.13071,-0.69245 -0.36388,-0.87333 -0.29253,0.14485 -0.0516,0.82387 -0.51086,0.80055 -0.5808,-1.1496 -0.40699,-2.01233 -0.43737,-3.20714 -0.22751,-0.0141 -0.53558,0.0495 -0.6557,-0.0721 0.0304,1.09308 0.67054,2.63977 0.14485,3.57174 -0.68679,-1.4506 -0.52993,-3.74697 -0.87333,-5.54096 -1.03937,-0.50803 -1.83003,-0.71929 -3.13436,-0.80055 -1.69861,-0.1074 -3.5244,-0.484 -5.24774,-0.94822 -1.70991,-0.45928 -3.44031,-1.07612 -5.0301,-1.16585 -2.274467,-0.13001 -3.919374,0.32714 -5.97692,0.29111 0.568086,0.98567 1.223788,1.88514 1.530441,3.13436 1.346732,0.6663 3.811269,0.72566 5.758589,0.87474 2.59737,0.19996 4.70861,1.67671 6.92372,2.0413 -0.15756,-0.56173 -0.64298,-1.43152 -0.72847,-2.25963 -0.0579,-0.56526 -0.21975,-1.54104 0.43737,-1.6767 -0.13849,1.81519 0.30029,3.05311 0.94751,4.08259 0.36601,0.0466 0.68891,0.13637 1.02171,0.21762 -0.28051,-0.90794 -0.99768,-2.11407 -1.09448,-3.27992 -0.0318,-0.38508 -0.0982,-1.10861 0.2911,-1.38418 0.18513,1.95227 0.90018,3.37673 1.53186,4.88385 0.25154,0.13637 0.56173,0.2148 0.80196,0.36389 -0.58222,-1.31635 -1.49229,-3.0729 -1.02029,-4.95663 0.41264,0.2897 0.16039,0.60412 0.21833,0.94681 0.24871,1.47392 1.00616,2.74575 1.16585,4.22815 0.11376,0.10457 0.25295,0.18371 0.29181,0.36459 -0.80055,0.2897 -1.68235,0.1505 -2.55215,0 -0.0396,0.10599 0.0855,0.3766 -0.0714,0.36389 -0.24871,-0.0926 -0.27768,-0.40416 -0.58434,-0.43596 -3.31454,-0.36601 -5.59395,-2.34018 -9.0385,-2.11407 0.5059,1.83639 -0.722123,3.67913 -1.457668,5.46606 -0.318665,0.77017 -0.536997,1.53044 -0.803375,2.26033 -0.423239,1.16656 -0.691031,2.26599 -1.384181,2.84326 0.760275,-3.90665 2.791678,-6.54006 3.498254,-10.49688 -1.459785,-0.07 -2.5253,-0.53487 -3.935624,-0.6564 -0.32997,0.49531 -0.586457,1.06551 -0.728478,1.74948 0.812561,-0.37661 2.003846,-0.94116 3.060882,-0.43737 -1.071167,0.97012 -2.507634,1.57354 -3.498252,2.62351 -1.133346,3.55054 -2.20946,7.89809 -2.478665,12.24777 -0.07702,1.26265 0.185123,2.41507 0.582218,3.42547 -0.01484,-0.28333 0.03038,-0.50378 0.364592,-0.43737 0.214093,1.24569 1.359451,1.9452 2.480078,2.04059 -0.645102,-0.55042 -1.71839,-1.04856 -1.676702,-2.04059 1.021001,0.33916 1.456958,1.26407 2.405181,1.67671 0.065,-2.18049 1.540333,-3.22411 1.894327,-4.88456 -0.76946,-0.49672 -1.358743,-1.20188 -2.114072,-1.74948 -0.761687,-0.55183 -1.736054,-0.84577 -2.331697,-1.60392 1.937429,0.0806 3.223395,0.80903 4.519253,1.53185 0.3116,-3.91937 2.824889,-6.38814 3.571739,-9.7691 0.0608,-0.27486 -0.15474,-0.6981 0.21904,-0.87474 0.24164,0.30736 0.17805,0.7631 0.14484,1.09448 -0.23175,2.28931 -2.0533,4.86548 -2.76977,7.14277 -0.263553,0.838 -0.709401,2.14869 -0.583631,2.76977 0.05794,0.27769 0.462811,0.57374 0.657111,0.87474 0.35612,0.55113 0.60554,1.41174 1.01959,1.31282 -0.27062,-3.75827 0.71647,-6.74285 1.82296,-9.33032 0.26638,-0.62391 0.4084,-1.5255 1.09308,-1.67529 -1.20613,3.45798 -2.3635,6.96471 -2.55145,11.44298 0.80055,0.82528 1.96075,0.92208 2.98882,1.38559 0.98567,0.44444 1.91552,1.08601 2.91603,1.53044 2.05613,0.9136 4.16385,1.73606 6.19666,2.69629 -1.37358,-5.59042 1.36369,-10.42904 1.74807,-15.59834 -0.56667,0.0692 -1.1602,0.10739 -1.60181,0 -2.20663,-0.54124 -3.74696,-1.94026 -5.61373,-3.0623 -1.88373,-1.13193 -3.85366,-1.87384 -6.05041,-2.62351 -0.60977,4.10308 -1.9883,7.43811 -3.79077,10.35061 1.370049,-3.29476 2.55568,-6.77464 3.49967,-10.49687 -0.38226,-0.0799 -0.78501,-0.13779 -0.87474,-0.51086 1.55375,-0.18865 2.83265,0.6656 4.08188,1.16656 1.23933,0.49813 2.52106,0.95246 3.718,1.6767 1.03654,0.62673 2.08651,1.47391 3.3534,2.04271 0.52145,0.23317 1.14253,0.43313 1.96781,0.72706 0.42536,0.15192 1.7841,0.59494 1.89504,0.80338 0.0134,0.0233 -0.20986,0.0495 -0.14627,0 -0.21974,0.16958 0.029,1.33401 0,1.67529 -0.23458,2.86304 -1.62865,5.74092 -1.82225,9.18547 -0.0869,1.54952 -0.0601,3.3421 -0.14626,4.81036 0.75815,0.19784 1.53892,0.65147 2.40588,0.87545 0.89806,0.23034 1.95227,0.14343 2.62493,0.72848 -0.22257,0.19996 -0.29393,-0.19219 -0.6557,-0.0735 -2.5366,0.53135 -4.4924,-0.13071 -6.34292,-0.87473 -1.17292,-0.47058 -2.40801,-0.83942 -3.49826,-1.31141 -2.32392,-1.00545 -4.38429,-2.28082 -6.56054,-3.06159 -1.14536,0.72566 -2.172015,1.57001 -2.041299,3.57103 0.299589,0.30666 0.644399,0.57162 1.020299,0.80197 0.1406,-1.61877 0.16675,-3.59082 1.53185,-4.00911 -0.30383,1.17998 -0.92773,2.03847 -0.87545,3.57174 2.8694,0.62885 4.95027,2.51258 7.36251,3.49966 0.95388,0.39074 1.78622,0.48047 2.98952,0.6557 1.14677,0.16817 2.22289,0.66206 3.56962,0.72989 1.60816,0.0799 2.57688,-0.49813 4.01052,-0.65711 1.12345,-0.12436 2.30767,-0.37237 3.49825,-0.36389 0.3441,0.002 0.64369,0.0989 0.94822,0.0728 2.35996,-0.19996 4.3525,-1.58697 6.34151,-2.76977 2.16071,-1.28597 4.41186,-1.65763 6.7803,-2.40518 0.10457,-0.21127 0.0742,-0.55749 0.36388,-0.58363 0.16817,0.0495 0.10528,0.33067 0.29111,0.36388 0.45715,-0.1505 0.83659,-0.37943 1.23933,-0.58363 0.35612,0.301 0.0247,1.28738 0.3646,1.60393 0.76592,-10e-4 0.17099,-1.03655 0.72847,-1.0203 0.42254,0.0127 0.18795,0.66277 0.3646,0.80196 0.20844,-2.29636 -0.65146,-3.91513 -1.0203,-5.3947 0.73837,0.69739 1.12346,1.74454 1.38418,2.91604 0.58363,-0.0728 0.93692,-0.37519 1.3856,-0.58222 -0.0106,-0.82952 -0.35612,-2.05472 0,-2.76977 0.48753,0.53276 0.44443,1.59544 0.58363,2.47725 0.45715,-0.17382 0.87403,-0.38932 1.45766,-0.43737 -0.20844,-2.70618 -1.0323,-4.79835 -2.62351,-6.12318"
       style="fill:#ffffff;fill-opacity:1;fill-rule:evenodd;stroke:none;stroke-width:0.0706575"
       id="path16216" />
    <path
       d="m 64.313416,250.11743 c 0.26002,0.39638 0.47764,0.83375 0.65711,1.3114 0.16817,-0.1074 0.31302,0.0247 0.3646,-0.0735 -0.32291,-0.47977 -0.46422,-1.13971 -0.7299,-1.67529 -0.0459,0.19784 -0.30524,0.18088 -0.29181,0.43737"
       style="fill:#ffffff;fill-opacity:1;fill-rule:evenodd;stroke:none;stroke-width:0.0706575"
       id="path16218" />
    <path
       d="m 67.812376,260.90541 c 0.36388,-0.001 0.50449,-0.22469 0.72989,-0.36459 0.0318,-3.82257 -1.50006,-6.47081 -3.20714,-8.30862 0.62108,2.83549 2.30555,5.15306 2.47725,8.67321"
       style="fill:#ffffff;fill-opacity:1;fill-rule:evenodd;stroke:none;stroke-width:0.0706575"
       id="path16220" />
    <path
       d="m 65.406486,255.00057 c 0.70234,1.94661 1.14183,4.15748 1.16656,6.77958 0.78359,-0.11164 0.51862,-1.08318 0.43737,-1.60322 -0.29677,-1.93389 -1.03372,-3.74555 -1.60393,-5.17636"
       style="fill:#ffffff;fill-opacity:1;fill-rule:evenodd;stroke:none;stroke-width:0.0706575"
       id="path16222" />
    <path
       d="m 12.703064,259.15523 c -0.220451,-0.63027 -0.185829,-2.77331 -0.291109,-4.0084 -0.292522,1.28172 -0.328557,3.08843 0.291109,4.0084"
       style="fill:#ffffff;fill-opacity:1;fill-rule:evenodd;stroke:none;stroke-width:0.0706575"
       id="path16224" />
    <path
       d="m 68.613626,263.01948 c 0.47906,-0.64015 1.26265,-1.36086 1.31282,-2.18685 -0.25719,0.15686 -0.56597,0.26073 -0.87545,0.36389 0.16746,0.87333 -0.41334,1.38277 -0.43737,1.82296"
       style="fill:#ffffff;fill-opacity:1;fill-rule:evenodd;stroke:none;stroke-width:0.0706575"
       id="path16226" />
    <path
       d="m 67.083186,263.89493 c -0.24023,-0.14555 0.18089,-0.31089 0,-0.36459 -0.11022,0.13354 -0.31442,0.17099 -0.43737,0.29111 0.0495,0.44019 -0.24518,0.91784 -0.14485,1.16584 1.18564,-0.7631 2.17343,-1.47744 2.0413,-3.42476 -1.23085,0.0318 -0.31372,2.21228 -1.45908,2.3324"
       style="fill:#ffffff;fill-opacity:1;fill-rule:evenodd;stroke:none;stroke-width:0.0706575"
       id="path16228" />
    <path
       d="m 57.971196,266.22663 c 0.13496,-0.25366 0.60836,-0.16817 0.87474,-0.29111 0.0593,-0.42748 0.21409,-0.81398 -0.0714,-1.021 0.40133,-0.14202 0.76593,-1.06552 0.58222,-1.31141 -0.63663,0.12295 -0.5589,1.32625 -1.31141,1.09308 0.0537,-0.33351 0.23459,-0.54195 0.21833,-0.94823 -0.64015,-0.10457 -0.63733,0.43243 -0.87474,0.72919 -0.27344,0.006 -0.0184,-0.51651 -0.2911,-0.50944 -2.16424,0.65429 -4.17939,1.45837 -6.19667,2.25892 0.35753,0.0664 1.32625,-0.23317 2.18756,-0.29111 0.57798,-0.0389 1.33967,-0.14485 1.67529,0.21833 -1.57072,-0.0551 -3.89747,0.69527 -5.83066,0.51015 2.25327,-1.65692 5.1905,-2.6327 8.23725,-3.49826 0,-0.24376 0,-0.48683 0,-0.72847 -1.30009,0.58221 -2.54861,0.85707 -3.79218,1.23792 -1.19129,0.36671 -2.23137,1.07752 -3.352,1.75018 -2.06885,1.24145 -4.45354,2.83831 -7.43599,2.76907 -0.36954,-0.008 -0.82669,-0.22611 -1.23933,-0.21763 -1.54952,0.0304 -2.84538,1.00475 -4.30022,1.16585 -2.26316,0.25154 -3.67631,-0.39709 -5.32121,-0.65499 -0.63168,-0.10104 -1.32907,-0.053 -1.82297,-0.21975 -0.30877,-0.10457 -0.50944,-0.37236 -0.80196,-0.51085 -2.53095,-1.19341 -4.96086,-2.86728 -7.50736,-4.15396 0,0.33987 0,0.68044 0,1.0203 1.45343,0.46775 2.73374,1.4944 3.86285,2.04059 -0.0714,-0.0579 -0.27698,-0.34199 -0.14485,-0.36389 0.79066,1.13829 2.58889,1.73182 3.86285,2.47867 0.36953,0.21621 0.69244,0.59705 1.021,0.72847 1.77915,0.71647 4.48816,0.32856 6.85165,0.51086 0.44585,0.0339 1.03796,0.29393 1.45767,0.29111 0.88039,-0.006 1.49582,-0.70516 2.11407,-0.94681 0.49672,-0.19502 1.01605,-0.28829 1.60392,-0.43737 3.44032,-0.87828 7.0707,-2.37551 11.00703,-2.33382 0.20985,0.01 0.12647,0.31019 0.36388,0.29111 2.16424,0 4.18858,-0.13496 6.12318,-0.36318 -0.029,-0.29676 0.31089,-0.22469 0.36459,-0.43737 -0.77935,0.0155 -1.54951,0.71929 -2.11407,0.14485"
       style="fill:#ffffff;fill-opacity:1;fill-rule:evenodd;stroke:none;stroke-width:0.0706575"
       id="path16230" />
    <path
       d="m 65.261636,263.89493 c 0.22893,-0.20703 0.82811,-0.0473 0.80196,-0.51085 -0.301,0.0897 -0.7744,0.39215 -0.80196,0.51085"
       style="fill:#ffffff;fill-opacity:1;fill-rule:evenodd;stroke:none;stroke-width:0.0706575"
       id="path16232" />
    <path
       d="m 19.774466,263.60311 c 0.230343,0.0636 0.5801,0.38791 0.72848,0.29182 -0.17735,-0.11658 -0.568088,-0.39921 -0.72848,-0.29182"
       style="fill:#ffffff;fill-opacity:1;fill-rule:evenodd;stroke:none;stroke-width:0.0706575"
       id="path16234" />
    <path
       d="m 63.876046,265.42537 c 0.18936,-0.15191 0.61048,-0.46563 0.72918,-0.0735 -0.26284,0.17523 -0.65287,0.22186 -0.80196,0.51085 0.84012,-0.0834 1.49723,-0.34905 2.11407,-0.6557 0.003,-0.36177 0.0869,-0.64298 0.14626,-0.94822 -0.86696,0.32431 -1.55517,0.82528 -2.47866,1.09307 -0.27344,0.24447 0.0141,0.0466 0.29111,0.0735"
       style="fill:#ffffff;fill-opacity:1;fill-rule:evenodd;stroke:none;stroke-width:0.0706575"
       id="path16236" />
    <path
       d="m 47.547806,268.04959 c 0.22186,-0.0947 0.58504,-0.048 0.72848,-0.21904 -0.19996,0.048 -1.03655,0.13778 -0.72848,0.21904"
       style="fill:#ffffff;fill-opacity:1;fill-rule:evenodd;stroke:none;stroke-width:0.0706575"
       id="path16238" />
  </g>
</svg>
