<?xml version="1.0" encoding="UTF-8" standalone="no"?>
<!-- Created with Inkscape (http://www.inkscape.org/) -->

<svg
   width="32.283569mm"
   height="73.833954mm"
   viewBox="0 0 32.283569 73.833954"
   version="1.1"
   id="svg21595"
   xmlns:inkscape="http://www.inkscape.org/namespaces/inkscape"
   xmlns:sodipodi="http://sodipodi.sourceforge.net/DTD/sodipodi-0.dtd"
   xmlns="http://www.w3.org/2000/svg"
   xmlns:svg="http://www.w3.org/2000/svg">
  <sodipodi:namedview
     id="namedview21597"
     pagecolor="#505050"
     bordercolor="#eeeeee"
     borderopacity="1"
     inkscape:showpageshadow="0"
     inkscape:pageopacity="0"
     inkscape:pagecheckerboard="0"
     inkscape:deskcolor="#505050"
     inkscape:document-units="mm"
     showgrid="false"
     inkscape:zoom="0.51669473"
     inkscape:cx="396.75265"
     inkscape:cy="562.22753"
     inkscape:window-width="1370"
     inkscape:window-height="746"
     inkscape:window-x="70"
     inkscape:window-y="27"
     inkscape:window-maximized="1"
     inkscape:current-layer="layer1" />
  <defs
     id="defs21592" />
  <g
     inkscape:label="Calque 1"
     inkscape:groupmode="layer"
     id="layer1"
     transform="translate(-165.18056,-120.55682)">
    <path
       d="m 195.41084,184.27899 c -0.64439,-0.55043 -1.76643,-0.57233 -2.13103,-1.57284 3.23612,-4.51007 0.96731,-12.50426 -1.20471,-19.2789 -0.63167,-1.97346 -1.76502,-3.91654 -2.68003,-5.89424 -0.89241,-1.93178 -1.90281,-3.86426 -2.68146,-5.89425 -0.80337,-2.10277 -1.4944,-4.31364 -2.34582,-6.43337 -1.12063,-2.79309 -2.17202,-5.37421 -2.91039,-8.52624 0.47341,-1.29444 0.79278,-3.39085 -0.2155,-4.8577 0.17382,-1.13405 0.87898,-2.9768 0.60977,-4.28467 -0.1611,-0.78288 -0.94257,-1.28596 -0.71081,-2.05754 -0.3116,-0.59918 -1.04856,-0.75392 -1.70567,-1.06128 -0.94257,-0.44161 -1.7728,-1.06975 -3.19726,-0.55607 -0.61118,-0.95105 -1.4195,-1.58697 -2.60231,-1.61594 0.12153,-2.11337 -2.37621,-2.13103 -2.68852,-0.67761 0.11164,0.78642 0.40487,1.28456 0.77088,1.66116 -0.65924,0.62815 -1.17151,1.34391 -1.12487,2.41083 -2.48715,0.62391 -3.77311,1.62725 -5.33323,2.78108 -0.55819,2.86446 1.96075,5.50069 3.45657,7.24664 -0.11306,1.08459 0.7419,1.76926 0.37589,2.59666 0.51792,0.90159 1.42516,1.17503 2.33241,1.44918 0.22469,1.86748 0.42818,3.69751 0.54759,5.62505 0.50026,8.02881 0.8917,16.50771 2.20522,24.87638 0.23529,1.50288 0.67266,2.96055 0.88958,4.4712 0.48188,3.33716 1.22379,6.98308 3.3103,8.5856 0.84577,0.64863 2.63977,0.54335 2.7719,2.343 -0.71718,0.49107 -1.77139,1.52479 -2.32322,2.5366 -0.55113,1.01676 -0.6663,1.80813 -0.30383,3.29264 0.34905,1.42728 1.04008,2.51188 1.8378,2.94642 0.35824,-0.0261 0.48189,-0.19714 0.7843,-0.2579 2.83761,0.0926 6.5768,0.0106 9.96341,-1.02524 0.66136,-0.20208 1.25276,-0.60342 1.87949,-0.82175 1.76785,-0.61401 3.66006,-1.11639 4.47686,-2.50269 -0.18865,-1.36086 -0.28545,-2.98951 -0.94681,-4.38217 -0.56314,-0.18725 -0.68326,-0.7631 -1.1065,-1.12204"
       style="fill:#231615;fill-opacity:1;fill-rule:evenodd;stroke:none;stroke-width:0.0706575"
       id="path16420" />
    <path
       d="m 172.46765,125.12595 c 0.28404,-0.0516 0.53629,-0.12295 0.71082,-0.24165 -0.0799,-0.2791 -0.1286,-0.537 -0.0982,-0.74544 -0.45715,0.17241 -0.47411,0.61684 -0.6126,0.98709"
       style="fill:#ffffff;fill-opacity:1;fill-rule:evenodd;stroke:none;stroke-width:0.0706575"
       id="path16422" />
    <path
       d="m 179.90718,126.76379 c 0.017,0.0721 0.0339,0.14485 0.0509,0.21692 -0.0275,0.86908 0.0749,1.79399 0.0127,2.68286 -0.0579,0.82246 -0.41193,1.75372 -0.23458,2.27941 0.36459,-0.0608 0.41052,-0.56031 0.48471,-0.88039 0.30736,-1.32624 0.61825,-2.93229 0.12224,-4.40055 -0.14556,0.0325 -0.29111,0.0671 -0.43596,0.10175"
       style="fill:#ffffff;fill-opacity:1;fill-rule:evenodd;stroke:none;stroke-width:0.0706575"
       id="path16424" />
    <path
       d="m 170.09851,135.34514 c -0.17806,0.32573 -0.44161,0.71152 -0.10952,1.17574 2.65601,-0.15474 5.68015,-1.1072 7.985,-1.94167 1.05492,-0.38225 2.11902,-0.68043 2.84608,-1.27819 -3.1379,0.88604 -7.69884,2.56557 -10.72156,2.04412"
       style="fill:#ffffff;fill-opacity:1;fill-rule:evenodd;stroke:none;stroke-width:0.0706575"
       id="path16426" />
    <path
       d="m 179.98702,135.64261 c 0.0551,-0.21339 0.24165,-0.34764 0.24448,-0.59423 -0.12083,0.029 -0.24307,0.0579 -0.36318,0.0855 -0.0544,0.077 -0.0473,0.49955 0.1187,0.50874"
       style="fill:#ffffff;fill-opacity:1;fill-rule:evenodd;stroke:none;stroke-width:0.0706575"
       id="path16428" />
    <path
       d="m 179.10168,135.46597 c -0.0975,0.0226 -0.19431,0.0445 -0.29111,0.0678 0.0975,0.5052 -0.003,1.51984 0.2466,1.70708 0.11446,-0.52852 -0.0177,-1.21319 0.0445,-1.77491"
       style="fill:#ffffff;fill-opacity:1;fill-rule:evenodd;stroke:none;stroke-width:0.0706575"
       id="path16430" />
    <path
       d="m 177.55287,136.05807 c 0.12718,0.53559 0.0657,0.95388 0.1936,1.48805 0.22399,-0.0664 0.54548,-0.0749 0.63804,-0.2254 -0.26991,-0.66488 0.21127,-1.8491 -0.83164,-1.26265"
       style="fill:#ffffff;fill-opacity:1;fill-rule:evenodd;stroke:none;stroke-width:0.0706575"
       id="path16432" />
    <path
       d="m 171.33077,137.66483 c 0.42183,0.3547 0.82104,0.74614 1.36299,0.90794 1.05915,-0.2692 2.31261,-0.31866 3.27356,-0.76451 -0.27981,-0.2791 -0.19149,-0.86273 -0.28899,-1.23651 -1.23086,0.46917 -3.20927,0.77158 -4.34756,1.09308"
       style="fill:#ffffff;fill-opacity:1;fill-rule:evenodd;stroke:none;stroke-width:0.0706575"
       id="path16434" />
    <path
       d="m 176.33262,136.41984 c 0.0777,0.4833 0.14696,0.96165 0.17735,1.41598 0.1943,-0.0452 0.38791,-0.0911 0.58151,-0.13637 0.0367,-0.43384 -0.012,-0.91926 -0.10387,-1.43294 -0.21833,0.0516 -0.43737,0.10246 -0.65499,0.15333"
       style="fill:#ffffff;fill-opacity:1;fill-rule:evenodd;stroke:none;stroke-width:0.0706575"
       id="path16436" />
    <path
       d="m 187.58623,157.34082 c -0.0141,-0.0424 -0.0304,-0.0841 -0.0897,-0.0551 1.37287,3.79502 3.1916,7.4042 3.98367,11.80334 0.3865,0.17947 0.36318,1.01605 0.68608,1.29586 0.38226,-0.38085 0.32008,-0.67761 0.18371,-1.192 -1.11497,-4.17161 -3.03191,-8.96078 -4.76373,-11.85208"
       style="fill:#ffffff;fill-opacity:1;fill-rule:evenodd;stroke:none;stroke-width:0.0706575"
       id="path16438" />
    <path
       d="m 192.74282,172.85791 c 0.0749,-0.20279 0.24871,-0.3434 0.51509,-0.42748 -0.12153,-0.61543 -0.14343,-1.43081 -0.56879,-1.78339 -0.57657,0.32714 -0.27981,1.52549 0.0537,2.21087"
       style="fill:#ffffff;fill-opacity:1;fill-rule:evenodd;stroke:none;stroke-width:0.0706575"
       id="path16440" />
    <path
       d="m 191.03079,174.71691 c 0.32573,-0.67054 1.56718,-1.09943 0.95599,-2.14163 -0.30594,0.68043 -1.55658,1.10438 -0.95599,2.14163"
       style="fill:#ffffff;fill-opacity:1;fill-rule:evenodd;stroke:none;stroke-width:0.0706575"
       id="path16442" />
    <path
       d="m 192.84527,173.29457 c 0.0784,0.24094 0.21409,0.39003 0.24448,0.71011 0.47481,-0.1611 0.2261,-0.76946 0.25366,-1.20966 -0.25366,0.11164 -0.2897,0.35824 -0.49814,0.49955"
       style="fill:#ffffff;fill-opacity:1;fill-rule:evenodd;stroke:none;stroke-width:0.0706575"
       id="path16444" />
    <path
       d="m 192.12598,174.15518 c -0.20562,0.67902 -1.50359,1.01182 -0.91714,1.9777 0.32644,-0.37801 0.63168,-0.76875 1.04856,-1.08883 -0.0523,-0.26355 0.11305,-0.71505 -0.13142,-0.88887"
       style="fill:#ffffff;fill-opacity:1;fill-rule:evenodd;stroke:none;stroke-width:0.0706575"
       id="path16446" />
    <path
       d="m 193.33634,174.40813 c -0.1074,0.10316 -0.1293,0.57657 0.0806,0.67196 -0.10245,-0.23459 0.11447,-0.58787 -0.0806,-0.67196"
       style="fill:#ffffff;fill-opacity:1;fill-rule:evenodd;stroke:none;stroke-width:0.0706575"
       id="path16448" />
    <path
       d="m 191.14243,176.83946 c 0.0509,0.21692 0.10174,0.43454 0.15332,0.65429 0.41618,-0.45292 1.54246,-1.10791 0.87898,-1.8159 -0.28192,0.42324 -0.67619,0.77935 -1.0323,1.16161"
       style="fill:#ffffff;fill-opacity:1;fill-rule:evenodd;stroke:none;stroke-width:0.0706575"
       id="path16450" />
    <path
       d="m 189.3343,178.94858 c 0.41264,-0.22822 1.17292,-0.48753 1.05068,-1.08883 -0.0502,0.0106 -0.0968,0.0233 -0.14626,0.0325 -0.70163,0.58433 -1.68236,1.05703 -2.762,1.64278 -0.92562,0.50238 -1.82438,1.13829 -2.66591,1.39054 -1.86324,0.55537 -3.80067,0.54689 -5.67733,0.32715 0.68608,0.95105 2.15223,2.13668 3.82893,1.94449 1.00545,-0.11588 2.63764,-0.38508 2.89696,-1.05986 -1.86112,0.64015 -4.27408,0.81962 -4.90434,-0.3116 1.28031,0.27203 2.81358,-0.0791 4.1695,-0.20703 0.43737,-0.0403 0.99062,0.1611 1.39478,0.0565 0.69527,-0.17665 1.39478,-1.03796 1.96215,-1.45484 0.74261,-0.54194 1.50289,-0.82528 1.96146,-1.45413 -1.5792,0.90936 -3.1909,2.44828 -5.29578,2.61786 1.15949,-0.91078 2.85809,-1.70426 4.18716,-2.43557"
       style="fill:#ffffff;fill-opacity:1;fill-rule:evenodd;stroke:none;stroke-width:0.0706575"
       id="path16452" />
    <path
       d="m 186.68888,182.40374 c 0.53417,-0.12436 1.06693,-0.24801 1.6011,-0.37378 0.49955,-0.61684 1.96781,-1.54034 1.66257,-2.07592 -1.03372,0.85001 -2.19956,1.61735 -3.26367,2.4497"
       style="fill:#ffffff;fill-opacity:1;fill-rule:evenodd;stroke:none;stroke-width:0.0706575"
       id="path16454" />
    <path
       d="m 182.08343,185.01453 c 1.3863,0.26143 3.26367,0.0848 4.97005,-0.39286 0.46068,-0.13142 1.12204,-0.0579 1.33118,-0.54265 -2.2356,0.4614 -4.62524,0.63804 -6.42559,0.73414 0.0876,-0.006 0.10669,0.0954 0.12436,0.20137"
       style="fill:#ffffff;fill-opacity:1;fill-rule:evenodd;stroke:none;stroke-width:0.0706575"
       id="path16456" />
    <path
       d="m 188.91106,184.03239 c 0.0685,0.15615 0.3653,-0.0537 0.52569,-0.0459 0.0537,-0.29534 -0.63379,-0.20914 -0.52569,0.0459"
       style="fill:#ffffff;fill-opacity:1;fill-rule:evenodd;stroke:none;stroke-width:0.0706575"
       id="path16458" />
    <path
       d="m 192.2461,185.1721 c 0.25719,0.18512 0.43737,0.49389 0.63945,0.77158 0.22045,-0.0926 0.37519,-0.22328 0.53134,-0.3547 -0.15191,-0.32291 -0.36035,-0.55467 -0.51227,-0.87757 -0.2692,0.12153 -0.57515,0.22186 -0.65852,0.46069"
       style="fill:#ffffff;fill-opacity:1;fill-rule:evenodd;stroke:none;stroke-width:0.0706575"
       id="path16460" />
    <path
       d="m 187.48095,189.73586 c -0.73201,0.077 -0.6988,-1.75372 0.0233,-1.53892 0.11729,0.5907 0.22964,1.17716 -0.0233,1.53892 z m 1.83286,-1.34814 c -0.0162,0.50803 0.20137,1.16019 -0.38226,1.31635 -0.20844,-0.33139 -0.36883,-0.7412 -0.4515,-1.27396 -0.0869,-0.22893 -0.48824,0.0516 -0.46492,-0.35187 0.62673,-0.19148 0.31583,-0.96448 0.86979,-1.20047 0.32785,0.0565 0.23176,0.80337 0.36671,0.91219 0.88181,-0.11588 1.38983,-0.46493 1.96923,-0.76734 -0.35047,-0.50521 -0.83235,-0.79914 -1.15808,-1.33967 -2.50693,0.60695 -5.49079,1.31352 -7.76102,1.58131 -0.0219,0.003 -0.0516,0.008 -0.0728,0.017 -0.78076,0.29252 -1.27042,1.11215 -1.90563,1.36581 0.83164,0.0664 1.94026,0.22469 3.07925,0.0481 1.09237,-0.16958 2.37692,-0.75462 3.11883,-0.11447 0.0254,0.24448 -0.30312,0.26638 -0.44091,0.40982 -0.0721,0.43242 0.20279,1.07964 -0.32855,1.2259 -0.4621,-0.0523 -0.29111,-0.73554 -0.32715,-1.07258 -0.2904,0.0664 -0.58151,0.13567 -0.87191,0.20279 0.0643,0.47623 0.20349,0.99627 -0.27203,1.13759 -0.35894,0.0106 -0.33209,-0.59918 -0.45716,-0.9673 -1.17291,0.49106 -2.43203,0.69244 -3.70881,0.86626 0.0742,0.31584 0.14697,0.63097 0.22045,0.94539 0.56173,-0.036 1.07046,0.0113 1.61311,0.007 1.10933,-0.60483 2.72668,-0.24872 4.30304,-0.62108 2.27164,-0.53982 4.39419,-1.38135 6.33869,-2.09499 -0.21833,-0.18089 -0.3441,-0.51227 -0.54972,-0.71365 -0.96023,0.33704 -1.89432,0.65429 -2.72667,0.48189"
       style="fill:#ffffff;fill-opacity:1;fill-rule:evenodd;stroke:none;stroke-width:0.0706575"
       id="path16462" />
    <path
       d="m 190.58918,185.6342 c 0.38225,0.35187 0.68396,0.83658 1.16161,1.03372 0.36035,-0.0671 0.40557,-0.32856 0.75109,-0.40558 -0.15898,-0.38084 -0.43525,-0.56879 -0.54689,-1.02241 -0.52146,0.0897 -0.81115,0.32573 -1.36581,0.39427"
       style="fill:#ffffff;fill-opacity:1;fill-rule:evenodd;stroke:none;stroke-width:0.0706575"
       id="path16464" />
    <path
       d="m 194.76221,186.42556 c 0.16816,0.4303 0.39992,0.75604 0.52428,1.25841 0.40698,-0.25578 -0.17665,-1.15384 -0.33916,-1.45625 0.004,0.10811 -0.1399,0.12012 -0.18512,0.19784"
       style="fill:#ffffff;fill-opacity:1;fill-rule:evenodd;stroke:none;stroke-width:0.0706575"
       id="path16466" />
    <path
       d="m 193.82953,187.02544 c -0.0417,0.36601 0.33068,0.84577 0.61825,1.00758 0.0827,-0.31301 -0.25436,-0.69315 -0.32855,-1.07541 -0.0968,0.0226 -0.19361,0.0445 -0.2897,0.0678"
       style="fill:#ffffff;fill-opacity:1;fill-rule:evenodd;stroke:none;stroke-width:0.0706575"
       id="path16468" />
    <path
       d="m 192.62341,187.76947 c 0.23599,0.15332 0.37943,0.45503 0.54901,0.71364 0.16533,-0.0622 0.24659,-0.17806 0.49107,-0.19078 -0.0883,-0.35894 -0.3328,-0.46351 -0.42112,-0.82245 -0.28122,0.0537 -0.52852,0.12859 -0.61896,0.29959"
       style="fill:#ffffff;fill-opacity:1;fill-rule:evenodd;stroke:none;stroke-width:0.0706575"
       id="path16470" />
    <path
       d="m 194.21179,189.31616 c -0.26779,-0.001 -0.25578,0.17311 -0.49461,0.19077 0.0693,0.29111 0.13708,0.58222 0.2042,0.87333 0.32079,-0.0714 0.66419,-0.12648 0.76593,-0.33209 -0.26638,-0.0721 -0.3653,-0.41052 -0.47552,-0.73201"
       style="fill:#ffffff;fill-opacity:1;fill-rule:evenodd;stroke:none;stroke-width:0.0706575"
       id="path16472" />
    <path
       d="m 189.92076,191.31435 c -1.01394,0.33139 -2.38893,0.57021 -3.72718,0.79419 -2.13033,0.35541 -4.10026,1.01394 -5.33323,0.47694 0.34127,0.73272 2.16,0.49672 3.22057,0.32432 1.37287,-0.22752 3.13224,-0.73131 4.79976,-1.12204 1.73323,-0.40416 3.50532,-0.63733 4.44365,-1.34532 -0.0276,-0.25649 -0.12436,-0.39992 -0.20985,-0.56455 -0.99769,0.0664 -1.91835,1.01888 -3.19372,1.43646"
       style="fill:#ffffff;fill-opacity:1;fill-rule:evenodd;stroke:none;stroke-width:0.0706575"
       id="path16474" />
    <path
       d="m 178.44245,125.41706 c -3.4601,-0.43596 -7.79776,1.68659 -11.3483,2.65107 -0.97507,2.51258 1.21955,5.02728 2.69417,6.27509 1.06693,0.0827 2.46524,-0.3646 3.75968,-0.64864 0.002,-0.95105 2.05896,-0.53841 3.13366,-1.03796 -0.32926,-1.86323 -0.2579,-3.47776 -0.55183,-5.31697 -2.07592,0.25931 -4.3525,0.75462 -6.36271,1.33118 -0.73908,0.21268 -1.77915,0.49461 -2.41224,0.17947 3.38732,-1.40325 7.51159,-2.93228 11.51929,-3.22622 0.0911,-0.14061 -0.3109,-0.19219 -0.43172,-0.20702"
       style="fill:#ffffff;fill-opacity:1;fill-rule:evenodd;stroke:none;stroke-width:0.0706575"
       id="path16476" />
    <path
       d="m 176.87315,127.24143 c 0.0332,0.56738 0.22186,0.33139 0.37165,0.60412 0.44585,1.25912 0.31796,3.44173 0.65712,4.44931 -0.23812,-1.82579 -0.0219,-3.37107 -0.301,-5.223 -0.30242,0.1512 -0.59494,-0.0127 -0.72777,0.16957"
       style="fill:#ffffff;fill-opacity:1;fill-rule:evenodd;stroke:none;stroke-width:0.0706575"
       id="path16478" />
    <path
       d="m 178.12732,127.02593 c 0.56172,1.43293 0.23458,3.16757 0.58292,4.46555 -0.0579,-1.52761 0.006,-2.98033 -0.0558,-4.51219 -0.23953,0.1173 -0.30595,-0.0431 -0.5271,0.0466"
       style="fill:#ffffff;fill-opacity:1;fill-rule:evenodd;stroke:none;stroke-width:0.0706575"
       id="path16480" />
    <path
       d="m 185.98372,159.01893 c -2.26457,-4.71003 -4.64643,-9.56349 -6.37825,-15.15532 1.69437,3.17958 2.98881,6.59234 4.4493,9.85389 1.46473,3.27003 3.28416,6.28852 4.37723,9.86944 -1.08317,-1.31211 -1.69578,-3.00294 -2.44828,-4.56801 z m 2.53943,13.82838 c -0.52569,0.51015 -1.82437,1.1496 -2.62351,0.92067 0.301,-0.57586 1.924,-1.57637 2.62351,-0.92067 z m 1.09731,4.03949 c -0.14767,0.83022 -1.28243,1.19623 -2.14657,1.65126 -1.16585,0.61472 -2.30061,1.35522 -3.57386,1.44778 0.69245,-0.72566 1.74454,-1.20189 2.74505,-1.71345 0.97507,-0.49884 1.92753,-1.1927 2.97538,-1.38559 z M 184.95,176.59781 c -0.11164,-0.52145 0.75604,-0.78783 1.30151,-0.99627 0.63098,-0.24024 1.54458,-0.53912 1.9982,-0.3116 -0.301,1.01252 -2.38893,0.97578 -3.29971,1.30787 z m 3.35341,-0.0933 c -0.18089,0.61684 -1.05421,0.74473 -1.68236,1.00687 -0.97154,0.40063 -1.9452,0.85142 -3.17252,1.20118 0.60412,-0.94045 3.45869,-1.94732 4.85488,-2.20805 z m 2.71466,-4.47191 c 0.68467,-0.70658 0.8599,-1.40185 0.44019,-2.71042 -0.41405,-1.28879 -1.1291,-2.58324 -1.60604,-3.91725 -1.47957,-4.15113 -2.9118,-8.22383 -4.53833,-12.21244 -0.67831,-1.65975 -1.77986,-3.1916 -2.51682,-4.85912 -0.81256,-1.84063 -1.5043,-3.63321 -2.30909,-5.28942 0.13637,-0.89806 -0.9892,-2.35007 -0.72636,-3.43607 2.05472,3.55901 2.80864,7.49888 4.67541,10.48981 0.42465,0.68114 -0.32997,-0.99415 -0.45221,-1.27396 -1.45413,-3.36471 -2.61079,-7.38441 -4.00204,-10.57248 -1.91552,0.77936 -4.59768,2.24409 -6.76899,1.88938 1.03231,8.43439 2.73162,17.28495 2.34937,24.84035 -1.06057,-5.52965 -1.11286,-10.76396 -1.96358,-15.95729 0.91643,8.45559 0.55396,17.94559 3.04534,26.82795 0.53771,1.91976 0.903,3.42335 2.02787,4.74323 0.84224,0.19573 1.76432,0.17241 2.71608,0.13213 0.86131,-0.0374 2.19744,0.0346 2.88211,-0.13495 0.44161,-0.11164 0.96377,-0.54265 1.42587,-0.79349 1.53186,-0.83658 3.06089,-1.66893 4.49594,-2.43061 0.16958,-0.46776 0.14909,-1.20895 -0.28404,-1.54528 0.20702,-0.24448 0.32573,-0.54407 0.14202,-1.02948 -0.25154,-0.16463 -0.52287,0.15827 -0.63239,-0.0834 1.05987,-0.61896 0.24589,-2.25609 -0.0325,-3.75191 -0.17594,-0.9454 -0.38791,-1.84487 -0.64652,-2.76412 -0.32007,-1.14112 -0.73766,-2.38469 -0.45503,-3.26791 1.2683,1.99113 1.89079,5.45617 2.46171,8.24573 0.33703,-0.2897 1.1072,-0.84507 1.1828,-1.50289 -0.46492,-0.0127 -0.53699,0.71576 -0.91077,0.36389"
       style="fill:#ffffff;fill-opacity:1;fill-rule:evenodd;stroke:none;stroke-width:0.0706575"
       id="path16482" />
    <path
       d="m 192.40366,177.31145 c -0.41405,0.26073 -0.6239,0.64722 -1.10155,0.86979 0.0664,0.70517 -0.0205,1.31353 0.006,1.99396 0.38226,-0.36459 0.83659,-1.01464 0.81822,-1.4188 -0.0756,0.14484 -0.42324,0.50944 -0.50732,0.1187 0.37378,-0.4515 0.89805,-0.81115 0.785,-1.56365"
       style="fill:#ffffff;fill-opacity:1;fill-rule:evenodd;stroke:none;stroke-width:0.0706575"
       id="path16484" />
    <path
       d="m 194.99538,190.0517 c -0.0113,-0.10881 0.1611,-0.1074 0.27486,-0.14061 -0.14132,-0.33915 -0.19784,-0.81821 -0.45574,-0.9673 0.16321,0.39498 0.14202,0.99769 0.18088,1.10791"
       style="fill:#ffffff;fill-opacity:1;fill-rule:evenodd;stroke:none;stroke-width:0.0706575"
       id="path16486" />
  </g>
</svg>
